<?xml version="1.0" encoding="UTF-8" standalone="no"?>
<!DOCTYPE svg PUBLIC "-//W3C//DTD SVG 1.1//EN"
 "http://www.w3.org/Graphics/SVG/1.1/DTD/svg11.dtd">
<!-- Generated by graphviz version 12.2.1 (20241206.2353)
 -->
<!-- Title: ClientInterface/main.cpp Pages: 1 -->
<svg width="229pt" height="196pt"
 viewBox="0.00 0.00 229.00 196.00" xmlns="http://www.w3.org/2000/svg" xmlns:xlink="http://www.w3.org/1999/xlink">
<g id="graph0" class="graph" transform="scale(1 1) rotate(0) translate(4 192)">
<title>ClientInterface/main.cpp</title>
<!-- Node1 -->
<g id="Node000001" class="node">
<title>Node1</title>
<g id="a_Node000001"><a xlink:title="Основной файл запуска клиента.">
<polygon fill="#999999" stroke="#666666" points="180.12,-188 57.62,-188 57.62,-168 180.12,-168 180.12,-188"/>
<text text-anchor="middle" x="118.88" y="-174.5" font-family="Arial" font-size="10.00">ClientInterface/main.cpp</text>
</a>
</g>
</g>
<!-- Node2 -->
<g id="Node000002" class="node">
<title>Node2</title>
<g id="a_Node000002"><a xlink:href="formsmanager_8h.html" target="_top" xlink:title="Описание класса FormsManager, который управляет отображением форм авторизации/регистрации и главного ...">
<polygon fill="white" stroke="#666666" points="114.12,-132 27.62,-132 27.62,-112 114.12,-112 114.12,-132"/>
<text text-anchor="middle" x="70.88" y="-118.5" font-family="Arial" font-size="10.00">formsmanager.h</text>
</a>
</g>
</g>
<!-- Node1&#45;&gt;Node2 -->
<g id="edge1_Node000001_Node000002" class="edge">
<title>Node1&#45;&gt;Node2</title>
<g id="a_edge1_Node000001_Node000002"><a xlink:title=" ">
<path fill="none" stroke="#63b8ff" d="M110.51,-167.59C103.98,-160.24 94.69,-149.8 86.76,-140.87"/>
<polygon fill="#63b8ff" stroke="#63b8ff" points="89.41,-138.58 80.15,-133.43 84.17,-143.23 89.41,-138.58"/>
</a>
</g>
</g>
<!-- Node8 -->
<g id="Node000008" class="node">
<title>Node8</title>
<g id="a_Node000008"><a xlink:title=" ">
<polygon fill="#e0e0e0" stroke="#999999" points="203.62,-132 132.12,-132 132.12,-112 203.62,-112 203.62,-132"/>
<text text-anchor="middle" x="167.88" y="-118.5" font-family="Arial" font-size="10.00">QApplication</text>
</a>
</g>
</g>
<!-- Node1&#45;&gt;Node8 -->
<g id="edge8_Node000001_Node000008" class="edge">
<title>Node1&#45;&gt;Node8</title>
<g id="a_edge8_Node000001_Node000008"><a xlink:title=" ">
<path fill="none" stroke="#63b8ff" d="M127.41,-167.59C134.16,-160.16 143.76,-149.58 151.92,-140.58"/>
<polygon fill="#63b8ff" stroke="#63b8ff" points="154.29,-143.18 158.42,-133.42 149.11,-138.47 154.29,-143.18"/>
</a>
</g>
</g>
<!-- Node3 -->
<g id="Node000003" class="node">
<title>Node3</title>
<g id="a_Node000003"><a xlink:title=" ">
<polygon fill="#e0e0e0" stroke="#999999" points="79.75,-20 0,-20 0,0 79.75,0 79.75,-20"/>
<text text-anchor="middle" x="39.88" y="-6.5" font-family="Arial" font-size="10.00">QMainWindow</text>
</a>
</g>
</g>
<!-- Node2&#45;&gt;Node3 -->
<g id="edge2_Node000002_Node000003" class="edge">
<title>Node2&#45;&gt;Node3</title>
<g id="a_edge2_Node000002_Node000003"><a xlink:title=" ">
<path fill="none" stroke="#63b8ff" d="M55.58,-111.69C44.18,-103.79 29.5,-91.3 22.88,-76 16.43,-61.12 22,-43.22 28.44,-29.98"/>
<polygon fill="#63b8ff" stroke="#63b8ff" points="31.37,-31.91 33.08,-21.45 25.23,-28.56 31.37,-31.91"/>
</a>
</g>
</g>
<!-- Node4 -->
<g id="Node000004" class="node">
<title>Node4</title>
<g id="a_Node000004"><a xlink:href="authregform_8h.html" target="_top" xlink:title="Заголовочный файл форм авторизации и регистрации.">
<polygon fill="white" stroke="#666666" points="203.88,-76 127.88,-76 127.88,-56 203.88,-56 203.88,-76"/>
<text text-anchor="middle" x="165.88" y="-62.5" font-family="Arial" font-size="10.00">authregform.h</text>
</a>
</g>
</g>
<!-- Node2&#45;&gt;Node4 -->
<g id="edge3_Node000002_Node000004" class="edge">
<title>Node2&#45;&gt;Node4</title>
<g id="a_edge3_Node000002_Node000004"><a xlink:title=" ">
<path fill="none" stroke="#63b8ff" d="M87.42,-111.59C101.77,-103.44 122.8,-91.48 139.48,-82"/>
<polygon fill="#63b8ff" stroke="#63b8ff" points="140.92,-85.21 147.88,-77.23 137.46,-79.13 140.92,-85.21"/>
</a>
</g>
</g>
<!-- Node7 -->
<g id="Node000007" class="node">
<title>Node7</title>
<g id="a_Node000007"><a xlink:href="mainwindow_8h.html" target="_top" xlink:title="Описание основного окна приложения (класс MainWindow).">
<polygon fill="white" stroke="#666666" points="109.62,-76 32.12,-76 32.12,-56 109.62,-56 109.62,-76"/>
<text text-anchor="middle" x="70.88" y="-62.5" font-family="Arial" font-size="10.00">mainwindow.h</text>
</a>
</g>
</g>
<!-- Node2&#45;&gt;Node7 -->
<g id="edge6_Node000002_Node000007" class="edge">
<title>Node2&#45;&gt;Node7</title>
<g id="a_edge6_Node000002_Node000007"><a xlink:title=" ">
<path fill="none" stroke="#63b8ff" d="M70.88,-111.59C70.88,-105.01 70.88,-95.96 70.88,-87.73"/>
<polygon fill="#63b8ff" stroke="#63b8ff" points="74.38,-87.81 70.88,-77.81 67.38,-87.81 74.38,-87.81"/>
</a>
</g>
</g>
<!-- Node5 -->
<g id="Node000005" class="node">
<title>Node5</title>
<g id="a_Node000005"><a xlink:title=" ">
<polygon fill="#e0e0e0" stroke="#999999" points="154.5,-20 103.25,-20 103.25,0 154.5,0 154.5,-20"/>
<text text-anchor="middle" x="128.88" y="-6.5" font-family="Arial" font-size="10.00">QDialog</text>
</a>
</g>
</g>
<!-- Node4&#45;&gt;Node5 -->
<g id="edge4_Node000004_Node000005" class="edge">
<title>Node4&#45;&gt;Node5</title>
<g id="a_edge4_Node000004_Node000005"><a xlink:title=" ">
<path fill="none" stroke="#63b8ff" d="M159.43,-55.59C154.55,-48.47 147.68,-38.45 141.7,-29.72"/>
<polygon fill="#63b8ff" stroke="#63b8ff" points="144.64,-27.82 136.1,-21.55 138.87,-31.77 144.64,-27.82"/>
</a>
</g>
</g>
<!-- Node6 -->
<g id="Node000006" class="node">
<title>Node6</title>
<g id="a_Node000006"><a xlink:title=" ">
<polygon fill="#e0e0e0" stroke="#999999" points="221,-20 172.75,-20 172.75,0 221,0 221,-20"/>
<text text-anchor="middle" x="196.88" y="-6.5" font-family="Arial" font-size="10.00">QTimer</text>
</a>
</g>
</g>
<!-- Node4&#45;&gt;Node6 -->
<g id="edge5_Node000004_Node000006" class="edge">
<title>Node4&#45;&gt;Node6</title>
<g id="a_edge5_Node000004_Node000006"><a xlink:title=" ">
<path fill="none" stroke="#63b8ff" d="M171.27,-55.59C175.32,-48.55 180.99,-38.67 185.97,-30"/>
<polygon fill="#63b8ff" stroke="#63b8ff" points="188.84,-32.03 190.78,-21.61 182.77,-28.54 188.84,-32.03"/>
</a>
</g>
</g>
<!-- Node7&#45;&gt;Node3 -->
<g id="edge7_Node000007_Node000003" class="edge">
<title>Node7&#45;&gt;Node3</title>
<g id="a_edge7_Node000007_Node000003"><a xlink:title=" ">
<path fill="none" stroke="#63b8ff" d="M65.48,-55.59C61.43,-48.55 55.76,-38.67 50.78,-30"/>
<polygon fill="#63b8ff" stroke="#63b8ff" points="53.98,-28.54 45.97,-21.61 47.91,-32.03 53.98,-28.54"/>
</a>
</g>
</g>
</g>
</svg>
