<?xml version="1.0" encoding="UTF-8" standalone="no"?>
<!DOCTYPE svg PUBLIC "-//W3C//DTD SVG 1.1//EN"
 "http://www.w3.org/Graphics/SVG/1.1/DTD/svg11.dtd">
<!-- Generated by graphviz version 12.2.1 (20241206.2353)
 -->
<!-- Title: Server/main.cpp Pages: 1 -->
<svg width="1041pt" height="196pt"
 viewBox="0.00 0.00 1041.00 196.00" xmlns="http://www.w3.org/2000/svg" xmlns:xlink="http://www.w3.org/1999/xlink">
<g id="graph0" class="graph" transform="scale(1 1) rotate(0) translate(4 192)">
<title>Server/main.cpp</title>
<!-- Node1 -->
<g id="Node000001" class="node">
<title>Node1</title>
<g id="a_Node000001"><a xlink:title="Основной файл запуска сервера.">
<polygon fill="#999999" stroke="#666666" points="738.88,-188 651.62,-188 651.62,-168 738.88,-168 738.88,-188"/>
<text text-anchor="middle" x="695.25" y="-174.5" font-family="Arial" font-size="10.00">Server/main.cpp</text>
</a>
</g>
</g>
<!-- Node2 -->
<g id="Node000002" class="node">
<title>Node2</title>
<g id="a_Node000002"><a xlink:title=" ">
<polygon fill="#e0e0e0" stroke="#999999" points="554.5,-132 462,-132 462,-112 554.5,-112 554.5,-132"/>
<text text-anchor="middle" x="508.25" y="-118.5" font-family="Arial" font-size="10.00">QCoreApplication</text>
</a>
</g>
</g>
<!-- Node1&#45;&gt;Node2 -->
<g id="edge1_Node000001_Node000002" class="edge">
<title>Node1&#45;&gt;Node2</title>
<g id="a_edge1_Node000001_Node000002"><a xlink:title=" ">
<path fill="none" stroke="#63b8ff" d="M662.68,-167.59C632.03,-158.74 585.91,-145.43 552.05,-135.65"/>
<polygon fill="#63b8ff" stroke="#63b8ff" points="553.11,-132.31 542.53,-132.9 551.17,-139.04 553.11,-132.31"/>
</a>
</g>
</g>
<!-- Node3 -->
<g id="Node000003" class="node">
<title>Node3</title>
<g id="a_Node000003"><a xlink:href="mytcpserver_8h.html" target="_top" xlink:title="Заголовочный файл для класса MyTcpServer, реализующего TCP&#45;сервер для регистрации и авторизации польз...">
<polygon fill="white" stroke="#666666" points="650.38,-132 572.12,-132 572.12,-112 650.38,-112 650.38,-132"/>
<text text-anchor="middle" x="611.25" y="-118.5" font-family="Arial" font-size="10.00">mytcpserver.h</text>
</a>
</g>
</g>
<!-- Node1&#45;&gt;Node3 -->
<g id="edge2_Node000001_Node000003" class="edge">
<title>Node1&#45;&gt;Node3</title>
<g id="a_edge2_Node000001_Node000003"><a xlink:title=" ">
<path fill="none" stroke="#63b8ff" d="M680.62,-167.59C668.17,-159.59 650.03,-147.93 635.43,-138.54"/>
<polygon fill="#63b8ff" stroke="#63b8ff" points="637.57,-135.76 627.27,-133.3 633.79,-141.65 637.57,-135.76"/>
</a>
</g>
</g>
<!-- Node9 -->
<g id="Node000009" class="node">
<title>Node9</title>
<g id="a_Node000009"><a xlink:title=" ">
<polygon fill="#e0e0e0" stroke="#999999" points="907.25,-76 855.25,-76 855.25,-56 907.25,-56 907.25,-76"/>
<text text-anchor="middle" x="881.25" y="-62.5" font-family="Arial" font-size="10.00">QDebug</text>
</a>
</g>
</g>
<!-- Node1&#45;&gt;Node9 -->
<g id="edge16_Node000001_Node000009" class="edge">
<title>Node1&#45;&gt;Node9</title>
<g id="a_edge16_Node000001_Node000009"><a xlink:title=" ">
<path fill="none" stroke="#63b8ff" d="M711.11,-167.62C743.37,-148.54 816.86,-105.08 855.86,-82.02"/>
<polygon fill="#63b8ff" stroke="#63b8ff" points="857.3,-85.23 864.13,-77.13 853.74,-79.2 857.3,-85.23"/>
</a>
</g>
</g>
<!-- Node10 -->
<g id="Node000010" class="node">
<title>Node10</title>
<g id="a_Node000010"><a xlink:title=" ">
<polygon fill="#e0e0e0" stroke="#999999" points="1033,-76 925.5,-76 925.5,-56 1033,-56 1033,-76"/>
<text text-anchor="middle" x="979.25" y="-62.5" font-family="Arial" font-size="10.00">QtSql/QSqlDatabase</text>
</a>
</g>
</g>
<!-- Node1&#45;&gt;Node10 -->
<g id="edge15_Node000001_Node000010" class="edge">
<title>Node1&#45;&gt;Node10</title>
<g id="a_edge15_Node000001_Node000010"><a xlink:title=" ">
<path fill="none" stroke="#63b8ff" d="M719.46,-167.62C769.87,-148.1 886.23,-103.03 944.57,-80.43"/>
<polygon fill="#63b8ff" stroke="#63b8ff" points="945.63,-83.78 953.69,-76.9 943.1,-77.25 945.63,-83.78"/>
</a>
</g>
</g>
<!-- Node4 -->
<g id="Node000004" class="node">
<title>Node4</title>
<g id="a_Node000004"><a xlink:title=" ">
<polygon fill="#e0e0e0" stroke="#999999" points="387.25,-76 335.25,-76 335.25,-56 387.25,-56 387.25,-76"/>
<text text-anchor="middle" x="361.25" y="-62.5" font-family="Arial" font-size="10.00">QObject</text>
</a>
</g>
</g>
<!-- Node3&#45;&gt;Node4 -->
<g id="edge3_Node000003_Node000004" class="edge">
<title>Node3&#45;&gt;Node4</title>
<g id="a_edge3_Node000003_Node000004"><a xlink:title=" ">
<path fill="none" stroke="#63b8ff" d="M571.9,-113.32C530.98,-105.21 464.79,-91.76 398.64,-76.48"/>
<polygon fill="#63b8ff" stroke="#63b8ff" points="399.6,-73.11 389.07,-74.25 398.01,-79.93 399.6,-73.11"/>
</a>
</g>
</g>
<!-- Node5 -->
<g id="Node000005" class="node">
<title>Node5</title>
<g id="a_Node000005"><a xlink:title=" ">
<polygon fill="#e0e0e0" stroke="#999999" points="473.12,-76 405.38,-76 405.38,-56 473.12,-56 473.12,-76"/>
<text text-anchor="middle" x="439.25" y="-62.5" font-family="Arial" font-size="10.00">QTcpServer</text>
</a>
</g>
</g>
<!-- Node3&#45;&gt;Node5 -->
<g id="edge4_Node000003_Node000005" class="edge">
<title>Node3&#45;&gt;Node5</title>
<g id="a_edge4_Node000003_Node000005"><a xlink:title=" ">
<path fill="none" stroke="#63b8ff" d="M581.29,-111.59C553.34,-102.82 511.42,-89.66 480.35,-79.9"/>
<polygon fill="#63b8ff" stroke="#63b8ff" points="481.48,-76.59 470.89,-76.93 479.38,-83.27 481.48,-76.59"/>
</a>
</g>
</g>
<!-- Node6 -->
<g id="Node000006" class="node">
<title>Node6</title>
<g id="a_Node000006"><a xlink:title=" ">
<polygon fill="#e0e0e0" stroke="#999999" points="561.25,-76 491.25,-76 491.25,-56 561.25,-56 561.25,-76"/>
<text text-anchor="middle" x="526.25" y="-62.5" font-family="Arial" font-size="10.00">QTcpSocket</text>
</a>
</g>
</g>
<!-- Node3&#45;&gt;Node6 -->
<g id="edge5_Node000003_Node000006" class="edge">
<title>Node3&#45;&gt;Node6</title>
<g id="a_edge5_Node000003_Node000006"><a xlink:title=" ">
<path fill="none" stroke="#63b8ff" d="M596.44,-111.59C583.85,-103.59 565.5,-91.93 550.72,-82.54"/>
<polygon fill="#63b8ff" stroke="#63b8ff" points="552.77,-79.7 542.45,-77.29 549.01,-85.61 552.77,-79.7"/>
</a>
</g>
</g>
<!-- Node7 -->
<g id="Node000007" class="node">
<title>Node7</title>
<g id="a_Node000007"><a xlink:title=" ">
<polygon fill="#e0e0e0" stroke="#999999" points="642.88,-76 579.62,-76 579.62,-56 642.88,-56 642.88,-76"/>
<text text-anchor="middle" x="611.25" y="-62.5" font-family="Arial" font-size="10.00">QtNetwork</text>
</a>
</g>
</g>
<!-- Node3&#45;&gt;Node7 -->
<g id="edge6_Node000003_Node000007" class="edge">
<title>Node3&#45;&gt;Node7</title>
<g id="a_edge6_Node000003_Node000007"><a xlink:title=" ">
<path fill="none" stroke="#63b8ff" d="M611.25,-111.59C611.25,-105.01 611.25,-95.96 611.25,-87.73"/>
<polygon fill="#63b8ff" stroke="#63b8ff" points="614.75,-87.81 611.25,-77.81 607.75,-87.81 614.75,-87.81"/>
</a>
</g>
</g>
<!-- Node8 -->
<g id="Node000008" class="node">
<title>Node8</title>
<g id="a_Node000008"><a xlink:title=" ">
<polygon fill="#e0e0e0" stroke="#999999" points="727.75,-76 660.75,-76 660.75,-56 727.75,-56 727.75,-76"/>
<text text-anchor="middle" x="694.25" y="-62.5" font-family="Arial" font-size="10.00">QByteArray</text>
</a>
</g>
</g>
<!-- Node3&#45;&gt;Node8 -->
<g id="edge7_Node000003_Node000008" class="edge">
<title>Node3&#45;&gt;Node8</title>
<g id="a_edge7_Node000003_Node000008"><a xlink:title=" ">
<path fill="none" stroke="#63b8ff" d="M625.71,-111.59C638.01,-103.59 655.93,-91.93 670.36,-82.54"/>
<polygon fill="#63b8ff" stroke="#63b8ff" points="671.94,-85.69 678.41,-77.3 668.12,-79.82 671.94,-85.69"/>
</a>
</g>
</g>
<!-- Node3&#45;&gt;Node9 -->
<g id="edge8_Node000003_Node000009" class="edge">
<title>Node3&#45;&gt;Node9</title>
<g id="a_edge8_Node000003_Node000009"><a xlink:title=" ">
<path fill="none" stroke="#63b8ff" d="M650.49,-114.26C695.08,-106.43 770.28,-92.71 844.05,-76.39"/>
<polygon fill="#63b8ff" stroke="#63b8ff" points="844.45,-79.88 853.44,-74.29 842.92,-73.05 844.45,-79.88"/>
</a>
</g>
</g>
<!-- Node3&#45;&gt;Node10 -->
<g id="edge9_Node000003_Node000010" class="edge">
<title>Node3&#45;&gt;Node10</title>
<g id="a_edge9_Node000003_Node000010"><a xlink:title=" ">
<path fill="none" stroke="#63b8ff" d="M650.63,-115.22C713.51,-105.99 837.24,-87.84 913.64,-76.63"/>
<polygon fill="#63b8ff" stroke="#63b8ff" points="914.13,-80.09 923.52,-75.18 913.12,-73.17 914.13,-80.09"/>
</a>
</g>
</g>
<!-- Node11 -->
<g id="Node000011" class="node">
<title>Node11</title>
<g id="a_Node000011"><a xlink:title=" ">
<polygon fill="#e0e0e0" stroke="#999999" points="837.12,-76 745.38,-76 745.38,-56 837.12,-56 837.12,-76"/>
<text text-anchor="middle" x="791.25" y="-62.5" font-family="Arial" font-size="10.00">QtSql/QSqlQuery</text>
</a>
</g>
</g>
<!-- Node3&#45;&gt;Node11 -->
<g id="edge10_Node000003_Node000011" class="edge">
<title>Node3&#45;&gt;Node11</title>
<g id="a_edge10_Node000003_Node000011"><a xlink:title=" ">
<path fill="none" stroke="#63b8ff" d="M642.6,-111.59C671.98,-102.78 716.11,-89.54 748.66,-79.78"/>
<polygon fill="#63b8ff" stroke="#63b8ff" points="749.63,-83.14 758.2,-76.91 747.62,-76.44 749.63,-83.14"/>
</a>
</g>
</g>
<!-- Node12 -->
<g id="Node000012" class="node">
<title>Node12</title>
<g id="a_Node000012"><a xlink:title=" ">
<polygon fill="#e0e0e0" stroke="#999999" points="86.5,-76 0,-76 0,-56 86.5,-56 86.5,-76"/>
<text text-anchor="middle" x="43.25" y="-62.5" font-family="Arial" font-size="10.00">QtSql/QSqlError</text>
</a>
</g>
</g>
<!-- Node3&#45;&gt;Node12 -->
<g id="edge11_Node000003_Node000012" class="edge">
<title>Node3&#45;&gt;Node12</title>
<g id="a_edge11_Node000003_Node000012"><a xlink:title=" ">
<path fill="none" stroke="#63b8ff" d="M571.75,-113.24C568.88,-112.79 566.02,-112.37 563.25,-112 360.06,-85.22 304.21,-101.23 98.11,-76.24"/>
<polygon fill="#63b8ff" stroke="#63b8ff" points="98.75,-72.8 88.4,-75.05 97.9,-79.74 98.75,-72.8"/>
</a>
</g>
</g>
<!-- Node13 -->
<g id="Node000013" class="node">
<title>Node13</title>
<g id="a_Node000013"><a xlink:title=" ">
<polygon fill="#e0e0e0" stroke="#999999" points="212,-76 104.5,-76 104.5,-56 212,-56 212,-76"/>
<text text-anchor="middle" x="158.25" y="-62.5" font-family="Arial" font-size="10.00">QCryptographicHash</text>
</a>
</g>
</g>
<!-- Node3&#45;&gt;Node13 -->
<g id="edge12_Node000003_Node000013" class="edge">
<title>Node3&#45;&gt;Node13</title>
<g id="a_edge12_Node000003_Node000013"><a xlink:title=" ">
<path fill="none" stroke="#63b8ff" d="M571.74,-113.33C568.87,-112.85 566.02,-112.4 563.25,-112 415.13,-90.38 374.25,-94.79 223.39,-76.35"/>
<polygon fill="#63b8ff" stroke="#63b8ff" points="224.19,-72.92 213.84,-75.17 223.33,-79.87 224.19,-72.92"/>
</a>
</g>
</g>
<!-- Node14 -->
<g id="Node000014" class="node">
<title>Node14</title>
<g id="a_Node000014"><a xlink:href="equationsolver_8h.html" target="_top" xlink:title="Решение уравнений итерационными методами">
<polygon fill="white" stroke="#666666" points="316.88,-76 229.62,-76 229.62,-56 316.88,-56 316.88,-76"/>
<text text-anchor="middle" x="273.25" y="-62.5" font-family="Arial" font-size="10.00">equationsolver.h</text>
</a>
</g>
</g>
<!-- Node3&#45;&gt;Node14 -->
<g id="edge13_Node000003_Node000014" class="edge">
<title>Node3&#45;&gt;Node14</title>
<g id="a_edge13_Node000003_Node000014"><a xlink:title=" ">
<path fill="none" stroke="#63b8ff" d="M571.72,-113.48C568.85,-112.96 566.01,-112.47 563.25,-112 461.7,-94.77 433.3,-93.02 328.3,-76.3"/>
<polygon fill="#63b8ff" stroke="#63b8ff" points="329.12,-72.89 318.69,-74.76 328.02,-79.8 329.12,-72.89"/>
</a>
</g>
</g>
<!-- Node15 -->
<g id="Node000015" class="node">
<title>Node15</title>
<g id="a_Node000015"><a xlink:title=" ">
<polygon fill="#e0e0e0" stroke="#999999" points="297.75,-20 248.75,-20 248.75,0 297.75,0 297.75,-20"/>
<text text-anchor="middle" x="273.25" y="-6.5" font-family="Arial" font-size="10.00">QString</text>
</a>
</g>
</g>
<!-- Node14&#45;&gt;Node15 -->
<g id="edge14_Node000014_Node000015" class="edge">
<title>Node14&#45;&gt;Node15</title>
<g id="a_edge14_Node000014_Node000015"><a xlink:title=" ">
<path fill="none" stroke="#63b8ff" d="M273.25,-55.59C273.25,-49.01 273.25,-39.96 273.25,-31.73"/>
<polygon fill="#63b8ff" stroke="#63b8ff" points="276.75,-31.81 273.25,-21.81 269.75,-31.81 276.75,-31.81"/>
</a>
</g>
</g>
</g>
</svg>
