<?xml version="1.0" encoding="UTF-8" standalone="no"?>
<!DOCTYPE svg PUBLIC "-//W3C//DTD SVG 1.1//EN"
 "http://www.w3.org/Graphics/SVG/1.1/DTD/svg11.dtd">
<!-- Generated by graphviz version 12.2.1 (20241206.2353)
 -->
<!-- Title: ClientInterface/authregform.cpp Pages: 1 -->
<svg width="779pt" height="196pt"
 viewBox="0.00 0.00 779.25 196.00" xmlns="http://www.w3.org/2000/svg" xmlns:xlink="http://www.w3.org/1999/xlink">
<g id="graph0" class="graph" transform="scale(1 1) rotate(0) translate(4 192)">
<title>ClientInterface/authregform.cpp</title>
<!-- Node1 -->
<g id="Node000001" class="node">
<title>Node1</title>
<g id="a_Node000001"><a xlink:title="Файл реализации форм авторизации и регистрации.">
<polygon fill="#999999" stroke="#666666" points="390.62,-188 237.38,-188 237.38,-168 390.62,-168 390.62,-188"/>
<text text-anchor="middle" x="314" y="-174.5" font-family="Arial" font-size="10.00">ClientInterface/authregform.cpp</text>
</a>
</g>
</g>
<!-- Node2 -->
<g id="Node000002" class="node">
<title>Node2</title>
<g id="a_Node000002"><a xlink:href="authregform_8h.html" target="_top" xlink:title="Заголовочный файл форм авторизации и регистрации.">
<polygon fill="white" stroke="#666666" points="76,-132 0,-132 0,-112 76,-112 76,-132"/>
<text text-anchor="middle" x="38" y="-118.5" font-family="Arial" font-size="10.00">authregform.h</text>
</a>
</g>
</g>
<!-- Node1&#45;&gt;Node2 -->
<g id="edge1_Node000001_Node000002" class="edge">
<title>Node1&#45;&gt;Node2</title>
<g id="a_edge1_Node000001_Node000002"><a xlink:title=" ">
<path fill="none" stroke="#63b8ff" d="M265.61,-167.53C215.55,-157.74 137.78,-142.52 87.37,-132.66"/>
<polygon fill="#63b8ff" stroke="#63b8ff" points="88.08,-129.23 77.6,-130.75 86.74,-136.1 88.08,-129.23"/>
</a>
</g>
</g>
<!-- Node4 -->
<g id="Node000004" class="node">
<title>Node4</title>
<g id="a_Node000004"><a xlink:title=" ">
<polygon fill="#e0e0e0" stroke="#999999" points="128.12,-76 79.88,-76 79.88,-56 128.12,-56 128.12,-76"/>
<text text-anchor="middle" x="104" y="-62.5" font-family="Arial" font-size="10.00">QTimer</text>
</a>
</g>
</g>
<!-- Node1&#45;&gt;Node4 -->
<g id="edge23_Node000001_Node000004" class="edge">
<title>Node1&#45;&gt;Node4</title>
<g id="a_edge23_Node000001_Node000004"><a xlink:title=" ">
<path fill="none" stroke="#63b8ff" d="M241.04,-167.52C194.62,-160.07 140.12,-148.23 123,-132 110.99,-120.61 106.44,-102.09 104.78,-87.73"/>
<polygon fill="#63b8ff" stroke="#63b8ff" points="108.29,-87.69 104.06,-77.97 101.31,-88.2 108.29,-87.69"/>
</a>
</g>
</g>
<!-- Node5 -->
<g id="Node000005" class="node">
<title>Node5</title>
<g id="a_Node000005"><a xlink:title=" ">
<polygon fill="#e0e0e0" stroke="#999999" points="220.38,-132 131.62,-132 131.62,-112 220.38,-112 220.38,-132"/>
<text text-anchor="middle" x="176" y="-118.5" font-family="Arial" font-size="10.00">ui_authregform.h</text>
</a>
</g>
</g>
<!-- Node1&#45;&gt;Node5 -->
<g id="edge4_Node000001_Node000005" class="edge">
<title>Node1&#45;&gt;Node5</title>
<g id="a_edge4_Node000001_Node000005"><a xlink:title=" ">
<path fill="none" stroke="#63b8ff" d="M289.96,-167.59C268.03,-159.01 235.37,-146.23 210.63,-136.55"/>
<polygon fill="#63b8ff" stroke="#63b8ff" points="212.22,-133.42 201.63,-133.03 209.67,-139.93 212.22,-133.42"/>
</a>
</g>
</g>
<!-- Node6 -->
<g id="Node000006" class="node">
<title>Node6</title>
<g id="a_Node000006"><a xlink:href="funcsforclient_8h.html" target="_top" xlink:title="Заголовочный файл с функциями для авторизации и регистрации клиента.">
<polygon fill="white" stroke="#666666" points="321.38,-132 238.62,-132 238.62,-112 321.38,-112 321.38,-132"/>
<text text-anchor="middle" x="280" y="-118.5" font-family="Arial" font-size="10.00">funcsforclient.h</text>
</a>
</g>
</g>
<!-- Node1&#45;&gt;Node6 -->
<g id="edge5_Node000001_Node000006" class="edge">
<title>Node1&#45;&gt;Node6</title>
<g id="a_edge5_Node000001_Node000006"><a xlink:title=" ">
<path fill="none" stroke="#63b8ff" d="M308.08,-167.59C303.64,-160.55 297.42,-150.67 291.96,-142"/>
<polygon fill="#63b8ff" stroke="#63b8ff" points="294.95,-140.18 286.66,-133.58 289.03,-143.91 294.95,-140.18"/>
</a>
</g>
</g>
<!-- Node9 -->
<g id="Node000009" class="node">
<title>Node9</title>
<g id="a_Node000009"><a xlink:title=" ">
<polygon fill="#e0e0e0" stroke="#999999" points="306,-76 254,-76 254,-56 306,-56 306,-76"/>
<text text-anchor="middle" x="280" y="-62.5" font-family="Arial" font-size="10.00">QDebug</text>
</a>
</g>
</g>
<!-- Node1&#45;&gt;Node9 -->
<g id="edge24_Node000001_Node000009" class="edge">
<title>Node1&#45;&gt;Node9</title>
<g id="a_edge24_Node000001_Node000009"><a xlink:title=" ">
<path fill="none" stroke="#63b8ff" d="M319.89,-167.84C327.39,-154.94 338.42,-130.9 330,-112 324.87,-100.48 315.17,-90.67 305.67,-83.18"/>
<polygon fill="#63b8ff" stroke="#63b8ff" points="307.79,-80.39 297.63,-77.37 303.69,-86.07 307.79,-80.39"/>
</a>
</g>
</g>
<!-- Node10 -->
<g id="Node000010" class="node">
<title>Node10</title>
<g id="a_Node000010"><a xlink:href="clientmanager_8h.html" target="_top" xlink:title="Описание класса ClientManager, который управляет клиентским соединением с сервером.">
<polygon fill="white" stroke="#666666" points="514.5,-76 429.5,-76 429.5,-56 514.5,-56 514.5,-76"/>
<text text-anchor="middle" x="472" y="-62.5" font-family="Arial" font-size="10.00">clientmanager.h</text>
</a>
</g>
</g>
<!-- Node1&#45;&gt;Node10 -->
<g id="edge9_Node000001_Node000010" class="edge">
<title>Node1&#45;&gt;Node10</title>
<g id="a_edge9_Node000001_Node000010"><a xlink:title=" ">
<path fill="none" stroke="#63b8ff" d="M327.47,-167.62C354.52,-148.79 415.72,-106.18 449.15,-82.91"/>
<polygon fill="#63b8ff" stroke="#63b8ff" points="451.11,-85.81 457.32,-77.22 447.11,-80.06 451.11,-85.81"/>
</a>
</g>
</g>
<!-- Node15 -->
<g id="Node000015" class="node">
<title>Node15</title>
<g id="a_Node000015"><a xlink:href="homewindow_8h.html" target="_top" xlink:title="Описание интерфейса главного окна (класс HomeWindow).">
<polygon fill="white" stroke="#666666" points="546.25,-132 465.75,-132 465.75,-112 546.25,-112 546.25,-132"/>
<text text-anchor="middle" x="506" y="-118.5" font-family="Arial" font-size="10.00">homewindow.h</text>
</a>
</g>
</g>
<!-- Node1&#45;&gt;Node15 -->
<g id="edge15_Node000001_Node000015" class="edge">
<title>Node1&#45;&gt;Node15</title>
<g id="a_edge15_Node000001_Node000015"><a xlink:title=" ">
<path fill="none" stroke="#63b8ff" d="M347.44,-167.59C379.05,-158.71 426.68,-145.31 461.48,-135.52"/>
<polygon fill="#63b8ff" stroke="#63b8ff" points="462.16,-138.97 470.84,-132.89 460.26,-132.23 462.16,-138.97"/>
</a>
</g>
</g>
<!-- Node17 -->
<g id="Node000017" class="node">
<title>Node17</title>
<g id="a_Node000017"><a xlink:title=" ">
<polygon fill="#e0e0e0" stroke="#999999" points="771.25,-76 690.75,-76 690.75,-56 771.25,-56 771.25,-76"/>
<text text-anchor="middle" x="731" y="-62.5" font-family="Arial" font-size="10.00">QMessageBox</text>
</a>
</g>
</g>
<!-- Node1&#45;&gt;Node17 -->
<g id="edge22_Node000001_Node000017" class="edge">
<title>Node1&#45;&gt;Node17</title>
<g id="a_edge22_Node000001_Node000017"><a xlink:title=" ">
<path fill="none" stroke="#63b8ff" d="M381.44,-167.54C430.15,-159.95 497.25,-147.93 555,-132 606.28,-117.85 663.77,-95.3 698.67,-80.83"/>
<polygon fill="#63b8ff" stroke="#63b8ff" points="699.9,-84.1 707.77,-77.02 697.19,-77.65 699.9,-84.1"/>
</a>
</g>
</g>
<!-- Node3 -->
<g id="Node000003" class="node">
<title>Node3</title>
<g id="a_Node000003"><a xlink:title=" ">
<polygon fill="#e0e0e0" stroke="#999999" points="61.62,-76 10.38,-76 10.38,-56 61.62,-56 61.62,-76"/>
<text text-anchor="middle" x="36" y="-62.5" font-family="Arial" font-size="10.00">QDialog</text>
</a>
</g>
</g>
<!-- Node2&#45;&gt;Node3 -->
<g id="edge2_Node000002_Node000003" class="edge">
<title>Node2&#45;&gt;Node3</title>
<g id="a_edge2_Node000002_Node000003"><a xlink:title=" ">
<path fill="none" stroke="#63b8ff" d="M37.65,-111.59C37.41,-105.01 37.07,-95.96 36.77,-87.73"/>
<polygon fill="#63b8ff" stroke="#63b8ff" points="40.27,-87.67 36.4,-77.81 33.27,-87.93 40.27,-87.67"/>
</a>
</g>
</g>
<!-- Node2&#45;&gt;Node4 -->
<g id="edge3_Node000002_Node000004" class="edge">
<title>Node2&#45;&gt;Node4</title>
<g id="a_edge3_Node000002_Node000004"><a xlink:title=" ">
<path fill="none" stroke="#63b8ff" d="M49.5,-111.59C58.96,-103.85 72.6,-92.69 83.87,-83.47"/>
<polygon fill="#63b8ff" stroke="#63b8ff" points="85.94,-86.3 91.46,-77.26 81.51,-80.88 85.94,-86.3"/>
</a>
</g>
</g>
<!-- Node7 -->
<g id="Node000007" class="node">
<title>Node7</title>
<g id="a_Node000007"><a xlink:title=" ">
<polygon fill="#e0e0e0" stroke="#999999" points="231.5,-20 182.5,-20 182.5,0 231.5,0 231.5,-20"/>
<text text-anchor="middle" x="207" y="-6.5" font-family="Arial" font-size="10.00">QString</text>
</a>
</g>
</g>
<!-- Node6&#45;&gt;Node7 -->
<g id="edge6_Node000006_Node000007" class="edge">
<title>Node6&#45;&gt;Node7</title>
<g id="a_edge6_Node000006_Node000007"><a xlink:title=" ">
<path fill="none" stroke="#63b8ff" d="M270.03,-111.67C261.14,-103 248.17,-89.45 239,-76 229.25,-61.69 220.73,-43.97 214.94,-30.65"/>
<polygon fill="#63b8ff" stroke="#63b8ff" points="218.27,-29.54 211.18,-21.67 211.81,-32.24 218.27,-29.54"/>
</a>
</g>
</g>
<!-- Node8 -->
<g id="Node000008" class="node">
<title>Node8</title>
<g id="a_Node000008"><a xlink:title=" ">
<polygon fill="#e0e0e0" stroke="#999999" points="312,-20 260,-20 260,0 312,0 312,-20"/>
<text text-anchor="middle" x="286" y="-6.5" font-family="Arial" font-size="10.00">QObject</text>
</a>
</g>
</g>
<!-- Node6&#45;&gt;Node8 -->
<g id="edge7_Node000006_Node000008" class="edge">
<title>Node6&#45;&gt;Node8</title>
<g id="a_edge7_Node000006_Node000008"><a xlink:title=" ">
<path fill="none" stroke="#63b8ff" d="M269.05,-111.67C256.01,-99.35 236.95,-76.8 245,-56 249.1,-45.4 256.99,-35.77 264.77,-28.16"/>
<polygon fill="#63b8ff" stroke="#63b8ff" points="267.07,-30.79 272.16,-21.49 262.39,-25.59 267.07,-30.79"/>
</a>
</g>
</g>
<!-- Node6&#45;&gt;Node9 -->
<g id="edge8_Node000006_Node000009" class="edge">
<title>Node6&#45;&gt;Node9</title>
<g id="a_edge8_Node000006_Node000009"><a xlink:title=" ">
<path fill="none" stroke="#63b8ff" d="M280,-111.59C280,-105.01 280,-95.96 280,-87.73"/>
<polygon fill="#63b8ff" stroke="#63b8ff" points="283.5,-87.81 280,-77.81 276.5,-87.81 283.5,-87.81"/>
</a>
</g>
</g>
<!-- Node10&#45;&gt;Node8 -->
<g id="edge10_Node000010_Node000008" class="edge">
<title>Node10&#45;&gt;Node8</title>
<g id="a_edge10_Node000010_Node000008"><a xlink:title=" ">
<path fill="none" stroke="#63b8ff" d="M439.6,-55.59C407.15,-46.17 357.27,-31.69 323.22,-21.8"/>
<polygon fill="#63b8ff" stroke="#63b8ff" points="324.36,-18.49 313.78,-19.06 322.4,-25.21 324.36,-18.49"/>
</a>
</g>
</g>
<!-- Node11 -->
<g id="Node000011" class="node">
<title>Node11</title>
<g id="a_Node000011"><a xlink:title=" ">
<polygon fill="#e0e0e0" stroke="#999999" points="595,-20 525,-20 525,0 595,0 595,-20"/>
<text text-anchor="middle" x="560" y="-6.5" font-family="Arial" font-size="10.00">QTcpSocket</text>
</a>
</g>
</g>
<!-- Node10&#45;&gt;Node11 -->
<g id="edge11_Node000010_Node000011" class="edge">
<title>Node10&#45;&gt;Node11</title>
<g id="a_edge11_Node000010_Node000011"><a xlink:title=" ">
<path fill="none" stroke="#63b8ff" d="M487.33,-55.59C500.5,-47.51 519.73,-35.71 535.11,-26.27"/>
<polygon fill="#63b8ff" stroke="#63b8ff" points="536.57,-29.48 543.26,-21.27 532.91,-23.52 536.57,-29.48"/>
</a>
</g>
</g>
<!-- Node12 -->
<g id="Node000012" class="node">
<title>Node12</title>
<g id="a_Node000012"><a xlink:title=" ">
<polygon fill="#e0e0e0" stroke="#999999" points="702.75,-20 613.25,-20 613.25,0 702.75,0 702.75,-20"/>
<text text-anchor="middle" x="658" y="-6.5" font-family="Arial" font-size="10.00">QJsonDocument</text>
</a>
</g>
</g>
<!-- Node10&#45;&gt;Node12 -->
<g id="edge12_Node000010_Node000012" class="edge">
<title>Node10&#45;&gt;Node12</title>
<g id="a_edge12_Node000010_Node000012"><a xlink:title=" ">
<path fill="none" stroke="#63b8ff" d="M504.4,-55.59C534.88,-46.74 580.76,-33.43 614.43,-23.65"/>
<polygon fill="#63b8ff" stroke="#63b8ff" points="615.27,-27.05 623.89,-20.9 613.32,-20.33 615.27,-27.05"/>
</a>
</g>
</g>
<!-- Node13 -->
<g id="Node000013" class="node">
<title>Node13</title>
<g id="a_Node000013"><a xlink:title=" ">
<polygon fill="#e0e0e0" stroke="#999999" points="408.5,-20 335.5,-20 335.5,0 408.5,0 408.5,-20"/>
<text text-anchor="middle" x="372" y="-6.5" font-family="Arial" font-size="10.00">QJsonObject</text>
</a>
</g>
</g>
<!-- Node10&#45;&gt;Node13 -->
<g id="edge13_Node000010_Node000013" class="edge">
<title>Node10&#45;&gt;Node13</title>
<g id="a_edge13_Node000010_Node000013"><a xlink:title=" ">
<path fill="none" stroke="#63b8ff" d="M454.58,-55.59C439.33,-47.36 416.92,-35.26 399.29,-25.74"/>
<polygon fill="#63b8ff" stroke="#63b8ff" points="401.35,-22.87 390.89,-21.2 398.02,-29.03 401.35,-22.87"/>
</a>
</g>
</g>
<!-- Node14 -->
<g id="Node000014" class="node">
<title>Node14</title>
<g id="a_Node000014"><a xlink:title=" ">
<polygon fill="#e0e0e0" stroke="#999999" points="507.25,-20 426.75,-20 426.75,0 507.25,0 507.25,-20"/>
<text text-anchor="middle" x="467" y="-6.5" font-family="Arial" font-size="10.00">QHostAddress</text>
</a>
</g>
</g>
<!-- Node10&#45;&gt;Node14 -->
<g id="edge14_Node000010_Node000014" class="edge">
<title>Node10&#45;&gt;Node14</title>
<g id="a_edge14_Node000010_Node000014"><a xlink:title=" ">
<path fill="none" stroke="#63b8ff" d="M471.13,-55.59C470.52,-49.01 469.68,-39.96 468.92,-31.73"/>
<polygon fill="#63b8ff" stroke="#63b8ff" points="472.41,-31.44 468,-21.81 465.44,-32.09 472.41,-31.44"/>
</a>
</g>
</g>
<!-- Node15&#45;&gt;Node10 -->
<g id="edge21_Node000015_Node000010" class="edge">
<title>Node15&#45;&gt;Node10</title>
<g id="a_edge21_Node000015_Node000010"><a xlink:title=" ">
<path fill="none" stroke="#63b8ff" d="M500.08,-111.59C495.64,-104.55 489.42,-94.67 483.96,-86"/>
<polygon fill="#63b8ff" stroke="#63b8ff" points="486.95,-84.18 478.66,-77.58 481.03,-87.91 486.95,-84.18"/>
</a>
</g>
</g>
<!-- Node16 -->
<g id="Node000016" class="node">
<title>Node16</title>
<g id="a_Node000016"><a xlink:title=" ">
<polygon fill="#e0e0e0" stroke="#999999" points="672.88,-76 593.12,-76 593.12,-56 672.88,-56 672.88,-76"/>
<text text-anchor="middle" x="633" y="-62.5" font-family="Arial" font-size="10.00">QMainWindow</text>
</a>
</g>
</g>
<!-- Node15&#45;&gt;Node16 -->
<g id="edge16_Node000015_Node000016" class="edge">
<title>Node15&#45;&gt;Node16</title>
<g id="a_edge16_Node000015_Node000016"><a xlink:title=" ">
<path fill="none" stroke="#63b8ff" d="M528.12,-111.59C548.03,-103.13 577.55,-90.58 600.21,-80.94"/>
<polygon fill="#63b8ff" stroke="#63b8ff" points="601.48,-84.21 609.31,-77.07 598.74,-77.76 601.48,-84.21"/>
</a>
</g>
</g>
<!-- Node15&#45;&gt;Node17 -->
<g id="edge17_Node000015_Node000017" class="edge">
<title>Node15&#45;&gt;Node17</title>
<g id="a_edge17_Node000015_Node000017"><a xlink:title=" ">
<path fill="none" stroke="#63b8ff" d="M545.45,-111.53C583.01,-102.52 639.7,-88.91 680.53,-79.11"/>
<polygon fill="#63b8ff" stroke="#63b8ff" points="681.22,-82.55 690.12,-76.81 679.58,-75.74 681.22,-82.55"/>
</a>
</g>
</g>
<!-- Node18 -->
<g id="Node000018" class="node">
<title>Node18</title>
<g id="a_Node000018"><a xlink:title=" ">
<polygon fill="#e0e0e0" stroke="#999999" points="575.5,-76 532.5,-76 532.5,-56 575.5,-56 575.5,-76"/>
<text text-anchor="middle" x="554" y="-62.5" font-family="Arial" font-size="10.00">cmath</text>
</a>
</g>
</g>
<!-- Node15&#45;&gt;Node18 -->
<g id="edge18_Node000015_Node000018" class="edge">
<title>Node15&#45;&gt;Node18</title>
<g id="a_edge18_Node000015_Node000018"><a xlink:title=" ">
<path fill="none" stroke="#63b8ff" d="M514.36,-111.59C520.9,-104.24 530.18,-93.8 538.12,-84.87"/>
<polygon fill="#63b8ff" stroke="#63b8ff" points="540.7,-87.23 544.73,-77.43 535.47,-82.58 540.7,-87.23"/>
</a>
</g>
</g>
<!-- Node19 -->
<g id="Node000019" class="node">
<title>Node19</title>
<g id="a_Node000019"><a xlink:href="equationsolver_8h.html" target="_top" xlink:title="Решение уравнений итерационными методами">
<polygon fill="white" stroke="#666666" points="411.62,-76 324.38,-76 324.38,-56 411.62,-56 411.62,-76"/>
<text text-anchor="middle" x="368" y="-62.5" font-family="Arial" font-size="10.00">equationsolver.h</text>
</a>
</g>
</g>
<!-- Node15&#45;&gt;Node19 -->
<g id="edge19_Node000015_Node000019" class="edge">
<title>Node15&#45;&gt;Node19</title>
<g id="a_edge19_Node000015_Node000019"><a xlink:title=" ">
<path fill="none" stroke="#63b8ff" d="M481.96,-111.59C460.03,-103.01 427.37,-90.23 402.63,-80.55"/>
<polygon fill="#63b8ff" stroke="#63b8ff" points="404.22,-77.42 393.63,-77.03 401.67,-83.93 404.22,-77.42"/>
</a>
</g>
</g>
<!-- Node19&#45;&gt;Node7 -->
<g id="edge20_Node000019_Node000007" class="edge">
<title>Node19&#45;&gt;Node7</title>
<g id="a_edge20_Node000019_Node000007"><a xlink:title=" ">
<path fill="none" stroke="#63b8ff" d="M339.96,-55.59C312.87,-46.51 271.76,-32.72 242.43,-22.88"/>
<polygon fill="#63b8ff" stroke="#63b8ff" points="243.85,-19.67 233.25,-19.81 241.62,-26.3 243.85,-19.67"/>
</a>
</g>
</g>
</g>
</svg>
