<?xml version="1.0" encoding="UTF-8" standalone="no"?>
<!DOCTYPE svg PUBLIC "-//W3C//DTD SVG 1.1//EN"
 "http://www.w3.org/Graphics/SVG/1.1/DTD/svg11.dtd">
<!-- Generated by graphviz version 12.2.1 (20241206.2353)
 -->
<!-- Title: ClientInterface/authregform.h Pages: 1 -->
<svg width="397pt" height="140pt"
 viewBox="0.00 0.00 396.88 140.00" xmlns="http://www.w3.org/2000/svg" xmlns:xlink="http://www.w3.org/1999/xlink">
<g id="graph0" class="graph" transform="scale(1 1) rotate(0) translate(4 136)">
<title>ClientInterface/authregform.h</title>
<!-- Node1 -->
<g id="Node000001" class="node">
<title>Node1</title>
<g id="a_Node000001"><a xlink:title="Заголовочный файл форм авторизации и регистрации.">
<polygon fill="#999999" stroke="#666666" points="233,-132 90.25,-132 90.25,-112 233,-112 233,-132"/>
<text text-anchor="middle" x="161.62" y="-118.5" font-family="Arial" font-size="10.00">ClientInterface/authregform.h</text>
</a>
</g>
</g>
<!-- Node2 -->
<g id="Node000002" class="node">
<title>Node2</title>
<g id="a_Node000002"><a xlink:href="authregform_8cpp.html" target="_top" xlink:title="Файл реализации форм авторизации и регистрации.">
<polygon fill="white" stroke="#666666" points="153.25,-76 0,-76 0,-56 153.25,-56 153.25,-76"/>
<text text-anchor="middle" x="76.62" y="-62.5" font-family="Arial" font-size="10.00">ClientInterface/authregform.cpp</text>
</a>
</g>
</g>
<!-- Node1&#45;&gt;Node2 -->
<g id="edge1_Node000001_Node000002" class="edge">
<title>Node1&#45;&gt;Node2</title>
<g id="a_edge1_Node000001_Node000002"><a xlink:title=" ">
<path fill="none" stroke="#63b8ff" d="M137.29,-105.54C122.54,-96.17 104.18,-84.51 91.55,-76.48"/>
<polygon fill="#63b8ff" stroke="#63b8ff" points="135.22,-108.37 145.54,-110.78 138.98,-102.47 135.22,-108.37"/>
</a>
</g>
</g>
<!-- Node3 -->
<g id="Node000003" class="node">
<title>Node3</title>
<g id="a_Node000003"><a xlink:href="formsmanager_8h.html" target="_top" xlink:title="Описание класса FormsManager, который управляет отображением форм авторизации/регистрации и главного ...">
<polygon fill="white" stroke="#666666" points="324.25,-76 171,-76 171,-56 324.25,-56 324.25,-76"/>
<text text-anchor="middle" x="247.62" y="-62.5" font-family="Arial" font-size="10.00">ClientInterface/formsmanager.h</text>
</a>
</g>
</g>
<!-- Node1&#45;&gt;Node3 -->
<g id="edge2_Node000001_Node000003" class="edge">
<title>Node1&#45;&gt;Node3</title>
<g id="a_edge2_Node000001_Node000003"><a xlink:title=" ">
<path fill="none" stroke="#63b8ff" d="M186.24,-105.54C201.17,-96.17 219.75,-84.51 232.53,-76.48"/>
<polygon fill="#63b8ff" stroke="#63b8ff" points="184.49,-102.51 177.89,-110.79 188.22,-108.44 184.49,-102.51"/>
</a>
</g>
</g>
<!-- Node4 -->
<g id="Node000004" class="node">
<title>Node4</title>
<g id="a_Node000004"><a xlink:href="formsmanager_8cpp.html" target="_top" xlink:title="Реализация класса FormsManager.">
<polygon fill="white" stroke="#666666" points="248.5,-20 84.75,-20 84.75,0 248.5,0 248.5,-20"/>
<text text-anchor="middle" x="166.62" y="-6.5" font-family="Arial" font-size="10.00">ClientInterface/formsmanager.cpp</text>
</a>
</g>
</g>
<!-- Node3&#45;&gt;Node4 -->
<g id="edge3_Node000003_Node000004" class="edge">
<title>Node3&#45;&gt;Node4</title>
<g id="a_edge3_Node000003_Node000004"><a xlink:title=" ">
<path fill="none" stroke="#63b8ff" d="M224.03,-49.27C210.04,-39.94 192.77,-28.43 180.84,-20.48"/>
<polygon fill="#63b8ff" stroke="#63b8ff" points="221.99,-52.12 232.26,-54.75 225.88,-46.3 221.99,-52.12"/>
</a>
</g>
</g>
<!-- Node5 -->
<g id="Node000005" class="node">
<title>Node5</title>
<g id="a_Node000005"><a xlink:href="_client_interface_2main_8cpp.html" target="_top" xlink:title="Основной файл запуска клиента.">
<polygon fill="white" stroke="#666666" points="388.88,-20 266.38,-20 266.38,0 388.88,0 388.88,-20"/>
<text text-anchor="middle" x="327.62" y="-6.5" font-family="Arial" font-size="10.00">ClientInterface/main.cpp</text>
</a>
</g>
</g>
<!-- Node3&#45;&gt;Node5 -->
<g id="edge4_Node000003_Node000005" class="edge">
<title>Node3&#45;&gt;Node5</title>
<g id="a_edge4_Node000003_Node000005"><a xlink:title=" ">
<path fill="none" stroke="#63b8ff" d="M270.93,-49.27C284.75,-39.94 301.81,-28.43 313.58,-20.48"/>
<polygon fill="#63b8ff" stroke="#63b8ff" points="269.14,-46.25 262.81,-54.75 273.06,-52.05 269.14,-46.25"/>
</a>
</g>
</g>
</g>
</svg>
