<?xml version="1.0" encoding="UTF-8" standalone="no"?>
<!DOCTYPE svg PUBLIC "-//W3C//DTD SVG 1.1//EN"
 "http://www.w3.org/Graphics/SVG/1.1/DTD/svg11.dtd">
<!-- Generated by graphviz version 12.2.1 (20241206.2353)
 -->
<!-- Title: Server/build/Desktop_Qt_6_8_2_MinGW_64_bit&#45;Debug/debug/moc_MyTcpServer.cpp Pages: 1 -->
<svg width="1259pt" height="232pt"
 viewBox="0.00 0.00 1259.12 232.00" xmlns="http://www.w3.org/2000/svg" xmlns:xlink="http://www.w3.org/1999/xlink">
<g id="graph0" class="graph" transform="scale(1 1) rotate(0) translate(4 228)">
<title>Server/build/Desktop_Qt_6_8_2_MinGW_64_bit&#45;Debug/debug/moc_MyTcpServer.cpp</title>
<!-- Node1 -->
<g id="Node000001" class="node">
<title>Node1</title>
<g id="a_Node000001"><a xlink:title="Автоматически сгенерированный файл метаобъекта для класса MyTcpServer.">
<polygon fill="#999999" stroke="#666666" points="946.12,-224 765.88,-224 765.88,-180 946.12,-180 946.12,-224"/>
<text text-anchor="start" x="773.88" y="-210.5" font-family="Arial" font-size="10.00">Server/build/Desktop</text>
<text text-anchor="start" x="773.88" y="-198.5" font-family="Arial" font-size="10.00">_Qt_6_8_2_MinGW_64_bit</text>
<text text-anchor="middle" x="856" y="-186.5" font-family="Arial" font-size="10.00">&#45;Debug/debug/moc_MyTcpServer.cpp</text>
</a>
</g>
</g>
<!-- Node2 -->
<g id="Node000002" class="node">
<title>Node2</title>
<g id="a_Node000002"><a xlink:href="mytcpserver_8h.html" target="_top" xlink:title="Заголовочный файл для класса MyTcpServer, реализующего TCP&#45;сервер для регистрации и авторизации польз...">
<polygon fill="white" stroke="#666666" points="489.62,-138 384.38,-138 384.38,-118 489.62,-118 489.62,-138"/>
<text text-anchor="middle" x="437" y="-124.5" font-family="Arial" font-size="10.00">../../../mytcpserver.h</text>
</a>
</g>
</g>
<!-- Node1&#45;&gt;Node2 -->
<g id="edge1_Node000001_Node000002" class="edge">
<title>Node1&#45;&gt;Node2</title>
<g id="a_edge1_Node000001_Node000002"><a xlink:title=" ">
<path fill="none" stroke="#63b8ff" d="M765.41,-188.56C693.04,-178.13 589.16,-162.07 499,-144 494.42,-143.08 489.66,-142.06 484.92,-140.99"/>
<polygon fill="#63b8ff" stroke="#63b8ff" points="485.95,-137.64 475.41,-138.79 484.37,-144.46 485.95,-137.64"/>
</a>
</g>
</g>
<!-- Node15 -->
<g id="Node000015" class="node">
<title>Node15</title>
<g id="a_Node000015"><a xlink:title=" ">
<polygon fill="#e0e0e0" stroke="#999999" points="658.5,-144 507.5,-144 507.5,-112 658.5,-112 658.5,-144"/>
<text text-anchor="start" x="515.5" y="-130.5" font-family="Arial" font-size="10.00">QtNetwork/QSslPreSharedKey</text>
<text text-anchor="middle" x="583" y="-118.5" font-family="Arial" font-size="10.00">Authenticator</text>
</a>
</g>
</g>
<!-- Node1&#45;&gt;Node15 -->
<g id="edge14_Node000001_Node000015" class="edge">
<title>Node1&#45;&gt;Node15</title>
<g id="a_edge14_Node000001_Node000015"><a xlink:title=" ">
<path fill="none" stroke="#63b8ff" d="M774.83,-179.59C735.92,-169.33 689.79,-157.16 652.52,-147.33"/>
<polygon fill="#63b8ff" stroke="#63b8ff" points="653.78,-144.05 643.22,-144.88 651.99,-150.82 653.78,-144.05"/>
</a>
</g>
</g>
<!-- Node16 -->
<g id="Node000016" class="node">
<title>Node16</title>
<g id="a_Node000016"><a xlink:title=" ">
<polygon fill="#e0e0e0" stroke="#999999" points="785.5,-138 676.5,-138 676.5,-118 785.5,-118 785.5,-138"/>
<text text-anchor="middle" x="731" y="-124.5" font-family="Arial" font-size="10.00">QtNetwork/QSslError</text>
</a>
</g>
</g>
<!-- Node1&#45;&gt;Node16 -->
<g id="edge15_Node000001_Node000016" class="edge">
<title>Node1&#45;&gt;Node16</title>
<g id="a_edge15_Node000001_Node000016"><a xlink:title=" ">
<path fill="none" stroke="#63b8ff" d="M818.83,-179.59C798.98,-168.16 775.02,-154.36 757.15,-144.06"/>
<polygon fill="#63b8ff" stroke="#63b8ff" points="759.13,-141.16 748.71,-139.2 755.63,-147.23 759.13,-141.16"/>
</a>
</g>
</g>
<!-- Node17 -->
<g id="Node000017" class="node">
<title>Node17</title>
<g id="a_Node000017"><a xlink:title=" ">
<polygon fill="#e0e0e0" stroke="#999999" points="908.25,-138 803.75,-138 803.75,-118 908.25,-118 908.25,-138"/>
<text text-anchor="middle" x="856" y="-124.5" font-family="Arial" font-size="10.00">QtCore/qmetatype.h</text>
</a>
</g>
</g>
<!-- Node1&#45;&gt;Node17 -->
<g id="edge16_Node000001_Node000017" class="edge">
<title>Node1&#45;&gt;Node17</title>
<g id="a_edge16_Node000001_Node000017"><a xlink:title=" ">
<path fill="none" stroke="#63b8ff" d="M856,-179.79C856,-170.32 856,-159.2 856,-149.78"/>
<polygon fill="#63b8ff" stroke="#63b8ff" points="859.5,-149.82 856,-139.82 852.5,-149.82 859.5,-149.82"/>
</a>
</g>
</g>
<!-- Node18 -->
<g id="Node000018" class="node">
<title>Node18</title>
<g id="a_Node000018"><a xlink:title=" ">
<polygon fill="#e0e0e0" stroke="#999999" points="1043.62,-138 926.38,-138 926.38,-118 1043.62,-118 1043.62,-138"/>
<text text-anchor="middle" x="985" y="-124.5" font-family="Arial" font-size="10.00">QtCore/qtmochelpers.h</text>
</a>
</g>
</g>
<!-- Node1&#45;&gt;Node18 -->
<g id="edge17_Node000001_Node000018" class="edge">
<title>Node1&#45;&gt;Node18</title>
<g id="a_edge17_Node000001_Node000018"><a xlink:title=" ">
<path fill="none" stroke="#63b8ff" d="M894.35,-179.59C914.94,-168.1 939.8,-154.23 958.27,-143.92"/>
<polygon fill="#63b8ff" stroke="#63b8ff" points="959.72,-147.12 966.75,-139.19 956.31,-141 959.72,-147.12"/>
</a>
</g>
</g>
<!-- Node19 -->
<g id="Node000019" class="node">
<title>Node19</title>
<g id="a_Node000019"><a xlink:title=" ">
<polygon fill="#e0e0e0" stroke="#999999" points="1112.62,-138 1061.38,-138 1061.38,-118 1112.62,-118 1112.62,-138"/>
<text text-anchor="middle" x="1087" y="-124.5" font-family="Arial" font-size="10.00">memory</text>
</a>
</g>
</g>
<!-- Node1&#45;&gt;Node19 -->
<g id="edge18_Node000001_Node000019" class="edge">
<title>Node1&#45;&gt;Node19</title>
<g id="a_edge18_Node000001_Node000019"><a xlink:title=" ">
<path fill="none" stroke="#63b8ff" d="M939.22,-179.58C974.64,-169.78 1016.19,-157.38 1053,-144 1054.12,-143.59 1055.26,-143.17 1056.4,-142.72"/>
<polygon fill="#63b8ff" stroke="#63b8ff" points="1057.37,-146.11 1065.28,-139.07 1054.71,-139.64 1057.37,-146.11"/>
</a>
</g>
</g>
<!-- Node20 -->
<g id="Node000020" class="node">
<title>Node20</title>
<g id="a_Node000020"><a xlink:title=" ">
<polygon fill="#e0e0e0" stroke="#999999" points="1251.12,-138 1130.88,-138 1130.88,-118 1251.12,-118 1251.12,-138"/>
<text text-anchor="middle" x="1191" y="-124.5" font-family="Arial" font-size="10.00">QtCore/qxptype_traits.h</text>
</a>
</g>
</g>
<!-- Node1&#45;&gt;Node20 -->
<g id="edge19_Node000001_Node000020" class="edge">
<title>Node1&#45;&gt;Node20</title>
<g id="a_edge19_Node000001_Node000020"><a xlink:title=" ">
<path fill="none" stroke="#63b8ff" d="M946.51,-181.68C997.97,-170.67 1063.6,-156.6 1122,-144 1126.65,-143 1131.48,-141.95 1136.32,-140.9"/>
<polygon fill="#63b8ff" stroke="#63b8ff" points="1137.06,-144.32 1146.09,-138.78 1135.58,-137.48 1137.06,-144.32"/>
</a>
</g>
</g>
<!-- Node3 -->
<g id="Node000003" class="node">
<title>Node3</title>
<g id="a_Node000003"><a xlink:title=" ">
<polygon fill="#e0e0e0" stroke="#999999" points="52,-76 0,-76 0,-56 52,-56 52,-76"/>
<text text-anchor="middle" x="26" y="-62.5" font-family="Arial" font-size="10.00">QObject</text>
</a>
</g>
</g>
<!-- Node2&#45;&gt;Node3 -->
<g id="edge2_Node000002_Node000003" class="edge">
<title>Node2&#45;&gt;Node3</title>
<g id="a_edge2_Node000002_Node000003"><a xlink:title=" ">
<path fill="none" stroke="#63b8ff" d="M384.06,-121.79C313.2,-114.39 183.43,-99.31 63.5,-76.29"/>
<polygon fill="#63b8ff" stroke="#63b8ff" points="64.27,-72.88 53.78,-74.4 62.93,-79.75 64.27,-72.88"/>
</a>
</g>
</g>
<!-- Node4 -->
<g id="Node000004" class="node">
<title>Node4</title>
<g id="a_Node000004"><a xlink:title=" ">
<polygon fill="#e0e0e0" stroke="#999999" points="137.88,-76 70.12,-76 70.12,-56 137.88,-56 137.88,-76"/>
<text text-anchor="middle" x="104" y="-62.5" font-family="Arial" font-size="10.00">QTcpServer</text>
</a>
</g>
</g>
<!-- Node2&#45;&gt;Node4 -->
<g id="edge3_Node000002_Node000004" class="edge">
<title>Node2&#45;&gt;Node4</title>
<g id="a_edge3_Node000002_Node000004"><a xlink:title=" ">
<path fill="none" stroke="#63b8ff" d="M383.99,-118.2C328.16,-108.82 237.4,-93.24 149.51,-76.43"/>
<polygon fill="#63b8ff" stroke="#63b8ff" points="150.21,-73.01 139.73,-74.56 148.89,-79.88 150.21,-73.01"/>
</a>
</g>
</g>
<!-- Node5 -->
<g id="Node000005" class="node">
<title>Node5</title>
<g id="a_Node000005"><a xlink:title=" ">
<polygon fill="#e0e0e0" stroke="#999999" points="226,-76 156,-76 156,-56 226,-56 226,-76"/>
<text text-anchor="middle" x="191" y="-62.5" font-family="Arial" font-size="10.00">QTcpSocket</text>
</a>
</g>
</g>
<!-- Node2&#45;&gt;Node5 -->
<g id="edge4_Node000002_Node000005" class="edge">
<title>Node2&#45;&gt;Node5</title>
<g id="a_edge4_Node000002_Node000005"><a xlink:title=" ">
<path fill="none" stroke="#63b8ff" d="M398.29,-117.56C354.67,-106.92 283.78,-89.63 237.27,-78.29"/>
<polygon fill="#63b8ff" stroke="#63b8ff" points="238.31,-74.94 227.76,-75.97 236.65,-81.74 238.31,-74.94"/>
</a>
</g>
</g>
<!-- Node6 -->
<g id="Node000006" class="node">
<title>Node6</title>
<g id="a_Node000006"><a xlink:title=" ">
<polygon fill="#e0e0e0" stroke="#999999" points="307.62,-76 244.38,-76 244.38,-56 307.62,-56 307.62,-76"/>
<text text-anchor="middle" x="276" y="-62.5" font-family="Arial" font-size="10.00">QtNetwork</text>
</a>
</g>
</g>
<!-- Node2&#45;&gt;Node6 -->
<g id="edge5_Node000002_Node000006" class="edge">
<title>Node2&#45;&gt;Node6</title>
<g id="a_edge5_Node000002_Node000006"><a xlink:title=" ">
<path fill="none" stroke="#63b8ff" d="M411.84,-117.62C384.98,-107.62 342.19,-91.67 311.82,-80.35"/>
<polygon fill="#63b8ff" stroke="#63b8ff" points="313.26,-77.15 302.66,-76.94 310.81,-83.71 313.26,-77.15"/>
</a>
</g>
</g>
<!-- Node7 -->
<g id="Node000007" class="node">
<title>Node7</title>
<g id="a_Node000007"><a xlink:title=" ">
<polygon fill="#e0e0e0" stroke="#999999" points="392.5,-76 325.5,-76 325.5,-56 392.5,-56 392.5,-76"/>
<text text-anchor="middle" x="359" y="-62.5" font-family="Arial" font-size="10.00">QByteArray</text>
</a>
</g>
</g>
<!-- Node2&#45;&gt;Node7 -->
<g id="edge6_Node000002_Node000007" class="edge">
<title>Node2&#45;&gt;Node7</title>
<g id="a_edge6_Node000002_Node000007"><a xlink:title=" ">
<path fill="none" stroke="#63b8ff" d="M424.81,-117.62C412.79,-108.38 394.18,-94.07 379.82,-83.01"/>
<polygon fill="#63b8ff" stroke="#63b8ff" points="382.36,-80.55 372.3,-77.23 378.09,-86.1 382.36,-80.55"/>
</a>
</g>
</g>
<!-- Node8 -->
<g id="Node000008" class="node">
<title>Node8</title>
<g id="a_Node000008"><a xlink:title=" ">
<polygon fill="#e0e0e0" stroke="#999999" points="463,-76 411,-76 411,-56 463,-56 463,-76"/>
<text text-anchor="middle" x="437" y="-62.5" font-family="Arial" font-size="10.00">QDebug</text>
</a>
</g>
</g>
<!-- Node2&#45;&gt;Node8 -->
<g id="edge7_Node000002_Node000008" class="edge">
<title>Node2&#45;&gt;Node8</title>
<g id="a_edge7_Node000002_Node000008"><a xlink:title=" ">
<path fill="none" stroke="#63b8ff" d="M437,-117.62C437,-109.56 437,-97.65 437,-87.41"/>
<polygon fill="#63b8ff" stroke="#63b8ff" points="440.5,-87.63 437,-77.63 433.5,-87.63 440.5,-87.63"/>
</a>
</g>
</g>
<!-- Node9 -->
<g id="Node000009" class="node">
<title>Node9</title>
<g id="a_Node000009"><a xlink:title=" ">
<polygon fill="#e0e0e0" stroke="#999999" points="588.75,-76 481.25,-76 481.25,-56 588.75,-56 588.75,-76"/>
<text text-anchor="middle" x="535" y="-62.5" font-family="Arial" font-size="10.00">QtSql/QSqlDatabase</text>
</a>
</g>
</g>
<!-- Node2&#45;&gt;Node9 -->
<g id="edge8_Node000002_Node000009" class="edge">
<title>Node2&#45;&gt;Node9</title>
<g id="a_edge8_Node000002_Node000009"><a xlink:title=" ">
<path fill="none" stroke="#63b8ff" d="M452.31,-117.62C467.77,-108.16 491.91,-93.38 510.12,-82.23"/>
<polygon fill="#63b8ff" stroke="#63b8ff" points="511.8,-85.31 518.5,-77.1 508.15,-79.34 511.8,-85.31"/>
</a>
</g>
</g>
<!-- Node10 -->
<g id="Node000010" class="node">
<title>Node10</title>
<g id="a_Node000010"><a xlink:title=" ">
<polygon fill="#e0e0e0" stroke="#999999" points="698.88,-76 607.12,-76 607.12,-56 698.88,-56 698.88,-76"/>
<text text-anchor="middle" x="653" y="-62.5" font-family="Arial" font-size="10.00">QtSql/QSqlQuery</text>
</a>
</g>
</g>
<!-- Node2&#45;&gt;Node10 -->
<g id="edge9_Node000002_Node000010" class="edge">
<title>Node2&#45;&gt;Node10</title>
<g id="a_edge9_Node000002_Node000010"><a xlink:title=" ">
<path fill="none" stroke="#63b8ff" d="M470.75,-117.62C507.73,-107.35 567.23,-90.82 608.12,-79.47"/>
<polygon fill="#63b8ff" stroke="#63b8ff" points="608.97,-82.86 617.67,-76.81 607.1,-76.12 608.97,-82.86"/>
</a>
</g>
</g>
<!-- Node11 -->
<g id="Node000011" class="node">
<title>Node11</title>
<g id="a_Node000011"><a xlink:title=" ">
<polygon fill="#e0e0e0" stroke="#999999" points="803.25,-76 716.75,-76 716.75,-56 803.25,-56 803.25,-76"/>
<text text-anchor="middle" x="760" y="-62.5" font-family="Arial" font-size="10.00">QtSql/QSqlError</text>
</a>
</g>
</g>
<!-- Node2&#45;&gt;Node11 -->
<g id="edge10_Node000002_Node000011" class="edge">
<title>Node2&#45;&gt;Node11</title>
<g id="a_edge10_Node000002_Node000011"><a xlink:title=" ">
<path fill="none" stroke="#63b8ff" d="M474.28,-117.55C482.41,-115.61 490.97,-113.66 499,-112 587.79,-93.63 613.2,-92.13 705.07,-76.49"/>
<polygon fill="#63b8ff" stroke="#63b8ff" points="705.55,-79.96 714.82,-74.82 704.37,-73.06 705.55,-79.96"/>
</a>
</g>
</g>
<!-- Node12 -->
<g id="Node000012" class="node">
<title>Node12</title>
<g id="a_Node000012"><a xlink:title=" ">
<polygon fill="#e0e0e0" stroke="#999999" points="928.75,-76 821.25,-76 821.25,-56 928.75,-56 928.75,-76"/>
<text text-anchor="middle" x="875" y="-62.5" font-family="Arial" font-size="10.00">QCryptographicHash</text>
</a>
</g>
</g>
<!-- Node2&#45;&gt;Node12 -->
<g id="edge11_Node000002_Node000012" class="edge">
<title>Node2&#45;&gt;Node12</title>
<g id="a_edge11_Node000002_Node000012"><a xlink:title=" ">
<path fill="none" stroke="#63b8ff" d="M472.91,-117.52C481.42,-115.5 490.5,-113.51 499,-112 633.37,-88.11 671.21,-93.6 810,-76.21"/>
<polygon fill="#63b8ff" stroke="#63b8ff" points="810.08,-79.73 819.56,-75 809.19,-72.79 810.08,-79.73"/>
</a>
</g>
</g>
<!-- Node13 -->
<g id="Node000013" class="node">
<title>Node13</title>
<g id="a_Node000013"><a xlink:href="equationsolver_8h.html" target="_top" xlink:title="Решение уравнений итерационными методами">
<polygon fill="white" stroke="#666666" points="1033.62,-76 946.38,-76 946.38,-56 1033.62,-56 1033.62,-76"/>
<text text-anchor="middle" x="990" y="-62.5" font-family="Arial" font-size="10.00">equationsolver.h</text>
</a>
</g>
</g>
<!-- Node2&#45;&gt;Node13 -->
<g id="edge12_Node000002_Node000013" class="edge">
<title>Node2&#45;&gt;Node13</title>
<g id="a_edge12_Node000002_Node000013"><a xlink:title=" ">
<path fill="none" stroke="#63b8ff" d="M471.89,-117.55C480.68,-115.45 490.14,-113.43 499,-112 688.6,-81.48 741.79,-99.98 934.67,-76.31"/>
<polygon fill="#63b8ff" stroke="#63b8ff" points="935.08,-79.79 944.57,-75.08 934.21,-72.85 935.08,-79.79"/>
</a>
</g>
</g>
<!-- Node14 -->
<g id="Node000014" class="node">
<title>Node14</title>
<g id="a_Node000014"><a xlink:title=" ">
<polygon fill="#e0e0e0" stroke="#999999" points="1014.5,-20 965.5,-20 965.5,0 1014.5,0 1014.5,-20"/>
<text text-anchor="middle" x="990" y="-6.5" font-family="Arial" font-size="10.00">QString</text>
</a>
</g>
</g>
<!-- Node13&#45;&gt;Node14 -->
<g id="edge13_Node000013_Node000014" class="edge">
<title>Node13&#45;&gt;Node14</title>
<g id="a_edge13_Node000013_Node000014"><a xlink:title=" ">
<path fill="none" stroke="#63b8ff" d="M990,-55.59C990,-49.01 990,-39.96 990,-31.73"/>
<polygon fill="#63b8ff" stroke="#63b8ff" points="993.5,-31.81 990,-21.81 986.5,-31.81 993.5,-31.81"/>
</a>
</g>
</g>
</g>
</svg>
