<?xml version="1.0" encoding="UTF-8" standalone="no"?>
<!DOCTYPE svg PUBLIC "-//W3C//DTD SVG 1.1//EN"
 "http://www.w3.org/Graphics/SVG/1.1/DTD/svg11.dtd">
<!-- Generated by graphviz version 12.2.1 (20241206.2353)
 -->
<!-- Title: ClientManager::getInstance Pages: 1 -->
<svg width="330pt" height="216pt"
 viewBox="0.00 0.00 329.50 216.00" xmlns="http://www.w3.org/2000/svg" xmlns:xlink="http://www.w3.org/1999/xlink">
<g id="graph0" class="graph" transform="scale(1 1) rotate(0) translate(4 212)">
<title>ClientManager::getInstance</title>
<!-- Node1 -->
<g id="Node000001" class="node">
<title>Node1</title>
<g id="a_Node000001"><a xlink:title="Получить единственный экземпляр ClientManager.">
<polygon fill="#999999" stroke="#666666" points="321.5,-96 185.5,-96 185.5,-76 321.5,-76 321.5,-96"/>
<text text-anchor="middle" x="253.5" y="-82.5" font-family="Arial" font-size="10.00">ClientManager::getInstance</text>
</a>
</g>
</g>
<!-- Node2 -->
<g id="Node000002" class="node">
<title>Node2</title>
<g id="a_Node000002"><a xlink:href="funcsforclient_8cpp.html#ae14792135403f186fb2c51f377b515ab" target="_top" xlink:title="Функция авторизации пользователя.">
<polygon fill="white" stroke="#666666" points="92.12,-208 57.38,-208 57.38,-188 92.12,-188 92.12,-208"/>
<text text-anchor="middle" x="74.75" y="-194.5" font-family="Arial" font-size="10.00">auth</text>
</a>
</g>
</g>
<!-- Node1&#45;&gt;Node2 -->
<g id="edge1_Node000001_Node000002" class="edge">
<title>Node1&#45;&gt;Node2</title>
<g id="a_edge1_Node000001_Node000002"><a xlink:title=" ">
<path fill="none" stroke="#63b8ff" d="M236.74,-104.9C218.07,-126.08 184.99,-159.92 149.5,-179 131.33,-188.77 107.92,-193.69 92.4,-196.04"/>
<polygon fill="#63b8ff" stroke="#63b8ff" points="239.18,-107.43 243.06,-97.57 233.88,-102.86 239.18,-107.43"/>
</a>
</g>
</g>
<!-- Node3 -->
<g id="Node000003" class="node">
<title>Node3</title>
<g id="a_Node000003"><a xlink:href="class_auth_reg_form.html#a7ec2ba2a7980453c629e141a90602e68" target="_top" xlink:title="Конструктор формы авторизации и регистрации.">
<polygon fill="white" stroke="#666666" points="146.5,-152 3,-152 3,-132 146.5,-132 146.5,-152"/>
<text text-anchor="middle" x="74.75" y="-138.5" font-family="Arial" font-size="10.00">AuthRegForm::AuthRegForm</text>
</a>
</g>
</g>
<!-- Node1&#45;&gt;Node3 -->
<g id="edge2_Node000001_Node000003" class="edge">
<title>Node1&#45;&gt;Node3</title>
<g id="a_edge2_Node000001_Node000003"><a xlink:title=" ">
<path fill="none" stroke="#63b8ff" d="M215.08,-100.39C195.66,-107.61 171.46,-116.24 149.5,-123 139.77,-125.99 129.22,-128.91 119.23,-131.51"/>
<polygon fill="#63b8ff" stroke="#63b8ff" points="216.07,-103.75 224.21,-96.96 213.61,-97.2 216.07,-103.75"/>
</a>
</g>
</g>
<!-- Node4 -->
<g id="Node000004" class="node">
<title>Node4</title>
<g id="a_Node000004"><a xlink:href="class_home_window.html#a119edacd94a83af70a8e1fb1e6aff0d8" target="_top" xlink:title="Конструктор главного окна.">
<polygon fill="white" stroke="#666666" points="147.25,-96 2.25,-96 2.25,-76 147.25,-76 147.25,-96"/>
<text text-anchor="middle" x="74.75" y="-82.5" font-family="Arial" font-size="10.00">HomeWindow::HomeWindow</text>
</a>
</g>
</g>
<!-- Node1&#45;&gt;Node4 -->
<g id="edge4_Node000001_Node000004" class="edge">
<title>Node1&#45;&gt;Node4</title>
<g id="a_edge4_Node000001_Node000004"><a xlink:title=" ">
<path fill="none" stroke="#63b8ff" d="M173.81,-86C165.08,-86 156.23,-86 147.6,-86"/>
<polygon fill="#63b8ff" stroke="#63b8ff" points="173.66,-89.5 183.66,-86 173.66,-82.5 173.66,-89.5"/>
</a>
</g>
</g>
<!-- Node5 -->
<g id="Node000005" class="node">
<title>Node5</title>
<g id="a_Node000005"><a xlink:href="funcsforclient_8cpp.html#a9638764c61635aa7172dc25ef99ce281" target="_top" xlink:title="Функция регистрации нового пользователя.">
<polygon fill="white" stroke="#666666" points="89.5,-58 60,-58 60,-38 89.5,-38 89.5,-58"/>
<text text-anchor="middle" x="74.75" y="-44.5" font-family="Arial" font-size="10.00">reg</text>
</a>
</g>
</g>
<!-- Node1&#45;&gt;Node5 -->
<g id="edge6_Node000001_Node000005" class="edge">
<title>Node1&#45;&gt;Node5</title>
<g id="a_edge6_Node000001_Node000005"><a xlink:title=" ">
<path fill="none" stroke="#63b8ff" d="M192.63,-73.13C155.98,-65.25 112.01,-55.8 89.91,-51.04"/>
<polygon fill="#63b8ff" stroke="#63b8ff" points="191.74,-76.52 202.25,-75.2 193.21,-69.67 191.74,-76.52"/>
</a>
</g>
</g>
<!-- Node6 -->
<g id="Node000006" class="node">
<title>Node6</title>
<g id="a_Node000006"><a xlink:href="class_auth_reg_form.html#a8b95ad00c5d29338f850a0f179b12078" target="_top" xlink:title="Деструктор формы.">
<polygon fill="white" stroke="#666666" points="149.5,-20 0,-20 0,0 149.5,0 149.5,-20"/>
<text text-anchor="middle" x="74.75" y="-6.5" font-family="Arial" font-size="10.00">AuthRegForm::~AuthRegForm</text>
</a>
</g>
</g>
<!-- Node1&#45;&gt;Node6 -->
<g id="edge7_Node000001_Node000006" class="edge">
<title>Node1&#45;&gt;Node6</title>
<g id="a_edge7_Node000001_Node000006"><a xlink:title=" ">
<path fill="none" stroke="#63b8ff" d="M226.99,-69.49C206.67,-56.93 177.15,-40.01 149.5,-29 141.27,-25.72 132.3,-22.86 123.53,-20.42"/>
<polygon fill="#63b8ff" stroke="#63b8ff" points="225.1,-72.43 235.43,-74.79 228.83,-66.51 225.1,-72.43"/>
</a>
</g>
</g>
<!-- Node3&#45;&gt;Node3 -->
<g id="edge3_Node000003_Node000003" class="edge">
<title>Node3&#45;&gt;Node3</title>
<g id="a_edge3_Node000003_Node000003"><a xlink:title=" ">
<path fill="none" stroke="#63b8ff" d="M106.68,-163.11C102.87,-167.14 92.23,-170 74.75,-170 43.68,-170 34.21,-160.98 46.35,-152.34"/>
<polygon fill="#63b8ff" stroke="#63b8ff" points="110.06,-162.19 103.62,-153.78 103.41,-164.37 110.06,-162.19"/>
</a>
</g>
</g>
<!-- Node4&#45;&gt;Node4 -->
<g id="edge5_Node000004_Node000004" class="edge">
<title>Node4&#45;&gt;Node4</title>
<g id="a_edge5_Node000004_Node000004"><a xlink:title=" ">
<path fill="none" stroke="#63b8ff" d="M106.68,-107.11C102.87,-111.14 92.23,-114 74.75,-114 43.68,-114 34.21,-104.98 46.35,-96.34"/>
<polygon fill="#63b8ff" stroke="#63b8ff" points="110.06,-106.19 103.62,-97.78 103.41,-108.37 110.06,-106.19"/>
</a>
</g>
</g>
</g>
</svg>
