<?xml version="1.0" encoding="UTF-8" standalone="no"?>
<!DOCTYPE svg PUBLIC "-//W3C//DTD SVG 1.1//EN"
 "http://www.w3.org/Graphics/SVG/1.1/DTD/svg11.dtd">
<!-- Generated by graphviz version 12.2.1 (20241206.2353)
 -->
<!-- Title: MyTcpServer::MyTcpServer Pages: 1 -->
<svg width="901pt" height="154pt"
 viewBox="0.00 0.00 901.00 154.00" xmlns="http://www.w3.org/2000/svg" xmlns:xlink="http://www.w3.org/1999/xlink">
<g id="graph0" class="graph" transform="scale(1 1) rotate(0) translate(4 150)">
<title>MyTcpServer::MyTcpServer</title>
<!-- Node1 -->
<g id="Node000001" class="node">
<title>Node1</title>
<g id="a_Node000001"><a xlink:title="Конструктор класса MyTcpServer.">
<polygon fill="#999999" stroke="#666666" points="137.5,-108 0,-108 0,-88 137.5,-88 137.5,-108"/>
<text text-anchor="middle" x="68.75" y="-94.5" font-family="Arial" font-size="10.00">MyTcpServer::MyTcpServer</text>
</a>
</g>
</g>
<!-- Node2 -->
<g id="Node000002" class="node">
<title>Node2</title>
<g id="a_Node000002"><a xlink:href="class_my_tcp_server.html#a0ba7316ffe1a26c57fabde9e74b6c8dc" target="_top" xlink:title="Обработчик нового подключения">
<polygon fill="white" stroke="#666666" points="338.75,-108 173.5,-108 173.5,-88 338.75,-88 338.75,-108"/>
<text text-anchor="middle" x="256.12" y="-94.5" font-family="Arial" font-size="10.00">MyTcpServer::slotNewConnection</text>
</a>
</g>
</g>
<!-- Node1&#45;&gt;Node2 -->
<g id="edge1_Node000001_Node000002" class="edge">
<title>Node1&#45;&gt;Node2</title>
<g id="a_edge1_Node000001_Node000002"><a xlink:title=" ">
<path fill="none" stroke="#63b8ff" d="M137.99,-98C145.78,-98 153.81,-98 161.85,-98"/>
<polygon fill="#63b8ff" stroke="#63b8ff" points="161.69,-101.5 171.69,-98 161.69,-94.5 161.69,-101.5"/>
</a>
</g>
</g>
<!-- Node3 -->
<g id="Node000003" class="node">
<title>Node3</title>
<g id="a_Node000003"><a xlink:href="class_my_tcp_server.html#a3e040c49dbefd65b9a58ab662fc9f7a2" target="_top" xlink:title="Обработчик отключения клиента">
<polygon fill="white" stroke="#666666" points="555.75,-127 374.75,-127 374.75,-107 555.75,-107 555.75,-127"/>
<text text-anchor="middle" x="465.25" y="-113.5" font-family="Arial" font-size="10.00">MyTcpServer::slotClientDisconnected</text>
</a>
</g>
</g>
<!-- Node2&#45;&gt;Node3 -->
<g id="edge2_Node000002_Node000003" class="edge">
<title>Node2&#45;&gt;Node3</title>
<g id="a_edge2_Node000002_Node000003"><a xlink:title=" ">
<path fill="none" stroke="#63b8ff" d="M338.99,-105.51C346.9,-106.24 355,-106.98 363.07,-107.72"/>
<polygon fill="#63b8ff" stroke="#63b8ff" points="362.67,-111.2 372.94,-108.62 363.31,-104.23 362.67,-111.2"/>
</a>
</g>
</g>
<!-- Node4 -->
<g id="Node000004" class="node">
<title>Node4</title>
<g id="a_Node000004"><a xlink:href="class_my_tcp_server.html#ab4a64d2eab985d723090963f5c8a2882" target="_top" xlink:title="Обработчик входящих данных">
<polygon fill="white" stroke="#666666" points="538.88,-89 391.62,-89 391.62,-69 538.88,-69 538.88,-89"/>
<text text-anchor="middle" x="465.25" y="-75.5" font-family="Arial" font-size="10.00">MyTcpServer::slotServerRead</text>
</a>
</g>
</g>
<!-- Node2&#45;&gt;Node4 -->
<g id="edge3_Node000002_Node000004" class="edge">
<title>Node2&#45;&gt;Node4</title>
<g id="a_edge3_Node000002_Node000004"><a xlink:title=" ">
<path fill="none" stroke="#63b8ff" d="M338.99,-90.49C352.5,-89.25 366.53,-87.96 380.11,-86.72"/>
<polygon fill="#63b8ff" stroke="#63b8ff" points="380.23,-90.22 389.87,-85.82 379.59,-83.25 380.23,-90.22"/>
</a>
</g>
</g>
<!-- Node5 -->
<g id="Node000005" class="node">
<title>Node5</title>
<g id="a_Node000005"><a xlink:href="classequation_solver.html#abab7d0cc0f7be9a9313639be9a5dd320" target="_top" xlink:title="Решает уравнение итерационным методом">
<polygon fill="white" stroke="#666666" points="736.75,-95 591.75,-95 591.75,-63 736.75,-63 736.75,-95"/>
<text text-anchor="start" x="599.75" y="-81.5" font-family="Arial" font-size="10.00">equationSolver::solveIteration</text>
<text text-anchor="middle" x="664.25" y="-69.5" font-family="Arial" font-size="10.00">Method</text>
</a>
</g>
</g>
<!-- Node4&#45;&gt;Node5 -->
<g id="edge4_Node000004_Node000005" class="edge">
<title>Node4&#45;&gt;Node5</title>
<g id="a_edge4_Node000004_Node000005"><a xlink:title=" ">
<path fill="none" stroke="#63b8ff" d="M539.33,-79C552.59,-79 566.51,-79 580.03,-79"/>
<polygon fill="#63b8ff" stroke="#63b8ff" points="579.76,-82.5 589.76,-79 579.76,-75.5 579.76,-82.5"/>
</a>
</g>
</g>
<!-- Node6 -->
<g id="Node000006" class="node">
<title>Node6</title>
<g id="a_Node000006"><a xlink:href="homewindow_8cpp.html#ad384c9b1f47b29100c519ede52000f65" target="_top" xlink:title="Функция phi для экспоненциального уравнения: exp(&#45;x).">
<polygon fill="white" stroke="#666666" points="847.27,-146 818.48,-146 818.48,-126 847.27,-126 847.27,-146"/>
<text text-anchor="middle" x="832.88" y="-132.5" font-family="Arial" font-size="10.00">phi</text>
</a>
</g>
</g>
<!-- Node5&#45;&gt;Node6 -->
<g id="edge5_Node000005_Node000006" class="edge">
<title>Node5&#45;&gt;Node6</title>
<g id="a_edge5_Node000005_Node000006"><a xlink:title=" ">
<path fill="none" stroke="#63b8ff" d="M710.92,-95.47C729.99,-102.26 752.4,-110.13 772.75,-117 784.15,-120.85 796.85,-124.95 807.55,-128.36"/>
<polygon fill="#63b8ff" stroke="#63b8ff" points="806.18,-131.6 816.77,-131.28 808.3,-124.92 806.18,-131.6"/>
</a>
</g>
</g>
<!-- Node7 -->
<g id="Node000007" class="node">
<title>Node7</title>
<g id="a_Node000007"><a xlink:href="classequation_solver.html#ad556c59ef7a6de3b53e3d582de0b14fe" target="_top" xlink:title="Косинусная функция для итерационного метода">
<polygon fill="white" stroke="#666666" points="893,-108 772.75,-108 772.75,-88 893,-88 893,-108"/>
<text text-anchor="middle" x="832.88" y="-94.5" font-family="Arial" font-size="10.00">equationSolver::phi_cos</text>
</a>
</g>
</g>
<!-- Node5&#45;&gt;Node7 -->
<g id="edge6_Node000005_Node000007" class="edge">
<title>Node5&#45;&gt;Node7</title>
<g id="a_edge6_Node000005_Node000007"><a xlink:title=" ">
<path fill="none" stroke="#63b8ff" d="M736.88,-87.17C744.91,-88.08 753.1,-89.02 761.12,-89.93"/>
<polygon fill="#63b8ff" stroke="#63b8ff" points="760.49,-93.38 770.82,-91.04 761.28,-86.43 760.49,-93.38"/>
</a>
</g>
</g>
<!-- Node8 -->
<g id="Node000008" class="node">
<title>Node8</title>
<g id="a_Node000008"><a xlink:href="classequation_solver.html#a362aca455505cc2ecf6fb59abd416226" target="_top" xlink:title="Экспоненциальная функция для итерационного метода">
<polygon fill="white" stroke="#666666" points="893,-70 772.75,-70 772.75,-50 893,-50 893,-70"/>
<text text-anchor="middle" x="832.88" y="-56.5" font-family="Arial" font-size="10.00">equationSolver::phi_exp</text>
</a>
</g>
</g>
<!-- Node5&#45;&gt;Node8 -->
<g id="edge7_Node000005_Node000008" class="edge">
<title>Node5&#45;&gt;Node8</title>
<g id="a_edge7_Node000005_Node000008"><a xlink:title=" ">
<path fill="none" stroke="#63b8ff" d="M736.88,-70.83C744.91,-69.92 753.1,-68.98 761.12,-68.07"/>
<polygon fill="#63b8ff" stroke="#63b8ff" points="761.28,-71.57 770.82,-66.96 760.49,-64.62 761.28,-71.57"/>
</a>
</g>
</g>
<!-- Node9 -->
<g id="Node000009" class="node">
<title>Node9</title>
<g id="a_Node000009"><a xlink:href="classequation_solver.html#a12a0a3db542d472b8b9007dabcea1138" target="_top" xlink:title="Квадратичная функция для итерационного метода">
<polygon fill="white" stroke="#666666" points="882.5,-32 783.25,-32 783.25,0 882.5,0 882.5,-32"/>
<text text-anchor="start" x="791.25" y="-18.5" font-family="Arial" font-size="10.00">equationSolver::phi</text>
<text text-anchor="middle" x="832.88" y="-6.5" font-family="Arial" font-size="10.00">_quadratic</text>
</a>
</g>
</g>
<!-- Node5&#45;&gt;Node9 -->
<g id="edge8_Node000005_Node000009" class="edge">
<title>Node5&#45;&gt;Node9</title>
<g id="a_edge8_Node000005_Node000009"><a xlink:title=" ">
<path fill="none" stroke="#63b8ff" d="M708.59,-62.61C729.72,-54.62 755.35,-44.93 777.75,-36.46"/>
<polygon fill="#63b8ff" stroke="#63b8ff" points="778.93,-39.76 787.04,-32.95 776.45,-33.21 778.93,-39.76"/>
</a>
</g>
</g>
</g>
</svg>
