<?xml version="1.0" encoding="UTF-8" standalone="no"?>
<!DOCTYPE svg PUBLIC "-//W3C//DTD SVG 1.1//EN"
 "http://www.w3.org/Graphics/SVG/1.1/DTD/svg11.dtd">
<!-- Generated by graphviz version 12.2.1 (20241206.2353)
 -->
<!-- Title: HomeWindow::HomeWindow Pages: 1 -->
<svg width="341pt" height="66pt"
 viewBox="0.00 0.00 340.75 66.00" xmlns="http://www.w3.org/2000/svg" xmlns:xlink="http://www.w3.org/1999/xlink">
<g id="graph0" class="graph" transform="scale(1 1) rotate(0) translate(4 62)">
<title>HomeWindow::HomeWindow</title>
<!-- Node1 -->
<g id="Node000001" class="node">
<title>Node1</title>
<g id="a_Node000001"><a xlink:title="Конструктор главного окна.">
<polygon fill="#999999" stroke="#666666" points="145,-39 0,-39 0,-19 145,-19 145,-39"/>
<text text-anchor="middle" x="72.5" y="-25.5" font-family="Arial" font-size="10.00">HomeWindow::HomeWindow</text>
</a>
</g>
</g>
<!-- Node1&#45;&gt;Node1 -->
<g id="edge3_Node000001_Node000001" class="edge">
<title>Node1&#45;&gt;Node1</title>
<g id="a_edge3_Node000001_Node000001"><a xlink:title=" ">
<path fill="none" stroke="#63b8ff" d="M43.2,-39.34C30.69,-47.98 40.45,-57 72.5,-57 90.53,-57 101.5,-54.14 105.43,-50.11"/>
<polygon fill="#63b8ff" stroke="#63b8ff" points="108.79,-49.13 102.28,-40.77 102.16,-51.37 108.79,-49.13"/>
</a>
</g>
</g>
<!-- Node2 -->
<g id="Node000002" class="node">
<title>Node2</title>
<g id="a_Node000002"><a xlink:href="class_client_manager.html#ae2222a8ff9ab236441da540ee865a449" target="_top" xlink:title="Сигнал результата решения уравнения.">
<polygon fill="white" stroke="#666666" points="332.75,-58 181,-58 181,-38 332.75,-38 332.75,-58"/>
<text text-anchor="middle" x="256.88" y="-44.5" font-family="Arial" font-size="10.00">ClientManager::equationSolved</text>
</a>
</g>
</g>
<!-- Node1&#45;&gt;Node2 -->
<g id="edge1_Node000001_Node000002" class="edge">
<title>Node1&#45;&gt;Node2</title>
<g id="a_edge1_Node000001_Node000002"><a xlink:title=" ">
<path fill="none" stroke="#63b8ff" d="M145.32,-36.48C153.18,-37.3 161.24,-38.14 169.25,-38.98"/>
<polygon fill="#63b8ff" stroke="#63b8ff" points="168.71,-42.44 179.02,-39.99 169.43,-35.48 168.71,-42.44"/>
</a>
</g>
</g>
<!-- Node3 -->
<g id="Node000003" class="node">
<title>Node3</title>
<g id="a_Node000003"><a xlink:href="class_client_manager.html#a712e826ffb83b207a1c74831fea63837" target="_top" xlink:title="Получить единственный экземпляр ClientManager.">
<polygon fill="white" stroke="#666666" points="324.88,-20 188.88,-20 188.88,0 324.88,0 324.88,-20"/>
<text text-anchor="middle" x="256.88" y="-6.5" font-family="Arial" font-size="10.00">ClientManager::getInstance</text>
</a>
</g>
</g>
<!-- Node1&#45;&gt;Node3 -->
<g id="edge2_Node000001_Node000003" class="edge">
<title>Node1&#45;&gt;Node3</title>
<g id="a_edge2_Node000001_Node000003"><a xlink:title=" ">
<path fill="none" stroke="#63b8ff" d="M145.32,-21.52C155.79,-20.43 166.61,-19.3 177.21,-18.2"/>
<polygon fill="#63b8ff" stroke="#63b8ff" points="177.5,-21.68 187.08,-17.17 176.77,-14.72 177.5,-21.68"/>
</a>
</g>
</g>
</g>
</svg>
