<?xml version="1.0" encoding="UTF-8" standalone="no"?>
<!DOCTYPE svg PUBLIC "-//W3C//DTD SVG 1.1//EN"
 "http://www.w3.org/Graphics/SVG/1.1/DTD/svg11.dtd">
<!-- Generated by graphviz version 12.2.1 (20241206.2353)
 -->
<!-- Title: ClientManager::loginUser Pages: 1 -->
<svg width="310pt" height="66pt"
 viewBox="0.00 0.00 310.00 66.00" xmlns="http://www.w3.org/2000/svg" xmlns:xlink="http://www.w3.org/1999/xlink">
<g id="graph0" class="graph" transform="scale(1 1) rotate(0) translate(4 62)">
<title>ClientManager::loginUser</title>
<!-- Node1 -->
<g id="Node000001" class="node">
<title>Node1</title>
<g id="a_Node000001"><a xlink:title="Авторизовать пользователя.">
<polygon fill="#999999" stroke="#666666" points="126.25,-39 0,-39 0,-19 126.25,-19 126.25,-39"/>
<text text-anchor="middle" x="63.12" y="-25.5" font-family="Arial" font-size="10.00">ClientManager::loginUser</text>
</a>
</g>
</g>
<!-- Node2 -->
<g id="Node000002" class="node">
<title>Node2</title>
<g id="a_Node000002"><a xlink:href="class_client_manager.html#a8b68d6ccc61477be3e5f90760434b4b9" target="_top" xlink:title="Проверить, установлено ли соединение с сервером.">
<polygon fill="white" stroke="#666666" points="302,-58 162.25,-58 162.25,-38 302,-38 302,-58"/>
<text text-anchor="middle" x="232.12" y="-44.5" font-family="Arial" font-size="10.00">ClientManager::isConnected</text>
</a>
</g>
</g>
<!-- Node1&#45;&gt;Node2 -->
<g id="edge1_Node000001_Node000002" class="edge">
<title>Node1&#45;&gt;Node2</title>
<g id="a_edge1_Node000001_Node000002"><a xlink:title=" ">
<path fill="none" stroke="#63b8ff" d="M126.31,-36.07C134.19,-36.97 142.34,-37.9 150.45,-38.82"/>
<polygon fill="#63b8ff" stroke="#63b8ff" points="150.03,-42.3 160.37,-39.95 150.83,-35.34 150.03,-42.3"/>
</a>
</g>
</g>
<!-- Node3 -->
<g id="Node000003" class="node">
<title>Node3</title>
<g id="a_Node000003"><a xlink:href="class_client_manager.html#aafa6d47d5d59e7b660ef0865a464ba51" target="_top" xlink:title="Сигнал результата авторизации пользователя.">
<polygon fill="white" stroke="#666666" points="299,-20 165.25,-20 165.25,0 299,0 299,-20"/>
<text text-anchor="middle" x="232.12" y="-6.5" font-family="Arial" font-size="10.00">ClientManager::loginResult</text>
</a>
</g>
</g>
<!-- Node1&#45;&gt;Node3 -->
<g id="edge2_Node000001_Node000003" class="edge">
<title>Node1&#45;&gt;Node3</title>
<g id="a_edge2_Node000001_Node000003"><a xlink:title=" ">
<path fill="none" stroke="#63b8ff" d="M126.31,-21.93C135.28,-20.9 144.59,-19.84 153.81,-18.8"/>
<polygon fill="#63b8ff" stroke="#63b8ff" points="153.93,-22.31 163.47,-17.7 153.14,-15.35 153.93,-22.31"/>
</a>
</g>
</g>
</g>
</svg>
