<?xml version="1.0" encoding="UTF-8" standalone="no"?>
<!DOCTYPE svg PUBLIC "-//W3C//DTD SVG 1.1//EN"
 "http://www.w3.org/Graphics/SVG/1.1/DTD/svg11.dtd">
<!-- Generated by graphviz version 12.2.1 (20241206.2353)
 -->
<!-- Title: ClientManager::passwordResetResult Pages: 1 -->
<svg width="348pt" height="122pt"
 viewBox="0.00 0.00 347.50 122.00" xmlns="http://www.w3.org/2000/svg" xmlns:xlink="http://www.w3.org/1999/xlink">
<g id="graph0" class="graph" transform="scale(1 1) rotate(0) translate(4 118)">
<title>ClientManager::passwordResetResult</title>
<!-- Node1 -->
<g id="Node000001" class="node">
<title>Node1</title>
<g id="a_Node000001"><a xlink:title="Сигнал результата сброса пароля.">
<polygon fill="#999999" stroke="#666666" points="339.5,-64 186.25,-64 186.25,-32 339.5,-32 339.5,-64"/>
<text text-anchor="start" x="194.25" y="-50.5" font-family="Arial" font-size="10.00">ClientManager::passwordReset</text>
<text text-anchor="middle" x="262.88" y="-38.5" font-family="Arial" font-size="10.00">Result</text>
</a>
</g>
</g>
<!-- Node2 -->
<g id="Node000002" class="node">
<title>Node2</title>
<g id="a_Node000002"><a xlink:href="class_auth_reg_form.html#a7ec2ba2a7980453c629e141a90602e68" target="_top" xlink:title="Конструктор формы авторизации и регистрации.">
<polygon fill="white" stroke="#666666" points="146.88,-96 3.38,-96 3.38,-76 146.88,-76 146.88,-96"/>
<text text-anchor="middle" x="75.12" y="-82.5" font-family="Arial" font-size="10.00">AuthRegForm::AuthRegForm</text>
</a>
</g>
</g>
<!-- Node1&#45;&gt;Node2 -->
<g id="edge1_Node000001_Node000002" class="edge">
<title>Node1&#45;&gt;Node2</title>
<g id="a_edge1_Node000001_Node000002"><a xlink:title=" ">
<path fill="none" stroke="#63b8ff" d="M174.66,-65.84C158.49,-69.15 142.09,-72.5 127.44,-75.5"/>
<polygon fill="#63b8ff" stroke="#63b8ff" points="175.21,-69.3 184.3,-63.87 173.81,-62.44 175.21,-69.3"/>
</a>
</g>
</g>
<!-- Node3 -->
<g id="Node000003" class="node">
<title>Node3</title>
<g id="a_Node000003"><a xlink:href="class_client_manager.html#af3e942aaadc4886238d41499eab01d53" target="_top" xlink:title="Сбросить пароль пользователя.">
<polygon fill="white" stroke="#666666" points="150.25,-58 0,-58 0,-38 150.25,-38 150.25,-58"/>
<text text-anchor="middle" x="75.12" y="-44.5" font-family="Arial" font-size="10.00">ClientManager::resetPassword</text>
</a>
</g>
</g>
<!-- Node1&#45;&gt;Node3 -->
<g id="edge3_Node000001_Node000003" class="edge">
<title>Node1&#45;&gt;Node3</title>
<g id="a_edge3_Node000001_Node000003"><a xlink:title=" ">
<path fill="none" stroke="#63b8ff" d="M174.53,-48C166.53,-48 158.47,-48 150.59,-48"/>
<polygon fill="#63b8ff" stroke="#63b8ff" points="174.27,-51.5 184.27,-48 174.27,-44.5 174.27,-51.5"/>
</a>
</g>
</g>
<!-- Node4 -->
<g id="Node000004" class="node">
<title>Node4</title>
<g id="a_Node000004"><a xlink:href="class_auth_reg_form.html#a8b95ad00c5d29338f850a0f179b12078" target="_top" xlink:title="Деструктор формы.">
<polygon fill="white" stroke="#666666" points="149.88,-20 0.38,-20 0.38,0 149.88,0 149.88,-20"/>
<text text-anchor="middle" x="75.12" y="-6.5" font-family="Arial" font-size="10.00">AuthRegForm::~AuthRegForm</text>
</a>
</g>
</g>
<!-- Node1&#45;&gt;Node4 -->
<g id="edge4_Node000001_Node000004" class="edge">
<title>Node1&#45;&gt;Node4</title>
<g id="a_edge4_Node000001_Node000004"><a xlink:title=" ">
<path fill="none" stroke="#63b8ff" d="M174.66,-30.16C158.49,-26.85 142.09,-23.5 127.44,-20.5"/>
<polygon fill="#63b8ff" stroke="#63b8ff" points="173.81,-33.56 184.3,-32.13 175.21,-26.7 173.81,-33.56"/>
</a>
</g>
</g>
<!-- Node2&#45;&gt;Node2 -->
<g id="edge2_Node000002_Node000002" class="edge">
<title>Node2&#45;&gt;Node2</title>
<g id="a_edge2_Node000002_Node000002"><a xlink:title=" ">
<path fill="none" stroke="#63b8ff" d="M108.66,-107.11C104.66,-111.14 93.48,-114 75.12,-114 42.49,-114 32.54,-104.98 45.29,-96.34"/>
<polygon fill="#63b8ff" stroke="#63b8ff" points="112.01,-106.09 105.45,-97.77 105.39,-108.36 112.01,-106.09"/>
</a>
</g>
</g>
</g>
</svg>
