<?xml version="1.0" encoding="UTF-8" standalone="no"?>
<!DOCTYPE svg PUBLIC "-//W3C//DTD SVG 1.1//EN"
 "http://www.w3.org/Graphics/SVG/1.1/DTD/svg11.dtd">
<!-- Generated by graphviz version 12.2.1 (20241206.2353)
 -->
<!-- Title: ClientManager::connectionStatusChanged Pages: 1 -->
<svg width="320pt" height="52pt"
 viewBox="0.00 0.00 319.75 52.00" xmlns="http://www.w3.org/2000/svg" xmlns:xlink="http://www.w3.org/1999/xlink">
<g id="graph0" class="graph" transform="scale(1 1) rotate(0) translate(4 48)">
<title>ClientManager::connectionStatusChanged</title>
<!-- Node1 -->
<g id="Node000001" class="node">
<title>Node1</title>
<g id="a_Node000001"><a xlink:title="Сигнал изменения статуса соединения.">
<polygon fill="#999999" stroke="#666666" points="311.75,-32 179.5,-32 179.5,0 311.75,0 311.75,-32"/>
<text text-anchor="start" x="187.5" y="-18.5" font-family="Arial" font-size="10.00">ClientManager::connection</text>
<text text-anchor="middle" x="245.62" y="-6.5" font-family="Arial" font-size="10.00">StatusChanged</text>
</a>
</g>
</g>
<!-- Node2 -->
<g id="Node000002" class="node">
<title>Node2</title>
<g id="a_Node000002"><a xlink:href="class_auth_reg_form.html#a7ec2ba2a7980453c629e141a90602e68" target="_top" xlink:title="Конструктор формы авторизации и регистрации.">
<polygon fill="white" stroke="#666666" points="143.5,-26 0,-26 0,-6 143.5,-6 143.5,-26"/>
<text text-anchor="middle" x="71.75" y="-12.5" font-family="Arial" font-size="10.00">AuthRegForm::AuthRegForm</text>
</a>
</g>
</g>
<!-- Node1&#45;&gt;Node2 -->
<g id="edge1_Node000001_Node000002" class="edge">
<title>Node1&#45;&gt;Node2</title>
<g id="a_edge1_Node000001_Node000002"><a xlink:title=" ">
<path fill="none" stroke="#63b8ff" d="M167.9,-16C159.87,-16 151.73,-16 143.76,-16"/>
<polygon fill="#63b8ff" stroke="#63b8ff" points="167.64,-19.5 177.64,-16 167.64,-12.5 167.64,-19.5"/>
</a>
</g>
</g>
<!-- Node2&#45;&gt;Node2 -->
<g id="edge2_Node000002_Node000002" class="edge">
<title>Node2&#45;&gt;Node2</title>
<g id="a_edge2_Node000002_Node000002"><a xlink:title=" ">
<path fill="none" stroke="#63b8ff" d="M102.81,-37.11C99.1,-41.14 88.75,-44 71.75,-44 41.53,-44 32.32,-34.98 44.12,-26.34"/>
<polygon fill="#63b8ff" stroke="#63b8ff" points="106.2,-36.25 99.84,-27.78 99.53,-38.37 106.2,-36.25"/>
</a>
</g>
</g>
</g>
</svg>
