<?xml version="1.0" encoding="UTF-8" standalone="no"?>
<!DOCTYPE svg PUBLIC "-//W3C//DTD SVG 1.1//EN"
 "http://www.w3.org/Graphics/SVG/1.1/DTD/svg11.dtd">
<!-- Generated by graphviz version 12.2.1 (20241206.2353)
 -->
<!-- Title: ClientManager::isConnected Pages: 1 -->
<svg width="432pt" height="309pt"
 viewBox="0.00 0.00 431.75 308.69" xmlns="http://www.w3.org/2000/svg" xmlns:xlink="http://www.w3.org/1999/xlink">
<g id="graph0" class="graph" transform="scale(1 1) rotate(0) translate(4 304.69)">
<title>ClientManager::isConnected</title>
<!-- Node1 -->
<g id="Node000001" class="node">
<title>Node1</title>
<g id="a_Node000001"><a xlink:title="Проверить, установлено ли соединение с сервером.">
<polygon fill="#999999" stroke="#666666" points="423.75,-153 284,-153 284,-133 423.75,-133 423.75,-153"/>
<text text-anchor="middle" x="353.88" y="-139.5" font-family="Arial" font-size="10.00">ClientManager::isConnected</text>
</a>
</g>
</g>
<!-- Node2 -->
<g id="Node000002" class="node">
<title>Node2</title>
<g id="a_Node000002"><a xlink:href="funcsforclient_8cpp.html#ae14792135403f186fb2c51f377b515ab" target="_top" xlink:title="Функция авторизации пользователя.">
<polygon fill="white" stroke="#666666" points="34.75,-219 0,-219 0,-199 34.75,-199 34.75,-219"/>
<text text-anchor="middle" x="17.38" y="-205.5" font-family="Arial" font-size="10.00">auth</text>
</a>
</g>
</g>
<!-- Node1&#45;&gt;Node2 -->
<g id="edge1_Node000001_Node000002" class="edge">
<title>Node1&#45;&gt;Node2</title>
<g id="a_edge1_Node000001_Node000002"><a xlink:title=" ">
<path fill="none" stroke="#63b8ff" d="M343.84,-163.57C328.98,-194.48 296.15,-251.76 248,-275 177.05,-309.24 141.69,-309.27 70.75,-275 46.78,-263.42 30.42,-234.95 22.96,-219.45"/>
<polygon fill="#63b8ff" stroke="#63b8ff" points="347.01,-165.06 348.02,-154.51 340.65,-162.13 347.01,-165.06"/>
</a>
</g>
</g>
<!-- Node3 -->
<g id="Node000003" class="node">
<title>Node3</title>
<g id="a_Node000003"><a xlink:href="class_auth_reg_form.html#a7ec2ba2a7980453c629e141a90602e68" target="_top" xlink:title="Конструктор формы авторизации и регистрации.">
<polygon fill="white" stroke="#666666" points="231.12,-248 87.62,-248 87.62,-228 231.12,-228 231.12,-248"/>
<text text-anchor="middle" x="159.38" y="-234.5" font-family="Arial" font-size="10.00">AuthRegForm::AuthRegForm</text>
</a>
</g>
</g>
<!-- Node1&#45;&gt;Node3 -->
<g id="edge2_Node000001_Node000003" class="edge">
<title>Node1&#45;&gt;Node3</title>
<g id="a_edge2_Node000001_Node000003"><a xlink:title=" ">
<path fill="none" stroke="#63b8ff" d="M333.44,-160.95C313.48,-178.4 280.79,-204.35 248,-219 240.33,-222.43 231.99,-225.26 223.61,-227.59"/>
<polygon fill="#63b8ff" stroke="#63b8ff" points="335.66,-163.66 340.78,-154.39 330.99,-158.44 335.66,-163.66"/>
</a>
</g>
</g>
<!-- Node4 -->
<g id="Node000004" class="node">
<title>Node4</title>
<g id="a_Node000004"><a xlink:href="class_client_manager.html#a1a17ae5acd787b26f64d69d1056200ce" target="_top" xlink:title="Авторизовать пользователя.">
<polygon fill="white" stroke="#666666" points="222.5,-210 96.25,-210 96.25,-190 222.5,-190 222.5,-210"/>
<text text-anchor="middle" x="159.38" y="-196.5" font-family="Arial" font-size="10.00">ClientManager::loginUser</text>
</a>
</g>
</g>
<!-- Node1&#45;&gt;Node4 -->
<g id="edge4_Node000001_Node000004" class="edge">
<title>Node1&#45;&gt;Node4</title>
<g id="a_edge4_Node000001_Node000004"><a xlink:title=" ">
<path fill="none" stroke="#63b8ff" d="M310.13,-156.85C291.15,-162.89 268.51,-169.97 248,-176 232.26,-180.63 214.85,-185.46 199.72,-189.56"/>
<polygon fill="#63b8ff" stroke="#63b8ff" points="310.94,-160.26 319.4,-153.88 308.81,-153.6 310.94,-160.26"/>
</a>
</g>
</g>
<!-- Node5 -->
<g id="Node000005" class="node">
<title>Node5</title>
<g id="a_Node000005"><a xlink:href="funcsforclient_8cpp.html#a9638764c61635aa7172dc25ef99ce281" target="_top" xlink:title="Функция регистрации нового пользователя.">
<polygon fill="white" stroke="#666666" points="32.12,-162 2.62,-162 2.62,-142 32.12,-142 32.12,-162"/>
<text text-anchor="middle" x="17.38" y="-148.5" font-family="Arial" font-size="10.00">reg</text>
</a>
</g>
</g>
<!-- Node1&#45;&gt;Node5 -->
<g id="edge6_Node000001_Node000005" class="edge">
<title>Node1&#45;&gt;Node5</title>
<g id="a_edge6_Node000001_Node000005"><a xlink:title=" ">
<path fill="none" stroke="#63b8ff" d="M272.41,-145.16C191.5,-147.34 73.12,-150.53 32.59,-151.62"/>
<polygon fill="#63b8ff" stroke="#63b8ff" points="272.15,-148.67 282.05,-144.91 271.96,-141.68 272.15,-148.67"/>
</a>
</g>
</g>
<!-- Node6 -->
<g id="Node000006" class="node">
<title>Node6</title>
<g id="a_Node000006"><a xlink:href="class_client_manager.html#a092a44dab9d3020071e398565c15b039" target="_top" xlink:title="Зарегистрировать нового пользователя.">
<polygon fill="white" stroke="#666666" points="228.5,-134 90.25,-134 90.25,-114 228.5,-114 228.5,-134"/>
<text text-anchor="middle" x="159.38" y="-120.5" font-family="Arial" font-size="10.00">ClientManager::registerUser</text>
</a>
</g>
</g>
<!-- Node1&#45;&gt;Node6 -->
<g id="edge7_Node000001_Node000006" class="edge">
<title>Node1&#45;&gt;Node6</title>
<g id="a_edge7_Node000001_Node000006"><a xlink:title=" ">
<path fill="none" stroke="#63b8ff" d="M272.24,-135.04C257.86,-133.62 243,-132.15 228.99,-130.77"/>
<polygon fill="#63b8ff" stroke="#63b8ff" points="271.85,-138.52 282.14,-136.02 272.54,-131.55 271.85,-138.52"/>
</a>
</g>
</g>
<!-- Node7 -->
<g id="Node000007" class="node">
<title>Node7</title>
<g id="a_Node000007"><a xlink:href="class_client_manager.html#af3e942aaadc4886238d41499eab01d53" target="_top" xlink:title="Сбросить пароль пользователя.">
<polygon fill="white" stroke="#666666" points="234.5,-96 84.25,-96 84.25,-76 234.5,-76 234.5,-96"/>
<text text-anchor="middle" x="159.38" y="-82.5" font-family="Arial" font-size="10.00">ClientManager::resetPassword</text>
</a>
</g>
</g>
<!-- Node1&#45;&gt;Node7 -->
<g id="edge9_Node000001_Node000007" class="edge">
<title>Node1&#45;&gt;Node7</title>
<g id="a_edge9_Node000001_Node000007"><a xlink:title=" ">
<path fill="none" stroke="#63b8ff" d="M316.81,-128.57C296.76,-120.9 271.24,-111.7 248,-105 237.08,-101.85 225.26,-98.96 213.95,-96.42"/>
<polygon fill="#63b8ff" stroke="#63b8ff" points="315.33,-131.76 325.92,-132.11 317.86,-125.23 315.33,-131.76"/>
</a>
</g>
</g>
<!-- Node8 -->
<g id="Node000008" class="node">
<title>Node8</title>
<g id="a_Node000008"><a xlink:href="class_client_manager.html#af355cfb20b23f94b91a88d411f639eea" target="_top" xlink:title="Отправить код подтверждения для восстановления пароля.">
<polygon fill="white" stroke="#666666" points="248,-58 70.75,-58 70.75,-38 248,-38 248,-58"/>
<text text-anchor="middle" x="159.38" y="-44.5" font-family="Arial" font-size="10.00">ClientManager::sendVerificationCode</text>
</a>
</g>
</g>
<!-- Node1&#45;&gt;Node8 -->
<g id="edge10_Node000001_Node000008" class="edge">
<title>Node1&#45;&gt;Node8</title>
<g id="a_edge10_Node000001_Node000008"><a xlink:title=" ">
<path fill="none" stroke="#63b8ff" d="M333.44,-125.05C313.48,-107.6 280.79,-81.65 248,-67 240.33,-63.57 231.99,-60.74 223.61,-58.41"/>
<polygon fill="#63b8ff" stroke="#63b8ff" points="330.99,-127.56 340.78,-131.61 335.66,-122.34 330.99,-127.56"/>
</a>
</g>
</g>
<!-- Node9 -->
<g id="Node000009" class="node">
<title>Node9</title>
<g id="a_Node000009"><a xlink:href="class_client_manager.html#a736ed42962d75301a80e9a59a68182d1" target="_top" xlink:title="Решить уравнение на сервере.">
<polygon fill="white" stroke="#666666" points="232.62,-20 86.12,-20 86.12,0 232.62,0 232.62,-20"/>
<text text-anchor="middle" x="159.38" y="-6.5" font-family="Arial" font-size="10.00">ClientManager::solveEquation</text>
</a>
</g>
</g>
<!-- Node1&#45;&gt;Node9 -->
<g id="edge11_Node000001_Node000009" class="edge">
<title>Node1&#45;&gt;Node9</title>
<g id="a_edge11_Node000001_Node000009"><a xlink:title=" ">
<path fill="none" stroke="#63b8ff" d="M340.26,-122.97C322.81,-97.03 288.81,-52.38 248,-29 241.92,-25.52 235.27,-22.67 228.44,-20.35"/>
<polygon fill="#63b8ff" stroke="#63b8ff" points="337.27,-124.8 345.67,-131.25 343.13,-120.97 337.27,-124.8"/>
</a>
</g>
</g>
<!-- Node3&#45;&gt;Node3 -->
<g id="edge3_Node000003_Node000003" class="edge">
<title>Node3&#45;&gt;Node3</title>
<g id="a_edge3_Node000003_Node000003"><a xlink:title=" ">
<path fill="none" stroke="#63b8ff" d="M184.47,-259.44C181.24,-263.3 172.87,-266 159.38,-266 134.69,-266 127.17,-256.98 136.81,-248.34"/>
<polygon fill="#63b8ff" stroke="#63b8ff" points="187.91,-258.78 182.27,-249.81 181.09,-260.34 187.91,-258.78"/>
</a>
</g>
</g>
<!-- Node4&#45;&gt;Node2 -->
<g id="edge5_Node000004_Node000002" class="edge">
<title>Node4&#45;&gt;Node2</title>
<g id="a_edge5_Node000004_Node000002"><a xlink:title=" ">
<path fill="none" stroke="#63b8ff" d="M84.85,-204.73C66.17,-205.93 47.83,-207.11 35.16,-207.92"/>
<polygon fill="#63b8ff" stroke="#63b8ff" points="84.89,-208.23 94.64,-204.1 84.44,-201.25 84.89,-208.23"/>
</a>
</g>
</g>
<!-- Node6&#45;&gt;Node5 -->
<g id="edge8_Node000006_Node000005" class="edge">
<title>Node6&#45;&gt;Node5</title>
<g id="a_edge8_Node000006_Node000005"><a xlink:title=" ">
<path fill="none" stroke="#63b8ff" d="M95.24,-136.63C71.83,-141.31 47.38,-146.2 32.51,-149.17"/>
<polygon fill="#63b8ff" stroke="#63b8ff" points="95.64,-140.12 104.76,-134.72 94.27,-133.25 95.64,-140.12"/>
</a>
</g>
</g>
</g>
</svg>
