<?xml version="1.0" encoding="UTF-8" standalone="no"?>
<!DOCTYPE svg PUBLIC "-//W3C//DTD SVG 1.1//EN"
 "http://www.w3.org/Graphics/SVG/1.1/DTD/svg11.dtd">
<!-- Generated by graphviz version 12.2.1 (20241206.2353)
 -->
<!-- Title: AuthRegForm::AuthRegForm Pages: 1 -->
<svg width="341pt" height="354pt"
 viewBox="0.00 0.00 340.75 354.00" xmlns="http://www.w3.org/2000/svg" xmlns:xlink="http://www.w3.org/1999/xlink">
<g id="graph0" class="graph" transform="scale(1 1) rotate(0) translate(4 350)">
<title>AuthRegForm::AuthRegForm</title>
<!-- Node1 -->
<g id="Node000001" class="node">
<title>Node1</title>
<g id="a_Node000001"><a xlink:title="Конструктор формы авторизации и регистрации.">
<polygon fill="#999999" stroke="#666666" points="143.5,-189 0,-189 0,-169 143.5,-169 143.5,-189"/>
<text text-anchor="middle" x="71.75" y="-175.5" font-family="Arial" font-size="10.00">AuthRegForm::AuthRegForm</text>
</a>
</g>
</g>
<!-- Node1&#45;&gt;Node1 -->
<g id="edge1_Node000001_Node000001" class="edge">
<title>Node1&#45;&gt;Node1</title>
<g id="a_edge1_Node000001_Node000001"><a xlink:title=" ">
<path fill="none" stroke="#63b8ff" d="M42.45,-189.34C29.94,-197.98 39.7,-207 71.75,-207 89.78,-207 100.75,-204.14 104.68,-200.11"/>
<polygon fill="#63b8ff" stroke="#63b8ff" points="108.04,-199.13 101.53,-190.77 101.41,-201.37 108.04,-199.13"/>
</a>
</g>
</g>
<!-- Node2 -->
<g id="Node000002" class="node">
<title>Node2</title>
<g id="a_Node000002"><a xlink:href="class_client_manager.html#ad9131f7b0775a8cdaa9690b3460d8137" target="_top" xlink:title="Сигнал изменения статуса соединения.">
<polygon fill="white" stroke="#666666" points="322.25,-346 190,-346 190,-314 322.25,-314 322.25,-346"/>
<text text-anchor="start" x="198" y="-332.5" font-family="Arial" font-size="10.00">ClientManager::connection</text>
<text text-anchor="middle" x="256.12" y="-320.5" font-family="Arial" font-size="10.00">StatusChanged</text>
</a>
</g>
</g>
<!-- Node1&#45;&gt;Node2 -->
<g id="edge2_Node000001_Node000002" class="edge">
<title>Node1&#45;&gt;Node2</title>
<g id="a_edge2_Node000001_Node000002"><a xlink:title=" ">
<path fill="none" stroke="#63b8ff" d="M78.8,-189.49C93.17,-213.47 131.73,-272.77 179.5,-305 181.31,-306.22 183.17,-307.38 185.09,-308.49"/>
<polygon fill="#63b8ff" stroke="#63b8ff" points="183.19,-311.45 193.69,-312.92 186.4,-305.23 183.19,-311.45"/>
</a>
</g>
</g>
<!-- Node3 -->
<g id="Node000003" class="node">
<title>Node3</title>
<g id="a_Node000003"><a xlink:href="class_client_manager.html#ade5e0886a7d8120e8ccca221ef407df1" target="_top" xlink:title="Установить соединение с сервером.">
<polygon fill="white" stroke="#666666" points="321.12,-296 191.12,-296 191.12,-264 321.12,-264 321.12,-296"/>
<text text-anchor="start" x="199.12" y="-282.5" font-family="Arial" font-size="10.00">ClientManager::connectTo</text>
<text text-anchor="middle" x="256.12" y="-270.5" font-family="Arial" font-size="10.00">Server</text>
</a>
</g>
</g>
<!-- Node1&#45;&gt;Node3 -->
<g id="edge3_Node000001_Node000003" class="edge">
<title>Node1&#45;&gt;Node3</title>
<g id="a_edge3_Node000001_Node000003"><a xlink:title=" ">
<path fill="none" stroke="#63b8ff" d="M84.78,-189.42C103.77,-205.43 142.36,-236.18 179.5,-255 182.39,-256.46 185.39,-257.87 188.44,-259.22"/>
<polygon fill="#63b8ff" stroke="#63b8ff" points="187.03,-262.42 197.61,-262.98 189.69,-255.95 187.03,-262.42"/>
</a>
</g>
</g>
<!-- Node4 -->
<g id="Node000004" class="node">
<title>Node4</title>
<g id="a_Node000004"><a xlink:href="class_client_manager.html#a712e826ffb83b207a1c74831fea63837" target="_top" xlink:title="Получить единственный экземпляр ClientManager.">
<polygon fill="white" stroke="#666666" points="324.12,-246 188.12,-246 188.12,-226 324.12,-226 324.12,-246"/>
<text text-anchor="middle" x="256.12" y="-232.5" font-family="Arial" font-size="10.00">ClientManager::getInstance</text>
</a>
</g>
</g>
<!-- Node1&#45;&gt;Node4 -->
<g id="edge4_Node000001_Node000004" class="edge">
<title>Node1&#45;&gt;Node4</title>
<g id="a_edge4_Node000001_Node000004"><a xlink:title=" ">
<path fill="none" stroke="#63b8ff" d="M99.71,-189.41C121.16,-197.49 152.01,-208.68 179.5,-217 186.05,-218.98 192.96,-220.92 199.83,-222.76"/>
<polygon fill="#63b8ff" stroke="#63b8ff" points="198.52,-226.04 209.08,-225.17 200.28,-219.26 198.52,-226.04"/>
</a>
</g>
</g>
<!-- Node5 -->
<g id="Node000005" class="node">
<title>Node5</title>
<g id="a_Node000005"><a xlink:href="class_client_manager.html#a8b68d6ccc61477be3e5f90760434b4b9" target="_top" xlink:title="Проверить, установлено ли соединение с сервером.">
<polygon fill="white" stroke="#666666" points="326,-208 186.25,-208 186.25,-188 326,-188 326,-208"/>
<text text-anchor="middle" x="256.12" y="-194.5" font-family="Arial" font-size="10.00">ClientManager::isConnected</text>
</a>
</g>
</g>
<!-- Node1&#45;&gt;Node5 -->
<g id="edge5_Node000001_Node000005" class="edge">
<title>Node1&#45;&gt;Node5</title>
<g id="a_edge5_Node000001_Node000005"><a xlink:title=" ">
<path fill="none" stroke="#63b8ff" d="M143.78,-186.4C153.81,-187.45 164.18,-188.53 174.38,-189.59"/>
<polygon fill="#63b8ff" stroke="#63b8ff" points="173.97,-193.06 184.28,-190.62 174.69,-186.1 173.97,-193.06"/>
</a>
</g>
</g>
<!-- Node6 -->
<g id="Node000006" class="node">
<title>Node6</title>
<g id="a_Node000006"><a xlink:href="class_client_manager.html#aafa6d47d5d59e7b660ef0865a464ba51" target="_top" xlink:title="Сигнал результата авторизации пользователя.">
<polygon fill="white" stroke="#666666" points="323,-170 189.25,-170 189.25,-150 323,-150 323,-170"/>
<text text-anchor="middle" x="256.12" y="-156.5" font-family="Arial" font-size="10.00">ClientManager::loginResult</text>
</a>
</g>
</g>
<!-- Node1&#45;&gt;Node6 -->
<g id="edge6_Node000001_Node000006" class="edge">
<title>Node1&#45;&gt;Node6</title>
<g id="a_edge6_Node000001_Node000006"><a xlink:title=" ">
<path fill="none" stroke="#63b8ff" d="M143.78,-171.6C154.88,-170.44 166.41,-169.24 177.64,-168.07"/>
<polygon fill="#63b8ff" stroke="#63b8ff" points="177.67,-171.59 187.25,-167.07 176.95,-164.63 177.67,-171.59"/>
</a>
</g>
</g>
<!-- Node7 -->
<g id="Node000007" class="node">
<title>Node7</title>
<g id="a_Node000007"><a xlink:href="class_client_manager.html#aa92b3af32dffef0590a3bbd7e15f60ba" target="_top" xlink:title="Сигнал результата сброса пароля.">
<polygon fill="white" stroke="#666666" points="332.75,-132 179.5,-132 179.5,-100 332.75,-100 332.75,-132"/>
<text text-anchor="start" x="187.5" y="-118.5" font-family="Arial" font-size="10.00">ClientManager::passwordReset</text>
<text text-anchor="middle" x="256.12" y="-106.5" font-family="Arial" font-size="10.00">Result</text>
</a>
</g>
</g>
<!-- Node1&#45;&gt;Node7 -->
<g id="edge7_Node000001_Node000007" class="edge">
<title>Node1&#45;&gt;Node7</title>
<g id="a_edge7_Node000001_Node000007"><a xlink:title=" ">
<path fill="none" stroke="#63b8ff" d="M101.23,-168.66C122.7,-160.92 152.89,-150.13 179.5,-141 184.26,-139.36 189.2,-137.69 194.17,-136.02"/>
<polygon fill="#63b8ff" stroke="#63b8ff" points="195.23,-139.35 203.6,-132.86 193.01,-132.72 195.23,-139.35"/>
</a>
</g>
</g>
<!-- Node8 -->
<g id="Node000008" class="node">
<title>Node8</title>
<g id="a_Node000008"><a xlink:href="class_client_manager.html#a9719c89557aff68620f537e38c456243" target="_top" xlink:title="Сигнал результата регистрации пользователя.">
<polygon fill="white" stroke="#666666" points="322.62,-82 189.62,-82 189.62,-50 322.62,-50 322.62,-82"/>
<text text-anchor="start" x="197.62" y="-68.5" font-family="Arial" font-size="10.00">ClientManager::registration</text>
<text text-anchor="middle" x="256.12" y="-56.5" font-family="Arial" font-size="10.00">Result</text>
</a>
</g>
</g>
<!-- Node1&#45;&gt;Node8 -->
<g id="edge8_Node000001_Node000008" class="edge">
<title>Node1&#45;&gt;Node8</title>
<g id="a_edge8_Node000001_Node000008"><a xlink:title=" ">
<path fill="none" stroke="#63b8ff" d="M82.69,-168.58C100.51,-150.45 139.76,-112.94 179.5,-91 182.13,-89.55 184.86,-88.16 187.66,-86.84"/>
<polygon fill="#63b8ff" stroke="#63b8ff" points="188.83,-90.15 196.6,-82.94 186.03,-83.73 188.83,-90.15"/>
</a>
</g>
</g>
<!-- Node9 -->
<g id="Node000009" class="node">
<title>Node9</title>
<g id="a_Node000009"><a xlink:href="class_client_manager.html#a78aa23d175db3cbcad3d627d46c555aa" target="_top" xlink:title="Сигнал результата отправки кода подтверждения.">
<polygon fill="white" stroke="#666666" points="322.25,-32 190,-32 190,0 322.25,0 322.25,-32"/>
<text text-anchor="start" x="198" y="-18.5" font-family="Arial" font-size="10.00">ClientManager::verification</text>
<text text-anchor="middle" x="256.12" y="-6.5" font-family="Arial" font-size="10.00">CodeResult</text>
</a>
</g>
</g>
<!-- Node1&#45;&gt;Node9 -->
<g id="edge9_Node000001_Node000009" class="edge">
<title>Node1&#45;&gt;Node9</title>
<g id="a_edge9_Node000001_Node000009"><a xlink:title=" ">
<path fill="none" stroke="#63b8ff" d="M77.93,-168.65C91.22,-143.13 129.06,-76.69 179.5,-41 181.09,-39.87 182.74,-38.8 184.42,-37.77"/>
<polygon fill="#63b8ff" stroke="#63b8ff" points="186.01,-40.89 193.16,-33.07 182.69,-34.72 186.01,-40.89"/>
</a>
</g>
</g>
</g>
</svg>
