<?xml version="1.0" encoding="UTF-8" standalone="no"?>
<!DOCTYPE svg PUBLIC "-//W3C//DTD SVG 1.1//EN"
 "http://www.w3.org/Graphics/SVG/1.1/DTD/svg11.dtd">
<!-- Generated by graphviz version 12.2.1 (20241206.2353)
 -->
<!-- Title: equationSolver::solveIterationMethod Pages: 1 -->
<svg width="309pt" height="154pt"
 viewBox="0.00 0.00 309.25 154.00" xmlns="http://www.w3.org/2000/svg" xmlns:xlink="http://www.w3.org/1999/xlink">
<g id="graph0" class="graph" transform="scale(1 1) rotate(0) translate(4 150)">
<title>equationSolver::solveIterationMethod</title>
<!-- Node1 -->
<g id="Node000001" class="node">
<title>Node1</title>
<g id="a_Node000001"><a xlink:title="Решает уравнение итерационным методом">
<polygon fill="#999999" stroke="#666666" points="145,-95 0,-95 0,-63 145,-63 145,-95"/>
<text text-anchor="start" x="8" y="-81.5" font-family="Arial" font-size="10.00">equationSolver::solveIteration</text>
<text text-anchor="middle" x="72.5" y="-69.5" font-family="Arial" font-size="10.00">Method</text>
</a>
</g>
</g>
<!-- Node2 -->
<g id="Node000002" class="node">
<title>Node2</title>
<g id="a_Node000002"><a xlink:href="homewindow_8cpp.html#ad384c9b1f47b29100c519ede52000f65" target="_top" xlink:title="Функция phi для экспоненциального уравнения: exp(&#45;x).">
<polygon fill="white" stroke="#666666" points="255.53,-146 226.72,-146 226.72,-126 255.53,-126 255.53,-146"/>
<text text-anchor="middle" x="241.12" y="-132.5" font-family="Arial" font-size="10.00">phi</text>
</a>
</g>
</g>
<!-- Node1&#45;&gt;Node2 -->
<g id="edge1_Node000001_Node000002" class="edge">
<title>Node1&#45;&gt;Node2</title>
<g id="a_edge1_Node000001_Node000002"><a xlink:title=" ">
<path fill="none" stroke="#63b8ff" d="M119.17,-95.47C138.24,-102.26 160.65,-110.13 181,-117 192.4,-120.85 205.1,-124.95 215.8,-128.36"/>
<polygon fill="#63b8ff" stroke="#63b8ff" points="214.43,-131.6 225.02,-131.28 216.55,-124.92 214.43,-131.6"/>
</a>
</g>
</g>
<!-- Node3 -->
<g id="Node000003" class="node">
<title>Node3</title>
<g id="a_Node000003"><a xlink:href="classequation_solver.html#ad556c59ef7a6de3b53e3d582de0b14fe" target="_top" xlink:title="Косинусная функция для итерационного метода">
<polygon fill="white" stroke="#666666" points="301.25,-108 181,-108 181,-88 301.25,-88 301.25,-108"/>
<text text-anchor="middle" x="241.12" y="-94.5" font-family="Arial" font-size="10.00">equationSolver::phi_cos</text>
</a>
</g>
</g>
<!-- Node1&#45;&gt;Node3 -->
<g id="edge2_Node000001_Node000003" class="edge">
<title>Node1&#45;&gt;Node3</title>
<g id="a_edge2_Node000001_Node000003"><a xlink:title=" ">
<path fill="none" stroke="#63b8ff" d="M145.13,-87.17C153.16,-88.08 161.35,-89.02 169.37,-89.93"/>
<polygon fill="#63b8ff" stroke="#63b8ff" points="168.74,-93.38 179.07,-91.04 169.53,-86.43 168.74,-93.38"/>
</a>
</g>
</g>
<!-- Node4 -->
<g id="Node000004" class="node">
<title>Node4</title>
<g id="a_Node000004"><a xlink:href="classequation_solver.html#a362aca455505cc2ecf6fb59abd416226" target="_top" xlink:title="Экспоненциальная функция для итерационного метода">
<polygon fill="white" stroke="#666666" points="301.25,-70 181,-70 181,-50 301.25,-50 301.25,-70"/>
<text text-anchor="middle" x="241.12" y="-56.5" font-family="Arial" font-size="10.00">equationSolver::phi_exp</text>
</a>
</g>
</g>
<!-- Node1&#45;&gt;Node4 -->
<g id="edge3_Node000001_Node000004" class="edge">
<title>Node1&#45;&gt;Node4</title>
<g id="a_edge3_Node000001_Node000004"><a xlink:title=" ">
<path fill="none" stroke="#63b8ff" d="M145.13,-70.83C153.16,-69.92 161.35,-68.98 169.37,-68.07"/>
<polygon fill="#63b8ff" stroke="#63b8ff" points="169.53,-71.57 179.07,-66.96 168.74,-64.62 169.53,-71.57"/>
</a>
</g>
</g>
<!-- Node5 -->
<g id="Node000005" class="node">
<title>Node5</title>
<g id="a_Node000005"><a xlink:href="classequation_solver.html#a12a0a3db542d472b8b9007dabcea1138" target="_top" xlink:title="Квадратичная функция для итерационного метода">
<polygon fill="white" stroke="#666666" points="290.75,-32 191.5,-32 191.5,0 290.75,0 290.75,-32"/>
<text text-anchor="start" x="199.5" y="-18.5" font-family="Arial" font-size="10.00">equationSolver::phi</text>
<text text-anchor="middle" x="241.12" y="-6.5" font-family="Arial" font-size="10.00">_quadratic</text>
</a>
</g>
</g>
<!-- Node1&#45;&gt;Node5 -->
<g id="edge4_Node000001_Node000005" class="edge">
<title>Node1&#45;&gt;Node5</title>
<g id="a_edge4_Node000001_Node000005"><a xlink:title=" ">
<path fill="none" stroke="#63b8ff" d="M116.84,-62.61C137.97,-54.62 163.6,-44.93 186,-36.46"/>
<polygon fill="#63b8ff" stroke="#63b8ff" points="187.18,-39.76 195.29,-32.95 184.7,-33.21 187.18,-39.76"/>
</a>
</g>
</g>
</g>
</svg>
