<?xml version="1.0" encoding="UTF-8" standalone="no"?>
<!DOCTYPE svg PUBLIC "-//W3C//DTD SVG 1.1//EN"
 "http://www.w3.org/Graphics/SVG/1.1/DTD/svg11.dtd">
<!-- Generated by graphviz version 12.2.1 (20241206.2353)
 -->
<!-- Title: equationSolver::phi_cos Pages: 1 -->
<svg width="867pt" height="40pt"
 viewBox="0.00 0.00 867.25 40.00" xmlns="http://www.w3.org/2000/svg" xmlns:xlink="http://www.w3.org/1999/xlink">
<g id="graph0" class="graph" transform="scale(1 1) rotate(0) translate(4 36)">
<title>equationSolver::phi_cos</title>
<!-- Node1 -->
<g id="Node000001" class="node">
<title>Node1</title>
<g id="a_Node000001"><a xlink:title="Косинусная функция для итерационного метода">
<polygon fill="#999999" stroke="#666666" points="859.25,-26 739,-26 739,-6 859.25,-6 859.25,-26"/>
<text text-anchor="middle" x="799.12" y="-12.5" font-family="Arial" font-size="10.00">equationSolver::phi_cos</text>
</a>
</g>
</g>
<!-- Node2 -->
<g id="Node000002" class="node">
<title>Node2</title>
<g id="a_Node000002"><a xlink:href="classequation_solver.html#abab7d0cc0f7be9a9313639be9a5dd320" target="_top" xlink:title="Решает уравнение итерационным методом">
<polygon fill="white" stroke="#666666" points="703,-32 558,-32 558,0 703,0 703,-32"/>
<text text-anchor="start" x="566" y="-18.5" font-family="Arial" font-size="10.00">equationSolver::solveIteration</text>
<text text-anchor="middle" x="630.5" y="-6.5" font-family="Arial" font-size="10.00">Method</text>
</a>
</g>
</g>
<!-- Node1&#45;&gt;Node2 -->
<g id="edge1_Node000001_Node000002" class="edge">
<title>Node1&#45;&gt;Node2</title>
<g id="a_edge1_Node000001_Node000002"><a xlink:title=" ">
<path fill="none" stroke="#63b8ff" d="M727.4,-16C719.45,-16 711.34,-16 703.37,-16"/>
<polygon fill="#63b8ff" stroke="#63b8ff" points="727.4,-19.5 737.4,-16 727.4,-12.5 727.4,-19.5"/>
</a>
</g>
</g>
<!-- Node3 -->
<g id="Node000003" class="node">
<title>Node3</title>
<g id="a_Node000003"><a xlink:href="class_my_tcp_server.html#ab4a64d2eab985d723090963f5c8a2882" target="_top" xlink:title="Обработчик входящих данных">
<polygon fill="white" stroke="#666666" points="522,-26 374.75,-26 374.75,-6 522,-6 522,-26"/>
<text text-anchor="middle" x="448.38" y="-12.5" font-family="Arial" font-size="10.00">MyTcpServer::slotServerRead</text>
</a>
</g>
</g>
<!-- Node2&#45;&gt;Node3 -->
<g id="edge2_Node000002_Node000003" class="edge">
<title>Node2&#45;&gt;Node3</title>
<g id="a_edge2_Node000002_Node000003"><a xlink:title=" ">
<path fill="none" stroke="#63b8ff" d="M546.05,-16C538.15,-16 530.19,-16 522.4,-16"/>
<polygon fill="#63b8ff" stroke="#63b8ff" points="546.02,-19.5 556.02,-16 546.02,-12.5 546.02,-19.5"/>
</a>
</g>
</g>
<!-- Node4 -->
<g id="Node000004" class="node">
<title>Node4</title>
<g id="a_Node000004"><a xlink:href="class_my_tcp_server.html#a0ba7316ffe1a26c57fabde9e74b6c8dc" target="_top" xlink:title="Обработчик нового подключения">
<polygon fill="white" stroke="#666666" points="338.75,-26 173.5,-26 173.5,-6 338.75,-6 338.75,-26"/>
<text text-anchor="middle" x="256.12" y="-12.5" font-family="Arial" font-size="10.00">MyTcpServer::slotNewConnection</text>
</a>
</g>
</g>
<!-- Node3&#45;&gt;Node4 -->
<g id="edge3_Node000003_Node000004" class="edge">
<title>Node3&#45;&gt;Node4</title>
<g id="a_edge3_Node000003_Node000004"><a xlink:title=" ">
<path fill="none" stroke="#63b8ff" d="M362.89,-16C355,-16 347.01,-16 339.14,-16"/>
<polygon fill="#63b8ff" stroke="#63b8ff" points="362.85,-19.5 372.85,-16 362.85,-12.5 362.85,-19.5"/>
</a>
</g>
</g>
<!-- Node5 -->
<g id="Node000005" class="node">
<title>Node5</title>
<g id="a_Node000005"><a xlink:href="class_my_tcp_server.html#a51c997b208c04a8090c6f588469c8b12" target="_top" xlink:title="Конструктор класса MyTcpServer.">
<polygon fill="white" stroke="#666666" points="137.5,-26 0,-26 0,-6 137.5,-6 137.5,-26"/>
<text text-anchor="middle" x="68.75" y="-12.5" font-family="Arial" font-size="10.00">MyTcpServer::MyTcpServer</text>
</a>
</g>
</g>
<!-- Node4&#45;&gt;Node5 -->
<g id="edge4_Node000004_Node000005" class="edge">
<title>Node4&#45;&gt;Node5</title>
<g id="a_edge4_Node000004_Node000005"><a xlink:title=" ">
<path fill="none" stroke="#63b8ff" d="M161.7,-16C153.69,-16 145.69,-16 137.93,-16"/>
<polygon fill="#63b8ff" stroke="#63b8ff" points="161.49,-19.5 171.49,-16 161.49,-12.5 161.49,-19.5"/>
</a>
</g>
</g>
</g>
</svg>
