<?xml version="1.0" encoding="UTF-8" standalone="no"?>
<!DOCTYPE svg PUBLIC "-//W3C//DTD SVG 1.1//EN"
 "http://www.w3.org/Graphics/SVG/1.1/DTD/svg11.dtd">
<!-- Generated by graphviz version 12.2.1 (20241206.2353)
 -->
<!-- Title: ClientManager::loginResult Pages: 1 -->
<svg width="398pt" height="143pt"
 viewBox="0.00 0.00 398.00 143.27" xmlns="http://www.w3.org/2000/svg" xmlns:xlink="http://www.w3.org/1999/xlink">
<g id="graph0" class="graph" transform="scale(1 1) rotate(0) translate(4 139.27)">
<title>ClientManager::loginResult</title>
<!-- Node1 -->
<g id="Node000001" class="node">
<title>Node1</title>
<g id="a_Node000001"><a xlink:title="Сигнал результата авторизации пользователя.">
<polygon fill="#999999" stroke="#666666" points="390,-77 256.25,-77 256.25,-57 390,-57 390,-77"/>
<text text-anchor="middle" x="323.12" y="-63.5" font-family="Arial" font-size="10.00">ClientManager::loginResult</text>
</a>
</g>
</g>
<!-- Node2 -->
<g id="Node000002" class="node">
<title>Node2</title>
<g id="a_Node000002"><a xlink:href="funcsforclient_8cpp.html#ae14792135403f186fb2c51f377b515ab" target="_top" xlink:title="Функция авторизации пользователя.">
<polygon fill="white" stroke="#666666" points="34.75,-105 0,-105 0,-85 34.75,-85 34.75,-105"/>
<text text-anchor="middle" x="17.38" y="-91.5" font-family="Arial" font-size="10.00">auth</text>
</a>
</g>
</g>
<!-- Node1&#45;&gt;Node2 -->
<g id="edge1_Node000001_Node000002" class="edge">
<title>Node1&#45;&gt;Node2</title>
<g id="a_edge1_Node000001_Node000002"><a xlink:title=" ">
<path fill="none" stroke="#63b8ff" d="M299.22,-84.01C279.46,-97.57 249.55,-115.48 220.25,-123 155.89,-139.52 135.2,-139.15 70.75,-123 57.15,-119.59 43.22,-111.9 33.14,-105.44"/>
<polygon fill="#63b8ff" stroke="#63b8ff" points="301.2,-86.91 307.34,-78.27 297.15,-81.19 301.2,-86.91"/>
</a>
</g>
</g>
<!-- Node3 -->
<g id="Node000003" class="node">
<title>Node3</title>
<g id="a_Node000003"><a xlink:href="class_auth_reg_form.html#a7ec2ba2a7980453c629e141a90602e68" target="_top" xlink:title="Конструктор формы авторизации и регистрации.">
<polygon fill="white" stroke="#666666" points="217.25,-96 73.75,-96 73.75,-76 217.25,-76 217.25,-96"/>
<text text-anchor="middle" x="145.5" y="-82.5" font-family="Arial" font-size="10.00">AuthRegForm::AuthRegForm</text>
</a>
</g>
</g>
<!-- Node1&#45;&gt;Node3 -->
<g id="edge2_Node000001_Node000003" class="edge">
<title>Node1&#45;&gt;Node3</title>
<g id="a_edge2_Node000001_Node000003"><a xlink:title=" ">
<path fill="none" stroke="#63b8ff" d="M244.67,-75.38C235.66,-76.35 226.5,-77.35 217.57,-78.31"/>
<polygon fill="#63b8ff" stroke="#63b8ff" points="244.91,-78.87 254.47,-74.32 244.16,-71.91 244.91,-78.87"/>
</a>
</g>
</g>
<!-- Node4 -->
<g id="Node000004" class="node">
<title>Node4</title>
<g id="a_Node000004"><a xlink:href="class_client_manager.html#a1a17ae5acd787b26f64d69d1056200ce" target="_top" xlink:title="Авторизовать пользователя.">
<polygon fill="white" stroke="#666666" points="208.62,-58 82.38,-58 82.38,-38 208.62,-38 208.62,-58"/>
<text text-anchor="middle" x="145.5" y="-44.5" font-family="Arial" font-size="10.00">ClientManager::loginUser</text>
</a>
</g>
</g>
<!-- Node1&#45;&gt;Node4 -->
<g id="edge4_Node000001_Node000004" class="edge">
<title>Node1&#45;&gt;Node4</title>
<g id="a_edge4_Node000001_Node000004"><a xlink:title=" ">
<path fill="none" stroke="#63b8ff" d="M244.68,-58.62C232.78,-57.33 220.63,-56.02 209.1,-54.77"/>
<polygon fill="#63b8ff" stroke="#63b8ff" points="244.16,-62.09 254.47,-59.68 244.91,-55.13 244.16,-62.09"/>
</a>
</g>
</g>
<!-- Node5 -->
<g id="Node000005" class="node">
<title>Node5</title>
<g id="a_Node000005"><a xlink:href="class_auth_reg_form.html#a8b95ad00c5d29338f850a0f179b12078" target="_top" xlink:title="Деструктор формы.">
<polygon fill="white" stroke="#666666" points="220.25,-20 70.75,-20 70.75,0 220.25,0 220.25,-20"/>
<text text-anchor="middle" x="145.5" y="-6.5" font-family="Arial" font-size="10.00">AuthRegForm::~AuthRegForm</text>
</a>
</g>
</g>
<!-- Node1&#45;&gt;Node5 -->
<g id="edge6_Node000001_Node000005" class="edge">
<title>Node1&#45;&gt;Node5</title>
<g id="a_edge6_Node000001_Node000005"><a xlink:title=" ">
<path fill="none" stroke="#63b8ff" d="M285.96,-52.46C266.63,-44.95 242.33,-35.94 220.25,-29 210.54,-25.95 200,-23.01 190,-20.4"/>
<polygon fill="#63b8ff" stroke="#63b8ff" points="284.43,-55.61 295.02,-56.01 286.98,-49.1 284.43,-55.61"/>
</a>
</g>
</g>
<!-- Node3&#45;&gt;Node3 -->
<g id="edge3_Node000003_Node000003" class="edge">
<title>Node3&#45;&gt;Node3</title>
<g id="a_edge3_Node000003_Node000003"><a xlink:title=" ">
<path fill="none" stroke="#63b8ff" d="M168.15,-107.44C165.23,-111.3 157.68,-114 145.5,-114 123.23,-114 116.44,-104.98 125.14,-96.34"/>
<polygon fill="#63b8ff" stroke="#63b8ff" points="171.61,-106.91 166.16,-97.82 164.75,-108.32 171.61,-106.91"/>
</a>
</g>
</g>
<!-- Node4&#45;&gt;Node2 -->
<g id="edge5_Node000004_Node000002" class="edge">
<title>Node4&#45;&gt;Node2</title>
<g id="a_edge5_Node000004_Node000002"><a xlink:title=" ">
<path fill="none" stroke="#63b8ff" d="M86.26,-61.61C80.96,-63.26 75.72,-65.06 70.75,-67 58.26,-71.87 44.95,-79.01 34.87,-84.86"/>
<polygon fill="#63b8ff" stroke="#63b8ff" points="87.09,-65.01 95.7,-58.84 85.12,-58.29 87.09,-65.01"/>
</a>
</g>
</g>
</g>
</svg>
