<?xml version="1.0" encoding="UTF-8" standalone="no"?>
<!DOCTYPE svg PUBLIC "-//W3C//DTD SVG 1.1//EN"
 "http://www.w3.org/Graphics/SVG/1.1/DTD/svg11.dtd">
<!-- Generated by graphviz version 12.2.1 (20241206.2353)
 -->
<!-- Title: ClientManager::verificationCodeResult Pages: 1 -->
<svg width="354pt" height="122pt"
 viewBox="0.00 0.00 353.50 122.00" xmlns="http://www.w3.org/2000/svg" xmlns:xlink="http://www.w3.org/1999/xlink">
<g id="graph0" class="graph" transform="scale(1 1) rotate(0) translate(4 118)">
<title>ClientManager::verificationCodeResult</title>
<!-- Node1 -->
<g id="Node000001" class="node">
<title>Node1</title>
<g id="a_Node000001"><a xlink:title="Сигнал результата отправки кода подтверждения.">
<polygon fill="#999999" stroke="#666666" points="345.5,-64 213.25,-64 213.25,-32 345.5,-32 345.5,-64"/>
<text text-anchor="start" x="221.25" y="-50.5" font-family="Arial" font-size="10.00">ClientManager::verification</text>
<text text-anchor="middle" x="279.38" y="-38.5" font-family="Arial" font-size="10.00">CodeResult</text>
</a>
</g>
</g>
<!-- Node2 -->
<g id="Node000002" class="node">
<title>Node2</title>
<g id="a_Node000002"><a xlink:href="class_auth_reg_form.html#a7ec2ba2a7980453c629e141a90602e68" target="_top" xlink:title="Конструктор формы авторизации и регистрации.">
<polygon fill="white" stroke="#666666" points="160.38,-96 16.88,-96 16.88,-76 160.38,-76 160.38,-96"/>
<text text-anchor="middle" x="88.62" y="-82.5" font-family="Arial" font-size="10.00">AuthRegForm::AuthRegForm</text>
</a>
</g>
</g>
<!-- Node1&#45;&gt;Node2 -->
<g id="edge1_Node000001_Node000002" class="edge">
<title>Node1&#45;&gt;Node2</title>
<g id="a_edge1_Node000001_Node000002"><a xlink:title=" ">
<path fill="none" stroke="#63b8ff" d="M201.79,-63.42C181.57,-67.49 160.21,-71.79 141.62,-75.53"/>
<polygon fill="#63b8ff" stroke="#63b8ff" points="202.29,-66.89 211.41,-61.48 200.91,-60.03 202.29,-66.89"/>
</a>
</g>
</g>
<!-- Node3 -->
<g id="Node000003" class="node">
<title>Node3</title>
<g id="a_Node000003"><a xlink:href="class_client_manager.html#af355cfb20b23f94b91a88d411f639eea" target="_top" xlink:title="Отправить код подтверждения для восстановления пароля.">
<polygon fill="white" stroke="#666666" points="177.25,-58 0,-58 0,-38 177.25,-38 177.25,-58"/>
<text text-anchor="middle" x="88.62" y="-44.5" font-family="Arial" font-size="10.00">ClientManager::sendVerificationCode</text>
</a>
</g>
</g>
<!-- Node1&#45;&gt;Node3 -->
<g id="edge3_Node000001_Node000003" class="edge">
<title>Node1&#45;&gt;Node3</title>
<g id="a_edge3_Node000001_Node000003"><a xlink:title=" ">
<path fill="none" stroke="#63b8ff" d="M201.5,-48C193.63,-48 185.58,-48 177.6,-48"/>
<polygon fill="#63b8ff" stroke="#63b8ff" points="201.38,-51.5 211.38,-48 201.38,-44.5 201.38,-51.5"/>
</a>
</g>
</g>
<!-- Node4 -->
<g id="Node000004" class="node">
<title>Node4</title>
<g id="a_Node000004"><a xlink:href="class_auth_reg_form.html#a8b95ad00c5d29338f850a0f179b12078" target="_top" xlink:title="Деструктор формы.">
<polygon fill="white" stroke="#666666" points="163.38,-20 13.88,-20 13.88,0 163.38,0 163.38,-20"/>
<text text-anchor="middle" x="88.62" y="-6.5" font-family="Arial" font-size="10.00">AuthRegForm::~AuthRegForm</text>
</a>
</g>
</g>
<!-- Node1&#45;&gt;Node4 -->
<g id="edge4_Node000001_Node000004" class="edge">
<title>Node1&#45;&gt;Node4</title>
<g id="a_edge4_Node000001_Node000004"><a xlink:title=" ">
<path fill="none" stroke="#63b8ff" d="M201.79,-32.58C181.57,-28.51 160.21,-24.21 141.62,-20.47"/>
<polygon fill="#63b8ff" stroke="#63b8ff" points="200.91,-35.97 211.41,-34.52 202.29,-29.11 200.91,-35.97"/>
</a>
</g>
</g>
<!-- Node2&#45;&gt;Node2 -->
<g id="edge2_Node000002_Node000002" class="edge">
<title>Node2&#45;&gt;Node2</title>
<g id="a_edge2_Node000002_Node000002"><a xlink:title=" ">
<path fill="none" stroke="#63b8ff" d="M122.69,-107.11C118.63,-111.14 107.28,-114 88.62,-114 55.47,-114 45.36,-104.98 58.32,-96.34"/>
<polygon fill="#63b8ff" stroke="#63b8ff" points="126.03,-106.05 119.43,-97.77 119.42,-108.36 126.03,-106.05"/>
</a>
</g>
</g>
</g>
</svg>
