<?xml version="1.0" encoding="UTF-8" standalone="no"?>
<!DOCTYPE svg PUBLIC "-//W3C//DTD SVG 1.1//EN"
 "http://www.w3.org/Graphics/SVG/1.1/DTD/svg11.dtd">
<!-- Generated by graphviz version 12.2.1 (20241206.2353)
 -->
<!-- Title: MyTcpServer::slotServerRead Pages: 1 -->
<svg width="493pt" height="154pt"
 viewBox="0.00 0.00 492.50 154.00" xmlns="http://www.w3.org/2000/svg" xmlns:xlink="http://www.w3.org/1999/xlink">
<g id="graph0" class="graph" transform="scale(1 1) rotate(0) translate(4 150)">
<title>MyTcpServer::slotServerRead</title>
<!-- Node1 -->
<g id="Node000001" class="node">
<title>Node1</title>
<g id="a_Node000001"><a xlink:title="Обработчик входящих данных">
<polygon fill="#999999" stroke="#666666" points="147.25,-89 0,-89 0,-69 147.25,-69 147.25,-89"/>
<text text-anchor="middle" x="73.62" y="-75.5" font-family="Arial" font-size="10.00">MyTcpServer::slotServerRead</text>
</a>
</g>
</g>
<!-- Node2 -->
<g id="Node000002" class="node">
<title>Node2</title>
<g id="a_Node000002"><a xlink:href="classequation_solver.html#abab7d0cc0f7be9a9313639be9a5dd320" target="_top" xlink:title="Решает уравнение итерационным методом">
<polygon fill="white" stroke="#666666" points="328.25,-95 183.25,-95 183.25,-63 328.25,-63 328.25,-95"/>
<text text-anchor="start" x="191.25" y="-81.5" font-family="Arial" font-size="10.00">equationSolver::solveIteration</text>
<text text-anchor="middle" x="255.75" y="-69.5" font-family="Arial" font-size="10.00">Method</text>
</a>
</g>
</g>
<!-- Node1&#45;&gt;Node2 -->
<g id="edge1_Node000001_Node000002" class="edge">
<title>Node1&#45;&gt;Node2</title>
<g id="a_edge1_Node000001_Node000002"><a xlink:title=" ">
<path fill="none" stroke="#63b8ff" d="M147.63,-79C155.43,-79 163.4,-79 171.31,-79"/>
<polygon fill="#63b8ff" stroke="#63b8ff" points="171.3,-82.5 181.3,-79 171.3,-75.5 171.3,-82.5"/>
</a>
</g>
</g>
<!-- Node3 -->
<g id="Node000003" class="node">
<title>Node3</title>
<g id="a_Node000003"><a xlink:href="homewindow_8cpp.html#ad384c9b1f47b29100c519ede52000f65" target="_top" xlink:title="Функция phi для экспоненциального уравнения: exp(&#45;x).">
<polygon fill="white" stroke="#666666" points="438.77,-146 409.98,-146 409.98,-126 438.77,-126 438.77,-146"/>
<text text-anchor="middle" x="424.38" y="-132.5" font-family="Arial" font-size="10.00">phi</text>
</a>
</g>
</g>
<!-- Node2&#45;&gt;Node3 -->
<g id="edge2_Node000002_Node000003" class="edge">
<title>Node2&#45;&gt;Node3</title>
<g id="a_edge2_Node000002_Node000003"><a xlink:title=" ">
<path fill="none" stroke="#63b8ff" d="M302.42,-95.47C321.49,-102.26 343.9,-110.13 364.25,-117 375.65,-120.85 388.35,-124.95 399.05,-128.36"/>
<polygon fill="#63b8ff" stroke="#63b8ff" points="397.68,-131.6 408.27,-131.28 399.8,-124.92 397.68,-131.6"/>
</a>
</g>
</g>
<!-- Node4 -->
<g id="Node000004" class="node">
<title>Node4</title>
<g id="a_Node000004"><a xlink:href="classequation_solver.html#ad556c59ef7a6de3b53e3d582de0b14fe" target="_top" xlink:title="Косинусная функция для итерационного метода">
<polygon fill="white" stroke="#666666" points="484.5,-108 364.25,-108 364.25,-88 484.5,-88 484.5,-108"/>
<text text-anchor="middle" x="424.38" y="-94.5" font-family="Arial" font-size="10.00">equationSolver::phi_cos</text>
</a>
</g>
</g>
<!-- Node2&#45;&gt;Node4 -->
<g id="edge3_Node000002_Node000004" class="edge">
<title>Node2&#45;&gt;Node4</title>
<g id="a_edge3_Node000002_Node000004"><a xlink:title=" ">
<path fill="none" stroke="#63b8ff" d="M328.38,-87.17C336.41,-88.08 344.6,-89.02 352.62,-89.93"/>
<polygon fill="#63b8ff" stroke="#63b8ff" points="351.99,-93.38 362.32,-91.04 352.78,-86.43 351.99,-93.38"/>
</a>
</g>
</g>
<!-- Node5 -->
<g id="Node000005" class="node">
<title>Node5</title>
<g id="a_Node000005"><a xlink:href="classequation_solver.html#a362aca455505cc2ecf6fb59abd416226" target="_top" xlink:title="Экспоненциальная функция для итерационного метода">
<polygon fill="white" stroke="#666666" points="484.5,-70 364.25,-70 364.25,-50 484.5,-50 484.5,-70"/>
<text text-anchor="middle" x="424.38" y="-56.5" font-family="Arial" font-size="10.00">equationSolver::phi_exp</text>
</a>
</g>
</g>
<!-- Node2&#45;&gt;Node5 -->
<g id="edge4_Node000002_Node000005" class="edge">
<title>Node2&#45;&gt;Node5</title>
<g id="a_edge4_Node000002_Node000005"><a xlink:title=" ">
<path fill="none" stroke="#63b8ff" d="M328.38,-70.83C336.41,-69.92 344.6,-68.98 352.62,-68.07"/>
<polygon fill="#63b8ff" stroke="#63b8ff" points="352.78,-71.57 362.32,-66.96 351.99,-64.62 352.78,-71.57"/>
</a>
</g>
</g>
<!-- Node6 -->
<g id="Node000006" class="node">
<title>Node6</title>
<g id="a_Node000006"><a xlink:href="classequation_solver.html#a12a0a3db542d472b8b9007dabcea1138" target="_top" xlink:title="Квадратичная функция для итерационного метода">
<polygon fill="white" stroke="#666666" points="474,-32 374.75,-32 374.75,0 474,0 474,-32"/>
<text text-anchor="start" x="382.75" y="-18.5" font-family="Arial" font-size="10.00">equationSolver::phi</text>
<text text-anchor="middle" x="424.38" y="-6.5" font-family="Arial" font-size="10.00">_quadratic</text>
</a>
</g>
</g>
<!-- Node2&#45;&gt;Node6 -->
<g id="edge5_Node000002_Node000006" class="edge">
<title>Node2&#45;&gt;Node6</title>
<g id="a_edge5_Node000002_Node000006"><a xlink:title=" ">
<path fill="none" stroke="#63b8ff" d="M300.09,-62.61C321.22,-54.62 346.85,-44.93 369.25,-36.46"/>
<polygon fill="#63b8ff" stroke="#63b8ff" points="370.43,-39.76 378.54,-32.95 367.95,-33.21 370.43,-39.76"/>
</a>
</g>
</g>
</g>
</svg>
