<?xml version="1.0" encoding="UTF-8" standalone="no"?>
<!DOCTYPE svg PUBLIC "-//W3C//DTD SVG 1.1//EN"
 "http://www.w3.org/Graphics/SVG/1.1/DTD/svg11.dtd">
<!-- Generated by graphviz version 12.2.1 (20241206.2353)
 -->
<!-- Title: ClientManager::connectToServer Pages: 1 -->
<svg width="318pt" height="122pt"
 viewBox="0.00 0.00 317.50 122.00" xmlns="http://www.w3.org/2000/svg" xmlns:xlink="http://www.w3.org/1999/xlink">
<g id="graph0" class="graph" transform="scale(1 1) rotate(0) translate(4 118)">
<title>ClientManager::connectToServer</title>
<!-- Node1 -->
<g id="Node000001" class="node">
<title>Node1</title>
<g id="a_Node000001"><a xlink:title="Установить соединение с сервером.">
<polygon fill="#999999" stroke="#666666" points="309.5,-64 179.5,-64 179.5,-32 309.5,-32 309.5,-64"/>
<text text-anchor="start" x="187.5" y="-50.5" font-family="Arial" font-size="10.00">ClientManager::connectTo</text>
<text text-anchor="middle" x="244.5" y="-38.5" font-family="Arial" font-size="10.00">Server</text>
</a>
</g>
</g>
<!-- Node2 -->
<g id="Node000002" class="node">
<title>Node2</title>
<g id="a_Node000002"><a xlink:href="funcsforclient_8cpp.html#ae14792135403f186fb2c51f377b515ab" target="_top" xlink:title="Функция авторизации пользователя.">
<polygon fill="white" stroke="#666666" points="89.12,-114 54.38,-114 54.38,-94 89.12,-94 89.12,-114"/>
<text text-anchor="middle" x="71.75" y="-100.5" font-family="Arial" font-size="10.00">auth</text>
</a>
</g>
</g>
<!-- Node1&#45;&gt;Node2 -->
<g id="edge1_Node000001_Node000002" class="edge">
<title>Node1&#45;&gt;Node2</title>
<g id="a_edge1_Node000001_Node000002"><a xlink:title=" ">
<path fill="none" stroke="#63b8ff" d="M191.59,-68.24C176.21,-73.95 159.26,-79.98 143.5,-85 125.2,-90.83 103.87,-96.39 89.46,-99.97"/>
<polygon fill="#63b8ff" stroke="#63b8ff" points="192.41,-71.67 200.54,-64.88 189.95,-65.12 192.41,-71.67"/>
</a>
</g>
</g>
<!-- Node3 -->
<g id="Node000003" class="node">
<title>Node3</title>
<g id="a_Node000003"><a xlink:href="class_auth_reg_form.html#a7ec2ba2a7980453c629e141a90602e68" target="_top" xlink:title="Конструктор формы авторизации и регистрации.">
<polygon fill="white" stroke="#666666" points="143.5,-58 0,-58 0,-38 143.5,-38 143.5,-58"/>
<text text-anchor="middle" x="71.75" y="-44.5" font-family="Arial" font-size="10.00">AuthRegForm::AuthRegForm</text>
</a>
</g>
</g>
<!-- Node1&#45;&gt;Node3 -->
<g id="edge2_Node000001_Node000003" class="edge">
<title>Node1&#45;&gt;Node3</title>
<g id="a_edge2_Node000001_Node000003"><a xlink:title=" ">
<path fill="none" stroke="#63b8ff" d="M168.11,-48C160.01,-48 151.8,-48 143.76,-48"/>
<polygon fill="#63b8ff" stroke="#63b8ff" points="167.92,-51.5 177.92,-48 167.92,-44.5 167.92,-51.5"/>
</a>
</g>
</g>
<!-- Node4 -->
<g id="Node000004" class="node">
<title>Node4</title>
<g id="a_Node000004"><a xlink:href="funcsforclient_8cpp.html#a9638764c61635aa7172dc25ef99ce281" target="_top" xlink:title="Функция регистрации нового пользователя.">
<polygon fill="white" stroke="#666666" points="86.5,-20 57,-20 57,0 86.5,0 86.5,-20"/>
<text text-anchor="middle" x="71.75" y="-6.5" font-family="Arial" font-size="10.00">reg</text>
</a>
</g>
</g>
<!-- Node1&#45;&gt;Node4 -->
<g id="edge4_Node000001_Node000004" class="edge">
<title>Node1&#45;&gt;Node4</title>
<g id="a_edge4_Node000001_Node000004"><a xlink:title=" ">
<path fill="none" stroke="#63b8ff" d="M168.58,-31.33C137.61,-24.43 104.77,-17.13 86.7,-13.11"/>
<polygon fill="#63b8ff" stroke="#63b8ff" points="167.43,-34.66 177.96,-33.41 168.95,-27.82 167.43,-34.66"/>
</a>
</g>
</g>
<!-- Node3&#45;&gt;Node3 -->
<g id="edge3_Node000003_Node000003" class="edge">
<title>Node3&#45;&gt;Node3</title>
<g id="a_edge3_Node000003_Node000003"><a xlink:title=" ">
<path fill="none" stroke="#63b8ff" d="M102.6,-69.11C98.93,-73.14 88.64,-76 71.75,-76 41.72,-76 32.57,-66.98 44.3,-58.34"/>
<polygon fill="#63b8ff" stroke="#63b8ff" points="106.01,-68.26 99.65,-59.78 99.33,-70.37 106.01,-68.26"/>
</a>
</g>
</g>
</g>
</svg>
