<?xml version="1.0" encoding="UTF-8" standalone="no"?>
<!DOCTYPE svg PUBLIC "-//W3C//DTD SVG 1.1//EN"
 "http://www.w3.org/Graphics/SVG/1.1/DTD/svg11.dtd">
<!-- Generated by graphviz version 12.2.1 (20241206.2353)
 -->
<!-- Title: ClientManager::registerUser Pages: 1 -->
<svg width="322pt" height="78pt"
 viewBox="0.00 0.00 322.00 78.00" xmlns="http://www.w3.org/2000/svg" xmlns:xlink="http://www.w3.org/1999/xlink">
<g id="graph0" class="graph" transform="scale(1 1) rotate(0) translate(4 74)">
<title>ClientManager::registerUser</title>
<!-- Node1 -->
<g id="Node000001" class="node">
<title>Node1</title>
<g id="a_Node000001"><a xlink:title="Зарегистрировать нового пользователя.">
<polygon fill="#999999" stroke="#666666" points="138.25,-48 0,-48 0,-28 138.25,-28 138.25,-48"/>
<text text-anchor="middle" x="69.12" y="-34.5" font-family="Arial" font-size="10.00">ClientManager::registerUser</text>
</a>
</g>
</g>
<!-- Node2 -->
<g id="Node000002" class="node">
<title>Node2</title>
<g id="a_Node000002"><a xlink:href="class_client_manager.html#a8b68d6ccc61477be3e5f90760434b4b9" target="_top" xlink:title="Проверить, установлено ли соединение с сервером.">
<polygon fill="white" stroke="#666666" points="314,-70 174.25,-70 174.25,-50 314,-50 314,-70"/>
<text text-anchor="middle" x="244.12" y="-56.5" font-family="Arial" font-size="10.00">ClientManager::isConnected</text>
</a>
</g>
</g>
<!-- Node1&#45;&gt;Node2 -->
<g id="edge1_Node000001_Node000002" class="edge">
<title>Node1&#45;&gt;Node2</title>
<g id="a_edge1_Node000001_Node000002"><a xlink:title=" ">
<path fill="none" stroke="#63b8ff" d="M138.5,-46.69C146.4,-47.7 154.5,-48.73 162.54,-49.75"/>
<polygon fill="#63b8ff" stroke="#63b8ff" points="161.97,-53.21 172.33,-51 162.85,-46.26 161.97,-53.21"/>
</a>
</g>
</g>
<!-- Node3 -->
<g id="Node000003" class="node">
<title>Node3</title>
<g id="a_Node000003"><a xlink:href="class_client_manager.html#a9719c89557aff68620f537e38c456243" target="_top" xlink:title="Сигнал результата регистрации пользователя.">
<polygon fill="white" stroke="#666666" points="310.62,-32 177.62,-32 177.62,0 310.62,0 310.62,-32"/>
<text text-anchor="start" x="185.62" y="-18.5" font-family="Arial" font-size="10.00">ClientManager::registration</text>
<text text-anchor="middle" x="244.12" y="-6.5" font-family="Arial" font-size="10.00">Result</text>
</a>
</g>
</g>
<!-- Node1&#45;&gt;Node3 -->
<g id="edge2_Node000001_Node000003" class="edge">
<title>Node1&#45;&gt;Node3</title>
<g id="a_edge2_Node000001_Node000003"><a xlink:title=" ">
<path fill="none" stroke="#63b8ff" d="M138.5,-29.31C147.56,-28.15 156.91,-26.96 166.1,-25.79"/>
<polygon fill="#63b8ff" stroke="#63b8ff" points="166.24,-29.31 175.72,-24.57 165.36,-22.36 166.24,-29.31"/>
</a>
</g>
</g>
</g>
</svg>
