<?xml version="1.0" encoding="UTF-8" standalone="no"?>
<!DOCTYPE svg PUBLIC "-//W3C//DTD SVG 1.1//EN"
 "http://www.w3.org/Graphics/SVG/1.1/DTD/svg11.dtd">
<!-- Generated by graphviz version 12.2.1 (20241206.2353)
 -->
<!-- Title: ClientManager::resetPassword Pages: 1 -->
<svg width="348pt" height="78pt"
 viewBox="0.00 0.00 347.50 78.00" xmlns="http://www.w3.org/2000/svg" xmlns:xlink="http://www.w3.org/1999/xlink">
<g id="graph0" class="graph" transform="scale(1 1) rotate(0) translate(4 74)">
<title>ClientManager::resetPassword</title>
<!-- Node1 -->
<g id="Node000001" class="node">
<title>Node1</title>
<g id="a_Node000001"><a xlink:title="Сбросить пароль пользователя.">
<polygon fill="#999999" stroke="#666666" points="150.25,-48 0,-48 0,-28 150.25,-28 150.25,-48"/>
<text text-anchor="middle" x="75.12" y="-34.5" font-family="Arial" font-size="10.00">ClientManager::resetPassword</text>
</a>
</g>
</g>
<!-- Node2 -->
<g id="Node000002" class="node">
<title>Node2</title>
<g id="a_Node000002"><a xlink:href="class_client_manager.html#a8b68d6ccc61477be3e5f90760434b4b9" target="_top" xlink:title="Проверить, установлено ли соединение с сервером.">
<polygon fill="white" stroke="#666666" points="332.75,-70 193,-70 193,-50 332.75,-50 332.75,-70"/>
<text text-anchor="middle" x="262.88" y="-56.5" font-family="Arial" font-size="10.00">ClientManager::isConnected</text>
</a>
</g>
</g>
<!-- Node1&#45;&gt;Node2 -->
<g id="edge1_Node000001_Node000002" class="edge">
<title>Node1&#45;&gt;Node2</title>
<g id="a_edge1_Node000001_Node000002"><a xlink:title=" ">
<path fill="none" stroke="#63b8ff" d="M150.61,-46.82C160.73,-48.02 171.15,-49.25 181.37,-50.47"/>
<polygon fill="#63b8ff" stroke="#63b8ff" points="180.95,-53.94 191.29,-51.64 181.77,-46.99 180.95,-53.94"/>
</a>
</g>
</g>
<!-- Node3 -->
<g id="Node000003" class="node">
<title>Node3</title>
<g id="a_Node000003"><a xlink:href="class_client_manager.html#aa92b3af32dffef0590a3bbd7e15f60ba" target="_top" xlink:title="Сигнал результата сброса пароля.">
<polygon fill="white" stroke="#666666" points="339.5,-32 186.25,-32 186.25,0 339.5,0 339.5,-32"/>
<text text-anchor="start" x="194.25" y="-18.5" font-family="Arial" font-size="10.00">ClientManager::passwordReset</text>
<text text-anchor="middle" x="262.88" y="-6.5" font-family="Arial" font-size="10.00">Result</text>
</a>
</g>
</g>
<!-- Node1&#45;&gt;Node3 -->
<g id="edge2_Node000001_Node000003" class="edge">
<title>Node1&#45;&gt;Node3</title>
<g id="a_edge2_Node000001_Node000003"><a xlink:title=" ">
<path fill="none" stroke="#63b8ff" d="M150.61,-29.18C158.5,-28.24 166.57,-27.29 174.59,-26.34"/>
<polygon fill="#63b8ff" stroke="#63b8ff" points="174.84,-29.83 184.36,-25.18 174.02,-22.88 174.84,-29.83"/>
</a>
</g>
</g>
</g>
</svg>
