<?xml version="1.0" encoding="UTF-8" standalone="no"?>
<!DOCTYPE svg PUBLIC "-//W3C//DTD SVG 1.1//EN"
 "http://www.w3.org/Graphics/SVG/1.1/DTD/svg11.dtd">
<!-- Generated by graphviz version 12.2.1 (20241206.2353)
 -->
<!-- Title: MyTcpServer::slotNewConnection Pages: 1 -->
<svg width="728pt" height="154pt"
 viewBox="0.00 0.00 727.50 154.00" xmlns="http://www.w3.org/2000/svg" xmlns:xlink="http://www.w3.org/1999/xlink">
<g id="graph0" class="graph" transform="scale(1 1) rotate(0) translate(4 150)">
<title>MyTcpServer::slotNewConnection</title>
<!-- Node1 -->
<g id="Node000001" class="node">
<title>Node1</title>
<g id="a_Node000001"><a xlink:title="Обработчик нового подключения">
<polygon fill="#999999" stroke="#666666" points="165.25,-108 0,-108 0,-88 165.25,-88 165.25,-108"/>
<text text-anchor="middle" x="82.62" y="-94.5" font-family="Arial" font-size="10.00">MyTcpServer::slotNewConnection</text>
</a>
</g>
</g>
<!-- Node2 -->
<g id="Node000002" class="node">
<title>Node2</title>
<g id="a_Node000002"><a xlink:href="class_my_tcp_server.html#a3e040c49dbefd65b9a58ab662fc9f7a2" target="_top" xlink:title="Обработчик отключения клиента">
<polygon fill="white" stroke="#666666" points="382.25,-127 201.25,-127 201.25,-107 382.25,-107 382.25,-127"/>
<text text-anchor="middle" x="291.75" y="-113.5" font-family="Arial" font-size="10.00">MyTcpServer::slotClientDisconnected</text>
</a>
</g>
</g>
<!-- Node1&#45;&gt;Node2 -->
<g id="edge1_Node000001_Node000002" class="edge">
<title>Node1&#45;&gt;Node2</title>
<g id="a_edge1_Node000001_Node000002"><a xlink:title=" ">
<path fill="none" stroke="#63b8ff" d="M165.49,-105.51C173.4,-106.24 181.5,-106.98 189.57,-107.72"/>
<polygon fill="#63b8ff" stroke="#63b8ff" points="189.17,-111.2 199.44,-108.62 189.81,-104.23 189.17,-111.2"/>
</a>
</g>
</g>
<!-- Node3 -->
<g id="Node000003" class="node">
<title>Node3</title>
<g id="a_Node000003"><a xlink:href="class_my_tcp_server.html#ab4a64d2eab985d723090963f5c8a2882" target="_top" xlink:title="Обработчик входящих данных">
<polygon fill="white" stroke="#666666" points="365.38,-89 218.12,-89 218.12,-69 365.38,-69 365.38,-89"/>
<text text-anchor="middle" x="291.75" y="-75.5" font-family="Arial" font-size="10.00">MyTcpServer::slotServerRead</text>
</a>
</g>
</g>
<!-- Node1&#45;&gt;Node3 -->
<g id="edge2_Node000001_Node000003" class="edge">
<title>Node1&#45;&gt;Node3</title>
<g id="a_edge2_Node000001_Node000003"><a xlink:title=" ">
<path fill="none" stroke="#63b8ff" d="M165.49,-90.49C179,-89.25 193.03,-87.96 206.61,-86.72"/>
<polygon fill="#63b8ff" stroke="#63b8ff" points="206.73,-90.22 216.37,-85.82 206.09,-83.25 206.73,-90.22"/>
</a>
</g>
</g>
<!-- Node4 -->
<g id="Node000004" class="node">
<title>Node4</title>
<g id="a_Node000004"><a xlink:href="classequation_solver.html#abab7d0cc0f7be9a9313639be9a5dd320" target="_top" xlink:title="Решает уравнение итерационным методом">
<polygon fill="white" stroke="#666666" points="563.25,-95 418.25,-95 418.25,-63 563.25,-63 563.25,-95"/>
<text text-anchor="start" x="426.25" y="-81.5" font-family="Arial" font-size="10.00">equationSolver::solveIteration</text>
<text text-anchor="middle" x="490.75" y="-69.5" font-family="Arial" font-size="10.00">Method</text>
</a>
</g>
</g>
<!-- Node3&#45;&gt;Node4 -->
<g id="edge3_Node000003_Node000004" class="edge">
<title>Node3&#45;&gt;Node4</title>
<g id="a_edge3_Node000003_Node000004"><a xlink:title=" ">
<path fill="none" stroke="#63b8ff" d="M365.83,-79C379.09,-79 393.01,-79 406.53,-79"/>
<polygon fill="#63b8ff" stroke="#63b8ff" points="406.26,-82.5 416.26,-79 406.26,-75.5 406.26,-82.5"/>
</a>
</g>
</g>
<!-- Node5 -->
<g id="Node000005" class="node">
<title>Node5</title>
<g id="a_Node000005"><a xlink:href="homewindow_8cpp.html#ad384c9b1f47b29100c519ede52000f65" target="_top" xlink:title="Функция phi для экспоненциального уравнения: exp(&#45;x).">
<polygon fill="white" stroke="#666666" points="673.77,-146 644.98,-146 644.98,-126 673.77,-126 673.77,-146"/>
<text text-anchor="middle" x="659.38" y="-132.5" font-family="Arial" font-size="10.00">phi</text>
</a>
</g>
</g>
<!-- Node4&#45;&gt;Node5 -->
<g id="edge4_Node000004_Node000005" class="edge">
<title>Node4&#45;&gt;Node5</title>
<g id="a_edge4_Node000004_Node000005"><a xlink:title=" ">
<path fill="none" stroke="#63b8ff" d="M537.42,-95.47C556.49,-102.26 578.9,-110.13 599.25,-117 610.65,-120.85 623.35,-124.95 634.05,-128.36"/>
<polygon fill="#63b8ff" stroke="#63b8ff" points="632.68,-131.6 643.27,-131.28 634.8,-124.92 632.68,-131.6"/>
</a>
</g>
</g>
<!-- Node6 -->
<g id="Node000006" class="node">
<title>Node6</title>
<g id="a_Node000006"><a xlink:href="classequation_solver.html#ad556c59ef7a6de3b53e3d582de0b14fe" target="_top" xlink:title="Косинусная функция для итерационного метода">
<polygon fill="white" stroke="#666666" points="719.5,-108 599.25,-108 599.25,-88 719.5,-88 719.5,-108"/>
<text text-anchor="middle" x="659.38" y="-94.5" font-family="Arial" font-size="10.00">equationSolver::phi_cos</text>
</a>
</g>
</g>
<!-- Node4&#45;&gt;Node6 -->
<g id="edge5_Node000004_Node000006" class="edge">
<title>Node4&#45;&gt;Node6</title>
<g id="a_edge5_Node000004_Node000006"><a xlink:title=" ">
<path fill="none" stroke="#63b8ff" d="M563.38,-87.17C571.41,-88.08 579.6,-89.02 587.62,-89.93"/>
<polygon fill="#63b8ff" stroke="#63b8ff" points="586.99,-93.38 597.32,-91.04 587.78,-86.43 586.99,-93.38"/>
</a>
</g>
</g>
<!-- Node7 -->
<g id="Node000007" class="node">
<title>Node7</title>
<g id="a_Node000007"><a xlink:href="classequation_solver.html#a362aca455505cc2ecf6fb59abd416226" target="_top" xlink:title="Экспоненциальная функция для итерационного метода">
<polygon fill="white" stroke="#666666" points="719.5,-70 599.25,-70 599.25,-50 719.5,-50 719.5,-70"/>
<text text-anchor="middle" x="659.38" y="-56.5" font-family="Arial" font-size="10.00">equationSolver::phi_exp</text>
</a>
</g>
</g>
<!-- Node4&#45;&gt;Node7 -->
<g id="edge6_Node000004_Node000007" class="edge">
<title>Node4&#45;&gt;Node7</title>
<g id="a_edge6_Node000004_Node000007"><a xlink:title=" ">
<path fill="none" stroke="#63b8ff" d="M563.38,-70.83C571.41,-69.92 579.6,-68.98 587.62,-68.07"/>
<polygon fill="#63b8ff" stroke="#63b8ff" points="587.78,-71.57 597.32,-66.96 586.99,-64.62 587.78,-71.57"/>
</a>
</g>
</g>
<!-- Node8 -->
<g id="Node000008" class="node">
<title>Node8</title>
<g id="a_Node000008"><a xlink:href="classequation_solver.html#a12a0a3db542d472b8b9007dabcea1138" target="_top" xlink:title="Квадратичная функция для итерационного метода">
<polygon fill="white" stroke="#666666" points="709,-32 609.75,-32 609.75,0 709,0 709,-32"/>
<text text-anchor="start" x="617.75" y="-18.5" font-family="Arial" font-size="10.00">equationSolver::phi</text>
<text text-anchor="middle" x="659.38" y="-6.5" font-family="Arial" font-size="10.00">_quadratic</text>
</a>
</g>
</g>
<!-- Node4&#45;&gt;Node8 -->
<g id="edge7_Node000004_Node000008" class="edge">
<title>Node4&#45;&gt;Node8</title>
<g id="a_edge7_Node000004_Node000008"><a xlink:title=" ">
<path fill="none" stroke="#63b8ff" d="M535.09,-62.61C556.22,-54.62 581.85,-44.93 604.25,-36.46"/>
<polygon fill="#63b8ff" stroke="#63b8ff" points="605.43,-39.76 613.54,-32.95 602.95,-33.21 605.43,-39.76"/>
</a>
</g>
</g>
</g>
</svg>
