<?xml version="1.0" encoding="UTF-8" standalone="no"?>
<!DOCTYPE svg PUBLIC "-//W3C//DTD SVG 1.1//EN"
 "http://www.w3.org/Graphics/SVG/1.1/DTD/svg11.dtd">
<!-- Generated by graphviz version 12.2.1 (20241206.2353)
 -->
<!-- Title: ClientManager::sendVerificationCode Pages: 1 -->
<svg width="361pt" height="78pt"
 viewBox="0.00 0.00 361.00 78.00" xmlns="http://www.w3.org/2000/svg" xmlns:xlink="http://www.w3.org/1999/xlink">
<g id="graph0" class="graph" transform="scale(1 1) rotate(0) translate(4 74)">
<title>ClientManager::sendVerificationCode</title>
<!-- Node1 -->
<g id="Node000001" class="node">
<title>Node1</title>
<g id="a_Node000001"><a xlink:title="Отправить код подтверждения для восстановления пароля.">
<polygon fill="#999999" stroke="#666666" points="177.25,-48 0,-48 0,-28 177.25,-28 177.25,-48"/>
<text text-anchor="middle" x="88.62" y="-34.5" font-family="Arial" font-size="10.00">ClientManager::sendVerificationCode</text>
</a>
</g>
</g>
<!-- Node2 -->
<g id="Node000002" class="node">
<title>Node2</title>
<g id="a_Node000002"><a xlink:href="class_client_manager.html#a8b68d6ccc61477be3e5f90760434b4b9" target="_top" xlink:title="Проверить, установлено ли соединение с сервером.">
<polygon fill="white" stroke="#666666" points="353,-70 213.25,-70 213.25,-50 353,-50 353,-70"/>
<text text-anchor="middle" x="283.12" y="-56.5" font-family="Arial" font-size="10.00">ClientManager::isConnected</text>
</a>
</g>
</g>
<!-- Node1&#45;&gt;Node2 -->
<g id="edge1_Node000001_Node000002" class="edge">
<title>Node1&#45;&gt;Node2</title>
<g id="a_edge1_Node000001_Node000002"><a xlink:title=" ">
<path fill="none" stroke="#63b8ff" d="M177.71,-48.07C185.62,-48.97 193.61,-49.88 201.46,-50.78"/>
<polygon fill="#63b8ff" stroke="#63b8ff" points="200.99,-54.25 211.33,-51.91 201.79,-47.3 200.99,-54.25"/>
</a>
</g>
</g>
<!-- Node3 -->
<g id="Node000003" class="node">
<title>Node3</title>
<g id="a_Node000003"><a xlink:href="class_client_manager.html#a78aa23d175db3cbcad3d627d46c555aa" target="_top" xlink:title="Сигнал результата отправки кода подтверждения.">
<polygon fill="white" stroke="#666666" points="349.25,-32 217,-32 217,0 349.25,0 349.25,-32"/>
<text text-anchor="start" x="225" y="-18.5" font-family="Arial" font-size="10.00">ClientManager::verification</text>
<text text-anchor="middle" x="283.12" y="-6.5" font-family="Arial" font-size="10.00">CodeResult</text>
</a>
</g>
</g>
<!-- Node1&#45;&gt;Node3 -->
<g id="edge2_Node000001_Node000003" class="edge">
<title>Node1&#45;&gt;Node3</title>
<g id="a_edge2_Node000001_Node000003"><a xlink:title=" ">
<path fill="none" stroke="#63b8ff" d="M177.71,-27.93C186.89,-26.88 196.18,-25.82 205.23,-24.79"/>
<polygon fill="#63b8ff" stroke="#63b8ff" points="205.5,-28.28 215.04,-23.67 204.71,-21.33 205.5,-28.28"/>
</a>
</g>
</g>
</g>
</svg>
