<?xml version="1.0" encoding="UTF-8" standalone="no"?>
<!DOCTYPE svg PUBLIC "-//W3C//DTD SVG 1.1//EN"
 "http://www.w3.org/Graphics/SVG/1.1/DTD/svg11.dtd">
<!-- Generated by graphviz version 12.2.1 (20241206.2353)
 -->
<!-- Title: MyTcpServer::slotServerRead Pages: 1 -->
<svg width="530pt" height="28pt"
 viewBox="0.00 0.00 530.00 28.00" xmlns="http://www.w3.org/2000/svg" xmlns:xlink="http://www.w3.org/1999/xlink">
<g id="graph0" class="graph" transform="scale(1 1) rotate(0) translate(4 24)">
<title>MyTcpServer::slotServerRead</title>
<!-- Node1 -->
<g id="Node000001" class="node">
<title>Node1</title>
<g id="a_Node000001"><a xlink:title="Обработчик входящих данных">
<polygon fill="#999999" stroke="#666666" points="522,-20 374.75,-20 374.75,0 522,0 522,-20"/>
<text text-anchor="middle" x="448.38" y="-6.5" font-family="Arial" font-size="10.00">MyTcpServer::slotServerRead</text>
</a>
</g>
</g>
<!-- Node2 -->
<g id="Node000002" class="node">
<title>Node2</title>
<g id="a_Node000002"><a xlink:href="class_my_tcp_server.html#a0ba7316ffe1a26c57fabde9e74b6c8dc" target="_top" xlink:title="Обработчик нового подключения">
<polygon fill="white" stroke="#666666" points="338.75,-20 173.5,-20 173.5,0 338.75,0 338.75,-20"/>
<text text-anchor="middle" x="256.12" y="-6.5" font-family="Arial" font-size="10.00">MyTcpServer::slotNewConnection</text>
</a>
</g>
</g>
<!-- Node1&#45;&gt;Node2 -->
<g id="edge1_Node000001_Node000002" class="edge">
<title>Node1&#45;&gt;Node2</title>
<g id="a_edge1_Node000001_Node000002"><a xlink:title=" ">
<path fill="none" stroke="#63b8ff" d="M362.89,-10C355,-10 347.01,-10 339.14,-10"/>
<polygon fill="#63b8ff" stroke="#63b8ff" points="362.85,-13.5 372.85,-10 362.85,-6.5 362.85,-13.5"/>
</a>
</g>
</g>
<!-- Node3 -->
<g id="Node000003" class="node">
<title>Node3</title>
<g id="a_Node000003"><a xlink:href="class_my_tcp_server.html#a51c997b208c04a8090c6f588469c8b12" target="_top" xlink:title="Конструктор класса MyTcpServer.">
<polygon fill="white" stroke="#666666" points="137.5,-20 0,-20 0,0 137.5,0 137.5,-20"/>
<text text-anchor="middle" x="68.75" y="-6.5" font-family="Arial" font-size="10.00">MyTcpServer::MyTcpServer</text>
</a>
</g>
</g>
<!-- Node2&#45;&gt;Node3 -->
<g id="edge2_Node000002_Node000003" class="edge">
<title>Node2&#45;&gt;Node3</title>
<g id="a_edge2_Node000002_Node000003"><a xlink:title=" ">
<path fill="none" stroke="#63b8ff" d="M161.7,-10C153.69,-10 145.69,-10 137.93,-10"/>
<polygon fill="#63b8ff" stroke="#63b8ff" points="161.49,-13.5 171.49,-10 161.49,-6.5 161.49,-13.5"/>
</a>
</g>
</g>
</g>
</svg>
