<?xml version="1.0" encoding="UTF-8" standalone="no"?>
<!DOCTYPE svg PUBLIC "-//W3C//DTD SVG 1.1//EN"
 "http://www.w3.org/Graphics/SVG/1.1/DTD/svg11.dtd">
<!-- Generated by graphviz version 12.2.1 (20241206.2353)
 -->
<!-- Title: AuthRegForm::~AuthRegForm Pages: 1 -->
<svg width="347pt" height="216pt"
 viewBox="0.00 0.00 346.75 216.00" xmlns="http://www.w3.org/2000/svg" xmlns:xlink="http://www.w3.org/1999/xlink">
<g id="graph0" class="graph" transform="scale(1 1) rotate(0) translate(4 212)">
<title>AuthRegForm::~AuthRegForm</title>
<!-- Node1 -->
<g id="Node000001" class="node">
<title>Node1</title>
<g id="a_Node000001"><a xlink:title="Деструктор формы.">
<polygon fill="#999999" stroke="#666666" points="149.5,-126 0,-126 0,-106 149.5,-106 149.5,-126"/>
<text text-anchor="middle" x="74.75" y="-112.5" font-family="Arial" font-size="10.00">AuthRegForm::~AuthRegForm</text>
</a>
</g>
</g>
<!-- Node2 -->
<g id="Node000002" class="node">
<title>Node2</title>
<g id="a_Node000002"><a xlink:href="class_client_manager.html#a712e826ffb83b207a1c74831fea63837" target="_top" xlink:title="Получить единственный экземпляр ClientManager.">
<polygon fill="white" stroke="#666666" points="330.12,-208 194.12,-208 194.12,-188 330.12,-188 330.12,-208"/>
<text text-anchor="middle" x="262.12" y="-194.5" font-family="Arial" font-size="10.00">ClientManager::getInstance</text>
</a>
</g>
</g>
<!-- Node1&#45;&gt;Node2 -->
<g id="edge1_Node000001_Node000002" class="edge">
<title>Node1&#45;&gt;Node2</title>
<g id="a_edge1_Node000001_Node000002"><a xlink:title=" ">
<path fill="none" stroke="#63b8ff" d="M90.7,-126.37C111.22,-140.18 149.64,-164.53 185.5,-179 190.34,-180.96 195.45,-182.75 200.62,-184.4"/>
<polygon fill="#63b8ff" stroke="#63b8ff" points="199.24,-187.64 209.83,-187.12 201.23,-180.93 199.24,-187.64"/>
</a>
</g>
</g>
<!-- Node3 -->
<g id="Node000003" class="node">
<title>Node3</title>
<g id="a_Node000003"><a xlink:href="class_client_manager.html#aafa6d47d5d59e7b660ef0865a464ba51" target="_top" xlink:title="Сигнал результата авторизации пользователя.">
<polygon fill="white" stroke="#666666" points="329,-170 195.25,-170 195.25,-150 329,-150 329,-170"/>
<text text-anchor="middle" x="262.12" y="-156.5" font-family="Arial" font-size="10.00">ClientManager::loginResult</text>
</a>
</g>
</g>
<!-- Node1&#45;&gt;Node3 -->
<g id="edge2_Node000001_Node000003" class="edge">
<title>Node1&#45;&gt;Node3</title>
<g id="a_edge2_Node000001_Node000003"><a xlink:title=" ">
<path fill="none" stroke="#63b8ff" d="M119.68,-126.43C145.56,-132.57 178.53,-140.39 206.12,-146.94"/>
<polygon fill="#63b8ff" stroke="#63b8ff" points="205.18,-150.32 215.72,-149.22 206.79,-143.51 205.18,-150.32"/>
</a>
</g>
</g>
<!-- Node4 -->
<g id="Node000004" class="node">
<title>Node4</title>
<g id="a_Node000004"><a xlink:href="class_client_manager.html#aa92b3af32dffef0590a3bbd7e15f60ba" target="_top" xlink:title="Сигнал результата сброса пароля.">
<polygon fill="white" stroke="#666666" points="338.75,-132 185.5,-132 185.5,-100 338.75,-100 338.75,-132"/>
<text text-anchor="start" x="193.5" y="-118.5" font-family="Arial" font-size="10.00">ClientManager::passwordReset</text>
<text text-anchor="middle" x="262.12" y="-106.5" font-family="Arial" font-size="10.00">Result</text>
</a>
</g>
</g>
<!-- Node1&#45;&gt;Node4 -->
<g id="edge3_Node000001_Node000004" class="edge">
<title>Node1&#45;&gt;Node4</title>
<g id="a_edge3_Node000001_Node000004"><a xlink:title=" ">
<path fill="none" stroke="#63b8ff" d="M149.81,-116C157.7,-116 165.77,-116 173.78,-116"/>
<polygon fill="#63b8ff" stroke="#63b8ff" points="173.54,-119.5 183.54,-116 173.54,-112.5 173.54,-119.5"/>
</a>
</g>
</g>
<!-- Node5 -->
<g id="Node000005" class="node">
<title>Node5</title>
<g id="a_Node000005"><a xlink:href="class_client_manager.html#a9719c89557aff68620f537e38c456243" target="_top" xlink:title="Сигнал результата регистрации пользователя.">
<polygon fill="white" stroke="#666666" points="328.62,-82 195.62,-82 195.62,-50 328.62,-50 328.62,-82"/>
<text text-anchor="start" x="203.62" y="-68.5" font-family="Arial" font-size="10.00">ClientManager::registration</text>
<text text-anchor="middle" x="262.12" y="-56.5" font-family="Arial" font-size="10.00">Result</text>
</a>
</g>
</g>
<!-- Node1&#45;&gt;Node5 -->
<g id="edge4_Node000001_Node000005" class="edge">
<title>Node1&#45;&gt;Node5</title>
<g id="a_edge4_Node000001_Node000005"><a xlink:title=" ">
<path fill="none" stroke="#63b8ff" d="M114.61,-105.52C136.16,-99.71 163.65,-92.29 188.98,-85.46"/>
<polygon fill="#63b8ff" stroke="#63b8ff" points="189.85,-88.85 198.6,-82.87 188.03,-82.09 189.85,-88.85"/>
</a>
</g>
</g>
<!-- Node6 -->
<g id="Node000006" class="node">
<title>Node6</title>
<g id="a_Node000006"><a xlink:href="class_client_manager.html#a78aa23d175db3cbcad3d627d46c555aa" target="_top" xlink:title="Сигнал результата отправки кода подтверждения.">
<polygon fill="white" stroke="#666666" points="328.25,-32 196,-32 196,0 328.25,0 328.25,-32"/>
<text text-anchor="start" x="204" y="-18.5" font-family="Arial" font-size="10.00">ClientManager::verification</text>
<text text-anchor="middle" x="262.12" y="-6.5" font-family="Arial" font-size="10.00">CodeResult</text>
</a>
</g>
</g>
<!-- Node1&#45;&gt;Node6 -->
<g id="edge5_Node000001_Node000006" class="edge">
<title>Node1&#45;&gt;Node6</title>
<g id="a_edge5_Node000001_Node000006"><a xlink:title=" ">
<path fill="none" stroke="#63b8ff" d="M88.2,-105.75C107.83,-90 147.65,-59.73 185.5,-41 188.56,-39.49 191.74,-38.03 194.97,-36.64"/>
<polygon fill="#63b8ff" stroke="#63b8ff" points="196.1,-39.96 204.07,-32.97 193.48,-33.47 196.1,-39.96"/>
</a>
</g>
</g>
</g>
</svg>
