<?xml version="1.0" encoding="UTF-8" standalone="no"?>
<!DOCTYPE svg PUBLIC "-//W3C//DTD SVG 1.1//EN"
 "http://www.w3.org/Graphics/SVG/1.1/DTD/svg11.dtd">
<!-- Generated by graphviz version 12.2.1 (20241206.2353)
 -->
<!-- Title: ClientManager::registrationResult Pages: 1 -->
<svg width="392pt" height="160pt"
 viewBox="0.00 0.00 392.00 160.00" xmlns="http://www.w3.org/2000/svg" xmlns:xlink="http://www.w3.org/1999/xlink">
<g id="graph0" class="graph" transform="scale(1 1) rotate(0) translate(4 156)">
<title>ClientManager::registrationResult</title>
<!-- Node1 -->
<g id="Node000001" class="node">
<title>Node1</title>
<g id="a_Node000001"><a xlink:title="Сигнал результата регистрации пользователя.">
<polygon fill="#999999" stroke="#666666" points="384,-83 251,-83 251,-51 384,-51 384,-83"/>
<text text-anchor="start" x="259" y="-69.5" font-family="Arial" font-size="10.00">ClientManager::registration</text>
<text text-anchor="middle" x="317.5" y="-57.5" font-family="Arial" font-size="10.00">Result</text>
</a>
</g>
</g>
<!-- Node2 -->
<g id="Node000002" class="node">
<title>Node2</title>
<g id="a_Node000002"><a xlink:href="class_auth_reg_form.html#a7ec2ba2a7980453c629e141a90602e68" target="_top" xlink:title="Конструктор формы авторизации и регистрации.">
<polygon fill="white" stroke="#666666" points="212,-134 68.5,-134 68.5,-114 212,-114 212,-134"/>
<text text-anchor="middle" x="140.25" y="-120.5" font-family="Arial" font-size="10.00">AuthRegForm::AuthRegForm</text>
</a>
</g>
</g>
<!-- Node1&#45;&gt;Node2 -->
<g id="edge1_Node000001_Node000002" class="edge">
<title>Node1&#45;&gt;Node2</title>
<g id="a_edge1_Node000001_Node000002"><a xlink:title=" ">
<path fill="none" stroke="#63b8ff" d="M255.07,-86.98C227.51,-95.94 196.15,-106.14 173.34,-113.56"/>
<polygon fill="#63b8ff" stroke="#63b8ff" points="255.94,-90.38 264.37,-83.95 253.78,-83.72 255.94,-90.38"/>
</a>
</g>
</g>
<!-- Node3 -->
<g id="Node000003" class="node">
<title>Node3</title>
<g id="a_Node000003"><a xlink:href="funcsforclient_8cpp.html#a9638764c61635aa7172dc25ef99ce281" target="_top" xlink:title="Функция регистрации нового пользователя.">
<polygon fill="white" stroke="#666666" points="29.5,-77 0,-77 0,-57 29.5,-57 29.5,-77"/>
<text text-anchor="middle" x="14.75" y="-63.5" font-family="Arial" font-size="10.00">reg</text>
</a>
</g>
</g>
<!-- Node1&#45;&gt;Node3 -->
<g id="edge3_Node000001_Node000003" class="edge">
<title>Node1&#45;&gt;Node3</title>
<g id="a_edge3_Node000001_Node000003"><a xlink:title=" ">
<path fill="none" stroke="#63b8ff" d="M239.63,-67C167.95,-67 66.72,-67 29.86,-67"/>
<polygon fill="#63b8ff" stroke="#63b8ff" points="239.36,-70.5 249.36,-67 239.36,-63.5 239.36,-70.5"/>
</a>
</g>
</g>
<!-- Node4 -->
<g id="Node000004" class="node">
<title>Node4</title>
<g id="a_Node000004"><a xlink:href="class_client_manager.html#a092a44dab9d3020071e398565c15b039" target="_top" xlink:title="Зарегистрировать нового пользователя.">
<polygon fill="white" stroke="#666666" points="209.38,-58 71.12,-58 71.12,-38 209.38,-38 209.38,-58"/>
<text text-anchor="middle" x="140.25" y="-44.5" font-family="Arial" font-size="10.00">ClientManager::registerUser</text>
</a>
</g>
</g>
<!-- Node1&#45;&gt;Node4 -->
<g id="edge4_Node000001_Node000004" class="edge">
<title>Node1&#45;&gt;Node4</title>
<g id="a_edge4_Node000001_Node000004"><a xlink:title=" ">
<path fill="none" stroke="#63b8ff" d="M239.61,-58.66C229.66,-57.59 219.52,-56.49 209.71,-55.42"/>
<polygon fill="#63b8ff" stroke="#63b8ff" points="238.92,-62.11 249.24,-59.71 239.68,-55.15 238.92,-62.11"/>
</a>
</g>
</g>
<!-- Node5 -->
<g id="Node000005" class="node">
<title>Node5</title>
<g id="a_Node000005"><a xlink:href="class_auth_reg_form.html#a8b95ad00c5d29338f850a0f179b12078" target="_top" xlink:title="Деструктор формы.">
<polygon fill="white" stroke="#666666" points="215,-20 65.5,-20 65.5,0 215,0 215,-20"/>
<text text-anchor="middle" x="140.25" y="-6.5" font-family="Arial" font-size="10.00">AuthRegForm::~AuthRegForm</text>
</a>
</g>
</g>
<!-- Node1&#45;&gt;Node5 -->
<g id="edge6_Node000001_Node000005" class="edge">
<title>Node1&#45;&gt;Node5</title>
<g id="a_edge6_Node000001_Node000005"><a xlink:title=" ">
<path fill="none" stroke="#63b8ff" d="M265.13,-46.56C249.19,-40.55 231.48,-34.19 215,-29 205.42,-25.98 195.02,-23.08 185.14,-20.49"/>
<polygon fill="#63b8ff" stroke="#63b8ff" points="263.85,-49.82 274.44,-50.12 266.35,-43.28 263.85,-49.82"/>
</a>
</g>
</g>
<!-- Node2&#45;&gt;Node2 -->
<g id="edge2_Node000002_Node000002" class="edge">
<title>Node2&#45;&gt;Node2</title>
<g id="a_edge2_Node000002_Node000002"><a xlink:title=" ">
<path fill="none" stroke="#63b8ff" d="M162.43,-145.44C159.57,-149.3 152.18,-152 140.25,-152 118.43,-152 111.79,-142.98 120.31,-134.34"/>
<polygon fill="#63b8ff" stroke="#63b8ff" points="165.9,-144.93 160.49,-135.82 159.04,-146.32 165.9,-144.93"/>
</a>
</g>
</g>
<!-- Node4&#45;&gt;Node3 -->
<g id="edge5_Node000004_Node000003" class="edge">
<title>Node4&#45;&gt;Node3</title>
<g id="a_edge5_Node000004_Node000003"><a xlink:title=" ">
<path fill="none" stroke="#63b8ff" d="M60.11,-60.18C48.59,-61.95 37.96,-63.58 29.99,-64.81"/>
<polygon fill="#63b8ff" stroke="#63b8ff" points="60.51,-63.66 69.86,-58.68 59.45,-56.74 60.51,-63.66"/>
</a>
</g>
</g>
</g>
</svg>
