<?xml version="1.0" encoding="UTF-8" standalone="no"?>
<!DOCTYPE svg PUBLIC "-//W3C//DTD SVG 1.1//EN"
 "http://www.w3.org/Graphics/SVG/1.1/DTD/svg11.dtd">
<!-- Generated by graphviz version 12.2.1 (20241206.2353)
 -->
<!-- Title: ClientInterface/clientmanager.h Pages: 1 -->
<svg width="829pt" height="176pt"
 viewBox="0.00 0.00 829.00 176.00" xmlns="http://www.w3.org/2000/svg" xmlns:xlink="http://www.w3.org/1999/xlink">
<g id="graph0" class="graph" transform="scale(1 1) rotate(0) translate(4 172)">
<title>ClientInterface/clientmanager.h</title>
<!-- Node1 -->
<g id="Node000001" class="node">
<title>Node1</title>
<g id="a_Node000001"><a xlink:title="Описание класса ClientManager, который управляет клиентским соединением с сервером.">
<polygon fill="#999999" stroke="#666666" points="300.5,-168 148.75,-168 148.75,-148 300.5,-148 300.5,-168"/>
<text text-anchor="middle" x="224.62" y="-154.5" font-family="Arial" font-size="10.00">ClientInterface/clientmanager.h</text>
</a>
</g>
</g>
<!-- Node2 -->
<g id="Node000002" class="node">
<title>Node2</title>
<g id="a_Node000002"><a xlink:href="authregform_8cpp.html" target="_top" xlink:title="Файл реализации форм авторизации и регистрации.">
<polygon fill="white" stroke="#666666" points="153.25,-38 0,-38 0,-18 153.25,-18 153.25,-38"/>
<text text-anchor="middle" x="76.62" y="-24.5" font-family="Arial" font-size="10.00">ClientInterface/authregform.cpp</text>
</a>
</g>
</g>
<!-- Node1&#45;&gt;Node2 -->
<g id="edge1_Node000001_Node000002" class="edge">
<title>Node1&#45;&gt;Node2</title>
<g id="a_edge1_Node000001_Node000002"><a xlink:title=" ">
<path fill="none" stroke="#63b8ff" d="M138.74,-145.59C98.88,-138.36 57.65,-127.42 45.62,-112 27.75,-89.07 53.16,-54.76 67.69,-38.37"/>
<polygon fill="#63b8ff" stroke="#63b8ff" points="137.98,-149.01 148.43,-147.28 139.18,-142.12 137.98,-149.01"/>
</a>
</g>
</g>
<!-- Node3 -->
<g id="Node000003" class="node">
<title>Node3</title>
<g id="a_Node000003"><a xlink:href="clientmanager_8cpp.html" target="_top" xlink:title="Реализация класса ClientManager.">
<polygon fill="white" stroke="#666666" points="216.75,-112 54.5,-112 54.5,-92 216.75,-92 216.75,-112"/>
<text text-anchor="middle" x="135.62" y="-98.5" font-family="Arial" font-size="10.00">ClientInterface/clientmanager.cpp</text>
</a>
</g>
</g>
<!-- Node1&#45;&gt;Node3 -->
<g id="edge2_Node000001_Node000003" class="edge">
<title>Node1&#45;&gt;Node3</title>
<g id="a_edge2_Node000001_Node000003"><a xlink:title=" ">
<path fill="none" stroke="#63b8ff" d="M199.59,-141.81C184.07,-132.39 164.6,-120.58 151.25,-112.48"/>
<polygon fill="#63b8ff" stroke="#63b8ff" points="197.46,-144.61 207.83,-146.81 201.09,-138.63 197.46,-144.61"/>
</a>
</g>
</g>
<!-- Node4 -->
<g id="Node000004" class="node">
<title>Node4</title>
<g id="a_Node000004"><a xlink:href="funcsforclient_8cpp.html" target="_top" xlink:title="Файл реализации функций авторизации и регистрации клиента.">
<polygon fill="white" stroke="#666666" points="394.62,-112 234.62,-112 234.62,-92 394.62,-92 394.62,-112"/>
<text text-anchor="middle" x="314.62" y="-98.5" font-family="Arial" font-size="10.00">ClientInterface/funcsforclient.cpp</text>
</a>
</g>
</g>
<!-- Node1&#45;&gt;Node4 -->
<g id="edge3_Node000001_Node000004" class="edge">
<title>Node1&#45;&gt;Node4</title>
<g id="a_edge3_Node000001_Node000004"><a xlink:title=" ">
<path fill="none" stroke="#63b8ff" d="M249.94,-141.81C265.64,-132.39 285.32,-120.58 298.83,-112.48"/>
<polygon fill="#63b8ff" stroke="#63b8ff" points="248.37,-138.67 241.6,-146.82 251.98,-144.67 248.37,-138.67"/>
</a>
</g>
</g>
<!-- Node5 -->
<g id="Node000005" class="node">
<title>Node5</title>
<g id="a_Node000005"><a xlink:href="homewindow_8h.html" target="_top" xlink:title="Описание интерфейса главного окна (класс HomeWindow).">
<polygon fill="white" stroke="#666666" points="560.25,-112 413,-112 413,-92 560.25,-92 560.25,-112"/>
<text text-anchor="middle" x="486.62" y="-98.5" font-family="Arial" font-size="10.00">ClientInterface/homewindow.h</text>
</a>
</g>
</g>
<!-- Node1&#45;&gt;Node5 -->
<g id="edge4_Node000001_Node000005" class="edge">
<title>Node1&#45;&gt;Node5</title>
<g id="a_edge4_Node000001_Node000005"><a xlink:title=" ">
<path fill="none" stroke="#63b8ff" d="M281.63,-145.25C329.32,-135.42 396.47,-121.58 440.74,-112.46"/>
<polygon fill="#63b8ff" stroke="#63b8ff" points="281.13,-141.78 272.04,-147.23 282.54,-148.64 281.13,-141.78"/>
</a>
</g>
</g>
<!-- Node5&#45;&gt;Node2 -->
<g id="edge5_Node000005_Node000002" class="edge">
<title>Node5&#45;&gt;Node2</title>
<g id="a_edge5_Node000005_Node000002"><a xlink:title=" ">
<path fill="none" stroke="#63b8ff" d="M401.27,-90.21C341.27,-82.13 259.24,-70.07 187.62,-56 162.13,-50.99 133.66,-44.04 111.94,-38.44"/>
<polygon fill="#63b8ff" stroke="#63b8ff" points="400.71,-93.67 411.08,-91.53 401.63,-86.73 400.71,-93.67"/>
</a>
</g>
</g>
<!-- Node6 -->
<g id="Node000006" class="node">
<title>Node6</title>
<g id="a_Node000006"><a xlink:href="homewindow_8cpp.html" target="_top" xlink:title="Реализация класса HomeWindow.">
<polygon fill="white" stroke="#666666" points="354.5,-38 196.75,-38 196.75,-18 354.5,-18 354.5,-38"/>
<text text-anchor="middle" x="275.62" y="-24.5" font-family="Arial" font-size="10.00">ClientInterface/homewindow.cpp</text>
</a>
</g>
</g>
<!-- Node5&#45;&gt;Node6 -->
<g id="edge6_Node000005_Node000006" class="edge">
<title>Node5&#45;&gt;Node6</title>
<g id="a_edge6_Node000005_Node000006"><a xlink:title=" ">
<path fill="none" stroke="#63b8ff" d="M448.16,-87.88C406.26,-73.58 340.26,-51.06 303.22,-38.42"/>
<polygon fill="#63b8ff" stroke="#63b8ff" points="447.01,-91.18 457.61,-91.1 449.27,-84.56 447.01,-91.18"/>
</a>
</g>
</g>
<!-- Node7 -->
<g id="Node000007" class="node">
<title>Node7</title>
<g id="a_Node000007"><a xlink:href="moc__homewindow_8cpp.html" target="_top" xlink:title="Автоматически сгенерированный файл метаобъекта для класса HomeWindow.">
<polygon fill="white" stroke="#666666" points="551,-56 372.25,-56 372.25,0 551,0 551,-56"/>
<text text-anchor="start" x="380.25" y="-42.5" font-family="Arial" font-size="10.00">Tests/Test/Tests/build</text>
<text text-anchor="start" x="380.25" y="-30.5" font-family="Arial" font-size="10.00">/Desktop_Qt_5_15_16_static</text>
<text text-anchor="start" x="380.25" y="-18.5" font-family="Arial" font-size="10.00">_MinGW_w64_MINGW64_MSYS2</text>
<text text-anchor="middle" x="461.62" y="-6.5" font-family="Arial" font-size="10.00">&#45;Debug/debug/moc_homewindow.cpp</text>
</a>
</g>
</g>
<!-- Node5&#45;&gt;Node7 -->
<g id="edge7_Node000005_Node000007" class="edge">
<title>Node5&#45;&gt;Node7</title>
<g id="a_edge7_Node000005_Node000007"><a xlink:title=" ">
<path fill="none" stroke="#63b8ff" d="M479.65,-80.9C477.01,-73.32 473.97,-64.57 471.15,-56.43"/>
<polygon fill="#63b8ff" stroke="#63b8ff" points="476.27,-81.86 482.86,-90.16 482.89,-79.56 476.27,-81.86"/>
</a>
</g>
</g>
<!-- Node8 -->
<g id="Node000008" class="node">
<title>Node8</title>
<g id="a_Node000008"><a xlink:href="tst__first_8cpp.html" target="_top" xlink:title="Тестирование функционала окна HomeWindow.">
<polygon fill="white" stroke="#666666" points="672.12,-44 569.12,-44 569.12,-12 672.12,-12 672.12,-44"/>
<text text-anchor="start" x="577.12" y="-30.5" font-family="Arial" font-size="10.00">Tests/Test/Tests/tst</text>
<text text-anchor="middle" x="620.62" y="-18.5" font-family="Arial" font-size="10.00">_first.cpp</text>
</a>
</g>
</g>
<!-- Node5&#45;&gt;Node8 -->
<g id="edge8_Node000005_Node000008" class="edge">
<title>Node5&#45;&gt;Node8</title>
<g id="a_edge8_Node000005_Node000008"><a xlink:title=" ">
<path fill="none" stroke="#63b8ff" d="M514.13,-86.22C536.79,-74.04 568.83,-56.83 591.83,-44.47"/>
<polygon fill="#63b8ff" stroke="#63b8ff" points="512.63,-83.05 505.48,-90.87 515.94,-89.22 512.63,-83.05"/>
</a>
</g>
</g>
<!-- Node9 -->
<g id="Node000009" class="node">
<title>Node9</title>
<g id="a_Node000009"><a xlink:href="test__homewindow_8cpp.html" target="_top" xlink:title="Тестирование компонента HomeWindow.">
<polygon fill="white" stroke="#666666" points="821,-44 690.25,-44 690.25,-12 821,-12 821,-44"/>
<text text-anchor="start" x="698.25" y="-30.5" font-family="Arial" font-size="10.00">Tests/Test_ClientInterface</text>
<text text-anchor="middle" x="755.62" y="-18.5" font-family="Arial" font-size="10.00">/test_homewindow.cpp</text>
</a>
</g>
</g>
<!-- Node5&#45;&gt;Node9 -->
<g id="edge9_Node000005_Node000009" class="edge">
<title>Node5&#45;&gt;Node9</title>
<g id="a_edge9_Node000005_Node000009"><a xlink:title=" ">
<path fill="none" stroke="#63b8ff" d="M546.25,-89.23C585.12,-81.07 636.76,-69.31 681.62,-56 692.9,-52.66 704.95,-48.51 715.98,-44.48"/>
<polygon fill="#63b8ff" stroke="#63b8ff" points="545.7,-85.77 536.62,-91.23 547.12,-92.62 545.7,-85.77"/>
</a>
</g>
</g>
</g>
</svg>
