<?xml version="1.0" encoding="UTF-8" standalone="no"?>
<!DOCTYPE svg PUBLIC "-//W3C//DTD SVG 1.1//EN"
 "http://www.w3.org/Graphics/SVG/1.1/DTD/svg11.dtd">
<!-- Generated by graphviz version 12.2.1 (20241206.2353)
 -->
<!-- Title: ClientInterface/clientmanager.cpp Pages: 1 -->
<svg width="445pt" height="140pt"
 viewBox="0.00 0.00 445.25 140.00" xmlns="http://www.w3.org/2000/svg" xmlns:xlink="http://www.w3.org/1999/xlink">
<g id="graph0" class="graph" transform="scale(1 1) rotate(0) translate(4 136)">
<title>ClientInterface/clientmanager.cpp</title>
<!-- Node1 -->
<g id="Node000001" class="node">
<title>Node1</title>
<g id="a_Node000001"><a xlink:title="Реализация класса ClientManager.">
<polygon fill="#999999" stroke="#666666" points="371.12,-132 208.88,-132 208.88,-112 371.12,-112 371.12,-132"/>
<text text-anchor="middle" x="290" y="-118.5" font-family="Arial" font-size="10.00">ClientInterface/clientmanager.cpp</text>
</a>
</g>
</g>
<!-- Node2 -->
<g id="Node000002" class="node">
<title>Node2</title>
<g id="a_Node000002"><a xlink:href="clientmanager_8h.html" target="_top" xlink:title="Описание класса ClientManager, который управляет клиентским соединением с сервером.">
<polygon fill="white" stroke="#666666" points="245.5,-76 160.5,-76 160.5,-56 245.5,-56 245.5,-76"/>
<text text-anchor="middle" x="203" y="-62.5" font-family="Arial" font-size="10.00">clientmanager.h</text>
</a>
</g>
</g>
<!-- Node1&#45;&gt;Node2 -->
<g id="edge1_Node000001_Node000002" class="edge">
<title>Node1&#45;&gt;Node2</title>
<g id="a_edge1_Node000001_Node000002"><a xlink:title=" ">
<path fill="none" stroke="#63b8ff" d="M274.85,-111.59C261.95,-103.59 243.17,-91.93 228.04,-82.54"/>
<polygon fill="#63b8ff" stroke="#63b8ff" points="229.9,-79.58 219.56,-77.28 226.21,-85.53 229.9,-79.58"/>
</a>
</g>
</g>
<!-- Node8 -->
<g id="Node000008" class="node">
<title>Node8</title>
<g id="a_Node000008"><a xlink:title=" ">
<polygon fill="#e0e0e0" stroke="#999999" points="316,-76 264,-76 264,-56 316,-56 316,-76"/>
<text text-anchor="middle" x="290" y="-62.5" font-family="Arial" font-size="10.00">QDebug</text>
</a>
</g>
</g>
<!-- Node1&#45;&gt;Node8 -->
<g id="edge7_Node000001_Node000008" class="edge">
<title>Node1&#45;&gt;Node8</title>
<g id="a_edge7_Node000001_Node000008"><a xlink:title=" ">
<path fill="none" stroke="#63b8ff" d="M290,-111.59C290,-105.01 290,-95.96 290,-87.73"/>
<polygon fill="#63b8ff" stroke="#63b8ff" points="293.5,-87.81 290,-77.81 286.5,-87.81 293.5,-87.81"/>
</a>
</g>
</g>
<!-- Node9 -->
<g id="Node000009" class="node">
<title>Node9</title>
<g id="a_Node000009"><a xlink:title=" ">
<polygon fill="#e0e0e0" stroke="#999999" points="382.12,-76 333.88,-76 333.88,-56 382.12,-56 382.12,-76"/>
<text text-anchor="middle" x="358" y="-62.5" font-family="Arial" font-size="10.00">QTimer</text>
</a>
</g>
</g>
<!-- Node1&#45;&gt;Node9 -->
<g id="edge8_Node000001_Node000009" class="edge">
<title>Node1&#45;&gt;Node9</title>
<g id="a_edge8_Node000001_Node000009"><a xlink:title=" ">
<path fill="none" stroke="#63b8ff" d="M301.84,-111.59C311.69,-103.77 325.93,-92.46 337.61,-83.19"/>
<polygon fill="#63b8ff" stroke="#63b8ff" points="339.45,-86.2 345.11,-77.24 335.1,-80.72 339.45,-86.2"/>
</a>
</g>
</g>
<!-- Node3 -->
<g id="Node000003" class="node">
<title>Node3</title>
<g id="a_Node000003"><a xlink:title=" ">
<polygon fill="#e0e0e0" stroke="#999999" points="52,-20 0,-20 0,0 52,0 52,-20"/>
<text text-anchor="middle" x="26" y="-6.5" font-family="Arial" font-size="10.00">QObject</text>
</a>
</g>
</g>
<!-- Node2&#45;&gt;Node3 -->
<g id="edge2_Node000002_Node000003" class="edge">
<title>Node2&#45;&gt;Node3</title>
<g id="a_edge2_Node000002_Node000003"><a xlink:title=" ">
<path fill="none" stroke="#63b8ff" d="M172.17,-55.59C141.87,-46.35 95.59,-32.23 63.25,-22.36"/>
<polygon fill="#63b8ff" stroke="#63b8ff" points="64.47,-19.08 53.89,-19.51 62.43,-25.77 64.47,-19.08"/>
</a>
</g>
</g>
<!-- Node4 -->
<g id="Node000004" class="node">
<title>Node4</title>
<g id="a_Node000004"><a xlink:title=" ">
<polygon fill="#e0e0e0" stroke="#999999" points="140,-20 70,-20 70,0 140,0 140,-20"/>
<text text-anchor="middle" x="105" y="-6.5" font-family="Arial" font-size="10.00">QTcpSocket</text>
</a>
</g>
</g>
<!-- Node2&#45;&gt;Node4 -->
<g id="edge3_Node000002_Node000004" class="edge">
<title>Node2&#45;&gt;Node4</title>
<g id="a_edge3_Node000002_Node000004"><a xlink:title=" ">
<path fill="none" stroke="#63b8ff" d="M185.93,-55.59C171.12,-47.44 149.43,-35.48 132.23,-26"/>
<polygon fill="#63b8ff" stroke="#63b8ff" points="133.98,-22.97 123.53,-21.21 130.6,-29.1 133.98,-22.97"/>
</a>
</g>
</g>
<!-- Node5 -->
<g id="Node000005" class="node">
<title>Node5</title>
<g id="a_Node000005"><a xlink:title=" ">
<polygon fill="#e0e0e0" stroke="#999999" points="247.75,-20 158.25,-20 158.25,0 247.75,0 247.75,-20"/>
<text text-anchor="middle" x="203" y="-6.5" font-family="Arial" font-size="10.00">QJsonDocument</text>
</a>
</g>
</g>
<!-- Node2&#45;&gt;Node5 -->
<g id="edge4_Node000002_Node000005" class="edge">
<title>Node2&#45;&gt;Node5</title>
<g id="a_edge4_Node000002_Node000005"><a xlink:title=" ">
<path fill="none" stroke="#63b8ff" d="M203,-55.59C203,-49.01 203,-39.96 203,-31.73"/>
<polygon fill="#63b8ff" stroke="#63b8ff" points="206.5,-31.81 203,-21.81 199.5,-31.81 206.5,-31.81"/>
</a>
</g>
</g>
<!-- Node6 -->
<g id="Node000006" class="node">
<title>Node6</title>
<g id="a_Node000006"><a xlink:title=" ">
<polygon fill="#e0e0e0" stroke="#999999" points="338.5,-20 265.5,-20 265.5,0 338.5,0 338.5,-20"/>
<text text-anchor="middle" x="302" y="-6.5" font-family="Arial" font-size="10.00">QJsonObject</text>
</a>
</g>
</g>
<!-- Node2&#45;&gt;Node6 -->
<g id="edge5_Node000002_Node000006" class="edge">
<title>Node2&#45;&gt;Node6</title>
<g id="a_edge5_Node000002_Node000006"><a xlink:title=" ">
<path fill="none" stroke="#63b8ff" d="M220.24,-55.59C235.34,-47.36 257.53,-35.26 274.98,-25.74"/>
<polygon fill="#63b8ff" stroke="#63b8ff" points="276.19,-29.07 283.29,-21.2 272.84,-22.92 276.19,-29.07"/>
</a>
</g>
</g>
<!-- Node7 -->
<g id="Node000007" class="node">
<title>Node7</title>
<g id="a_Node000007"><a xlink:title=" ">
<polygon fill="#e0e0e0" stroke="#999999" points="437.25,-20 356.75,-20 356.75,0 437.25,0 437.25,-20"/>
<text text-anchor="middle" x="397" y="-6.5" font-family="Arial" font-size="10.00">QHostAddress</text>
</a>
</g>
</g>
<!-- Node2&#45;&gt;Node7 -->
<g id="edge6_Node000002_Node000007" class="edge">
<title>Node2&#45;&gt;Node7</title>
<g id="a_edge6_Node000002_Node000007"><a xlink:title=" ">
<path fill="none" stroke="#63b8ff" d="M236.79,-55.59C268.73,-46.71 316.85,-33.31 352.02,-23.52"/>
<polygon fill="#63b8ff" stroke="#63b8ff" points="352.79,-26.94 361.49,-20.89 350.91,-20.2 352.79,-26.94"/>
</a>
</g>
</g>
</g>
</svg>
