<?xml version="1.0" encoding="UTF-8" standalone="no"?>
<!DOCTYPE svg PUBLIC "-//W3C//DTD SVG 1.1//EN"
 "http://www.w3.org/Graphics/SVG/1.1/DTD/svg11.dtd">
<!-- Generated by graphviz version 12.2.1 (20241206.2353)
 -->
<!-- Title: Server/equationsolver.cpp Pages: 1 -->
<svg width="227pt" height="140pt"
 viewBox="0.00 0.00 226.62 140.00" xmlns="http://www.w3.org/2000/svg" xmlns:xlink="http://www.w3.org/1999/xlink">
<g id="graph0" class="graph" transform="scale(1 1) rotate(0) translate(4 136)">
<title>Server/equationsolver.cpp</title>
<!-- Node1 -->
<g id="Node000001" class="node">
<title>Node1</title>
<g id="a_Node000001"><a xlink:title="Реализация решения уравнений итерационными методами">
<polygon fill="#999999" stroke="#666666" points="191.25,-132 62,-132 62,-112 191.25,-112 191.25,-132"/>
<text text-anchor="middle" x="126.62" y="-118.5" font-family="Arial" font-size="10.00">Server/equationsolver.cpp</text>
</a>
</g>
</g>
<!-- Node2 -->
<g id="Node000002" class="node">
<title>Node2</title>
<g id="a_Node000002"><a xlink:href="equationsolver_8h.html" target="_top" xlink:title="Решение уравнений итерационными методами">
<polygon fill="white" stroke="#666666" points="87.25,-76 0,-76 0,-56 87.25,-56 87.25,-76"/>
<text text-anchor="middle" x="43.62" y="-62.5" font-family="Arial" font-size="10.00">equationsolver.h</text>
</a>
</g>
</g>
<!-- Node1&#45;&gt;Node2 -->
<g id="edge1_Node000001_Node000002" class="edge">
<title>Node1&#45;&gt;Node2</title>
<g id="a_edge1_Node000001_Node000002"><a xlink:title=" ">
<path fill="none" stroke="#63b8ff" d="M112.17,-111.59C99.87,-103.59 81.95,-91.93 67.52,-82.54"/>
<polygon fill="#63b8ff" stroke="#63b8ff" points="69.75,-79.82 59.46,-77.3 65.94,-85.69 69.75,-79.82"/>
</a>
</g>
</g>
<!-- Node4 -->
<g id="Node000004" class="node">
<title>Node4</title>
<g id="a_Node000004"><a xlink:title=" ">
<polygon fill="#e0e0e0" stroke="#999999" points="148.12,-76 105.12,-76 105.12,-56 148.12,-56 148.12,-76"/>
<text text-anchor="middle" x="126.62" y="-62.5" font-family="Arial" font-size="10.00">cmath</text>
</a>
</g>
</g>
<!-- Node1&#45;&gt;Node4 -->
<g id="edge3_Node000001_Node000004" class="edge">
<title>Node1&#45;&gt;Node4</title>
<g id="a_edge3_Node000001_Node000004"><a xlink:title=" ">
<path fill="none" stroke="#63b8ff" d="M126.62,-111.59C126.62,-105.01 126.62,-95.96 126.62,-87.73"/>
<polygon fill="#63b8ff" stroke="#63b8ff" points="130.13,-87.81 126.63,-77.81 123.13,-87.81 130.13,-87.81"/>
</a>
</g>
</g>
<!-- Node5 -->
<g id="Node000005" class="node">
<title>Node5</title>
<g id="a_Node000005"><a xlink:title=" ">
<polygon fill="#e0e0e0" stroke="#999999" points="218.62,-76 166.62,-76 166.62,-56 218.62,-56 218.62,-76"/>
<text text-anchor="middle" x="192.62" y="-62.5" font-family="Arial" font-size="10.00">QDebug</text>
</a>
</g>
</g>
<!-- Node1&#45;&gt;Node5 -->
<g id="edge4_Node000001_Node000005" class="edge">
<title>Node1&#45;&gt;Node5</title>
<g id="a_edge4_Node000001_Node000005"><a xlink:title=" ">
<path fill="none" stroke="#63b8ff" d="M138.12,-111.59C147.59,-103.85 161.23,-92.69 172.5,-83.47"/>
<polygon fill="#63b8ff" stroke="#63b8ff" points="174.57,-86.3 180.09,-77.26 170.13,-80.88 174.57,-86.3"/>
</a>
</g>
</g>
<!-- Node3 -->
<g id="Node000003" class="node">
<title>Node3</title>
<g id="a_Node000003"><a xlink:title=" ">
<polygon fill="#e0e0e0" stroke="#999999" points="68.12,-20 19.12,-20 19.12,0 68.12,0 68.12,-20"/>
<text text-anchor="middle" x="43.62" y="-6.5" font-family="Arial" font-size="10.00">QString</text>
</a>
</g>
</g>
<!-- Node2&#45;&gt;Node3 -->
<g id="edge2_Node000002_Node000003" class="edge">
<title>Node2&#45;&gt;Node3</title>
<g id="a_edge2_Node000002_Node000003"><a xlink:title=" ">
<path fill="none" stroke="#63b8ff" d="M43.62,-55.59C43.62,-49.01 43.62,-39.96 43.62,-31.73"/>
<polygon fill="#63b8ff" stroke="#63b8ff" points="47.13,-31.81 43.63,-21.81 40.13,-31.81 47.13,-31.81"/>
</a>
</g>
</g>
</g>
</svg>
