<?xml version="1.0" encoding="UTF-8" standalone="no"?>
<!DOCTYPE svg PUBLIC "-//W3C//DTD SVG 1.1//EN"
 "http://www.w3.org/Graphics/SVG/1.1/DTD/svg11.dtd">
<!-- Generated by graphviz version 12.2.1 (20241206.2353)
 -->
<!-- Title: Server/equationsolver.h Pages: 1 -->
<svg width="1441pt" height="176pt"
 viewBox="0.00 0.00 1440.88 176.00" xmlns="http://www.w3.org/2000/svg" xmlns:xlink="http://www.w3.org/1999/xlink">
<g id="graph0" class="graph" transform="scale(1 1) rotate(0) translate(4 172)">
<title>Server/equationsolver.h</title>
<!-- Node1 -->
<g id="Node000001" class="node">
<title>Node1</title>
<g id="a_Node000001"><a xlink:title="Решение уравнений итерационными методами">
<polygon fill="#999999" stroke="#666666" points="887,-168 768.25,-168 768.25,-148 887,-148 887,-168"/>
<text text-anchor="middle" x="827.62" y="-154.5" font-family="Arial" font-size="10.00">Server/equationsolver.h</text>
</a>
</g>
</g>
<!-- Node2 -->
<g id="Node000002" class="node">
<title>Node2</title>
<g id="a_Node000002"><a xlink:href="homewindow_8h.html" target="_top" xlink:title="Описание интерфейса главного окна (класс HomeWindow).">
<polygon fill="white" stroke="#666666" points="590.25,-112 443,-112 443,-92 590.25,-92 590.25,-112"/>
<text text-anchor="middle" x="516.62" y="-98.5" font-family="Arial" font-size="10.00">ClientInterface/homewindow.h</text>
</a>
</g>
</g>
<!-- Node1&#45;&gt;Node2 -->
<g id="edge1_Node000001_Node000002" class="edge">
<title>Node1&#45;&gt;Node2</title>
<g id="a_edge1_Node000001_Node000002"><a xlink:title=" ">
<path fill="none" stroke="#63b8ff" d="M762.09,-145.62C705.37,-135.77 624.31,-121.7 571.09,-112.46"/>
<polygon fill="#63b8ff" stroke="#63b8ff" points="761.15,-149.01 771.61,-147.27 762.35,-142.11 761.15,-149.01"/>
</a>
</g>
</g>
<!-- Node8 -->
<g id="Node000008" class="node">
<title>Node8</title>
<g id="a_Node000008"><a xlink:href="equationsolver_8cpp.html" target="_top" xlink:title="Реализация решения уравнений итерационными методами">
<polygon fill="white" stroke="#666666" points="846.25,-112 717,-112 717,-92 846.25,-92 846.25,-112"/>
<text text-anchor="middle" x="781.62" y="-98.5" font-family="Arial" font-size="10.00">Server/equationsolver.cpp</text>
</a>
</g>
</g>
<!-- Node1&#45;&gt;Node8 -->
<g id="edge7_Node000001_Node000008" class="edge">
<title>Node1&#45;&gt;Node8</title>
<g id="a_edge7_Node000001_Node000008"><a xlink:title=" ">
<path fill="none" stroke="#63b8ff" d="M812.29,-139C804.67,-130.06 795.79,-119.62 789.55,-112.3"/>
<polygon fill="#63b8ff" stroke="#63b8ff" points="809.48,-141.1 818.63,-146.44 814.81,-136.56 809.48,-141.1"/>
</a>
</g>
</g>
<!-- Node9 -->
<g id="Node000009" class="node">
<title>Node9</title>
<g id="a_Node000009"><a xlink:href="mytcpserver_8cpp.html" target="_top" xlink:title="Реализация TCP сервера для регистрации, аутентификации, восстановления пароля и решения уравнений.">
<polygon fill="white" stroke="#666666" points="934.75,-38 814.5,-38 814.5,-18 934.75,-18 934.75,-38"/>
<text text-anchor="middle" x="874.62" y="-24.5" font-family="Arial" font-size="10.00">Server/mytcpserver.cpp</text>
</a>
</g>
</g>
<!-- Node1&#45;&gt;Node9 -->
<g id="edge8_Node000001_Node000009" class="edge">
<title>Node1&#45;&gt;Node9</title>
<g id="a_edge8_Node000001_Node000009"><a xlink:title=" ">
<path fill="none" stroke="#63b8ff" d="M841.22,-138.28C846.36,-130.47 851.87,-121.11 855.62,-112 866.16,-86.44 871.44,-53.93 873.52,-38.27"/>
<polygon fill="#63b8ff" stroke="#63b8ff" points="838.51,-136.04 835.71,-146.26 844.27,-140.02 838.51,-136.04"/>
</a>
</g>
</g>
<!-- Node10 -->
<g id="Node000010" class="node">
<title>Node10</title>
<g id="a_Node000010"><a xlink:href="mytcpserver_8h.html" target="_top" xlink:title="Заголовочный файл для класса MyTcpServer, реализующего TCP&#45;сервер для регистрации и авторизации польз...">
<polygon fill="white" stroke="#666666" points="1097.5,-112 987.75,-112 987.75,-92 1097.5,-92 1097.5,-112"/>
<text text-anchor="middle" x="1042.62" y="-98.5" font-family="Arial" font-size="10.00">Server/mytcpserver.h</text>
</a>
</g>
</g>
<!-- Node1&#45;&gt;Node10 -->
<g id="edge9_Node000001_Node000010" class="edge">
<title>Node1&#45;&gt;Node10</title>
<g id="a_edge9_Node000001_Node000010"><a xlink:title=" ">
<path fill="none" stroke="#63b8ff" d="M876.15,-144.81C915.13,-135.02 969.09,-121.47 1004.88,-112.48"/>
<polygon fill="#63b8ff" stroke="#63b8ff" points="875.39,-141.39 866.54,-147.23 877.09,-148.18 875.39,-141.39"/>
</a>
</g>
</g>
<!-- Node3 -->
<g id="Node000003" class="node">
<title>Node3</title>
<g id="a_Node000003"><a xlink:href="authregform_8cpp.html" target="_top" xlink:title="Файл реализации форм авторизации и регистрации.">
<polygon fill="white" stroke="#666666" points="153.25,-38 0,-38 0,-18 153.25,-18 153.25,-38"/>
<text text-anchor="middle" x="76.62" y="-24.5" font-family="Arial" font-size="10.00">ClientInterface/authregform.cpp</text>
</a>
</g>
</g>
<!-- Node2&#45;&gt;Node3 -->
<g id="edge2_Node000002_Node000003" class="edge">
<title>Node2&#45;&gt;Node3</title>
<g id="a_edge2_Node000002_Node000003"><a xlink:title=" ">
<path fill="none" stroke="#63b8ff" d="M431.47,-94.45C359.31,-87.89 253.39,-75.85 162.62,-56 142.14,-51.52 119.54,-44.33 102.65,-38.5"/>
<polygon fill="#63b8ff" stroke="#63b8ff" points="430.97,-97.92 441.24,-95.33 431.6,-90.95 430.97,-97.92"/>
</a>
</g>
</g>
<!-- Node4 -->
<g id="Node000004" class="node">
<title>Node4</title>
<g id="a_Node000004"><a xlink:href="homewindow_8cpp.html" target="_top" xlink:title="Реализация класса HomeWindow.">
<polygon fill="white" stroke="#666666" points="329.5,-38 171.75,-38 171.75,-18 329.5,-18 329.5,-38"/>
<text text-anchor="middle" x="250.62" y="-24.5" font-family="Arial" font-size="10.00">ClientInterface/homewindow.cpp</text>
</a>
</g>
</g>
<!-- Node2&#45;&gt;Node4 -->
<g id="edge3_Node000002_Node000004" class="edge">
<title>Node2&#45;&gt;Node4</title>
<g id="a_edge3_Node000002_Node000004"><a xlink:title=" ">
<path fill="none" stroke="#63b8ff" d="M465.78,-88.86C430.08,-80.17 381.28,-67.93 338.62,-56 319.08,-50.53 297.27,-43.85 280.25,-38.49"/>
<polygon fill="#63b8ff" stroke="#63b8ff" points="464.87,-92.24 475.41,-91.2 466.52,-85.44 464.87,-92.24"/>
</a>
</g>
</g>
<!-- Node5 -->
<g id="Node000005" class="node">
<title>Node5</title>
<g id="a_Node000005"><a xlink:href="moc__homewindow_8cpp.html" target="_top" xlink:title="Автоматически сгенерированный файл метаобъекта для класса HomeWindow.">
<polygon fill="white" stroke="#666666" points="526,-56 347.25,-56 347.25,0 526,0 526,-56"/>
<text text-anchor="start" x="355.25" y="-42.5" font-family="Arial" font-size="10.00">Tests/Test/Tests/build</text>
<text text-anchor="start" x="355.25" y="-30.5" font-family="Arial" font-size="10.00">/Desktop_Qt_5_15_16_static</text>
<text text-anchor="start" x="355.25" y="-18.5" font-family="Arial" font-size="10.00">_MinGW_w64_MINGW64_MSYS2</text>
<text text-anchor="middle" x="436.62" y="-6.5" font-family="Arial" font-size="10.00">&#45;Debug/debug/moc_homewindow.cpp</text>
</a>
</g>
</g>
<!-- Node2&#45;&gt;Node5 -->
<g id="edge4_Node000002_Node000005" class="edge">
<title>Node2&#45;&gt;Node5</title>
<g id="a_edge4_Node000002_Node000005"><a xlink:title=" ">
<path fill="none" stroke="#63b8ff" d="M497.82,-84.07C488.67,-75.84 477.43,-65.73 467.1,-56.43"/>
<polygon fill="#63b8ff" stroke="#63b8ff" points="495.27,-86.49 505.04,-90.57 499.95,-81.28 495.27,-86.49"/>
</a>
</g>
</g>
<!-- Node6 -->
<g id="Node000006" class="node">
<title>Node6</title>
<g id="a_Node000006"><a xlink:href="tst__first_8cpp.html" target="_top" xlink:title="Тестирование функционала окна HomeWindow.">
<polygon fill="white" stroke="#666666" points="647.12,-44 544.12,-44 544.12,-12 647.12,-12 647.12,-44"/>
<text text-anchor="start" x="552.12" y="-30.5" font-family="Arial" font-size="10.00">Tests/Test/Tests/tst</text>
<text text-anchor="middle" x="595.62" y="-18.5" font-family="Arial" font-size="10.00">_first.cpp</text>
</a>
</g>
</g>
<!-- Node2&#45;&gt;Node6 -->
<g id="edge5_Node000002_Node000006" class="edge">
<title>Node2&#45;&gt;Node6</title>
<g id="a_edge5_Node000002_Node000006"><a xlink:title=" ">
<path fill="none" stroke="#63b8ff" d="M535.25,-84.02C548.4,-72.04 565.88,-56.11 578.65,-44.47"/>
<polygon fill="#63b8ff" stroke="#63b8ff" points="533.1,-81.24 528.07,-90.57 537.82,-86.42 533.1,-81.24"/>
</a>
</g>
</g>
<!-- Node7 -->
<g id="Node000007" class="node">
<title>Node7</title>
<g id="a_Node000007"><a xlink:href="test__homewindow_8cpp.html" target="_top" xlink:title="Тестирование компонента HomeWindow.">
<polygon fill="white" stroke="#666666" points="796,-44 665.25,-44 665.25,-12 796,-12 796,-44"/>
<text text-anchor="start" x="673.25" y="-30.5" font-family="Arial" font-size="10.00">Tests/Test_ClientInterface</text>
<text text-anchor="middle" x="730.62" y="-18.5" font-family="Arial" font-size="10.00">/test_homewindow.cpp</text>
</a>
</g>
</g>
<!-- Node2&#45;&gt;Node7 -->
<g id="edge6_Node000002_Node000007" class="edge">
<title>Node2&#45;&gt;Node7</title>
<g id="a_edge6_Node000002_Node000007"><a xlink:title=" ">
<path fill="none" stroke="#63b8ff" d="M557.69,-88.09C585.43,-79.28 622.82,-67.21 655.62,-56 666.36,-52.33 677.92,-48.24 688.66,-44.38"/>
<polygon fill="#63b8ff" stroke="#63b8ff" points="556.73,-84.72 548.26,-91.08 558.85,-91.4 556.73,-84.72"/>
</a>
</g>
</g>
<!-- Node10&#45;&gt;Node9 -->
<g id="edge12_Node000010_Node000009" class="edge">
<title>Node10&#45;&gt;Node9</title>
<g id="a_edge12_Node000010_Node000009"><a xlink:title=" ">
<path fill="none" stroke="#63b8ff" d="M1010.49,-87.23C977.07,-72.91 925.65,-50.87 896.59,-38.42"/>
<polygon fill="#63b8ff" stroke="#63b8ff" points="1008.7,-90.27 1019.27,-90.99 1011.46,-83.83 1008.7,-90.27"/>
</a>
</g>
</g>
<!-- Node11 -->
<g id="Node000011" class="node">
<title>Node11</title>
<g id="a_Node000011"><a xlink:href="build_2_desktop___qt__6__8__2___min_g_w__64__bit-_debug_2debug_2moc___my_tcp_server_8cpp.html" target="_top" xlink:title="Автоматически сгенерированный файл метаобъекта для класса MyTcpServer.">
<polygon fill="white" stroke="#666666" points="1132.75,-50 952.5,-50 952.5,-6 1132.75,-6 1132.75,-50"/>
<text text-anchor="start" x="960.5" y="-36.5" font-family="Arial" font-size="10.00">Server/build/Desktop</text>
<text text-anchor="start" x="960.5" y="-24.5" font-family="Arial" font-size="10.00">_Qt_6_8_2_MinGW_64_bit</text>
<text text-anchor="middle" x="1042.62" y="-12.5" font-family="Arial" font-size="10.00">&#45;Debug/debug/moc_MyTcpServer.cpp</text>
</a>
</g>
</g>
<!-- Node10&#45;&gt;Node11 -->
<g id="edge10_Node000010_Node000011" class="edge">
<title>Node10&#45;&gt;Node11</title>
<g id="a_edge10_Node000010_Node000011"><a xlink:title=" ">
<path fill="none" stroke="#63b8ff" d="M1042.62,-80.13C1042.62,-70.74 1042.62,-59.66 1042.62,-50.23"/>
<polygon fill="#63b8ff" stroke="#63b8ff" points="1039.13,-80.07 1042.63,-90.07 1046.13,-80.07 1039.13,-80.07"/>
</a>
</g>
</g>
<!-- Node12 -->
<g id="Node000012" class="node">
<title>Node12</title>
<g id="a_Node000012"><a xlink:href="_server_2main_8cpp.html" target="_top" xlink:title="Основной файл запуска сервера.">
<polygon fill="white" stroke="#666666" points="1238.25,-38 1151,-38 1151,-18 1238.25,-18 1238.25,-38"/>
<text text-anchor="middle" x="1194.62" y="-24.5" font-family="Arial" font-size="10.00">Server/main.cpp</text>
</a>
</g>
</g>
<!-- Node10&#45;&gt;Node12 -->
<g id="edge11_Node000010_Node000012" class="edge">
<title>Node10&#45;&gt;Node12</title>
<g id="a_edge11_Node000010_Node000012"><a xlink:title=" ">
<path fill="none" stroke="#63b8ff" d="M1074.44,-86.97C1093.94,-78.27 1119.34,-66.73 1141.62,-56 1153.35,-50.35 1166.37,-43.72 1176.57,-38.45"/>
<polygon fill="#63b8ff" stroke="#63b8ff" points="1073.09,-83.74 1065.38,-91 1075.94,-90.14 1073.09,-83.74"/>
</a>
</g>
</g>
<!-- Node13 -->
<g id="Node000013" class="node">
<title>Node13</title>
<g id="a_Node000013"><a xlink:href="ests_2build_2_desktop___qt__6__8__2___min_g_w__64__bit-_debug_2debug_2moc___my_tcp_server_8cpp.html" target="_top" xlink:title="Автоматически сгенерированный файл метаобъекта для класса MyTcpServer.">
<polygon fill="white" stroke="#666666" points="1432.88,-50 1256.38,-50 1256.38,-6 1432.88,-6 1432.88,-50"/>
<text text-anchor="start" x="1264.38" y="-36.5" font-family="Arial" font-size="10.00">ServerTests/build/Desktop</text>
<text text-anchor="start" x="1264.38" y="-24.5" font-family="Arial" font-size="10.00">_Qt_6_8_2_MinGW_64_bit</text>
<text text-anchor="middle" x="1344.62" y="-12.5" font-family="Arial" font-size="10.00">&#45;Debug/debug/moc_mytcpserver.cpp</text>
</a>
</g>
</g>
<!-- Node10&#45;&gt;Node13 -->
<g id="edge13_Node000010_Node000013" class="edge">
<title>Node10&#45;&gt;Node13</title>
<g id="a_edge13_Node000010_Node000013"><a xlink:title=" ">
<path fill="none" stroke="#63b8ff" d="M1100.39,-89.21C1141.57,-80.59 1198.17,-68.3 1247.62,-56 1254.58,-54.27 1261.8,-52.4 1269.01,-50.48"/>
<polygon fill="#63b8ff" stroke="#63b8ff" points="1099.76,-85.77 1090.69,-91.23 1101.19,-92.62 1099.76,-85.77"/>
</a>
</g>
</g>
</g>
</svg>
