<?xml version="1.0" encoding="UTF-8" standalone="no"?>
<!DOCTYPE svg PUBLIC "-//W3C//DTD SVG 1.1//EN"
 "http://www.w3.org/Graphics/SVG/1.1/DTD/svg11.dtd">
<!-- Generated by graphviz version 12.2.1 (20241206.2353)
 -->
<!-- Title: ServerTests/build/Desktop_Qt_6_8_2_MinGW_64_bit&#45;Debug/debug/moc_mytcpserver.cpp Pages: 1 -->
<svg width="1247pt" height="232pt"
 viewBox="0.00 0.00 1247.12 232.00" xmlns="http://www.w3.org/2000/svg" xmlns:xlink="http://www.w3.org/1999/xlink">
<g id="graph0" class="graph" transform="scale(1 1) rotate(0) translate(4 228)">
<title>ServerTests/build/Desktop_Qt_6_8_2_MinGW_64_bit&#45;Debug/debug/moc_mytcpserver.cpp</title>
<!-- Node1 -->
<g id="Node000001" class="node">
<title>Node1</title>
<g id="a_Node000001"><a xlink:title="Автоматически сгенерированный файл метаобъекта для класса MyTcpServer.">
<polygon fill="#999999" stroke="#666666" points="932.25,-224 755.75,-224 755.75,-180 932.25,-180 932.25,-224"/>
<text text-anchor="start" x="763.75" y="-210.5" font-family="Arial" font-size="10.00">ServerTests/build/Desktop</text>
<text text-anchor="start" x="763.75" y="-198.5" font-family="Arial" font-size="10.00">_Qt_6_8_2_MinGW_64_bit</text>
<text text-anchor="middle" x="844" y="-186.5" font-family="Arial" font-size="10.00">&#45;Debug/debug/moc_mytcpserver.cpp</text>
</a>
</g>
</g>
<!-- Node2 -->
<g id="Node000002" class="node">
<title>Node2</title>
<g id="a_Node000002"><a xlink:href="mytcpserver_8h.html" target="_top" xlink:title="Заголовочный файл для класса MyTcpServer, реализующего TCP&#45;сервер для регистрации и авторизации польз...">
<polygon fill="white" stroke="#666666" points="477.62,-144 396.38,-144 396.38,-112 477.62,-112 477.62,-144"/>
<text text-anchor="start" x="404.38" y="-130.5" font-family="Arial" font-size="10.00">../../../../Server</text>
<text text-anchor="middle" x="437" y="-118.5" font-family="Arial" font-size="10.00">/mytcpserver.h</text>
</a>
</g>
</g>
<!-- Node1&#45;&gt;Node2 -->
<g id="edge1_Node000001_Node000002" class="edge">
<title>Node1&#45;&gt;Node2</title>
<g id="a_edge1_Node000001_Node000002"><a xlink:title=" ">
<path fill="none" stroke="#63b8ff" d="M755.34,-190.19C685.42,-180.89 585.31,-165.88 489.18,-144.32"/>
<polygon fill="#63b8ff" stroke="#63b8ff" points="490.09,-140.94 479.56,-142.13 488.54,-147.76 490.09,-140.94"/>
</a>
</g>
</g>
<!-- Node15 -->
<g id="Node000015" class="node">
<title>Node15</title>
<g id="a_Node000015"><a xlink:title=" ">
<polygon fill="#e0e0e0" stroke="#999999" points="646.5,-144 495.5,-144 495.5,-112 646.5,-112 646.5,-144"/>
<text text-anchor="start" x="503.5" y="-130.5" font-family="Arial" font-size="10.00">QtNetwork/QSslPreSharedKey</text>
<text text-anchor="middle" x="571" y="-118.5" font-family="Arial" font-size="10.00">Authenticator</text>
</a>
</g>
</g>
<!-- Node1&#45;&gt;Node15 -->
<g id="edge14_Node000001_Node000015" class="edge">
<title>Node1&#45;&gt;Node15</title>
<g id="a_edge14_Node000001_Node000015"><a xlink:title=" ">
<path fill="none" stroke="#63b8ff" d="M762.83,-179.59C723.92,-169.33 677.79,-157.16 640.52,-147.33"/>
<polygon fill="#63b8ff" stroke="#63b8ff" points="641.78,-144.05 631.22,-144.88 639.99,-150.82 641.78,-144.05"/>
</a>
</g>
</g>
<!-- Node16 -->
<g id="Node000016" class="node">
<title>Node16</title>
<g id="a_Node000016"><a xlink:title=" ">
<polygon fill="#e0e0e0" stroke="#999999" points="773.5,-138 664.5,-138 664.5,-118 773.5,-118 773.5,-138"/>
<text text-anchor="middle" x="719" y="-124.5" font-family="Arial" font-size="10.00">QtNetwork/QSslError</text>
</a>
</g>
</g>
<!-- Node1&#45;&gt;Node16 -->
<g id="edge15_Node000001_Node000016" class="edge">
<title>Node1&#45;&gt;Node16</title>
<g id="a_edge15_Node000001_Node000016"><a xlink:title=" ">
<path fill="none" stroke="#63b8ff" d="M806.83,-179.59C786.98,-168.16 763.02,-154.36 745.15,-144.06"/>
<polygon fill="#63b8ff" stroke="#63b8ff" points="747.13,-141.16 736.71,-139.2 743.63,-147.23 747.13,-141.16"/>
</a>
</g>
</g>
<!-- Node17 -->
<g id="Node000017" class="node">
<title>Node17</title>
<g id="a_Node000017"><a xlink:title=" ">
<polygon fill="#e0e0e0" stroke="#999999" points="896.25,-138 791.75,-138 791.75,-118 896.25,-118 896.25,-138"/>
<text text-anchor="middle" x="844" y="-124.5" font-family="Arial" font-size="10.00">QtCore/qmetatype.h</text>
</a>
</g>
</g>
<!-- Node1&#45;&gt;Node17 -->
<g id="edge16_Node000001_Node000017" class="edge">
<title>Node1&#45;&gt;Node17</title>
<g id="a_edge16_Node000001_Node000017"><a xlink:title=" ">
<path fill="none" stroke="#63b8ff" d="M844,-179.79C844,-170.32 844,-159.2 844,-149.78"/>
<polygon fill="#63b8ff" stroke="#63b8ff" points="847.5,-149.82 844,-139.82 840.5,-149.82 847.5,-149.82"/>
</a>
</g>
</g>
<!-- Node18 -->
<g id="Node000018" class="node">
<title>Node18</title>
<g id="a_Node000018"><a xlink:title=" ">
<polygon fill="#e0e0e0" stroke="#999999" points="1031.62,-138 914.38,-138 914.38,-118 1031.62,-118 1031.62,-138"/>
<text text-anchor="middle" x="973" y="-124.5" font-family="Arial" font-size="10.00">QtCore/qtmochelpers.h</text>
</a>
</g>
</g>
<!-- Node1&#45;&gt;Node18 -->
<g id="edge17_Node000001_Node000018" class="edge">
<title>Node1&#45;&gt;Node18</title>
<g id="a_edge17_Node000001_Node000018"><a xlink:title=" ">
<path fill="none" stroke="#63b8ff" d="M882.35,-179.59C902.94,-168.1 927.8,-154.23 946.27,-143.92"/>
<polygon fill="#63b8ff" stroke="#63b8ff" points="947.72,-147.12 954.75,-139.19 944.31,-141 947.72,-147.12"/>
</a>
</g>
</g>
<!-- Node19 -->
<g id="Node000019" class="node">
<title>Node19</title>
<g id="a_Node000019"><a xlink:title=" ">
<polygon fill="#e0e0e0" stroke="#999999" points="1100.62,-138 1049.38,-138 1049.38,-118 1100.62,-118 1100.62,-138"/>
<text text-anchor="middle" x="1075" y="-124.5" font-family="Arial" font-size="10.00">memory</text>
</a>
</g>
</g>
<!-- Node1&#45;&gt;Node19 -->
<g id="edge18_Node000001_Node000019" class="edge">
<title>Node1&#45;&gt;Node19</title>
<g id="a_edge18_Node000001_Node000019"><a xlink:title=" ">
<path fill="none" stroke="#63b8ff" d="M927.22,-179.58C962.64,-169.78 1004.19,-157.38 1041,-144 1042.12,-143.59 1043.26,-143.17 1044.4,-142.72"/>
<polygon fill="#63b8ff" stroke="#63b8ff" points="1045.37,-146.11 1053.28,-139.07 1042.71,-139.64 1045.37,-146.11"/>
</a>
</g>
</g>
<!-- Node20 -->
<g id="Node000020" class="node">
<title>Node20</title>
<g id="a_Node000020"><a xlink:title=" ">
<polygon fill="#e0e0e0" stroke="#999999" points="1239.12,-138 1118.88,-138 1118.88,-118 1239.12,-118 1239.12,-138"/>
<text text-anchor="middle" x="1179" y="-124.5" font-family="Arial" font-size="10.00">QtCore/qxptype_traits.h</text>
</a>
</g>
</g>
<!-- Node1&#45;&gt;Node20 -->
<g id="edge19_Node000001_Node000020" class="edge">
<title>Node1&#45;&gt;Node20</title>
<g id="a_edge19_Node000001_Node000020"><a xlink:title=" ">
<path fill="none" stroke="#63b8ff" d="M932.68,-182.07C984.41,-171 1050.91,-156.75 1110,-144 1114.65,-143 1119.48,-141.95 1124.32,-140.9"/>
<polygon fill="#63b8ff" stroke="#63b8ff" points="1125.06,-144.32 1134.09,-138.78 1123.58,-137.48 1125.06,-144.32"/>
</a>
</g>
</g>
<!-- Node3 -->
<g id="Node000003" class="node">
<title>Node3</title>
<g id="a_Node000003"><a xlink:title=" ">
<polygon fill="#e0e0e0" stroke="#999999" points="52,-76 0,-76 0,-56 52,-56 52,-76"/>
<text text-anchor="middle" x="26" y="-62.5" font-family="Arial" font-size="10.00">QObject</text>
</a>
</g>
</g>
<!-- Node2&#45;&gt;Node3 -->
<g id="edge2_Node000002_Node000003" class="edge">
<title>Node2&#45;&gt;Node3</title>
<g id="a_edge2_Node000002_Node000003"><a xlink:title=" ">
<path fill="none" stroke="#63b8ff" d="M396.13,-123.04C328.76,-116.17 190.04,-100.57 63.34,-76.26"/>
<polygon fill="#63b8ff" stroke="#63b8ff" points="64.27,-72.88 53.78,-74.4 62.93,-79.75 64.27,-72.88"/>
</a>
</g>
</g>
<!-- Node4 -->
<g id="Node000004" class="node">
<title>Node4</title>
<g id="a_Node000004"><a xlink:title=" ">
<polygon fill="#e0e0e0" stroke="#999999" points="137.88,-76 70.12,-76 70.12,-56 137.88,-56 137.88,-76"/>
<text text-anchor="middle" x="104" y="-62.5" font-family="Arial" font-size="10.00">QTcpServer</text>
</a>
</g>
</g>
<!-- Node2&#45;&gt;Node4 -->
<g id="edge3_Node000002_Node000004" class="edge">
<title>Node2&#45;&gt;Node4</title>
<g id="a_edge3_Node000002_Node000004"><a xlink:title=" ">
<path fill="none" stroke="#63b8ff" d="M396.1,-120.23C342.02,-111.2 243.47,-94.4 149.4,-76.41"/>
<polygon fill="#63b8ff" stroke="#63b8ff" points="150.21,-73.01 139.73,-74.56 148.89,-79.88 150.21,-73.01"/>
</a>
</g>
</g>
<!-- Node5 -->
<g id="Node000005" class="node">
<title>Node5</title>
<g id="a_Node000005"><a xlink:title=" ">
<polygon fill="#e0e0e0" stroke="#999999" points="226,-76 156,-76 156,-56 226,-56 226,-76"/>
<text text-anchor="middle" x="191" y="-62.5" font-family="Arial" font-size="10.00">QTcpSocket</text>
</a>
</g>
</g>
<!-- Node2&#45;&gt;Node5 -->
<g id="edge4_Node000002_Node000005" class="edge">
<title>Node2&#45;&gt;Node5</title>
<g id="a_edge4_Node000002_Node000005"><a xlink:title=" ">
<path fill="none" stroke="#63b8ff" d="M396.1,-117.02C352.4,-106.37 283.24,-89.5 237.5,-78.34"/>
<polygon fill="#63b8ff" stroke="#63b8ff" points="238.42,-74.96 227.87,-75.99 236.76,-81.76 238.42,-74.96"/>
</a>
</g>
</g>
<!-- Node6 -->
<g id="Node000006" class="node">
<title>Node6</title>
<g id="a_Node000006"><a xlink:title=" ">
<polygon fill="#e0e0e0" stroke="#999999" points="307.62,-76 244.38,-76 244.38,-56 307.62,-56 307.62,-76"/>
<text text-anchor="middle" x="276" y="-62.5" font-family="Arial" font-size="10.00">QtNetwork</text>
</a>
</g>
</g>
<!-- Node2&#45;&gt;Node6 -->
<g id="edge5_Node000002_Node000006" class="edge">
<title>Node2&#45;&gt;Node6</title>
<g id="a_edge5_Node000002_Node000006"><a xlink:title=" ">
<path fill="none" stroke="#63b8ff" d="M395.96,-111.7C369.99,-102.03 336.74,-89.64 311.83,-80.35"/>
<polygon fill="#63b8ff" stroke="#63b8ff" points="313.39,-77.2 302.8,-76.99 310.94,-83.76 313.39,-77.2"/>
</a>
</g>
</g>
<!-- Node7 -->
<g id="Node000007" class="node">
<title>Node7</title>
<g id="a_Node000007"><a xlink:title=" ">
<polygon fill="#e0e0e0" stroke="#999999" points="392.5,-76 325.5,-76 325.5,-56 392.5,-56 392.5,-76"/>
<text text-anchor="middle" x="359" y="-62.5" font-family="Arial" font-size="10.00">QByteArray</text>
</a>
</g>
</g>
<!-- Node2&#45;&gt;Node7 -->
<g id="edge6_Node000002_Node000007" class="edge">
<title>Node2&#45;&gt;Node7</title>
<g id="a_edge6_Node000002_Node000007"><a xlink:title=" ">
<path fill="none" stroke="#63b8ff" d="M416.91,-111.55C405.63,-102.87 391.56,-92.04 380.11,-83.24"/>
<polygon fill="#63b8ff" stroke="#63b8ff" points="382.49,-80.65 372.43,-77.33 378.22,-86.2 382.49,-80.65"/>
</a>
</g>
</g>
<!-- Node8 -->
<g id="Node000008" class="node">
<title>Node8</title>
<g id="a_Node000008"><a xlink:title=" ">
<polygon fill="#e0e0e0" stroke="#999999" points="463,-76 411,-76 411,-56 463,-56 463,-76"/>
<text text-anchor="middle" x="437" y="-62.5" font-family="Arial" font-size="10.00">QDebug</text>
</a>
</g>
</g>
<!-- Node2&#45;&gt;Node8 -->
<g id="edge7_Node000002_Node000008" class="edge">
<title>Node2&#45;&gt;Node8</title>
<g id="a_edge7_Node000002_Node000008"><a xlink:title=" ">
<path fill="none" stroke="#63b8ff" d="M437,-111.55C437,-104.34 437,-95.66 437,-87.88"/>
<polygon fill="#63b8ff" stroke="#63b8ff" points="440.5,-87.92 437,-77.92 433.5,-87.92 440.5,-87.92"/>
</a>
</g>
</g>
<!-- Node9 -->
<g id="Node000009" class="node">
<title>Node9</title>
<g id="a_Node000009"><a xlink:title=" ">
<polygon fill="#e0e0e0" stroke="#999999" points="588.75,-76 481.25,-76 481.25,-56 588.75,-56 588.75,-76"/>
<text text-anchor="middle" x="535" y="-62.5" font-family="Arial" font-size="10.00">QtSql/QSqlDatabase</text>
</a>
</g>
</g>
<!-- Node2&#45;&gt;Node9 -->
<g id="edge8_Node000002_Node000009" class="edge">
<title>Node2&#45;&gt;Node9</title>
<g id="a_edge8_Node000002_Node000009"><a xlink:title=" ">
<path fill="none" stroke="#63b8ff" d="M462.24,-111.55C476.98,-102.52 495.52,-91.17 510.19,-82.19"/>
<polygon fill="#63b8ff" stroke="#63b8ff" points="511.64,-85.4 518.34,-77.2 507.99,-79.43 511.64,-85.4"/>
</a>
</g>
</g>
<!-- Node10 -->
<g id="Node000010" class="node">
<title>Node10</title>
<g id="a_Node000010"><a xlink:title=" ">
<polygon fill="#e0e0e0" stroke="#999999" points="698.88,-76 607.12,-76 607.12,-56 698.88,-56 698.88,-76"/>
<text text-anchor="middle" x="653" y="-62.5" font-family="Arial" font-size="10.00">QtSql/QSqlQuery</text>
</a>
</g>
</g>
<!-- Node2&#45;&gt;Node10 -->
<g id="edge9_Node000002_Node000010" class="edge">
<title>Node2&#45;&gt;Node10</title>
<g id="a_edge9_Node000002_Node000010"><a xlink:title=" ">
<path fill="none" stroke="#63b8ff" d="M477.9,-114.63C480.98,-113.73 484.04,-112.85 487,-112 527.11,-100.55 572.88,-88.19 606.19,-79.33"/>
<polygon fill="#63b8ff" stroke="#63b8ff" points="606.75,-82.8 615.52,-76.86 604.95,-76.04 606.75,-82.8"/>
</a>
</g>
</g>
<!-- Node11 -->
<g id="Node000011" class="node">
<title>Node11</title>
<g id="a_Node000011"><a xlink:title=" ">
<polygon fill="#e0e0e0" stroke="#999999" points="803.25,-76 716.75,-76 716.75,-56 803.25,-56 803.25,-76"/>
<text text-anchor="middle" x="760" y="-62.5" font-family="Arial" font-size="10.00">QtSql/QSqlError</text>
</a>
</g>
</g>
<!-- Node2&#45;&gt;Node11 -->
<g id="edge10_Node000002_Node000011" class="edge">
<title>Node2&#45;&gt;Node11</title>
<g id="a_edge10_Node000002_Node000011"><a xlink:title=" ">
<path fill="none" stroke="#63b8ff" d="M478.09,-114.21C481.09,-113.42 484.09,-112.67 487,-112 580.47,-90.46 607.89,-92.31 705.08,-76.45"/>
<polygon fill="#63b8ff" stroke="#63b8ff" points="705.53,-79.93 714.82,-74.84 704.38,-73.02 705.53,-79.93"/>
</a>
</g>
</g>
<!-- Node12 -->
<g id="Node000012" class="node">
<title>Node12</title>
<g id="a_Node000012"><a xlink:title=" ">
<polygon fill="#e0e0e0" stroke="#999999" points="928.75,-76 821.25,-76 821.25,-56 928.75,-56 928.75,-76"/>
<text text-anchor="middle" x="875" y="-62.5" font-family="Arial" font-size="10.00">QCryptographicHash</text>
</a>
</g>
</g>
<!-- Node2&#45;&gt;Node12 -->
<g id="edge11_Node000002_Node000012" class="edge">
<title>Node2&#45;&gt;Node12</title>
<g id="a_edge11_Node000002_Node000012"><a xlink:title=" ">
<path fill="none" stroke="#63b8ff" d="M478.05,-114.04C481.06,-113.29 484.07,-112.6 487,-112 625.93,-83.71 665.89,-93.75 810.04,-76.19"/>
<polygon fill="#63b8ff" stroke="#63b8ff" points="810.07,-79.71 819.56,-75.01 809.2,-72.77 810.07,-79.71"/>
</a>
</g>
</g>
<!-- Node13 -->
<g id="Node000013" class="node">
<title>Node13</title>
<g id="a_Node000013"><a xlink:href="equationsolver_8h.html" target="_top" xlink:title="Решение уравнений итерационными методами">
<polygon fill="white" stroke="#666666" points="1033.62,-76 946.38,-76 946.38,-56 1033.62,-56 1033.62,-76"/>
<text text-anchor="middle" x="990" y="-62.5" font-family="Arial" font-size="10.00">equationsolver.h</text>
</a>
</g>
</g>
<!-- Node2&#45;&gt;Node13 -->
<g id="edge12_Node000002_Node000013" class="edge">
<title>Node2&#45;&gt;Node13</title>
<g id="a_edge12_Node000002_Node000013"><a xlink:title=" ">
<path fill="none" stroke="#63b8ff" d="M478.03,-113.94C481.05,-113.21 484.06,-112.55 487,-112 680.96,-75.59 736.45,-100.22 934.67,-76.3"/>
<polygon fill="#63b8ff" stroke="#63b8ff" points="935.07,-79.78 944.57,-75.08 934.21,-72.83 935.07,-79.78"/>
</a>
</g>
</g>
<!-- Node14 -->
<g id="Node000014" class="node">
<title>Node14</title>
<g id="a_Node000014"><a xlink:title=" ">
<polygon fill="#e0e0e0" stroke="#999999" points="1014.5,-20 965.5,-20 965.5,0 1014.5,0 1014.5,-20"/>
<text text-anchor="middle" x="990" y="-6.5" font-family="Arial" font-size="10.00">QString</text>
</a>
</g>
</g>
<!-- Node13&#45;&gt;Node14 -->
<g id="edge13_Node000013_Node000014" class="edge">
<title>Node13&#45;&gt;Node14</title>
<g id="a_edge13_Node000013_Node000014"><a xlink:title=" ">
<path fill="none" stroke="#63b8ff" d="M990,-55.59C990,-49.01 990,-39.96 990,-31.73"/>
<polygon fill="#63b8ff" stroke="#63b8ff" points="993.5,-31.81 990,-21.81 986.5,-31.81 993.5,-31.81"/>
</a>
</g>
</g>
</g>
</svg>
