<?xml version="1.0" encoding="UTF-8" standalone="no"?>
<!DOCTYPE svg PUBLIC "-//W3C//DTD SVG 1.1//EN"
 "http://www.w3.org/Graphics/SVG/1.1/DTD/svg11.dtd">
<!-- Generated by graphviz version 12.2.1 (20241206.2353)
 -->
<!-- Title: ClientInterface/formsmanager.h Pages: 1 -->
<svg width="235pt" height="140pt"
 viewBox="0.00 0.00 234.75 140.00" xmlns="http://www.w3.org/2000/svg" xmlns:xlink="http://www.w3.org/1999/xlink">
<g id="graph0" class="graph" transform="scale(1 1) rotate(0) translate(4 136)">
<title>ClientInterface/formsmanager.h</title>
<!-- Node1 -->
<g id="Node000001" class="node">
<title>Node1</title>
<g id="a_Node000001"><a xlink:title="Описание класса FormsManager, который управляет отображением форм авторизации/регистрации и главного ...">
<polygon fill="#999999" stroke="#666666" points="153.25,-132 0,-132 0,-112 153.25,-112 153.25,-132"/>
<text text-anchor="middle" x="76.62" y="-118.5" font-family="Arial" font-size="10.00">ClientInterface/formsmanager.h</text>
</a>
</g>
</g>
<!-- Node2 -->
<g id="Node000002" class="node">
<title>Node2</title>
<g id="a_Node000002"><a xlink:title=" ">
<polygon fill="#e0e0e0" stroke="#999999" points="85.5,-20 5.75,-20 5.75,0 85.5,0 85.5,-20"/>
<text text-anchor="middle" x="45.62" y="-6.5" font-family="Arial" font-size="10.00">QMainWindow</text>
</a>
</g>
</g>
<!-- Node1&#45;&gt;Node2 -->
<g id="edge1_Node000001_Node000002" class="edge">
<title>Node1&#45;&gt;Node2</title>
<g id="a_edge1_Node000001_Node000002"><a xlink:title=" ">
<path fill="none" stroke="#63b8ff" d="M61.33,-111.69C49.93,-103.79 35.25,-91.3 28.62,-76 22.18,-61.12 27.75,-43.22 34.19,-29.98"/>
<polygon fill="#63b8ff" stroke="#63b8ff" points="37.12,-31.91 38.83,-21.45 30.98,-28.56 37.12,-31.91"/>
</a>
</g>
</g>
<!-- Node3 -->
<g id="Node000003" class="node">
<title>Node3</title>
<g id="a_Node000003"><a xlink:href="authregform_8h.html" target="_top" xlink:title="Заголовочный файл форм авторизации и регистрации.">
<polygon fill="white" stroke="#666666" points="209.62,-76 133.62,-76 133.62,-56 209.62,-56 209.62,-76"/>
<text text-anchor="middle" x="171.62" y="-62.5" font-family="Arial" font-size="10.00">authregform.h</text>
</a>
</g>
</g>
<!-- Node1&#45;&gt;Node3 -->
<g id="edge2_Node000001_Node000003" class="edge">
<title>Node1&#45;&gt;Node3</title>
<g id="a_edge2_Node000001_Node000003"><a xlink:title=" ">
<path fill="none" stroke="#63b8ff" d="M93.17,-111.59C107.52,-103.44 128.55,-91.48 145.23,-82"/>
<polygon fill="#63b8ff" stroke="#63b8ff" points="146.67,-85.21 153.63,-77.23 143.21,-79.13 146.67,-85.21"/>
</a>
</g>
</g>
<!-- Node6 -->
<g id="Node000006" class="node">
<title>Node6</title>
<g id="a_Node000006"><a xlink:href="mainwindow_8h.html" target="_top" xlink:title="Описание основного окна приложения (класс MainWindow).">
<polygon fill="white" stroke="#666666" points="115.38,-76 37.88,-76 37.88,-56 115.38,-56 115.38,-76"/>
<text text-anchor="middle" x="76.62" y="-62.5" font-family="Arial" font-size="10.00">mainwindow.h</text>
</a>
</g>
</g>
<!-- Node1&#45;&gt;Node6 -->
<g id="edge5_Node000001_Node000006" class="edge">
<title>Node1&#45;&gt;Node6</title>
<g id="a_edge5_Node000001_Node000006"><a xlink:title=" ">
<path fill="none" stroke="#63b8ff" d="M76.62,-111.59C76.62,-105.01 76.62,-95.96 76.62,-87.73"/>
<polygon fill="#63b8ff" stroke="#63b8ff" points="80.13,-87.81 76.63,-77.81 73.13,-87.81 80.13,-87.81"/>
</a>
</g>
</g>
<!-- Node4 -->
<g id="Node000004" class="node">
<title>Node4</title>
<g id="a_Node000004"><a xlink:title=" ">
<polygon fill="#e0e0e0" stroke="#999999" points="160.25,-20 109,-20 109,0 160.25,0 160.25,-20"/>
<text text-anchor="middle" x="134.62" y="-6.5" font-family="Arial" font-size="10.00">QDialog</text>
</a>
</g>
</g>
<!-- Node3&#45;&gt;Node4 -->
<g id="edge3_Node000003_Node000004" class="edge">
<title>Node3&#45;&gt;Node4</title>
<g id="a_edge3_Node000003_Node000004"><a xlink:title=" ">
<path fill="none" stroke="#63b8ff" d="M165.18,-55.59C160.3,-48.47 153.43,-38.45 147.45,-29.72"/>
<polygon fill="#63b8ff" stroke="#63b8ff" points="150.39,-27.82 141.85,-21.55 144.62,-31.77 150.39,-27.82"/>
</a>
</g>
</g>
<!-- Node5 -->
<g id="Node000005" class="node">
<title>Node5</title>
<g id="a_Node000005"><a xlink:title=" ">
<polygon fill="#e0e0e0" stroke="#999999" points="226.75,-20 178.5,-20 178.5,0 226.75,0 226.75,-20"/>
<text text-anchor="middle" x="202.62" y="-6.5" font-family="Arial" font-size="10.00">QTimer</text>
</a>
</g>
</g>
<!-- Node3&#45;&gt;Node5 -->
<g id="edge4_Node000003_Node000005" class="edge">
<title>Node3&#45;&gt;Node5</title>
<g id="a_edge4_Node000003_Node000005"><a xlink:title=" ">
<path fill="none" stroke="#63b8ff" d="M177.02,-55.59C181.07,-48.55 186.74,-38.67 191.72,-30"/>
<polygon fill="#63b8ff" stroke="#63b8ff" points="194.59,-32.03 196.53,-21.61 188.52,-28.54 194.59,-32.03"/>
</a>
</g>
</g>
<!-- Node6&#45;&gt;Node2 -->
<g id="edge6_Node000006_Node000002" class="edge">
<title>Node6&#45;&gt;Node2</title>
<g id="a_edge6_Node000006_Node000002"><a xlink:title=" ">
<path fill="none" stroke="#63b8ff" d="M71.23,-55.59C67.18,-48.55 61.51,-38.67 56.53,-30"/>
<polygon fill="#63b8ff" stroke="#63b8ff" points="59.73,-28.54 51.72,-21.61 53.66,-32.03 59.73,-28.54"/>
</a>
</g>
</g>
</g>
</svg>
