<?xml version="1.0" encoding="UTF-8" standalone="no"?>
<!DOCTYPE svg PUBLIC "-//W3C//DTD SVG 1.1//EN"
 "http://www.w3.org/Graphics/SVG/1.1/DTD/svg11.dtd">
<!-- Generated by graphviz version 12.2.1 (20241206.2353)
 -->
<!-- Title: ClientInterface/formsmanager.cpp Pages: 1 -->
<svg width="240pt" height="196pt"
 viewBox="0.00 0.00 240.00 196.00" xmlns="http://www.w3.org/2000/svg" xmlns:xlink="http://www.w3.org/1999/xlink">
<g id="graph0" class="graph" transform="scale(1 1) rotate(0) translate(4 192)">
<title>ClientInterface/formsmanager.cpp</title>
<!-- Node1 -->
<g id="Node000001" class="node">
<title>Node1</title>
<g id="a_Node000001"><a xlink:title="Реализация класса FormsManager.">
<polygon fill="#999999" stroke="#666666" points="163.75,-188 0,-188 0,-168 163.75,-168 163.75,-188"/>
<text text-anchor="middle" x="81.88" y="-174.5" font-family="Arial" font-size="10.00">ClientInterface/formsmanager.cpp</text>
</a>
</g>
</g>
<!-- Node2 -->
<g id="Node000002" class="node">
<title>Node2</title>
<g id="a_Node000002"><a xlink:href="formsmanager_8h.html" target="_top" xlink:title="Описание класса FormsManager, который управляет отображением форм авторизации/регистрации и главного ...">
<polygon fill="white" stroke="#666666" points="125.12,-132 38.62,-132 38.62,-112 125.12,-112 125.12,-132"/>
<text text-anchor="middle" x="81.88" y="-118.5" font-family="Arial" font-size="10.00">formsmanager.h</text>
</a>
</g>
</g>
<!-- Node1&#45;&gt;Node2 -->
<g id="edge1_Node000001_Node000002" class="edge">
<title>Node1&#45;&gt;Node2</title>
<g id="a_edge1_Node000001_Node000002"><a xlink:title=" ">
<path fill="none" stroke="#63b8ff" d="M81.88,-167.59C81.88,-161.01 81.88,-151.96 81.88,-143.73"/>
<polygon fill="#63b8ff" stroke="#63b8ff" points="85.38,-143.81 81.88,-133.81 78.38,-143.81 85.38,-143.81"/>
</a>
</g>
</g>
<!-- Node3 -->
<g id="Node000003" class="node">
<title>Node3</title>
<g id="a_Node000003"><a xlink:title=" ">
<polygon fill="#e0e0e0" stroke="#999999" points="90.75,-20 11,-20 11,0 90.75,0 90.75,-20"/>
<text text-anchor="middle" x="50.88" y="-6.5" font-family="Arial" font-size="10.00">QMainWindow</text>
</a>
</g>
</g>
<!-- Node2&#45;&gt;Node3 -->
<g id="edge2_Node000002_Node000003" class="edge">
<title>Node2&#45;&gt;Node3</title>
<g id="a_edge2_Node000002_Node000003"><a xlink:title=" ">
<path fill="none" stroke="#63b8ff" d="M66.58,-111.69C55.18,-103.79 40.5,-91.3 33.88,-76 27.43,-61.12 33,-43.22 39.44,-29.98"/>
<polygon fill="#63b8ff" stroke="#63b8ff" points="42.37,-31.91 44.08,-21.45 36.23,-28.56 42.37,-31.91"/>
</a>
</g>
</g>
<!-- Node4 -->
<g id="Node000004" class="node">
<title>Node4</title>
<g id="a_Node000004"><a xlink:href="authregform_8h.html" target="_top" xlink:title="Заголовочный файл форм авторизации и регистрации.">
<polygon fill="white" stroke="#666666" points="214.88,-76 138.88,-76 138.88,-56 214.88,-56 214.88,-76"/>
<text text-anchor="middle" x="176.88" y="-62.5" font-family="Arial" font-size="10.00">authregform.h</text>
</a>
</g>
</g>
<!-- Node2&#45;&gt;Node4 -->
<g id="edge3_Node000002_Node000004" class="edge">
<title>Node2&#45;&gt;Node4</title>
<g id="a_edge3_Node000002_Node000004"><a xlink:title=" ">
<path fill="none" stroke="#63b8ff" d="M98.42,-111.59C112.77,-103.44 133.8,-91.48 150.48,-82"/>
<polygon fill="#63b8ff" stroke="#63b8ff" points="151.92,-85.21 158.88,-77.23 148.46,-79.13 151.92,-85.21"/>
</a>
</g>
</g>
<!-- Node7 -->
<g id="Node000007" class="node">
<title>Node7</title>
<g id="a_Node000007"><a xlink:href="mainwindow_8h.html" target="_top" xlink:title="Описание основного окна приложения (класс MainWindow).">
<polygon fill="white" stroke="#666666" points="120.62,-76 43.12,-76 43.12,-56 120.62,-56 120.62,-76"/>
<text text-anchor="middle" x="81.88" y="-62.5" font-family="Arial" font-size="10.00">mainwindow.h</text>
</a>
</g>
</g>
<!-- Node2&#45;&gt;Node7 -->
<g id="edge6_Node000002_Node000007" class="edge">
<title>Node2&#45;&gt;Node7</title>
<g id="a_edge6_Node000002_Node000007"><a xlink:title=" ">
<path fill="none" stroke="#63b8ff" d="M81.88,-111.59C81.88,-105.01 81.88,-95.96 81.88,-87.73"/>
<polygon fill="#63b8ff" stroke="#63b8ff" points="85.38,-87.81 81.88,-77.81 78.38,-87.81 85.38,-87.81"/>
</a>
</g>
</g>
<!-- Node5 -->
<g id="Node000005" class="node">
<title>Node5</title>
<g id="a_Node000005"><a xlink:title=" ">
<polygon fill="#e0e0e0" stroke="#999999" points="165.5,-20 114.25,-20 114.25,0 165.5,0 165.5,-20"/>
<text text-anchor="middle" x="139.88" y="-6.5" font-family="Arial" font-size="10.00">QDialog</text>
</a>
</g>
</g>
<!-- Node4&#45;&gt;Node5 -->
<g id="edge4_Node000004_Node000005" class="edge">
<title>Node4&#45;&gt;Node5</title>
<g id="a_edge4_Node000004_Node000005"><a xlink:title=" ">
<path fill="none" stroke="#63b8ff" d="M170.43,-55.59C165.55,-48.47 158.68,-38.45 152.7,-29.72"/>
<polygon fill="#63b8ff" stroke="#63b8ff" points="155.64,-27.82 147.1,-21.55 149.87,-31.77 155.64,-27.82"/>
</a>
</g>
</g>
<!-- Node6 -->
<g id="Node000006" class="node">
<title>Node6</title>
<g id="a_Node000006"><a xlink:title=" ">
<polygon fill="#e0e0e0" stroke="#999999" points="232,-20 183.75,-20 183.75,0 232,0 232,-20"/>
<text text-anchor="middle" x="207.88" y="-6.5" font-family="Arial" font-size="10.00">QTimer</text>
</a>
</g>
</g>
<!-- Node4&#45;&gt;Node6 -->
<g id="edge5_Node000004_Node000006" class="edge">
<title>Node4&#45;&gt;Node6</title>
<g id="a_edge5_Node000004_Node000006"><a xlink:title=" ">
<path fill="none" stroke="#63b8ff" d="M182.27,-55.59C186.32,-48.55 191.99,-38.67 196.97,-30"/>
<polygon fill="#63b8ff" stroke="#63b8ff" points="199.84,-32.03 201.78,-21.61 193.77,-28.54 199.84,-32.03"/>
</a>
</g>
</g>
<!-- Node7&#45;&gt;Node3 -->
<g id="edge7_Node000007_Node000003" class="edge">
<title>Node7&#45;&gt;Node3</title>
<g id="a_edge7_Node000007_Node000003"><a xlink:title=" ">
<path fill="none" stroke="#63b8ff" d="M76.48,-55.59C72.43,-48.55 66.76,-38.67 61.78,-30"/>
<polygon fill="#63b8ff" stroke="#63b8ff" points="64.98,-28.54 56.97,-21.61 58.91,-32.03 64.98,-28.54"/>
</a>
</g>
</g>
</g>
</svg>
