<?xml version="1.0" encoding="UTF-8" standalone="no"?>
<!DOCTYPE svg PUBLIC "-//W3C//DTD SVG 1.1//EN"
 "http://www.w3.org/Graphics/SVG/1.1/DTD/svg11.dtd">
<!-- Generated by graphviz version 12.2.1 (20241206.2353)
 -->
<!-- Title: ClientInterface/formsmanager.h Pages: 1 -->
<svg width="312pt" height="84pt"
 viewBox="0.00 0.00 312.12 84.00" xmlns="http://www.w3.org/2000/svg" xmlns:xlink="http://www.w3.org/1999/xlink">
<g id="graph0" class="graph" transform="scale(1 1) rotate(0) translate(4 80)">
<title>ClientInterface/formsmanager.h</title>
<!-- Node1 -->
<g id="Node000001" class="node">
<title>Node1</title>
<g id="a_Node000001"><a xlink:title="Описание класса FormsManager, который управляет отображением форм авторизации/регистрации и главного ...">
<polygon fill="#999999" stroke="#666666" points="238.5,-76 85.25,-76 85.25,-56 238.5,-56 238.5,-76"/>
<text text-anchor="middle" x="161.88" y="-62.5" font-family="Arial" font-size="10.00">ClientInterface/formsmanager.h</text>
</a>
</g>
</g>
<!-- Node2 -->
<g id="Node000002" class="node">
<title>Node2</title>
<g id="a_Node000002"><a xlink:href="formsmanager_8cpp.html" target="_top" xlink:title="Реализация класса FormsManager.">
<polygon fill="white" stroke="#666666" points="163.75,-20 0,-20 0,0 163.75,0 163.75,-20"/>
<text text-anchor="middle" x="81.88" y="-6.5" font-family="Arial" font-size="10.00">ClientInterface/formsmanager.cpp</text>
</a>
</g>
</g>
<!-- Node1&#45;&gt;Node2 -->
<g id="edge1_Node000001_Node000002" class="edge">
<title>Node1&#45;&gt;Node2</title>
<g id="a_edge1_Node000001_Node000002"><a xlink:title=" ">
<path fill="none" stroke="#63b8ff" d="M138.57,-49.27C124.75,-39.94 107.69,-28.43 95.92,-20.48"/>
<polygon fill="#63b8ff" stroke="#63b8ff" points="136.44,-52.05 146.69,-54.75 140.36,-46.25 136.44,-52.05"/>
</a>
</g>
</g>
<!-- Node3 -->
<g id="Node000003" class="node">
<title>Node3</title>
<g id="a_Node000003"><a xlink:href="_client_interface_2main_8cpp.html" target="_top" xlink:title="Основной файл запуска клиента.">
<polygon fill="white" stroke="#666666" points="304.12,-20 181.62,-20 181.62,0 304.12,0 304.12,-20"/>
<text text-anchor="middle" x="242.88" y="-6.5" font-family="Arial" font-size="10.00">ClientInterface/main.cpp</text>
</a>
</g>
</g>
<!-- Node1&#45;&gt;Node3 -->
<g id="edge2_Node000001_Node000003" class="edge">
<title>Node1&#45;&gt;Node3</title>
<g id="a_edge2_Node000001_Node000003"><a xlink:title=" ">
<path fill="none" stroke="#63b8ff" d="M185.47,-49.27C199.46,-39.94 216.73,-28.43 228.66,-20.48"/>
<polygon fill="#63b8ff" stroke="#63b8ff" points="183.62,-46.3 177.24,-54.75 187.51,-52.12 183.62,-46.3"/>
</a>
</g>
</g>
</g>
</svg>
