<?xml version="1.0" encoding="UTF-8" standalone="no"?>
<!DOCTYPE svg PUBLIC "-//W3C//DTD SVG 1.1//EN"
 "http://www.w3.org/Graphics/SVG/1.1/DTD/svg11.dtd">
<!-- Generated by graphviz version 12.2.1 (20241206.2353)
 -->
<!-- Title: ClientInterface/funcsforclient.h Pages: 1 -->
<svg width="198pt" height="84pt"
 viewBox="0.00 0.00 197.50 84.00" xmlns="http://www.w3.org/2000/svg" xmlns:xlink="http://www.w3.org/1999/xlink">
<g id="graph0" class="graph" transform="scale(1 1) rotate(0) translate(4 80)">
<title>ClientInterface/funcsforclient.h</title>
<!-- Node1 -->
<g id="Node000001" class="node">
<title>Node1</title>
<g id="a_Node000001"><a xlink:title="Заголовочный файл с функциями для авторизации и регистрации клиента.">
<polygon fill="#999999" stroke="#666666" points="168.25,-76 18.75,-76 18.75,-56 168.25,-56 168.25,-76"/>
<text text-anchor="middle" x="93.5" y="-62.5" font-family="Arial" font-size="10.00">ClientInterface/funcsforclient.h</text>
</a>
</g>
</g>
<!-- Node2 -->
<g id="Node000002" class="node">
<title>Node2</title>
<g id="a_Node000002"><a xlink:title=" ">
<polygon fill="#e0e0e0" stroke="#999999" points="49,-20 0,-20 0,0 49,0 49,-20"/>
<text text-anchor="middle" x="24.5" y="-6.5" font-family="Arial" font-size="10.00">QString</text>
</a>
</g>
</g>
<!-- Node1&#45;&gt;Node2 -->
<g id="edge1_Node000001_Node000002" class="edge">
<title>Node1&#45;&gt;Node2</title>
<g id="a_edge1_Node000001_Node000002"><a xlink:title=" ">
<path fill="none" stroke="#63b8ff" d="M81.48,-55.59C71.49,-47.77 57.04,-36.46 45.19,-27.19"/>
<polygon fill="#63b8ff" stroke="#63b8ff" points="47.61,-24.64 37.57,-21.23 43.29,-30.15 47.61,-24.64"/>
</a>
</g>
</g>
<!-- Node3 -->
<g id="Node000003" class="node">
<title>Node3</title>
<g id="a_Node000003"><a xlink:title=" ">
<polygon fill="#e0e0e0" stroke="#999999" points="119.5,-20 67.5,-20 67.5,0 119.5,0 119.5,-20"/>
<text text-anchor="middle" x="93.5" y="-6.5" font-family="Arial" font-size="10.00">QObject</text>
</a>
</g>
</g>
<!-- Node1&#45;&gt;Node3 -->
<g id="edge2_Node000001_Node000003" class="edge">
<title>Node1&#45;&gt;Node3</title>
<g id="a_edge2_Node000001_Node000003"><a xlink:title=" ">
<path fill="none" stroke="#63b8ff" d="M93.5,-55.59C93.5,-49.01 93.5,-39.96 93.5,-31.73"/>
<polygon fill="#63b8ff" stroke="#63b8ff" points="97,-31.81 93.5,-21.81 90,-31.81 97,-31.81"/>
</a>
</g>
</g>
<!-- Node4 -->
<g id="Node000004" class="node">
<title>Node4</title>
<g id="a_Node000004"><a xlink:title=" ">
<polygon fill="#e0e0e0" stroke="#999999" points="189.5,-20 137.5,-20 137.5,0 189.5,0 189.5,-20"/>
<text text-anchor="middle" x="163.5" y="-6.5" font-family="Arial" font-size="10.00">QDebug</text>
</a>
</g>
</g>
<!-- Node1&#45;&gt;Node4 -->
<g id="edge3_Node000001_Node000004" class="edge">
<title>Node1&#45;&gt;Node4</title>
<g id="a_edge3_Node000001_Node000004"><a xlink:title=" ">
<path fill="none" stroke="#63b8ff" d="M105.69,-55.59C115.83,-47.77 130.49,-36.46 142.51,-27.19"/>
<polygon fill="#63b8ff" stroke="#63b8ff" points="144.47,-30.1 150.25,-21.22 140.19,-24.56 144.47,-30.1"/>
</a>
</g>
</g>
</g>
</svg>
