<?xml version="1.0" encoding="UTF-8" standalone="no"?>
<!DOCTYPE svg PUBLIC "-//W3C//DTD SVG 1.1//EN"
 "http://www.w3.org/Graphics/SVG/1.1/DTD/svg11.dtd">
<!-- Generated by graphviz version 12.2.1 (20241206.2353)
 -->
<!-- Title: reg Pages: 1 -->
<svg width="388pt" height="184pt"
 viewBox="0.00 0.00 387.50 184.17" xmlns="http://www.w3.org/2000/svg" xmlns:xlink="http://www.w3.org/1999/xlink">
<g id="graph0" class="graph" transform="scale(1 1) rotate(0) translate(4 180.17)">
<title>reg</title>
<!-- Node1 -->
<g id="Node000001" class="node">
<title>Node1</title>
<g id="a_Node000001"><a xlink:title="Функция регистрации нового пользователя.">
<polygon fill="#999999" stroke="#666666" points="29.5,-88.17 0,-88.17 0,-68.17 29.5,-68.17 29.5,-88.17"/>
<text text-anchor="middle" x="14.75" y="-74.67" font-family="Arial" font-size="10.00">reg</text>
</a>
</g>
</g>
<!-- Node2 -->
<g id="Node000002" class="node">
<title>Node2</title>
<g id="a_Node000002"><a xlink:href="class_client_manager.html#ade5e0886a7d8120e8ccca221ef407df1" target="_top" xlink:title="Установить соединение с сервером.">
<polygon fill="white" stroke="#666666" points="199.62,-176.17 69.62,-176.17 69.62,-144.17 199.62,-144.17 199.62,-176.17"/>
<text text-anchor="start" x="77.62" y="-162.67" font-family="Arial" font-size="10.00">ClientManager::connectTo</text>
<text text-anchor="middle" x="134.62" y="-150.67" font-family="Arial" font-size="10.00">Server</text>
</a>
</g>
</g>
<!-- Node1&#45;&gt;Node2 -->
<g id="edge1_Node000001_Node000002" class="edge">
<title>Node1&#45;&gt;Node2</title>
<g id="a_edge1_Node000001_Node000002"><a xlink:title=" ">
<path fill="none" stroke="#63b8ff" d="M22.29,-88.42C30.83,-101.04 46.89,-122.37 65.5,-135.17 67.11,-136.28 68.77,-137.34 70.47,-138.36"/>
<polygon fill="#63b8ff" stroke="#63b8ff" points="68.79,-141.43 79.26,-143.05 72.09,-135.25 68.79,-141.43"/>
</a>
</g>
</g>
<!-- Node3 -->
<g id="Node000003" class="node">
<title>Node3</title>
<g id="a_Node000003"><a xlink:href="class_client_manager.html#a712e826ffb83b207a1c74831fea63837" target="_top" xlink:title="Получить единственный экземпляр ClientManager.">
<polygon fill="white" stroke="#666666" points="202.62,-126.17 66.62,-126.17 66.62,-106.17 202.62,-106.17 202.62,-126.17"/>
<text text-anchor="middle" x="134.62" y="-112.67" font-family="Arial" font-size="10.00">ClientManager::getInstance</text>
</a>
</g>
</g>
<!-- Node1&#45;&gt;Node3 -->
<g id="edge2_Node000001_Node000003" class="edge">
<title>Node1&#45;&gt;Node3</title>
<g id="a_edge2_Node000001_Node000003"><a xlink:title=" ">
<path fill="none" stroke="#63b8ff" d="M29.73,-82.68C44.69,-87.5 69.16,-95.39 90.59,-102.3"/>
<polygon fill="#63b8ff" stroke="#63b8ff" points="89.42,-105.6 100.01,-105.34 91.57,-98.94 89.42,-105.6"/>
</a>
</g>
</g>
<!-- Node4 -->
<g id="Node000004" class="node">
<title>Node4</title>
<g id="a_Node000004"><a xlink:href="class_client_manager.html#a8b68d6ccc61477be3e5f90760434b4b9" target="_top" xlink:title="Проверить, установлено ли соединение с сервером.">
<polygon fill="white" stroke="#666666" points="379.5,-80.17 239.75,-80.17 239.75,-60.17 379.5,-60.17 379.5,-80.17"/>
<text text-anchor="middle" x="309.62" y="-66.67" font-family="Arial" font-size="10.00">ClientManager::isConnected</text>
</a>
</g>
</g>
<!-- Node1&#45;&gt;Node4 -->
<g id="edge3_Node000001_Node000004" class="edge">
<title>Node1&#45;&gt;Node4</title>
<g id="a_edge3_Node000001_Node000004"><a xlink:title=" ">
<path fill="none" stroke="#63b8ff" d="M29.88,-77.79C65.11,-76.82 159,-74.26 228.12,-72.37"/>
<polygon fill="#63b8ff" stroke="#63b8ff" points="228,-75.87 237.9,-72.1 227.81,-68.88 228,-75.87"/>
</a>
</g>
</g>
<!-- Node5 -->
<g id="Node000005" class="node">
<title>Node5</title>
<g id="a_Node000005"><a xlink:href="class_client_manager.html#a092a44dab9d3020071e398565c15b039" target="_top" xlink:title="Зарегистрировать нового пользователя.">
<polygon fill="white" stroke="#666666" points="203.75,-50.17 65.5,-50.17 65.5,-30.17 203.75,-30.17 203.75,-50.17"/>
<text text-anchor="middle" x="134.62" y="-36.67" font-family="Arial" font-size="10.00">ClientManager::registerUser</text>
</a>
</g>
</g>
<!-- Node1&#45;&gt;Node5 -->
<g id="edge4_Node000001_Node000005" class="edge">
<title>Node1&#45;&gt;Node5</title>
<g id="a_edge4_Node000001_Node000005"><a xlink:title=" ">
<path fill="none" stroke="#63b8ff" d="M29.73,-73.66C44.69,-68.84 69.16,-60.95 90.59,-54.04"/>
<polygon fill="#63b8ff" stroke="#63b8ff" points="91.57,-57.41 100.01,-51.01 89.42,-50.74 91.57,-57.41"/>
</a>
</g>
</g>
<!-- Node6 -->
<g id="Node000006" class="node">
<title>Node6</title>
<g id="a_Node000006"><a xlink:href="class_client_manager.html#a9719c89557aff68620f537e38c456243" target="_top" xlink:title="Сигнал результата регистрации пользователя.">
<polygon fill="white" stroke="#666666" points="376.12,-34.17 243.12,-34.17 243.12,-2.17 376.12,-2.17 376.12,-34.17"/>
<text text-anchor="start" x="251.12" y="-20.67" font-family="Arial" font-size="10.00">ClientManager::registration</text>
<text text-anchor="middle" x="309.62" y="-8.67" font-family="Arial" font-size="10.00">Result</text>
</a>
</g>
</g>
<!-- Node1&#45;&gt;Node6 -->
<g id="edge7_Node000001_Node000006" class="edge">
<title>Node1&#45;&gt;Node6</title>
<g id="a_edge7_Node000001_Node000006"><a xlink:title=" ">
<path fill="none" stroke="#63b8ff" d="M21.14,-67.79C28.87,-54.17 44.51,-30.87 65.5,-21.17 117.14,2.69 181.78,2.26 231.42,-3.5"/>
<polygon fill="#63b8ff" stroke="#63b8ff" points="230.88,-6.96 241.24,-4.74 231.76,-0.01 230.88,-6.96"/>
</a>
</g>
</g>
<!-- Node5&#45;&gt;Node4 -->
<g id="edge5_Node000005_Node000004" class="edge">
<title>Node5&#45;&gt;Node4</title>
<g id="a_edge5_Node000005_Node000004"><a xlink:title=" ">
<path fill="none" stroke="#63b8ff" d="M196.13,-50.66C209.3,-52.95 223.36,-55.38 236.91,-57.74"/>
<polygon fill="#63b8ff" stroke="#63b8ff" points="236.21,-61.17 246.66,-59.43 237.41,-54.27 236.21,-61.17"/>
</a>
</g>
</g>
<!-- Node5&#45;&gt;Node6 -->
<g id="edge6_Node000005_Node000006" class="edge">
<title>Node5&#45;&gt;Node6</title>
<g id="a_edge6_Node000005_Node000006"><a xlink:title=" ">
<path fill="none" stroke="#63b8ff" d="M204,-31.48C213.06,-30.32 222.41,-29.14 231.6,-27.97"/>
<polygon fill="#63b8ff" stroke="#63b8ff" points="231.74,-31.48 241.22,-26.74 230.86,-24.53 231.74,-31.48"/>
</a>
</g>
</g>
</g>
</svg>
