<?xml version="1.0" encoding="UTF-8" standalone="no"?>
<!DOCTYPE svg PUBLIC "-//W3C//DTD SVG 1.1//EN"
 "http://www.w3.org/Graphics/SVG/1.1/DTD/svg11.dtd">
<!-- Generated by graphviz version 12.2.1 (20241206.2353)
 -->
<!-- Title: auth Pages: 1 -->
<svg width="391pt" height="186pt"
 viewBox="0.00 0.00 390.50 185.71" xmlns="http://www.w3.org/2000/svg" xmlns:xlink="http://www.w3.org/1999/xlink">
<g id="graph0" class="graph" transform="scale(1 1) rotate(0) translate(4 181.71)">
<title>auth</title>
<!-- Node1 -->
<g id="Node000001" class="node">
<title>Node1</title>
<g id="a_Node000001"><a xlink:title="Функция авторизации пользователя.">
<polygon fill="#999999" stroke="#666666" points="34.75,-89.71 0,-89.71 0,-69.71 34.75,-69.71 34.75,-89.71"/>
<text text-anchor="middle" x="17.38" y="-76.21" font-family="Arial" font-size="10.00">auth</text>
</a>
</g>
</g>
<!-- Node2 -->
<g id="Node000002" class="node">
<title>Node2</title>
<g id="a_Node000002"><a xlink:href="class_client_manager.html#ade5e0886a7d8120e8ccca221ef407df1" target="_top" xlink:title="Установить соединение с сервером.">
<polygon fill="white" stroke="#666666" points="203.75,-177.71 73.75,-177.71 73.75,-145.71 203.75,-145.71 203.75,-177.71"/>
<text text-anchor="start" x="81.75" y="-164.21" font-family="Arial" font-size="10.00">ClientManager::connectTo</text>
<text text-anchor="middle" x="138.75" y="-152.21" font-family="Arial" font-size="10.00">Server</text>
</a>
</g>
</g>
<!-- Node1&#45;&gt;Node2 -->
<g id="edge1_Node000001_Node000002" class="edge">
<title>Node1&#45;&gt;Node2</title>
<g id="a_edge1_Node000001_Node000002"><a xlink:title=" ">
<path fill="none" stroke="#63b8ff" d="M25.4,-89.92C34.52,-102.51 51.57,-123.8 70.75,-136.71 72.53,-137.91 74.37,-139.05 76.26,-140.16"/>
<polygon fill="#63b8ff" stroke="#63b8ff" points="74.2,-143.03 84.69,-144.58 77.46,-136.83 74.2,-143.03"/>
</a>
</g>
</g>
<!-- Node3 -->
<g id="Node000003" class="node">
<title>Node3</title>
<g id="a_Node000003"><a xlink:href="class_client_manager.html#a712e826ffb83b207a1c74831fea63837" target="_top" xlink:title="Получить единственный экземпляр ClientManager.">
<polygon fill="white" stroke="#666666" points="206.75,-127.71 70.75,-127.71 70.75,-107.71 206.75,-107.71 206.75,-127.71"/>
<text text-anchor="middle" x="138.75" y="-114.21" font-family="Arial" font-size="10.00">ClientManager::getInstance</text>
</a>
</g>
</g>
<!-- Node1&#45;&gt;Node3 -->
<g id="edge2_Node000001_Node000003" class="edge">
<title>Node1&#45;&gt;Node3</title>
<g id="a_edge2_Node000001_Node000003"><a xlink:title=" ">
<path fill="none" stroke="#63b8ff" d="M35.23,-85.07C50.59,-89.96 73.95,-97.4 94.5,-103.94"/>
<polygon fill="#63b8ff" stroke="#63b8ff" points="93.21,-107.2 103.8,-106.9 95.33,-100.53 93.21,-107.2"/>
</a>
</g>
</g>
<!-- Node4 -->
<g id="Node000004" class="node">
<title>Node4</title>
<g id="a_Node000004"><a xlink:href="class_client_manager.html#a8b68d6ccc61477be3e5f90760434b4b9" target="_top" xlink:title="Проверить, установлено ли соединение с сервером.">
<polygon fill="white" stroke="#666666" points="382.5,-70.71 242.75,-70.71 242.75,-50.71 382.5,-50.71 382.5,-70.71"/>
<text text-anchor="middle" x="312.62" y="-57.21" font-family="Arial" font-size="10.00">ClientManager::isConnected</text>
</a>
</g>
</g>
<!-- Node1&#45;&gt;Node4 -->
<g id="edge3_Node000001_Node000004" class="edge">
<title>Node1&#45;&gt;Node4</title>
<g id="a_edge3_Node000001_Node000004"><a xlink:title=" ">
<path fill="none" stroke="#63b8ff" d="M34.98,-78.63C71.98,-76.24 163.23,-70.32 230.88,-65.94"/>
<polygon fill="#63b8ff" stroke="#63b8ff" points="231.1,-69.43 240.85,-65.3 230.65,-62.45 231.1,-69.43"/>
</a>
</g>
</g>
<!-- Node5 -->
<g id="Node000005" class="node">
<title>Node5</title>
<g id="a_Node000005"><a xlink:href="class_client_manager.html#aafa6d47d5d59e7b660ef0865a464ba51" target="_top" xlink:title="Сигнал результата авторизации пользователя.">
<polygon fill="white" stroke="#666666" points="379.5,-23.71 245.75,-23.71 245.75,-3.71 379.5,-3.71 379.5,-23.71"/>
<text text-anchor="middle" x="312.62" y="-10.21" font-family="Arial" font-size="10.00">ClientManager::loginResult</text>
</a>
</g>
</g>
<!-- Node1&#45;&gt;Node5 -->
<g id="edge4_Node000001_Node000005" class="edge">
<title>Node1&#45;&gt;Node5</title>
<g id="a_edge4_Node000001_Node000005"><a xlink:title=" ">
<path fill="none" stroke="#63b8ff" d="M24.23,-69.39C32.57,-55.85 49.28,-32.62 70.75,-22.71 122.65,1.25 187.75,2.2 237.19,-2.12"/>
<polygon fill="#63b8ff" stroke="#63b8ff" points="236.64,-5.58 246.93,-3.07 237.32,1.38 236.64,-5.58"/>
</a>
</g>
</g>
<!-- Node6 -->
<g id="Node000006" class="node">
<title>Node6</title>
<g id="a_Node000006"><a xlink:href="class_client_manager.html#a1a17ae5acd787b26f64d69d1056200ce" target="_top" xlink:title="Авторизовать пользователя.">
<polygon fill="white" stroke="#666666" points="201.88,-51.71 75.62,-51.71 75.62,-31.71 201.88,-31.71 201.88,-51.71"/>
<text text-anchor="middle" x="138.75" y="-38.21" font-family="Arial" font-size="10.00">ClientManager::loginUser</text>
</a>
</g>
</g>
<!-- Node1&#45;&gt;Node6 -->
<g id="edge5_Node000001_Node000006" class="edge">
<title>Node1&#45;&gt;Node6</title>
<g id="a_edge5_Node000001_Node000006"><a xlink:title=" ">
<path fill="none" stroke="#63b8ff" d="M35.23,-74.35C50.59,-69.46 73.95,-62.02 94.5,-55.48"/>
<polygon fill="#63b8ff" stroke="#63b8ff" points="95.33,-58.89 103.8,-52.52 93.21,-52.22 95.33,-58.89"/>
</a>
</g>
</g>
<!-- Node6&#45;&gt;Node4 -->
<g id="edge6_Node000006_Node000004" class="edge">
<title>Node6&#45;&gt;Node4</title>
<g id="a_edge6_Node000006_Node000004"><a xlink:title=" ">
<path fill="none" stroke="#63b8ff" d="M202.29,-48.62C211.67,-49.66 221.45,-50.74 231.15,-51.81"/>
<polygon fill="#63b8ff" stroke="#63b8ff" points="230.62,-55.28 240.95,-52.9 231.39,-48.32 230.62,-55.28"/>
</a>
</g>
</g>
<!-- Node6&#45;&gt;Node5 -->
<g id="edge7_Node000006_Node000005" class="edge">
<title>Node6&#45;&gt;Node5</title>
<g id="a_edge7_Node000006_Node000005"><a xlink:title=" ">
<path fill="none" stroke="#63b8ff" d="M202.29,-31.52C213.3,-29.73 224.87,-27.84 236.19,-26"/>
<polygon fill="#63b8ff" stroke="#63b8ff" points="236.6,-29.48 245.91,-24.42 235.48,-22.57 236.6,-29.48"/>
</a>
</g>
</g>
</g>
</svg>
