<?xml version="1.0" encoding="UTF-8" standalone="no"?>
<!DOCTYPE svg PUBLIC "-//W3C//DTD SVG 1.1//EN"
 "http://www.w3.org/Graphics/SVG/1.1/DTD/svg11.dtd">
<!-- Generated by graphviz version 12.2.1 (20241206.2353)
 -->
<!-- Title: ClientInterface/funcsforclient.h Pages: 1 -->
<svg width="340pt" height="84pt"
 viewBox="0.00 0.00 339.62 84.00" xmlns="http://www.w3.org/2000/svg" xmlns:xlink="http://www.w3.org/1999/xlink">
<g id="graph0" class="graph" transform="scale(1 1) rotate(0) translate(4 80)">
<title>ClientInterface/funcsforclient.h</title>
<!-- Node1 -->
<g id="Node000001" class="node">
<title>Node1</title>
<g id="a_Node000001"><a xlink:title="Заголовочный файл с функциями для авторизации и регистрации клиента.">
<polygon fill="#999999" stroke="#666666" points="238.38,-76 88.88,-76 88.88,-56 238.38,-56 238.38,-76"/>
<text text-anchor="middle" x="163.62" y="-62.5" font-family="Arial" font-size="10.00">ClientInterface/funcsforclient.h</text>
</a>
</g>
</g>
<!-- Node2 -->
<g id="Node000002" class="node">
<title>Node2</title>
<g id="a_Node000002"><a xlink:href="authregform_8cpp.html" target="_top" xlink:title="Файл реализации форм авторизации и регистрации.">
<polygon fill="white" stroke="#666666" points="153.25,-20 0,-20 0,0 153.25,0 153.25,-20"/>
<text text-anchor="middle" x="76.62" y="-6.5" font-family="Arial" font-size="10.00">ClientInterface/authregform.cpp</text>
</a>
</g>
</g>
<!-- Node1&#45;&gt;Node2 -->
<g id="edge1_Node000001_Node000002" class="edge">
<title>Node1&#45;&gt;Node2</title>
<g id="a_edge1_Node000001_Node000002"><a xlink:title=" ">
<path fill="none" stroke="#63b8ff" d="M138.72,-49.54C123.62,-40.17 104.83,-28.51 91.9,-20.48"/>
<polygon fill="#63b8ff" stroke="#63b8ff" points="136.84,-52.5 147.18,-54.8 140.53,-46.55 136.84,-52.5"/>
</a>
</g>
</g>
<!-- Node3 -->
<g id="Node000003" class="node">
<title>Node3</title>
<g id="a_Node000003"><a xlink:href="funcsforclient_8cpp.html" target="_top" xlink:title="Файл реализации функций авторизации и регистрации клиента.">
<polygon fill="white" stroke="#666666" points="331.62,-20 171.62,-20 171.62,0 331.62,0 331.62,-20"/>
<text text-anchor="middle" x="251.62" y="-6.5" font-family="Arial" font-size="10.00">ClientInterface/funcsforclient.cpp</text>
</a>
</g>
</g>
<!-- Node1&#45;&gt;Node3 -->
<g id="edge2_Node000001_Node000003" class="edge">
<title>Node1&#45;&gt;Node3</title>
<g id="a_edge2_Node000001_Node000003"><a xlink:title=" ">
<path fill="none" stroke="#63b8ff" d="M188.38,-49.81C203.73,-40.39 222.97,-28.58 236.18,-20.48"/>
<polygon fill="#63b8ff" stroke="#63b8ff" points="186.94,-46.59 180.24,-54.8 190.6,-52.56 186.94,-46.59"/>
</a>
</g>
</g>
</g>
</svg>
