<?xml version="1.0" encoding="UTF-8" standalone="no"?>
<!DOCTYPE svg PUBLIC "-//W3C//DTD SVG 1.1//EN"
 "http://www.w3.org/Graphics/SVG/1.1/DTD/svg11.dtd">
<!-- Generated by graphviz version 12.2.1 (20241206.2353)
 -->
<!-- Title: ClientInterface/funcsforclient.cpp Pages: 1 -->
<svg width="583pt" height="140pt"
 viewBox="0.00 0.00 582.75 140.00" xmlns="http://www.w3.org/2000/svg" xmlns:xlink="http://www.w3.org/1999/xlink">
<g id="graph0" class="graph" transform="scale(1 1) rotate(0) translate(4 136)">
<title>ClientInterface/funcsforclient.cpp</title>
<!-- Node1 -->
<g id="Node000001" class="node">
<title>Node1</title>
<g id="a_Node000001"><a xlink:title="Файл реализации функций авторизации и регистрации клиента.">
<polygon fill="#999999" stroke="#666666" points="195.5,-132 35.5,-132 35.5,-112 195.5,-112 195.5,-132"/>
<text text-anchor="middle" x="115.5" y="-118.5" font-family="Arial" font-size="10.00">ClientInterface/funcsforclient.cpp</text>
</a>
</g>
</g>
<!-- Node2 -->
<g id="Node000002" class="node">
<title>Node2</title>
<g id="a_Node000002"><a xlink:href="funcsforclient_8h.html" target="_top" xlink:title="Заголовочный файл с функциями для авторизации и регистрации клиента.">
<polygon fill="white" stroke="#666666" points="191.88,-76 109.12,-76 109.12,-56 191.88,-56 191.88,-76"/>
<text text-anchor="middle" x="150.5" y="-62.5" font-family="Arial" font-size="10.00">funcsforclient.h</text>
</a>
</g>
</g>
<!-- Node1&#45;&gt;Node2 -->
<g id="edge1_Node000001_Node000002" class="edge">
<title>Node1&#45;&gt;Node2</title>
<g id="a_edge1_Node000001_Node000002"><a xlink:title=" ">
<path fill="none" stroke="#63b8ff" d="M121.6,-111.59C126.21,-104.47 132.71,-94.45 138.37,-85.72"/>
<polygon fill="#63b8ff" stroke="#63b8ff" points="141.15,-87.86 143.65,-77.57 135.27,-84.06 141.15,-87.86"/>
</a>
</g>
</g>
<!-- Node3 -->
<g id="Node000003" class="node">
<title>Node3</title>
<g id="a_Node000003"><a xlink:title=" ">
<polygon fill="#e0e0e0" stroke="#999999" points="49,-20 0,-20 0,0 49,0 49,-20"/>
<text text-anchor="middle" x="24.5" y="-6.5" font-family="Arial" font-size="10.00">QString</text>
</a>
</g>
</g>
<!-- Node1&#45;&gt;Node3 -->
<g id="edge11_Node000001_Node000003" class="edge">
<title>Node1&#45;&gt;Node3</title>
<g id="a_edge11_Node000001_Node000003"><a xlink:title=" ">
<path fill="none" stroke="#63b8ff" d="M107.74,-111.62C92.63,-93.36 59.02,-52.73 39.45,-29.07"/>
<polygon fill="#63b8ff" stroke="#63b8ff" points="42.27,-27 33.2,-21.52 36.88,-31.46 42.27,-27"/>
</a>
</g>
</g>
<!-- Node5 -->
<g id="Node000005" class="node">
<title>Node5</title>
<g id="a_Node000005"><a xlink:title=" ">
<polygon fill="#e0e0e0" stroke="#999999" points="119.5,-20 67.5,-20 67.5,0 119.5,0 119.5,-20"/>
<text text-anchor="middle" x="93.5" y="-6.5" font-family="Arial" font-size="10.00">QDebug</text>
</a>
</g>
</g>
<!-- Node1&#45;&gt;Node5 -->
<g id="edge12_Node000001_Node000005" class="edge">
<title>Node1&#45;&gt;Node5</title>
<g id="a_edge12_Node000001_Node000005"><a xlink:title=" ">
<path fill="none" stroke="#63b8ff" d="M111.67,-111.51C108.21,-102.52 103.23,-88.55 100.5,-76 97.31,-61.36 95.55,-44.54 94.59,-31.67"/>
<polygon fill="#63b8ff" stroke="#63b8ff" points="98.1,-31.63 93.97,-21.87 91.11,-32.07 98.1,-31.63"/>
</a>
</g>
</g>
<!-- Node6 -->
<g id="Node000006" class="node">
<title>Node6</title>
<g id="a_Node000006"><a xlink:href="clientmanager_8h.html" target="_top" xlink:title="Описание класса ClientManager, который управляет клиентским соединением с сервером.">
<polygon fill="white" stroke="#666666" points="297,-76 212,-76 212,-56 297,-56 297,-76"/>
<text text-anchor="middle" x="254.5" y="-62.5" font-family="Arial" font-size="10.00">clientmanager.h</text>
</a>
</g>
</g>
<!-- Node1&#45;&gt;Node6 -->
<g id="edge5_Node000001_Node000006" class="edge">
<title>Node1&#45;&gt;Node6</title>
<g id="a_edge5_Node000001_Node000006"><a xlink:title=" ">
<path fill="none" stroke="#63b8ff" d="M139.71,-111.59C161.8,-103.01 194.7,-90.23 219.62,-80.55"/>
<polygon fill="#63b8ff" stroke="#63b8ff" points="220.63,-83.91 228.69,-77.03 218.1,-77.39 220.63,-83.91"/>
</a>
</g>
</g>
<!-- Node2&#45;&gt;Node3 -->
<g id="edge2_Node000002_Node000003" class="edge">
<title>Node2&#45;&gt;Node3</title>
<g id="a_edge2_Node000002_Node000003"><a xlink:title=" ">
<path fill="none" stroke="#63b8ff" d="M128.55,-55.59C108.8,-47.13 79.51,-34.58 57.03,-24.94"/>
<polygon fill="#63b8ff" stroke="#63b8ff" points="58.58,-21.8 48.01,-21.08 55.82,-28.23 58.58,-21.8"/>
</a>
</g>
</g>
<!-- Node4 -->
<g id="Node000004" class="node">
<title>Node4</title>
<g id="a_Node000004"><a xlink:title=" ">
<polygon fill="#e0e0e0" stroke="#999999" points="189.5,-20 137.5,-20 137.5,0 189.5,0 189.5,-20"/>
<text text-anchor="middle" x="163.5" y="-6.5" font-family="Arial" font-size="10.00">QObject</text>
</a>
</g>
</g>
<!-- Node2&#45;&gt;Node4 -->
<g id="edge3_Node000002_Node000004" class="edge">
<title>Node2&#45;&gt;Node4</title>
<g id="a_edge3_Node000002_Node000004"><a xlink:title=" ">
<path fill="none" stroke="#63b8ff" d="M152.76,-55.59C154.37,-48.93 156.58,-39.75 158.58,-31.44"/>
<polygon fill="#63b8ff" stroke="#63b8ff" points="161.97,-32.31 160.91,-21.77 155.16,-30.67 161.97,-32.31"/>
</a>
</g>
</g>
<!-- Node2&#45;&gt;Node5 -->
<g id="edge4_Node000002_Node000005" class="edge">
<title>Node2&#45;&gt;Node5</title>
<g id="a_edge4_Node000002_Node000005"><a xlink:title=" ">
<path fill="none" stroke="#63b8ff" d="M140.57,-55.59C132.56,-48.01 121.08,-37.13 111.47,-28.02"/>
<polygon fill="#63b8ff" stroke="#63b8ff" points="114.08,-25.68 104.41,-21.34 109.27,-30.76 114.08,-25.68"/>
</a>
</g>
</g>
<!-- Node6&#45;&gt;Node4 -->
<g id="edge6_Node000006_Node000004" class="edge">
<title>Node6&#45;&gt;Node4</title>
<g id="a_edge6_Node000006_Node000004"><a xlink:title=" ">
<path fill="none" stroke="#63b8ff" d="M238.65,-55.59C225.03,-47.51 205.14,-35.71 189.24,-26.27"/>
<polygon fill="#63b8ff" stroke="#63b8ff" points="191.16,-23.35 180.78,-21.25 187.59,-29.37 191.16,-23.35"/>
</a>
</g>
</g>
<!-- Node7 -->
<g id="Node000007" class="node">
<title>Node7</title>
<g id="a_Node000007"><a xlink:title=" ">
<polygon fill="#e0e0e0" stroke="#999999" points="277.5,-20 207.5,-20 207.5,0 277.5,0 277.5,-20"/>
<text text-anchor="middle" x="242.5" y="-6.5" font-family="Arial" font-size="10.00">QTcpSocket</text>
</a>
</g>
</g>
<!-- Node6&#45;&gt;Node7 -->
<g id="edge7_Node000006_Node000007" class="edge">
<title>Node6&#45;&gt;Node7</title>
<g id="a_edge7_Node000006_Node000007"><a xlink:title=" ">
<path fill="none" stroke="#63b8ff" d="M252.41,-55.59C250.93,-48.93 248.89,-39.75 247.04,-31.44"/>
<polygon fill="#63b8ff" stroke="#63b8ff" points="250.48,-30.78 244.89,-21.78 243.65,-32.3 250.48,-30.78"/>
</a>
</g>
</g>
<!-- Node8 -->
<g id="Node000008" class="node">
<title>Node8</title>
<g id="a_Node000008"><a xlink:title=" ">
<polygon fill="#e0e0e0" stroke="#999999" points="385.25,-20 295.75,-20 295.75,0 385.25,0 385.25,-20"/>
<text text-anchor="middle" x="340.5" y="-6.5" font-family="Arial" font-size="10.00">QJsonDocument</text>
</a>
</g>
</g>
<!-- Node6&#45;&gt;Node8 -->
<g id="edge8_Node000006_Node000008" class="edge">
<title>Node6&#45;&gt;Node8</title>
<g id="a_edge8_Node000006_Node000008"><a xlink:title=" ">
<path fill="none" stroke="#63b8ff" d="M269.48,-55.59C282.23,-47.59 300.79,-35.93 315.74,-26.54"/>
<polygon fill="#63b8ff" stroke="#63b8ff" points="317.51,-29.57 324.12,-21.28 313.79,-23.64 317.51,-29.57"/>
</a>
</g>
</g>
<!-- Node9 -->
<g id="Node000009" class="node">
<title>Node9</title>
<g id="a_Node000009"><a xlink:title=" ">
<polygon fill="#e0e0e0" stroke="#999999" points="476,-20 403,-20 403,0 476,0 476,-20"/>
<text text-anchor="middle" x="439.5" y="-6.5" font-family="Arial" font-size="10.00">QJsonObject</text>
</a>
</g>
</g>
<!-- Node6&#45;&gt;Node9 -->
<g id="edge9_Node000006_Node000009" class="edge">
<title>Node6&#45;&gt;Node9</title>
<g id="a_edge9_Node000006_Node000009"><a xlink:title=" ">
<path fill="none" stroke="#63b8ff" d="M286.72,-55.59C317.05,-46.74 362.67,-33.43 396.17,-23.65"/>
<polygon fill="#63b8ff" stroke="#63b8ff" points="396.95,-27.07 405.57,-20.9 394.99,-20.35 396.95,-27.07"/>
</a>
</g>
</g>
<!-- Node10 -->
<g id="Node000010" class="node">
<title>Node10</title>
<g id="a_Node000010"><a xlink:title=" ">
<polygon fill="#e0e0e0" stroke="#999999" points="574.75,-20 494.25,-20 494.25,0 574.75,0 574.75,-20"/>
<text text-anchor="middle" x="534.5" y="-6.5" font-family="Arial" font-size="10.00">QHostAddress</text>
</a>
</g>
</g>
<!-- Node6&#45;&gt;Node10 -->
<g id="edge10_Node000006_Node000010" class="edge">
<title>Node6&#45;&gt;Node10</title>
<g id="a_edge10_Node000006_Node000010"><a xlink:title=" ">
<path fill="none" stroke="#63b8ff" d="M297.33,-56.74C347.14,-47.13 429.33,-31.28 482.69,-20.99"/>
<polygon fill="#63b8ff" stroke="#63b8ff" points="483.31,-24.44 492.46,-19.11 481.98,-17.56 483.31,-24.44"/>
</a>
</g>
</g>
</g>
</svg>
