<?xml version="1.0" encoding="UTF-8" standalone="no"?>
<!DOCTYPE svg PUBLIC "-//W3C//DTD SVG 1.1//EN"
 "http://www.w3.org/Graphics/SVG/1.1/DTD/svg11.dtd">
<!-- Generated by graphviz version 12.2.1 (20241206.2353)
 -->
<!-- Title: ClientInterface/homewindow.h Pages: 1 -->
<svg width="804pt" height="120pt"
 viewBox="0.00 0.00 804.00 120.00" xmlns="http://www.w3.org/2000/svg" xmlns:xlink="http://www.w3.org/1999/xlink">
<g id="graph0" class="graph" transform="scale(1 1) rotate(0) translate(4 116)">
<title>ClientInterface/homewindow.h</title>
<!-- Node1 -->
<g id="Node000001" class="node">
<title>Node1</title>
<g id="a_Node000001"><a xlink:title="Описание интерфейса главного окна (класс HomeWindow).">
<polygon fill="#999999" stroke="#666666" points="510.25,-112 363,-112 363,-92 510.25,-92 510.25,-112"/>
<text text-anchor="middle" x="436.62" y="-98.5" font-family="Arial" font-size="10.00">ClientInterface/homewindow.h</text>
</a>
</g>
</g>
<!-- Node2 -->
<g id="Node000002" class="node">
<title>Node2</title>
<g id="a_Node000002"><a xlink:href="authregform_8cpp.html" target="_top" xlink:title="Файл реализации форм авторизации и регистрации.">
<polygon fill="white" stroke="#666666" points="153.25,-38 0,-38 0,-18 153.25,-18 153.25,-38"/>
<text text-anchor="middle" x="76.62" y="-24.5" font-family="Arial" font-size="10.00">ClientInterface/authregform.cpp</text>
</a>
</g>
</g>
<!-- Node1&#45;&gt;Node2 -->
<g id="edge1_Node000001_Node000002" class="edge">
<title>Node1&#45;&gt;Node2</title>
<g id="a_edge1_Node000001_Node000002"><a xlink:title=" ">
<path fill="none" stroke="#63b8ff" d="M351.18,-90.14C296.81,-82.45 225.13,-70.86 162.62,-56 142.38,-51.18 119.95,-44.08 103.08,-38.37"/>
<polygon fill="#63b8ff" stroke="#63b8ff" points="350.62,-93.59 361.01,-91.51 351.59,-86.66 350.62,-93.59"/>
</a>
</g>
</g>
<!-- Node3 -->
<g id="Node000003" class="node">
<title>Node3</title>
<g id="a_Node000003"><a xlink:href="homewindow_8cpp.html" target="_top" xlink:title="Реализация класса HomeWindow.">
<polygon fill="white" stroke="#666666" points="329.5,-38 171.75,-38 171.75,-18 329.5,-18 329.5,-38"/>
<text text-anchor="middle" x="250.62" y="-24.5" font-family="Arial" font-size="10.00">ClientInterface/homewindow.cpp</text>
</a>
</g>
</g>
<!-- Node1&#45;&gt;Node3 -->
<g id="edge2_Node000001_Node000003" class="edge">
<title>Node1&#45;&gt;Node3</title>
<g id="a_edge2_Node000001_Node000003"><a xlink:title=" ">
<path fill="none" stroke="#63b8ff" d="M402.01,-87.6C365.04,-73.29 307.39,-50.98 274.95,-38.42"/>
<polygon fill="#63b8ff" stroke="#63b8ff" points="400.31,-90.69 410.9,-91.04 402.84,-84.17 400.31,-90.69"/>
</a>
</g>
</g>
<!-- Node4 -->
<g id="Node000004" class="node">
<title>Node4</title>
<g id="a_Node000004"><a xlink:href="moc__homewindow_8cpp.html" target="_top" xlink:title="Автоматически сгенерированный файл метаобъекта для класса HomeWindow.">
<polygon fill="white" stroke="#666666" points="526,-56 347.25,-56 347.25,0 526,0 526,-56"/>
<text text-anchor="start" x="355.25" y="-42.5" font-family="Arial" font-size="10.00">Tests/Test/Tests/build</text>
<text text-anchor="start" x="355.25" y="-30.5" font-family="Arial" font-size="10.00">/Desktop_Qt_5_15_16_static</text>
<text text-anchor="start" x="355.25" y="-18.5" font-family="Arial" font-size="10.00">_MinGW_w64_MINGW64_MSYS2</text>
<text text-anchor="middle" x="436.62" y="-6.5" font-family="Arial" font-size="10.00">&#45;Debug/debug/moc_homewindow.cpp</text>
</a>
</g>
</g>
<!-- Node1&#45;&gt;Node4 -->
<g id="edge3_Node000001_Node000004" class="edge">
<title>Node1&#45;&gt;Node4</title>
<g id="a_edge3_Node000001_Node000004"><a xlink:title=" ">
<path fill="none" stroke="#63b8ff" d="M436.62,-80.09C436.62,-72.7 436.62,-64.28 436.62,-56.43"/>
<polygon fill="#63b8ff" stroke="#63b8ff" points="433.13,-80.07 436.63,-90.07 440.13,-80.07 433.13,-80.07"/>
</a>
</g>
</g>
<!-- Node5 -->
<g id="Node000005" class="node">
<title>Node5</title>
<g id="a_Node000005"><a xlink:href="tst__first_8cpp.html" target="_top" xlink:title="Тестирование функционала окна HomeWindow.">
<polygon fill="white" stroke="#666666" points="647.12,-44 544.12,-44 544.12,-12 647.12,-12 647.12,-44"/>
<text text-anchor="start" x="552.12" y="-30.5" font-family="Arial" font-size="10.00">Tests/Test/Tests/tst</text>
<text text-anchor="middle" x="595.62" y="-18.5" font-family="Arial" font-size="10.00">_first.cpp</text>
</a>
</g>
</g>
<!-- Node1&#45;&gt;Node5 -->
<g id="edge4_Node000001_Node000005" class="edge">
<title>Node1&#45;&gt;Node5</title>
<g id="a_edge4_Node000001_Node000005"><a xlink:title=" ">
<path fill="none" stroke="#63b8ff" d="M467.81,-86.88C494.77,-74.67 533.67,-57.06 561.46,-44.47"/>
<polygon fill="#63b8ff" stroke="#63b8ff" points="466.46,-83.65 458.79,-90.96 469.34,-90.03 466.46,-83.65"/>
</a>
</g>
</g>
<!-- Node6 -->
<g id="Node000006" class="node">
<title>Node6</title>
<g id="a_Node000006"><a xlink:href="test__homewindow_8cpp.html" target="_top" xlink:title="Тестирование компонента HomeWindow.">
<polygon fill="white" stroke="#666666" points="796,-44 665.25,-44 665.25,-12 796,-12 796,-44"/>
<text text-anchor="start" x="673.25" y="-30.5" font-family="Arial" font-size="10.00">Tests/Test_ClientInterface</text>
<text text-anchor="middle" x="730.62" y="-18.5" font-family="Arial" font-size="10.00">/test_homewindow.cpp</text>
</a>
</g>
</g>
<!-- Node1&#45;&gt;Node6 -->
<g id="edge5_Node000001_Node000006" class="edge">
<title>Node1&#45;&gt;Node6</title>
<g id="a_edge5_Node000001_Node000006"><a xlink:title=" ">
<path fill="none" stroke="#63b8ff" d="M505.7,-89.58C549.36,-81.7 606.76,-70.11 656.62,-56 668.2,-52.72 680.57,-48.51 691.81,-44.39"/>
<polygon fill="#63b8ff" stroke="#63b8ff" points="505.35,-86.09 496.12,-91.29 506.57,-92.98 505.35,-86.09"/>
</a>
</g>
</g>
</g>
</svg>
