<?xml version="1.0" encoding="UTF-8" standalone="no"?>
<!DOCTYPE svg PUBLIC "-//W3C//DTD SVG 1.1//EN"
 "http://www.w3.org/Graphics/SVG/1.1/DTD/svg11.dtd">
<!-- Generated by graphviz version 12.2.1 (20241206.2353)
 -->
<!-- Title: ClientInterface/homewindow.h Pages: 1 -->
<svg width="753pt" height="140pt"
 viewBox="0.00 0.00 753.12 140.00" xmlns="http://www.w3.org/2000/svg" xmlns:xlink="http://www.w3.org/1999/xlink">
<g id="graph0" class="graph" transform="scale(1 1) rotate(0) translate(4 136)">
<title>ClientInterface/homewindow.h</title>
<!-- Node1 -->
<g id="Node000001" class="node">
<title>Node1</title>
<g id="a_Node000001"><a xlink:title="Описание интерфейса главного окна (класс HomeWindow).">
<polygon fill="#999999" stroke="#666666" points="291.5,-132 144.25,-132 144.25,-112 291.5,-112 291.5,-132"/>
<text text-anchor="middle" x="217.88" y="-118.5" font-family="Arial" font-size="10.00">ClientInterface/homewindow.h</text>
</a>
</g>
</g>
<!-- Node2 -->
<g id="Node000002" class="node">
<title>Node2</title>
<g id="a_Node000002"><a xlink:title=" ">
<polygon fill="#e0e0e0" stroke="#999999" points="79.75,-76 0,-76 0,-56 79.75,-56 79.75,-76"/>
<text text-anchor="middle" x="39.88" y="-62.5" font-family="Arial" font-size="10.00">QMainWindow</text>
</a>
</g>
</g>
<!-- Node1&#45;&gt;Node2 -->
<g id="edge1_Node000001_Node000002" class="edge">
<title>Node1&#45;&gt;Node2</title>
<g id="a_edge1_Node000001_Node000002"><a xlink:title=" ">
<path fill="none" stroke="#63b8ff" d="M186.87,-111.59C157.82,-102.78 114.18,-89.54 81.99,-79.78"/>
<polygon fill="#63b8ff" stroke="#63b8ff" points="83.16,-76.47 72.57,-76.92 81.12,-83.17 83.16,-76.47"/>
</a>
</g>
</g>
<!-- Node3 -->
<g id="Node000003" class="node">
<title>Node3</title>
<g id="a_Node000003"><a xlink:title=" ">
<polygon fill="#e0e0e0" stroke="#999999" points="178.12,-76 97.62,-76 97.62,-56 178.12,-56 178.12,-76"/>
<text text-anchor="middle" x="137.88" y="-62.5" font-family="Arial" font-size="10.00">QMessageBox</text>
</a>
</g>
</g>
<!-- Node1&#45;&gt;Node3 -->
<g id="edge2_Node000001_Node000003" class="edge">
<title>Node1&#45;&gt;Node3</title>
<g id="a_edge2_Node000001_Node000003"><a xlink:title=" ">
<path fill="none" stroke="#63b8ff" d="M203.94,-111.59C192.2,-103.67 175.14,-92.16 161.31,-82.82"/>
<polygon fill="#63b8ff" stroke="#63b8ff" points="163.42,-80.02 153.17,-77.33 159.5,-85.82 163.42,-80.02"/>
</a>
</g>
</g>
<!-- Node4 -->
<g id="Node000004" class="node">
<title>Node4</title>
<g id="a_Node000004"><a xlink:title=" ">
<polygon fill="#e0e0e0" stroke="#999999" points="239.38,-76 196.38,-76 196.38,-56 239.38,-56 239.38,-76"/>
<text text-anchor="middle" x="217.88" y="-62.5" font-family="Arial" font-size="10.00">cmath</text>
</a>
</g>
</g>
<!-- Node1&#45;&gt;Node4 -->
<g id="edge3_Node000001_Node000004" class="edge">
<title>Node1&#45;&gt;Node4</title>
<g id="a_edge3_Node000001_Node000004"><a xlink:title=" ">
<path fill="none" stroke="#63b8ff" d="M217.88,-111.59C217.88,-105.01 217.88,-95.96 217.88,-87.73"/>
<polygon fill="#63b8ff" stroke="#63b8ff" points="221.38,-87.81 217.88,-77.81 214.38,-87.81 221.38,-87.81"/>
</a>
</g>
</g>
<!-- Node5 -->
<g id="Node000005" class="node">
<title>Node5</title>
<g id="a_Node000005"><a xlink:href="equationsolver_8h.html" target="_top" xlink:title="Решение уравнений итерационными методами">
<polygon fill="white" stroke="#666666" points="344.5,-76 257.25,-76 257.25,-56 344.5,-56 344.5,-76"/>
<text text-anchor="middle" x="300.88" y="-62.5" font-family="Arial" font-size="10.00">equationsolver.h</text>
</a>
</g>
</g>
<!-- Node1&#45;&gt;Node5 -->
<g id="edge4_Node000001_Node000005" class="edge">
<title>Node1&#45;&gt;Node5</title>
<g id="a_edge4_Node000001_Node000005"><a xlink:title=" ">
<path fill="none" stroke="#63b8ff" d="M232.33,-111.59C244.63,-103.59 262.55,-91.93 276.98,-82.54"/>
<polygon fill="#63b8ff" stroke="#63b8ff" points="278.56,-85.69 285.04,-77.3 274.75,-79.82 278.56,-85.69"/>
</a>
</g>
</g>
<!-- Node7 -->
<g id="Node000007" class="node">
<title>Node7</title>
<g id="a_Node000007"><a xlink:href="clientmanager_8h.html" target="_top" xlink:title="Описание класса ClientManager, который управляет клиентским соединением с сервером.">
<polygon fill="white" stroke="#666666" points="518.38,-76 433.38,-76 433.38,-56 518.38,-56 518.38,-76"/>
<text text-anchor="middle" x="475.88" y="-62.5" font-family="Arial" font-size="10.00">clientmanager.h</text>
</a>
</g>
</g>
<!-- Node1&#45;&gt;Node7 -->
<g id="edge6_Node000001_Node000007" class="edge">
<title>Node1&#45;&gt;Node7</title>
<g id="a_edge6_Node000001_Node000007"><a xlink:title=" ">
<path fill="none" stroke="#63b8ff" d="M263.11,-111.53C307.44,-102.25 375.01,-88.11 422.07,-78.26"/>
<polygon fill="#63b8ff" stroke="#63b8ff" points="422.71,-81.7 431.78,-76.23 421.28,-74.85 422.71,-81.7"/>
</a>
</g>
</g>
<!-- Node6 -->
<g id="Node000006" class="node">
<title>Node6</title>
<g id="a_Node000006"><a xlink:title=" ">
<polygon fill="#e0e0e0" stroke="#999999" points="289.38,-20 240.38,-20 240.38,0 289.38,0 289.38,-20"/>
<text text-anchor="middle" x="264.88" y="-6.5" font-family="Arial" font-size="10.00">QString</text>
</a>
</g>
</g>
<!-- Node5&#45;&gt;Node6 -->
<g id="edge5_Node000005_Node000006" class="edge">
<title>Node5&#45;&gt;Node6</title>
<g id="a_edge5_Node000005_Node000006"><a xlink:title=" ">
<path fill="none" stroke="#63b8ff" d="M294.6,-55.59C289.86,-48.47 283.18,-38.45 277.35,-29.72"/>
<polygon fill="#63b8ff" stroke="#63b8ff" points="280.37,-27.94 271.91,-21.56 274.55,-31.82 280.37,-27.94"/>
</a>
</g>
</g>
<!-- Node8 -->
<g id="Node000008" class="node">
<title>Node8</title>
<g id="a_Node000008"><a xlink:title=" ">
<polygon fill="#e0e0e0" stroke="#999999" points="359.88,-20 307.88,-20 307.88,0 359.88,0 359.88,-20"/>
<text text-anchor="middle" x="333.88" y="-6.5" font-family="Arial" font-size="10.00">QObject</text>
</a>
</g>
</g>
<!-- Node7&#45;&gt;Node8 -->
<g id="edge7_Node000007_Node000008" class="edge">
<title>Node7&#45;&gt;Node8</title>
<g id="a_edge7_Node000007_Node000008"><a xlink:title=" ">
<path fill="none" stroke="#63b8ff" d="M451.14,-55.59C428.58,-47.01 394.97,-34.23 369.51,-24.55"/>
<polygon fill="#63b8ff" stroke="#63b8ff" points="370.81,-21.3 360.22,-21.02 368.32,-27.84 370.81,-21.3"/>
</a>
</g>
</g>
<!-- Node9 -->
<g id="Node000009" class="node">
<title>Node9</title>
<g id="a_Node000009"><a xlink:title=" ">
<polygon fill="#e0e0e0" stroke="#999999" points="447.88,-20 377.88,-20 377.88,0 447.88,0 447.88,-20"/>
<text text-anchor="middle" x="412.88" y="-6.5" font-family="Arial" font-size="10.00">QTcpSocket</text>
</a>
</g>
</g>
<!-- Node7&#45;&gt;Node9 -->
<g id="edge8_Node000007_Node000009" class="edge">
<title>Node7&#45;&gt;Node9</title>
<g id="a_edge8_Node000007_Node000009"><a xlink:title=" ">
<path fill="none" stroke="#63b8ff" d="M464.9,-55.59C455.96,-47.93 443.1,-36.91 432.41,-27.75"/>
<polygon fill="#63b8ff" stroke="#63b8ff" points="434.74,-25.13 424.87,-21.28 430.19,-30.45 434.74,-25.13"/>
</a>
</g>
</g>
<!-- Node10 -->
<g id="Node000010" class="node">
<title>Node10</title>
<g id="a_Node000010"><a xlink:title=" ">
<polygon fill="#e0e0e0" stroke="#999999" points="555.62,-20 466.12,-20 466.12,0 555.62,0 555.62,-20"/>
<text text-anchor="middle" x="510.88" y="-6.5" font-family="Arial" font-size="10.00">QJsonDocument</text>
</a>
</g>
</g>
<!-- Node7&#45;&gt;Node10 -->
<g id="edge9_Node000007_Node000010" class="edge">
<title>Node7&#45;&gt;Node10</title>
<g id="a_edge9_Node000007_Node000010"><a xlink:title=" ">
<path fill="none" stroke="#63b8ff" d="M481.97,-55.59C486.59,-48.47 493.08,-38.45 498.74,-29.72"/>
<polygon fill="#63b8ff" stroke="#63b8ff" points="501.52,-31.86 504.03,-21.57 495.65,-28.06 501.52,-31.86"/>
</a>
</g>
</g>
<!-- Node11 -->
<g id="Node000011" class="node">
<title>Node11</title>
<g id="a_Node000011"><a xlink:title=" ">
<polygon fill="#e0e0e0" stroke="#999999" points="646.38,-20 573.38,-20 573.38,0 646.38,0 646.38,-20"/>
<text text-anchor="middle" x="609.88" y="-6.5" font-family="Arial" font-size="10.00">QJsonObject</text>
</a>
</g>
</g>
<!-- Node7&#45;&gt;Node11 -->
<g id="edge10_Node000007_Node000011" class="edge">
<title>Node7&#45;&gt;Node11</title>
<g id="a_edge10_Node000007_Node000011"><a xlink:title=" ">
<path fill="none" stroke="#63b8ff" d="M499.22,-55.59C520.41,-47.05 551.94,-34.35 575.93,-24.68"/>
<polygon fill="#63b8ff" stroke="#63b8ff" points="576.98,-28.03 584.95,-21.05 574.36,-21.54 576.98,-28.03"/>
</a>
</g>
</g>
<!-- Node12 -->
<g id="Node000012" class="node">
<title>Node12</title>
<g id="a_Node000012"><a xlink:title=" ">
<polygon fill="#e0e0e0" stroke="#999999" points="745.12,-20 664.62,-20 664.62,0 745.12,0 745.12,-20"/>
<text text-anchor="middle" x="704.88" y="-6.5" font-family="Arial" font-size="10.00">QHostAddress</text>
</a>
</g>
</g>
<!-- Node7&#45;&gt;Node12 -->
<g id="edge11_Node000007_Node000012" class="edge">
<title>Node7&#45;&gt;Node12</title>
<g id="a_edge11_Node000007_Node000012"><a xlink:title=" ">
<path fill="none" stroke="#63b8ff" d="M516.03,-55.53C554.33,-46.5 612.2,-32.85 653.77,-23.05"/>
<polygon fill="#63b8ff" stroke="#63b8ff" points="654.37,-26.51 663.3,-20.8 652.76,-19.69 654.37,-26.51"/>
</a>
</g>
</g>
</g>
</svg>
