<?xml version="1.0" encoding="UTF-8" standalone="no"?>
<!DOCTYPE svg PUBLIC "-//W3C//DTD SVG 1.1//EN"
 "http://www.w3.org/Graphics/SVG/1.1/DTD/svg11.dtd">
<!-- Generated by graphviz version 12.2.1 (20241206.2353)
 -->
<!-- Title: ClientInterface/homewindow.cpp Pages: 1 -->
<svg width="2178pt" height="196pt"
 viewBox="0.00 0.00 2178.12 196.00" xmlns="http://www.w3.org/2000/svg" xmlns:xlink="http://www.w3.org/1999/xlink">
<g id="graph0" class="graph" transform="scale(1 1) rotate(0) translate(4 192)">
<title>ClientInterface/homewindow.cpp</title>
<!-- Node1 -->
<g id="Node000001" class="node">
<title>Node1</title>
<g id="a_Node000001"><a xlink:title="Реализация класса HomeWindow.">
<polygon fill="#999999" stroke="#666666" points="435.12,-188 277.38,-188 277.38,-168 435.12,-168 435.12,-188"/>
<text text-anchor="middle" x="356.25" y="-174.5" font-family="Arial" font-size="10.00">ClientInterface/homewindow.cpp</text>
</a>
</g>
</g>
<!-- Node2 -->
<g id="Node000002" class="node">
<title>Node2</title>
<g id="a_Node000002"><a xlink:href="homewindow_8h.html" target="_top" xlink:title="Описание интерфейса главного окна (класс HomeWindow).">
<polygon fill="white" stroke="#666666" points="303.5,-132 223,-132 223,-112 303.5,-112 303.5,-132"/>
<text text-anchor="middle" x="263.25" y="-118.5" font-family="Arial" font-size="10.00">homewindow.h</text>
</a>
</g>
</g>
<!-- Node1&#45;&gt;Node2 -->
<g id="edge1_Node000001_Node000002" class="edge">
<title>Node1&#45;&gt;Node2</title>
<g id="a_edge1_Node000001_Node000002"><a xlink:title=" ">
<path fill="none" stroke="#63b8ff" d="M340.05,-167.59C326,-159.44 305.42,-147.48 289.09,-138"/>
<polygon fill="#63b8ff" stroke="#63b8ff" points="291.29,-135.23 280.88,-133.24 287.78,-141.29 291.29,-135.23"/>
</a>
</g>
</g>
<!-- Node4 -->
<g id="Node000004" class="node">
<title>Node4</title>
<g id="a_Node000004"><a xlink:title=" ">
<polygon fill="#e0e0e0" stroke="#999999" points="80.5,-76 0,-76 0,-56 80.5,-56 80.5,-76"/>
<text text-anchor="middle" x="40.25" y="-62.5" font-family="Arial" font-size="10.00">QMessageBox</text>
</a>
</g>
</g>
<!-- Node1&#45;&gt;Node4 -->
<g id="edge27_Node000001_Node000004" class="edge">
<title>Node1&#45;&gt;Node4</title>
<g id="a_edge27_Node000001_Node000004"><a xlink:title=" ">
<path fill="none" stroke="#63b8ff" d="M324.8,-167.53C295.92,-158.72 252.02,-145.03 214.25,-132 165.56,-115.2 109.9,-94.06 74.92,-80.54"/>
<polygon fill="#63b8ff" stroke="#63b8ff" points="76.32,-77.33 65.73,-76.98 73.79,-83.86 76.32,-77.33"/>
</a>
</g>
</g>
<!-- Node5 -->
<g id="Node000005" class="node">
<title>Node5</title>
<g id="a_Node000005"><a xlink:title=" ">
<polygon fill="#e0e0e0" stroke="#999999" points="447.75,-76 404.75,-76 404.75,-56 447.75,-56 447.75,-76"/>
<text text-anchor="middle" x="426.25" y="-62.5" font-family="Arial" font-size="10.00">cmath</text>
</a>
</g>
</g>
<!-- Node1&#45;&gt;Node5 -->
<g id="edge28_Node000001_Node000005" class="edge">
<title>Node1&#45;&gt;Node5</title>
<g id="a_edge28_Node000001_Node000005"><a xlink:title=" ">
<path fill="none" stroke="#63b8ff" d="M362.22,-167.62C373.69,-149.6 399.01,-109.81 414.14,-86.02"/>
<polygon fill="#63b8ff" stroke="#63b8ff" points="417.07,-87.95 419.48,-77.63 411.16,-84.19 417.07,-87.95"/>
</a>
</g>
</g>
<!-- Node14 -->
<g id="Node000014" class="node">
<title>Node14</title>
<g id="a_Node000014"><a xlink:href="ui__homewindow_8h.html" target="_top" xlink:title="Заголовочный файл, содержащий описание пользовательского интерфейса главного окна приложения">
<polygon fill="white" stroke="#666666" points="1282.88,-132 1189.62,-132 1189.62,-112 1282.88,-112 1282.88,-132"/>
<text text-anchor="middle" x="1236.25" y="-118.5" font-family="Arial" font-size="10.00">ui_homewindow.h</text>
</a>
</g>
</g>
<!-- Node1&#45;&gt;Node14 -->
<g id="edge13_Node000001_Node000014" class="edge">
<title>Node1&#45;&gt;Node14</title>
<g id="a_edge13_Node000001_Node000014"><a xlink:title=" ">
<path fill="none" stroke="#63b8ff" d="M435.51,-172.14C610.09,-161.42 1024.47,-136 1177.85,-126.58"/>
<polygon fill="#63b8ff" stroke="#63b8ff" points="1178.01,-130.08 1187.78,-125.97 1177.59,-123.09 1178.01,-130.08"/>
</a>
</g>
</g>
<!-- Node3 -->
<g id="Node000003" class="node">
<title>Node3</title>
<g id="a_Node000003"><a xlink:title=" ">
<polygon fill="#e0e0e0" stroke="#999999" points="178.12,-76 98.38,-76 98.38,-56 178.12,-56 178.12,-76"/>
<text text-anchor="middle" x="138.25" y="-62.5" font-family="Arial" font-size="10.00">QMainWindow</text>
</a>
</g>
</g>
<!-- Node2&#45;&gt;Node3 -->
<g id="edge2_Node000002_Node000003" class="edge">
<title>Node2&#45;&gt;Node3</title>
<g id="a_edge2_Node000002_Node000003"><a xlink:title=" ">
<path fill="none" stroke="#63b8ff" d="M241.48,-111.59C221.88,-103.13 192.82,-90.58 170.53,-80.94"/>
<polygon fill="#63b8ff" stroke="#63b8ff" points="172.15,-77.83 161.58,-77.08 169.37,-84.26 172.15,-77.83"/>
</a>
</g>
</g>
<!-- Node2&#45;&gt;Node4 -->
<g id="edge3_Node000002_Node000004" class="edge">
<title>Node2&#45;&gt;Node4</title>
<g id="a_edge3_Node000002_Node000004"><a xlink:title=" ">
<path fill="none" stroke="#63b8ff" d="M224.15,-111.53C186.93,-102.52 130.74,-88.91 90.27,-79.11"/>
<polygon fill="#63b8ff" stroke="#63b8ff" points="91.32,-75.77 80.77,-76.81 89.67,-82.57 91.32,-75.77"/>
</a>
</g>
</g>
<!-- Node2&#45;&gt;Node5 -->
<g id="edge4_Node000002_Node000005" class="edge">
<title>Node2&#45;&gt;Node5</title>
<g id="a_edge4_Node000002_Node000005"><a xlink:title=" ">
<path fill="none" stroke="#63b8ff" d="M291.64,-111.59C320.11,-102.16 363.9,-87.66 393.74,-77.77"/>
<polygon fill="#63b8ff" stroke="#63b8ff" points="394.61,-81.17 403,-74.7 392.41,-74.53 394.61,-81.17"/>
</a>
</g>
</g>
<!-- Node6 -->
<g id="Node000006" class="node">
<title>Node6</title>
<g id="a_Node000006"><a xlink:href="equationsolver_8h.html" target="_top" xlink:title="Решение уравнений итерационными методами">
<polygon fill="white" stroke="#666666" points="283.88,-76 196.62,-76 196.62,-56 283.88,-56 283.88,-76"/>
<text text-anchor="middle" x="240.25" y="-62.5" font-family="Arial" font-size="10.00">equationsolver.h</text>
</a>
</g>
</g>
<!-- Node2&#45;&gt;Node6 -->
<g id="edge5_Node000002_Node000006" class="edge">
<title>Node2&#45;&gt;Node6</title>
<g id="a_edge5_Node000002_Node000006"><a xlink:title=" ">
<path fill="none" stroke="#63b8ff" d="M259.24,-111.59C256.34,-104.78 252.31,-95.32 248.71,-86.86"/>
<polygon fill="#63b8ff" stroke="#63b8ff" points="251.94,-85.52 244.8,-77.69 245.5,-88.26 251.94,-85.52"/>
</a>
</g>
</g>
<!-- Node8 -->
<g id="Node000008" class="node">
<title>Node8</title>
<g id="a_Node000008"><a xlink:href="clientmanager_8h.html" target="_top" xlink:title="Описание класса ClientManager, который управляет клиентским соединением с сервером.">
<polygon fill="white" stroke="#666666" points="386.75,-76 301.75,-76 301.75,-56 386.75,-56 386.75,-76"/>
<text text-anchor="middle" x="344.25" y="-62.5" font-family="Arial" font-size="10.00">clientmanager.h</text>
</a>
</g>
</g>
<!-- Node2&#45;&gt;Node8 -->
<g id="edge7_Node000002_Node000008" class="edge">
<title>Node2&#45;&gt;Node8</title>
<g id="a_edge7_Node000002_Node000008"><a xlink:title=" ">
<path fill="none" stroke="#63b8ff" d="M277.36,-111.59C289.25,-103.67 306.52,-92.16 320.53,-82.82"/>
<polygon fill="#63b8ff" stroke="#63b8ff" points="322.39,-85.78 328.77,-77.32 318.51,-79.95 322.39,-85.78"/>
</a>
</g>
</g>
<!-- Node7 -->
<g id="Node000007" class="node">
<title>Node7</title>
<g id="a_Node000007"><a xlink:title=" ">
<polygon fill="#e0e0e0" stroke="#999999" points="171.75,-20 122.75,-20 122.75,0 171.75,0 171.75,-20"/>
<text text-anchor="middle" x="147.25" y="-6.5" font-family="Arial" font-size="10.00">QString</text>
</a>
</g>
</g>
<!-- Node6&#45;&gt;Node7 -->
<g id="edge6_Node000006_Node000007" class="edge">
<title>Node6&#45;&gt;Node7</title>
<g id="a_edge6_Node000006_Node000007"><a xlink:title=" ">
<path fill="none" stroke="#63b8ff" d="M224.05,-55.59C210,-47.44 189.42,-35.48 173.09,-26"/>
<polygon fill="#63b8ff" stroke="#63b8ff" points="175.29,-23.23 164.88,-21.24 171.78,-29.29 175.29,-23.23"/>
</a>
</g>
</g>
<!-- Node9 -->
<g id="Node000009" class="node">
<title>Node9</title>
<g id="a_Node000009"><a xlink:title=" ">
<polygon fill="#e0e0e0" stroke="#999999" points="242.25,-20 190.25,-20 190.25,0 242.25,0 242.25,-20"/>
<text text-anchor="middle" x="216.25" y="-6.5" font-family="Arial" font-size="10.00">QObject</text>
</a>
</g>
</g>
<!-- Node8&#45;&gt;Node9 -->
<g id="edge8_Node000008_Node000009" class="edge">
<title>Node8&#45;&gt;Node9</title>
<g id="a_edge8_Node000008_Node000009"><a xlink:title=" ">
<path fill="none" stroke="#63b8ff" d="M321.95,-55.59C301.89,-47.13 272.13,-34.58 249.3,-24.94"/>
<polygon fill="#63b8ff" stroke="#63b8ff" points="250.69,-21.73 240.11,-21.07 247.97,-28.18 250.69,-21.73"/>
</a>
</g>
</g>
<!-- Node10 -->
<g id="Node000010" class="node">
<title>Node10</title>
<g id="a_Node000010"><a xlink:title=" ">
<polygon fill="#e0e0e0" stroke="#999999" points="330.25,-20 260.25,-20 260.25,0 330.25,0 330.25,-20"/>
<text text-anchor="middle" x="295.25" y="-6.5" font-family="Arial" font-size="10.00">QTcpSocket</text>
</a>
</g>
</g>
<!-- Node8&#45;&gt;Node10 -->
<g id="edge9_Node000008_Node000010" class="edge">
<title>Node8&#45;&gt;Node10</title>
<g id="a_edge9_Node000008_Node000010"><a xlink:title=" ">
<path fill="none" stroke="#63b8ff" d="M335.71,-55.59C328.97,-48.16 319.36,-37.58 311.21,-28.58"/>
<polygon fill="#63b8ff" stroke="#63b8ff" points="314.02,-26.47 304.7,-21.42 308.83,-31.18 314.02,-26.47"/>
</a>
</g>
</g>
<!-- Node11 -->
<g id="Node000011" class="node">
<title>Node11</title>
<g id="a_Node000011"><a xlink:title=" ">
<polygon fill="#e0e0e0" stroke="#999999" points="438,-20 348.5,-20 348.5,0 438,0 438,-20"/>
<text text-anchor="middle" x="393.25" y="-6.5" font-family="Arial" font-size="10.00">QJsonDocument</text>
</a>
</g>
</g>
<!-- Node8&#45;&gt;Node11 -->
<g id="edge10_Node000008_Node000011" class="edge">
<title>Node8&#45;&gt;Node11</title>
<g id="a_edge10_Node000008_Node000011"><a xlink:title=" ">
<path fill="none" stroke="#63b8ff" d="M352.79,-55.59C359.53,-48.16 369.14,-37.58 377.29,-28.58"/>
<polygon fill="#63b8ff" stroke="#63b8ff" points="379.67,-31.18 383.8,-21.42 374.48,-26.47 379.67,-31.18"/>
</a>
</g>
</g>
<!-- Node12 -->
<g id="Node000012" class="node">
<title>Node12</title>
<g id="a_Node000012"><a xlink:title=" ">
<polygon fill="#e0e0e0" stroke="#999999" points="528.75,-20 455.75,-20 455.75,0 528.75,0 528.75,-20"/>
<text text-anchor="middle" x="492.25" y="-6.5" font-family="Arial" font-size="10.00">QJsonObject</text>
</a>
</g>
</g>
<!-- Node8&#45;&gt;Node12 -->
<g id="edge11_Node000008_Node000012" class="edge">
<title>Node8&#45;&gt;Node12</title>
<g id="a_edge11_Node000008_Node000012"><a xlink:title=" ">
<path fill="none" stroke="#63b8ff" d="M370.03,-55.59C393.65,-46.97 428.89,-34.12 455.47,-24.42"/>
<polygon fill="#63b8ff" stroke="#63b8ff" points="456.65,-27.71 464.85,-21 454.25,-21.14 456.65,-27.71"/>
</a>
</g>
</g>
<!-- Node13 -->
<g id="Node000013" class="node">
<title>Node13</title>
<g id="a_Node000013"><a xlink:title=" ">
<polygon fill="#e0e0e0" stroke="#999999" points="627.5,-20 547,-20 547,0 627.5,0 627.5,-20"/>
<text text-anchor="middle" x="587.25" y="-6.5" font-family="Arial" font-size="10.00">QHostAddress</text>
</a>
</g>
</g>
<!-- Node8&#45;&gt;Node13 -->
<g id="edge12_Node000008_Node000013" class="edge">
<title>Node8&#45;&gt;Node13</title>
<g id="a_edge12_Node000008_Node000013"><a xlink:title=" ">
<path fill="none" stroke="#63b8ff" d="M386.86,-55.53C428.3,-46.32 491.33,-32.32 535.61,-22.48"/>
<polygon fill="#63b8ff" stroke="#63b8ff" points="536.24,-25.92 545.24,-20.34 534.72,-19.09 536.24,-25.92"/>
</a>
</g>
</g>
<!-- Node15 -->
<g id="Node000015" class="node">
<title>Node15</title>
<g id="a_Node000015"><a xlink:title=" ">
<polygon fill="#e0e0e0" stroke="#999999" points="554.25,-76 466.25,-76 466.25,-56 554.25,-56 554.25,-76"/>
<text text-anchor="middle" x="510.25" y="-62.5" font-family="Arial" font-size="10.00">QtCore/QVariant</text>
</a>
</g>
</g>
<!-- Node14&#45;&gt;Node15 -->
<g id="edge14_Node000014_Node000015" class="edge">
<title>Node14&#45;&gt;Node15</title>
<g id="a_edge14_Node000014_Node000015"><a xlink:title=" ">
<path fill="none" stroke="#63b8ff" d="M1189.18,-119.5C1080.99,-115.69 806.06,-104 566.13,-76.23"/>
<polygon fill="#63b8ff" stroke="#63b8ff" points="566.58,-72.75 556.24,-75.07 565.76,-79.71 566.58,-72.75"/>
</a>
</g>
</g>
<!-- Node16 -->
<g id="Node000016" class="node">
<title>Node16</title>
<g id="a_Node000016"><a xlink:title=" ">
<polygon fill="#e0e0e0" stroke="#999999" points="693.75,-76 572.75,-76 572.75,-56 693.75,-56 693.75,-76"/>
<text text-anchor="middle" x="633.25" y="-62.5" font-family="Arial" font-size="10.00">QtWidgets/QApplication</text>
</a>
</g>
</g>
<!-- Node14&#45;&gt;Node16 -->
<g id="edge15_Node000014_Node000016" class="edge">
<title>Node14&#45;&gt;Node16</title>
<g id="a_edge15_Node000014_Node000016"><a xlink:title=" ">
<path fill="none" stroke="#63b8ff" d="M1189.39,-117.77C1098.26,-111.34 890.48,-95.91 705.49,-76.31"/>
<polygon fill="#63b8ff" stroke="#63b8ff" points="706.01,-72.84 695.69,-75.26 705.26,-79.8 706.01,-72.84"/>
</a>
</g>
</g>
<!-- Node17 -->
<g id="Node000017" class="node">
<title>Node17</title>
<g id="a_Node000017"><a xlink:title=" ">
<polygon fill="#e0e0e0" stroke="#999999" points="833.12,-76 711.38,-76 711.38,-56 833.12,-56 833.12,-76"/>
<text text-anchor="middle" x="772.25" y="-62.5" font-family="Arial" font-size="10.00">QtWidgets/QComboBox</text>
</a>
</g>
</g>
<!-- Node14&#45;&gt;Node17 -->
<g id="edge16_Node000014_Node000017" class="edge">
<title>Node14&#45;&gt;Node17</title>
<g id="a_edge16_Node000014_Node000017"><a xlink:title=" ">
<path fill="none" stroke="#63b8ff" d="M1189.22,-115.85C1117.41,-107.93 975.81,-92.13 844.76,-76.29"/>
<polygon fill="#63b8ff" stroke="#63b8ff" points="845.18,-72.81 834.83,-75.09 844.34,-79.76 845.18,-72.81"/>
</a>
</g>
</g>
<!-- Node18 -->
<g id="Node000018" class="node">
<title>Node18</title>
<g id="a_Node000018"><a xlink:title=" ">
<polygon fill="#e0e0e0" stroke="#999999" points="975.62,-76 850.88,-76 850.88,-56 975.62,-56 975.62,-76"/>
<text text-anchor="middle" x="913.25" y="-62.5" font-family="Arial" font-size="10.00">QtWidgets/QFormLayout</text>
</a>
</g>
</g>
<!-- Node14&#45;&gt;Node18 -->
<g id="edge17_Node000014_Node000018" class="edge">
<title>Node14&#45;&gt;Node18</title>
<g id="a_edge17_Node000014_Node000018"><a xlink:title=" ">
<path fill="none" stroke="#63b8ff" d="M1189.28,-113.15C1134.6,-104.01 1043.82,-88.83 981.38,-78.39"/>
<polygon fill="#63b8ff" stroke="#63b8ff" points="982.01,-74.95 971.57,-76.75 980.85,-81.85 982.01,-74.95"/>
</a>
</g>
</g>
<!-- Node19 -->
<g id="Node000019" class="node">
<title>Node19</title>
<g id="a_Node000019"><a xlink:title=" ">
<polygon fill="#e0e0e0" stroke="#999999" points="1110.5,-76 994,-76 994,-56 1110.5,-56 1110.5,-76"/>
<text text-anchor="middle" x="1052.25" y="-62.5" font-family="Arial" font-size="10.00">QtWidgets/QGroupBox</text>
</a>
</g>
</g>
<!-- Node14&#45;&gt;Node19 -->
<g id="edge18_Node000014_Node000019" class="edge">
<title>Node14&#45;&gt;Node19</title>
<g id="a_edge18_Node000014_Node000019"><a xlink:title=" ">
<path fill="none" stroke="#63b8ff" d="M1204.2,-111.59C1174.04,-102.74 1128.66,-89.43 1095.35,-79.65"/>
<polygon fill="#63b8ff" stroke="#63b8ff" points="1096.58,-76.36 1086,-76.91 1094.61,-83.08 1096.58,-76.36"/>
</a>
</g>
</g>
<!-- Node20 -->
<g id="Node000020" class="node">
<title>Node20</title>
<g id="a_Node000020"><a xlink:title=" ">
<polygon fill="#e0e0e0" stroke="#999999" points="1224.38,-76 1128.12,-76 1128.12,-56 1224.38,-56 1224.38,-76"/>
<text text-anchor="middle" x="1176.25" y="-62.5" font-family="Arial" font-size="10.00">QtWidgets/QLabel</text>
</a>
</g>
</g>
<!-- Node14&#45;&gt;Node20 -->
<g id="edge19_Node000014_Node000020" class="edge">
<title>Node14&#45;&gt;Node20</title>
<g id="a_edge19_Node000014_Node000020"><a xlink:title=" ">
<path fill="none" stroke="#63b8ff" d="M1225.8,-111.59C1217.28,-103.93 1205.04,-92.91 1194.86,-83.75"/>
<polygon fill="#63b8ff" stroke="#63b8ff" points="1197.48,-81.4 1187.71,-77.31 1192.8,-86.6 1197.48,-81.4"/>
</a>
</g>
</g>
<!-- Node21 -->
<g id="Node000021" class="node">
<title>Node21</title>
<g id="a_Node000021"><a xlink:title=" ">
<polygon fill="#e0e0e0" stroke="#999999" points="1350.38,-76 1242.12,-76 1242.12,-56 1350.38,-56 1350.38,-76"/>
<text text-anchor="middle" x="1296.25" y="-62.5" font-family="Arial" font-size="10.00">QtWidgets/QLineEdit</text>
</a>
</g>
</g>
<!-- Node14&#45;&gt;Node21 -->
<g id="edge20_Node000014_Node000021" class="edge">
<title>Node14&#45;&gt;Node21</title>
<g id="a_edge20_Node000014_Node000021"><a xlink:title=" ">
<path fill="none" stroke="#63b8ff" d="M1246.7,-111.59C1255.22,-103.93 1267.46,-92.91 1277.64,-83.75"/>
<polygon fill="#63b8ff" stroke="#63b8ff" points="1279.7,-86.6 1284.79,-77.31 1275.02,-81.4 1279.7,-86.6"/>
</a>
</g>
</g>
<!-- Node22 -->
<g id="Node000022" class="node">
<title>Node22</title>
<g id="a_Node000022"><a xlink:title=" ">
<polygon fill="#e0e0e0" stroke="#999999" points="1497.88,-76 1368.62,-76 1368.62,-56 1497.88,-56 1497.88,-76"/>
<text text-anchor="middle" x="1433.25" y="-62.5" font-family="Arial" font-size="10.00">QtWidgets/QMainWindow</text>
</a>
</g>
</g>
<!-- Node14&#45;&gt;Node22 -->
<g id="edge21_Node000014_Node000022" class="edge">
<title>Node14&#45;&gt;Node22</title>
<g id="a_edge21_Node000014_Node000022"><a xlink:title=" ">
<path fill="none" stroke="#63b8ff" d="M1270.56,-111.59C1302.99,-102.71 1351.86,-89.31 1387.57,-79.52"/>
<polygon fill="#63b8ff" stroke="#63b8ff" points="1388.49,-82.9 1397.21,-76.88 1386.64,-76.15 1388.49,-82.9"/>
</a>
</g>
</g>
<!-- Node23 -->
<g id="Node000023" class="node">
<title>Node23</title>
<g id="a_Node000023"><a xlink:title=" ">
<polygon fill="#e0e0e0" stroke="#999999" points="1628.25,-76 1516.25,-76 1516.25,-56 1628.25,-56 1628.25,-76"/>
<text text-anchor="middle" x="1572.25" y="-62.5" font-family="Arial" font-size="10.00">QtWidgets/QMenuBar</text>
</a>
</g>
</g>
<!-- Node14&#45;&gt;Node23 -->
<g id="edge22_Node000014_Node000023" class="edge">
<title>Node14&#45;&gt;Node23</title>
<g id="a_edge22_Node000014_Node000023"><a xlink:title=" ">
<path fill="none" stroke="#63b8ff" d="M1283.32,-113.43C1341.03,-104.16 1439.23,-88.38 1504.92,-77.82"/>
<polygon fill="#63b8ff" stroke="#63b8ff" points="1505.16,-81.33 1514.48,-76.28 1504.05,-74.42 1505.16,-81.33"/>
</a>
</g>
</g>
<!-- Node24 -->
<g id="Node000024" class="node">
<title>Node24</title>
<g id="a_Node000024"><a xlink:title=" ">
<polygon fill="#e0e0e0" stroke="#999999" points="1770.25,-76 1646.25,-76 1646.25,-56 1770.25,-56 1770.25,-76"/>
<text text-anchor="middle" x="1708.25" y="-62.5" font-family="Arial" font-size="10.00">QtWidgets/QPushButton</text>
</a>
</g>
</g>
<!-- Node14&#45;&gt;Node24 -->
<g id="edge23_Node000014_Node000024" class="edge">
<title>Node14&#45;&gt;Node24</title>
<g id="a_edge23_Node000014_Node000024"><a xlink:title=" ">
<path fill="none" stroke="#63b8ff" d="M1283.19,-115.95C1356.05,-108.07 1501.05,-92.19 1634.68,-76.29"/>
<polygon fill="#63b8ff" stroke="#63b8ff" points="1634.9,-79.79 1644.42,-75.13 1634.07,-72.84 1634.9,-79.79"/>
</a>
</g>
</g>
<!-- Node25 -->
<g id="Node000025" class="node">
<title>Node25</title>
<g id="a_Node000025"><a xlink:title=" ">
<polygon fill="#e0e0e0" stroke="#999999" points="1904.5,-76 1788,-76 1788,-56 1904.5,-56 1904.5,-76"/>
<text text-anchor="middle" x="1846.25" y="-62.5" font-family="Arial" font-size="10.00">QtWidgets/QStatusBar</text>
</a>
</g>
</g>
<!-- Node14&#45;&gt;Node25 -->
<g id="edge24_Node000014_Node000025" class="edge">
<title>Node14&#45;&gt;Node25</title>
<g id="a_edge24_Node000014_Node000025"><a xlink:title=" ">
<path fill="none" stroke="#63b8ff" d="M1283.17,-117.92C1375.52,-111.68 1587.61,-96.49 1776.54,-76.24"/>
<polygon fill="#63b8ff" stroke="#63b8ff" points="1776.73,-79.74 1786.3,-75.19 1775.98,-72.78 1776.73,-79.74"/>
</a>
</g>
</g>
<!-- Node26 -->
<g id="Node000026" class="node">
<title>Node26</title>
<g id="a_Node000026"><a xlink:title=" ">
<polygon fill="#e0e0e0" stroke="#999999" points="2048.38,-76 1922.12,-76 1922.12,-56 2048.38,-56 2048.38,-76"/>
<text text-anchor="middle" x="1985.25" y="-62.5" font-family="Arial" font-size="10.00">QtWidgets/QVBoxLayout</text>
</a>
</g>
</g>
<!-- Node14&#45;&gt;Node26 -->
<g id="edge25_Node000014_Node000026" class="edge">
<title>Node14&#45;&gt;Node26</title>
<g id="a_edge25_Node000014_Node000026"><a xlink:title=" ">
<path fill="none" stroke="#63b8ff" d="M1283.11,-118.82C1391.55,-113.58 1668.42,-99.05 1910.53,-76.21"/>
<polygon fill="#63b8ff" stroke="#63b8ff" points="1910.54,-79.72 1920.16,-75.29 1909.88,-72.76 1910.54,-79.72"/>
</a>
</g>
</g>
<!-- Node27 -->
<g id="Node000027" class="node">
<title>Node27</title>
<g id="a_Node000027"><a xlink:title=" ">
<polygon fill="#e0e0e0" stroke="#999999" points="2170.12,-76 2066.38,-76 2066.38,-56 2170.12,-56 2170.12,-76"/>
<text text-anchor="middle" x="2118.25" y="-62.5" font-family="Arial" font-size="10.00">QtWidgets/QWidget</text>
</a>
</g>
</g>
<!-- Node14&#45;&gt;Node27 -->
<g id="edge26_Node000014_Node000027" class="edge">
<title>Node14&#45;&gt;Node27</title>
<g id="a_edge26_Node000014_Node000027"><a xlink:title=" ">
<path fill="none" stroke="#63b8ff" d="M1283.11,-119.94C1407.24,-116.8 1754.98,-105.92 2054.95,-76.14"/>
<polygon fill="#63b8ff" stroke="#63b8ff" points="2054.94,-79.66 2064.54,-75.17 2054.24,-72.69 2054.94,-79.66"/>
</a>
</g>
</g>
</g>
</svg>
