<?xml version="1.0" encoding="UTF-8" standalone="no"?>
<!DOCTYPE svg PUBLIC "-//W3C//DTD SVG 1.1//EN"
 "http://www.w3.org/Graphics/SVG/1.1/DTD/svg11.dtd">
<!-- Generated by graphviz version 12.2.1 (20241206.2353)
 -->
<!-- Title: Иерархия классов. Графический вид. Pages: 1 -->
<svg width="192pt" height="218pt"
 viewBox="0.00 0.00 192.25 218.00" xmlns="http://www.w3.org/2000/svg" xmlns:xlink="http://www.w3.org/1999/xlink">
<g id="graph0" class="graph" transform="scale(1 1) rotate(0) translate(4 214)">
<title>Иерархия классов. Графический вид.</title>
<!-- Node0 -->
<g id="Node000000" class="node">
<title>Node0</title>
<g id="a_Node000000"><a xlink:title=" ">
<polygon fill="#e0e0e0" stroke="#999999" points="52,-115 0,-115 0,-95 52,-95 52,-115"/>
<text text-anchor="middle" x="26" y="-101.5" font-family="Arial" font-size="10.00">QObject</text>
</a>
</g>
</g>
<!-- Node1 -->
<g id="Node000001" class="node">
<title>Node1</title>
<g id="a_Node000001"><a xlink:href="class_client_manager.html" target="_top" xlink:title="Класс для управления клиентским соединением с сервером.">
<polygon fill="white" stroke="#666666" points="175.62,-210 96.62,-210 96.62,-190 175.62,-190 175.62,-210"/>
<text text-anchor="middle" x="136.12" y="-196.5" font-family="Arial" font-size="10.00">ClientManager</text>
</a>
</g>
</g>
<!-- Node0&#45;&gt;Node1 -->
<g id="edge5_Node000000_Node000001" class="edge">
<title>Node0&#45;&gt;Node1</title>
<g id="a_edge5_Node000000_Node000001"><a xlink:title=" ">
<path fill="none" stroke="#63b8ff" d="M38.72,-124.72C49.63,-141.63 67.3,-165.63 88,-181 92.53,-184.37 97.74,-187.24 103.01,-189.65"/>
<polygon fill="#63b8ff" stroke="#63b8ff" points="41.88,-123.18 33.63,-116.53 35.94,-126.87 41.88,-123.18"/>
</a>
</g>
</g>
<!-- Node2 -->
<g id="Node000002" class="node">
<title>Node2</title>
<g id="a_Node000002"><a xlink:href="class_my_tcp_server.html" target="_top" xlink:title="Класс TCP&#45;сервера для обработки подключений клиентов">
<polygon fill="white" stroke="#666666" points="173,-172 99.25,-172 99.25,-152 173,-152 173,-172"/>
<text text-anchor="middle" x="136.12" y="-158.5" font-family="Arial" font-size="10.00">MyTcpServer</text>
</a>
</g>
</g>
<!-- Node0&#45;&gt;Node2 -->
<g id="edge6_Node000000_Node000002" class="edge">
<title>Node0&#45;&gt;Node2</title>
<g id="a_edge6_Node000000_Node000002"><a xlink:title=" ">
<path fill="none" stroke="#63b8ff" d="M51.43,-121.58C62.36,-128.64 75.57,-136.68 88,-143 93.98,-146.04 100.56,-148.95 106.86,-151.53"/>
<polygon fill="#63b8ff" stroke="#63b8ff" points="53.66,-118.85 43.38,-116.28 49.81,-124.7 53.66,-118.85"/>
</a>
</g>
</g>
<!-- Node3 -->
<g id="Node000003" class="node">
<title>Node3</title>
<g id="a_Node000003"><a xlink:href="class_test_home_window.html" target="_top" xlink:title="Класс для тестирования открытия окна HomeWindow.">
<polygon fill="white" stroke="#666666" points="184.25,-134 88,-134 88,-114 184.25,-114 184.25,-134"/>
<text text-anchor="middle" x="136.12" y="-120.5" font-family="Arial" font-size="10.00">TestHomeWindow</text>
</a>
</g>
</g>
<!-- Node0&#45;&gt;Node3 -->
<g id="edge7_Node000000_Node000003" class="edge">
<title>Node0&#45;&gt;Node3</title>
<g id="a_edge7_Node000000_Node000003"><a xlink:title=" ">
<path fill="none" stroke="#63b8ff" d="M63.65,-111.44C71.43,-112.81 79.76,-114.27 87.87,-115.7"/>
<polygon fill="#63b8ff" stroke="#63b8ff" points="64.3,-108 53.84,-109.72 63.08,-114.89 64.3,-108"/>
</a>
</g>
</g>
<!-- Node4 -->
<g id="Node000004" class="node">
<title>Node4</title>
<g id="a_Node000004"><a xlink:href="class_test_my_tcp_server.html" target="_top" xlink:title="Класс для модульного тестирования функционала сервера MyTcpServer.">
<polygon fill="white" stroke="#666666" points="182.38,-96 89.88,-96 89.88,-76 182.38,-76 182.38,-96"/>
<text text-anchor="middle" x="136.12" y="-82.5" font-family="Arial" font-size="10.00">TestMyTcpServer</text>
</a>
</g>
</g>
<!-- Node0&#45;&gt;Node4 -->
<g id="edge8_Node000000_Node000004" class="edge">
<title>Node0&#45;&gt;Node4</title>
<g id="a_edge8_Node000000_Node000004"><a xlink:title=" ">
<path fill="none" stroke="#63b8ff" d="M63.63,-98.56C71.97,-97.1 80.93,-95.52 89.59,-94"/>
<polygon fill="#63b8ff" stroke="#63b8ff" points="63.08,-95.11 53.84,-100.28 64.3,-102 63.08,-95.11"/>
</a>
</g>
</g>
<!-- Node5 -->
<g id="Node000005" class="node">
<title>Node5</title>
<g id="a_Node000005"><a xlink:href="classfirst.html" target="_top" xlink:title="Класс для тестирования функционала окна HomeWindow.">
<polygon fill="white" stroke="#666666" points="152.38,-58 119.88,-58 119.88,-38 152.38,-38 152.38,-58"/>
<text text-anchor="middle" x="136.12" y="-44.5" font-family="Arial" font-size="10.00">first</text>
</a>
</g>
</g>
<!-- Node0&#45;&gt;Node5 -->
<g id="edge9_Node000000_Node000005" class="edge">
<title>Node0&#45;&gt;Node5</title>
<g id="a_edge9_Node000000_Node000005"><a xlink:title=" ">
<path fill="none" stroke="#63b8ff" d="M51.43,-88.42C62.36,-81.36 75.57,-73.32 88,-67 98.22,-61.8 110.22,-56.99 119.54,-53.5"/>
<polygon fill="#63b8ff" stroke="#63b8ff" points="49.81,-85.3 43.38,-93.72 53.66,-91.15 49.81,-85.3"/>
</a>
</g>
</g>
<!-- Node6 -->
<g id="Node000006" class="node">
<title>Node6</title>
<g id="a_Node000006"><a xlink:href="classtest__homewindow.html" target="_top" xlink:title="Класс для модульного тестирования компонента HomeWindow.">
<polygon fill="white" stroke="#666666" points="183.5,-20 88.75,-20 88.75,0 183.5,0 183.5,-20"/>
<text text-anchor="middle" x="136.12" y="-6.5" font-family="Arial" font-size="10.00">test_homewindow</text>
</a>
</g>
</g>
<!-- Node0&#45;&gt;Node6 -->
<g id="edge10_Node000000_Node000006" class="edge">
<title>Node0&#45;&gt;Node6</title>
<g id="a_edge10_Node000000_Node000006"><a xlink:title=" ">
<path fill="none" stroke="#63b8ff" d="M38.72,-85.28C49.63,-68.37 67.3,-44.37 88,-29 92.53,-25.63 97.74,-22.76 103.01,-20.35"/>
<polygon fill="#63b8ff" stroke="#63b8ff" points="35.94,-83.13 33.63,-93.47 41.88,-86.82 35.94,-83.13"/>
</a>
</g>
</g>
</g>
</svg>
