<?xml version="1.0" encoding="UTF-8" standalone="no"?>
<!DOCTYPE svg PUBLIC "-//W3C//DTD SVG 1.1//EN"
 "http://www.w3.org/Graphics/SVG/1.1/DTD/svg11.dtd">
<!-- Generated by graphviz version 12.2.1 (20241206.2353)
 -->
<!-- Title: Иерархия классов. Графический вид. Pages: 1 -->
<svg width="205pt" height="104pt"
 viewBox="0.00 0.00 205.00 104.00" xmlns="http://www.w3.org/2000/svg" xmlns:xlink="http://www.w3.org/1999/xlink">
<g id="graph0" class="graph" transform="scale(1 1) rotate(0) translate(4 100)">
<title>Иерархия классов. Графический вид.</title>
<!-- Node0 -->
<g id="Node000000" class="node">
<title>Node0</title>
<g id="a_Node000000"><a xlink:title=" ">
<polygon fill="#e0e0e0" stroke="#999999" points="79.75,-58 0,-58 0,-38 79.75,-38 79.75,-58"/>
<text text-anchor="middle" x="39.88" y="-44.5" font-family="Arial" font-size="10.00">QMainWindow</text>
</a>
</g>
</g>
<!-- Node1 -->
<g id="Node000001" class="node">
<title>Node1</title>
<g id="a_Node000001"><a xlink:href="class_forms_manager.html" target="_top" xlink:title="Класс для управления отображением форм авторизации/регистрации и главного окна.">
<polygon fill="white" stroke="#666666" points="197,-96 115.75,-96 115.75,-76 197,-76 197,-96"/>
<text text-anchor="middle" x="156.38" y="-82.5" font-family="Arial" font-size="10.00">FormsManager</text>
</a>
</g>
</g>
<!-- Node0&#45;&gt;Node1 -->
<g id="edge2_Node000000_Node000001" class="edge">
<title>Node0&#45;&gt;Node1</title>
<g id="a_edge2_Node000000_Node000001"><a xlink:title=" ">
<path fill="none" stroke="#63b8ff" d="M83.39,-62.11C96.81,-66.56 111.38,-71.4 123.89,-75.55"/>
<polygon fill="#63b8ff" stroke="#63b8ff" points="84.5,-58.79 73.9,-58.96 82.29,-65.43 84.5,-58.79"/>
</a>
</g>
</g>
<!-- Node2 -->
<g id="Node000002" class="node">
<title>Node2</title>
<g id="a_Node000002"><a xlink:href="class_home_window.html" target="_top" xlink:title="Главное окно приложения для решения уравнений.">
<polygon fill="white" stroke="#666666" points="195.12,-58 117.62,-58 117.62,-38 195.12,-38 195.12,-58"/>
<text text-anchor="middle" x="156.38" y="-44.5" font-family="Arial" font-size="10.00">HomeWindow</text>
</a>
</g>
</g>
<!-- Node0&#45;&gt;Node2 -->
<g id="edge3_Node000000_Node000002" class="edge">
<title>Node0&#45;&gt;Node2</title>
<g id="a_edge3_Node000000_Node000002"><a xlink:title=" ">
<path fill="none" stroke="#63b8ff" d="M91.24,-48C99.96,-48 108.91,-48 117.24,-48"/>
<polygon fill="#63b8ff" stroke="#63b8ff" points="91.47,-44.5 81.47,-48 91.47,-51.5 91.47,-44.5"/>
</a>
</g>
</g>
<!-- Node3 -->
<g id="Node000003" class="node">
<title>Node3</title>
<g id="a_Node000003"><a xlink:href="class_main_window.html" target="_top" xlink:title="Основное окно приложения.">
<polygon fill="white" stroke="#666666" points="192.5,-20 120.25,-20 120.25,0 192.5,0 192.5,-20"/>
<text text-anchor="middle" x="156.38" y="-6.5" font-family="Arial" font-size="10.00">MainWindow</text>
</a>
</g>
</g>
<!-- Node0&#45;&gt;Node3 -->
<g id="edge4_Node000000_Node000003" class="edge">
<title>Node0&#45;&gt;Node3</title>
<g id="a_edge4_Node000000_Node000003"><a xlink:title=" ">
<path fill="none" stroke="#63b8ff" d="M83.39,-33.89C96.81,-29.44 111.38,-24.6 123.89,-20.45"/>
<polygon fill="#63b8ff" stroke="#63b8ff" points="82.29,-30.57 73.9,-37.04 84.5,-37.21 82.29,-30.57"/>
</a>
</g>
</g>
</g>
</svg>
