<?xml version="1.0" encoding="UTF-8" standalone="no"?>
<!DOCTYPE svg PUBLIC "-//W3C//DTD SVG 1.1//EN"
 "http://www.w3.org/Graphics/SVG/1.1/DTD/svg11.dtd">
<!-- Generated by graphviz version 12.2.1 (20241206.2353)
 -->
<!-- Title: ClientInterface/mainwindow.cpp Pages: 1 -->
<svg width="195pt" height="140pt"
 viewBox="0.00 0.00 195.00 140.00" xmlns="http://www.w3.org/2000/svg" xmlns:xlink="http://www.w3.org/1999/xlink">
<g id="graph0" class="graph" transform="scale(1 1) rotate(0) translate(4 136)">
<title>ClientInterface/mainwindow.cpp</title>
<!-- Node1 -->
<g id="Node000001" class="node">
<title>Node1</title>
<g id="a_Node000001"><a xlink:title="Реализация класса MainWindow.">
<polygon fill="#999999" stroke="#666666" points="168.25,-132 13.5,-132 13.5,-112 168.25,-112 168.25,-132"/>
<text text-anchor="middle" x="90.88" y="-118.5" font-family="Arial" font-size="10.00">ClientInterface/mainwindow.cpp</text>
</a>
</g>
</g>
<!-- Node2 -->
<g id="Node000002" class="node">
<title>Node2</title>
<g id="a_Node000002"><a xlink:href="mainwindow_8h.html" target="_top" xlink:title="Описание основного окна приложения (класс MainWindow).">
<polygon fill="white" stroke="#666666" points="78.62,-76 1.12,-76 1.12,-56 78.62,-56 78.62,-76"/>
<text text-anchor="middle" x="39.88" y="-62.5" font-family="Arial" font-size="10.00">mainwindow.h</text>
</a>
</g>
</g>
<!-- Node1&#45;&gt;Node2 -->
<g id="edge1_Node000001_Node000002" class="edge">
<title>Node1&#45;&gt;Node2</title>
<g id="a_edge1_Node000001_Node000002"><a xlink:title=" ">
<path fill="none" stroke="#63b8ff" d="M81.99,-111.59C74.97,-104.16 64.97,-93.58 56.48,-84.58"/>
<polygon fill="#63b8ff" stroke="#63b8ff" points="59.11,-82.27 49.7,-77.4 54.02,-87.07 59.11,-82.27"/>
</a>
</g>
</g>
<!-- Node4 -->
<g id="Node000004" class="node">
<title>Node4</title>
<g id="a_Node000004"><a xlink:title=" ">
<polygon fill="#e0e0e0" stroke="#999999" points="187,-76 96.75,-76 96.75,-56 187,-56 187,-76"/>
<text text-anchor="middle" x="141.88" y="-62.5" font-family="Arial" font-size="10.00">ui_mainwindow.h</text>
</a>
</g>
</g>
<!-- Node1&#45;&gt;Node4 -->
<g id="edge3_Node000001_Node000004" class="edge">
<title>Node1&#45;&gt;Node4</title>
<g id="a_edge3_Node000001_Node000004"><a xlink:title=" ">
<path fill="none" stroke="#63b8ff" d="M99.76,-111.59C106.78,-104.16 116.78,-93.58 125.27,-84.58"/>
<polygon fill="#63b8ff" stroke="#63b8ff" points="127.73,-87.07 132.05,-77.4 122.64,-82.27 127.73,-87.07"/>
</a>
</g>
</g>
<!-- Node3 -->
<g id="Node000003" class="node">
<title>Node3</title>
<g id="a_Node000003"><a xlink:title=" ">
<polygon fill="#e0e0e0" stroke="#999999" points="79.75,-20 0,-20 0,0 79.75,0 79.75,-20"/>
<text text-anchor="middle" x="39.88" y="-6.5" font-family="Arial" font-size="10.00">QMainWindow</text>
</a>
</g>
</g>
<!-- Node2&#45;&gt;Node3 -->
<g id="edge2_Node000002_Node000003" class="edge">
<title>Node2&#45;&gt;Node3</title>
<g id="a_edge2_Node000002_Node000003"><a xlink:title=" ">
<path fill="none" stroke="#63b8ff" d="M39.88,-55.59C39.88,-49.01 39.88,-39.96 39.88,-31.73"/>
<polygon fill="#63b8ff" stroke="#63b8ff" points="43.38,-31.81 39.88,-21.81 36.38,-31.81 43.38,-31.81"/>
</a>
</g>
</g>
</g>
</svg>
