<?xml version="1.0" encoding="UTF-8" standalone="no"?>
<!DOCTYPE svg PUBLIC "-//W3C//DTD SVG 1.1//EN"
 "http://www.w3.org/Graphics/SVG/1.1/DTD/svg11.dtd">
<!-- Generated by graphviz version 12.2.1 (20241206.2353)
 -->
<!-- Title: ClientInterface/mainwindow.h Pages: 1 -->
<svg width="419pt" height="140pt"
 viewBox="0.00 0.00 419.25 140.00" xmlns="http://www.w3.org/2000/svg" xmlns:xlink="http://www.w3.org/1999/xlink">
<g id="graph0" class="graph" transform="scale(1 1) rotate(0) translate(4 136)">
<title>ClientInterface/mainwindow.h</title>
<!-- Node1 -->
<g id="Node000001" class="node">
<title>Node1</title>
<g id="a_Node000001"><a xlink:title="Описание основного окна приложения (класс MainWindow).">
<polygon fill="#999999" stroke="#666666" points="320,-132 175.75,-132 175.75,-112 320,-112 320,-132"/>
<text text-anchor="middle" x="247.88" y="-118.5" font-family="Arial" font-size="10.00">ClientInterface/mainwindow.h</text>
</a>
</g>
</g>
<!-- Node2 -->
<g id="Node000002" class="node">
<title>Node2</title>
<g id="a_Node000002"><a xlink:href="formsmanager_8h.html" target="_top" xlink:title="Описание класса FormsManager, который управляет отображением форм авторизации/регистрации и главного ...">
<polygon fill="white" stroke="#666666" points="238.5,-76 85.25,-76 85.25,-56 238.5,-56 238.5,-76"/>
<text text-anchor="middle" x="161.88" y="-62.5" font-family="Arial" font-size="10.00">ClientInterface/formsmanager.h</text>
</a>
</g>
</g>
<!-- Node1&#45;&gt;Node2 -->
<g id="edge1_Node000001_Node000002" class="edge">
<title>Node1&#45;&gt;Node2</title>
<g id="a_edge1_Node000001_Node000002"><a xlink:title=" ">
<path fill="none" stroke="#63b8ff" d="M223.26,-105.54C208.33,-96.17 189.75,-84.51 176.97,-76.48"/>
<polygon fill="#63b8ff" stroke="#63b8ff" points="221.28,-108.44 231.61,-110.79 225.01,-102.51 221.28,-108.44"/>
</a>
</g>
</g>
<!-- Node5 -->
<g id="Node000005" class="node">
<title>Node5</title>
<g id="a_Node000005"><a xlink:href="mainwindow_8cpp.html" target="_top" xlink:title="Реализация класса MainWindow.">
<polygon fill="white" stroke="#666666" points="411.25,-76 256.5,-76 256.5,-56 411.25,-56 411.25,-76"/>
<text text-anchor="middle" x="333.88" y="-62.5" font-family="Arial" font-size="10.00">ClientInterface/mainwindow.cpp</text>
</a>
</g>
</g>
<!-- Node1&#45;&gt;Node5 -->
<g id="edge4_Node000001_Node000005" class="edge">
<title>Node1&#45;&gt;Node5</title>
<g id="a_edge4_Node000001_Node000005"><a xlink:title=" ">
<path fill="none" stroke="#63b8ff" d="M272.49,-105.54C287.42,-96.17 306,-84.51 318.78,-76.48"/>
<polygon fill="#63b8ff" stroke="#63b8ff" points="270.74,-102.51 264.14,-110.79 274.47,-108.44 270.74,-102.51"/>
</a>
</g>
</g>
<!-- Node3 -->
<g id="Node000003" class="node">
<title>Node3</title>
<g id="a_Node000003"><a xlink:href="formsmanager_8cpp.html" target="_top" xlink:title="Реализация класса FormsManager.">
<polygon fill="white" stroke="#666666" points="163.75,-20 0,-20 0,0 163.75,0 163.75,-20"/>
<text text-anchor="middle" x="81.88" y="-6.5" font-family="Arial" font-size="10.00">ClientInterface/formsmanager.cpp</text>
</a>
</g>
</g>
<!-- Node2&#45;&gt;Node3 -->
<g id="edge2_Node000002_Node000003" class="edge">
<title>Node2&#45;&gt;Node3</title>
<g id="a_edge2_Node000002_Node000003"><a xlink:title=" ">
<path fill="none" stroke="#63b8ff" d="M138.57,-49.27C124.75,-39.94 107.69,-28.43 95.92,-20.48"/>
<polygon fill="#63b8ff" stroke="#63b8ff" points="136.44,-52.05 146.69,-54.75 140.36,-46.25 136.44,-52.05"/>
</a>
</g>
</g>
<!-- Node4 -->
<g id="Node000004" class="node">
<title>Node4</title>
<g id="a_Node000004"><a xlink:href="_client_interface_2main_8cpp.html" target="_top" xlink:title="Основной файл запуска клиента.">
<polygon fill="white" stroke="#666666" points="304.12,-20 181.62,-20 181.62,0 304.12,0 304.12,-20"/>
<text text-anchor="middle" x="242.88" y="-6.5" font-family="Arial" font-size="10.00">ClientInterface/main.cpp</text>
</a>
</g>
</g>
<!-- Node2&#45;&gt;Node4 -->
<g id="edge3_Node000002_Node000004" class="edge">
<title>Node2&#45;&gt;Node4</title>
<g id="a_edge3_Node000002_Node000004"><a xlink:title=" ">
<path fill="none" stroke="#63b8ff" d="M185.47,-49.27C199.46,-39.94 216.73,-28.43 228.66,-20.48"/>
<polygon fill="#63b8ff" stroke="#63b8ff" points="183.62,-46.3 177.24,-54.75 187.51,-52.12 183.62,-46.3"/>
</a>
</g>
</g>
</g>
</svg>
