<?xml version="1.0" encoding="UTF-8" standalone="no"?>
<!DOCTYPE svg PUBLIC "-//W3C//DTD SVG 1.1//EN"
 "http://www.w3.org/Graphics/SVG/1.1/DTD/svg11.dtd">
<!-- Generated by graphviz version 12.2.1 (20241206.2353)
 -->
<!-- Title: ServerTests/build/Desktop_Qt_6_8_2_MinGW_64_bit&#45;Debug/debug/moc_testmytcpserver.cpp Pages: 1 -->
<svg width="923pt" height="200pt"
 viewBox="0.00 0.00 923.12 200.00" xmlns="http://www.w3.org/2000/svg" xmlns:xlink="http://www.w3.org/1999/xlink">
<g id="graph0" class="graph" transform="scale(1 1) rotate(0) translate(4 196)">
<title>ServerTests/build/Desktop_Qt_6_8_2_MinGW_64_bit&#45;Debug/debug/moc_testmytcpserver.cpp</title>
<!-- Node1 -->
<g id="Node000001" class="node">
<title>Node1</title>
<g id="a_Node000001"><a xlink:title="Автоматически сгенерированный файл метаобъекта для класса TestMyTcpServer.">
<polygon fill="#999999" stroke="#666666" points="616.5,-192 423.5,-192 423.5,-148 616.5,-148 616.5,-192"/>
<text text-anchor="start" x="431.5" y="-178.5" font-family="Arial" font-size="10.00">ServerTests/build/Desktop</text>
<text text-anchor="start" x="431.5" y="-166.5" font-family="Arial" font-size="10.00">_Qt_6_8_2_MinGW_64_bit</text>
<text text-anchor="middle" x="520" y="-154.5" font-family="Arial" font-size="10.00">&#45;Debug/debug/moc_testmytcpserver.cpp</text>
</a>
</g>
</g>
<!-- Node2 -->
<g id="Node000002" class="node">
<title>Node2</title>
<g id="a_Node000002"><a xlink:href="testmytcpserver_8h.html" target="_top" xlink:title="Описание класса для модульного тестирования функционала сервера TestMyTcpServer.">
<polygon fill="white" stroke="#666666" points="153.88,-106 32.12,-106 32.12,-86 153.88,-86 153.88,-106"/>
<text text-anchor="middle" x="93" y="-92.5" font-family="Arial" font-size="10.00">../../../testmytcpserver.h</text>
</a>
</g>
</g>
<!-- Node1&#45;&gt;Node2 -->
<g id="edge1_Node000001_Node000002" class="edge">
<title>Node1&#45;&gt;Node2</title>
<g id="a_edge1_Node000001_Node000002"><a xlink:title=" ">
<path fill="none" stroke="#63b8ff" d="M423.17,-154.95C351.22,-144.17 250.76,-128.4 163,-112 157.7,-111.01 152.2,-109.93 146.7,-108.81"/>
<polygon fill="#63b8ff" stroke="#63b8ff" points="147.48,-105.4 136.98,-106.79 146.06,-112.25 147.48,-105.4"/>
</a>
</g>
</g>
<!-- Node6 -->
<g id="Node000006" class="node">
<title>Node6</title>
<g id="a_Node000006"><a xlink:title=" ">
<polygon fill="#e0e0e0" stroke="#999999" points="280.5,-106 171.5,-106 171.5,-86 280.5,-86 280.5,-106"/>
<text text-anchor="middle" x="226" y="-92.5" font-family="Arial" font-size="10.00">QtNetwork/QSslError</text>
</a>
</g>
</g>
<!-- Node1&#45;&gt;Node6 -->
<g id="edge5_Node000001_Node000006" class="edge">
<title>Node1&#45;&gt;Node6</title>
<g id="a_edge5_Node000001_Node000006"><a xlink:title=" ">
<path fill="none" stroke="#63b8ff" d="M432.59,-147.59C381.31,-135.04 318.39,-119.63 275.56,-109.14"/>
<polygon fill="#63b8ff" stroke="#63b8ff" points="276.59,-105.79 266.05,-106.81 274.93,-112.59 276.59,-105.79"/>
</a>
</g>
</g>
<!-- Node7 -->
<g id="Node000007" class="node">
<title>Node7</title>
<g id="a_Node000007"><a xlink:title=" ">
<polygon fill="#e0e0e0" stroke="#999999" points="449.5,-112 298.5,-112 298.5,-80 449.5,-80 449.5,-112"/>
<text text-anchor="start" x="306.5" y="-98.5" font-family="Arial" font-size="10.00">QtNetwork/QSslPreSharedKey</text>
<text text-anchor="middle" x="374" y="-86.5" font-family="Arial" font-size="10.00">Authenticator</text>
</a>
</g>
</g>
<!-- Node1&#45;&gt;Node7 -->
<g id="edge6_Node000001_Node000007" class="edge">
<title>Node1&#45;&gt;Node7</title>
<g id="a_edge6_Node000001_Node000007"><a xlink:title=" ">
<path fill="none" stroke="#63b8ff" d="M476.59,-147.59C457.3,-138.08 434.69,-126.93 415.61,-117.52"/>
<polygon fill="#63b8ff" stroke="#63b8ff" points="417.3,-114.45 406.78,-113.16 414.2,-120.73 417.3,-114.45"/>
</a>
</g>
</g>
<!-- Node8 -->
<g id="Node000008" class="node">
<title>Node8</title>
<g id="a_Node000008"><a xlink:title=" ">
<polygon fill="#e0e0e0" stroke="#999999" points="572.25,-106 467.75,-106 467.75,-86 572.25,-86 572.25,-106"/>
<text text-anchor="middle" x="520" y="-92.5" font-family="Arial" font-size="10.00">QtCore/qmetatype.h</text>
</a>
</g>
</g>
<!-- Node1&#45;&gt;Node8 -->
<g id="edge7_Node000001_Node000008" class="edge">
<title>Node1&#45;&gt;Node8</title>
<g id="a_edge7_Node000001_Node000008"><a xlink:title=" ">
<path fill="none" stroke="#63b8ff" d="M520,-147.79C520,-138.32 520,-127.2 520,-117.78"/>
<polygon fill="#63b8ff" stroke="#63b8ff" points="523.5,-117.82 520,-107.82 516.5,-117.82 523.5,-117.82"/>
</a>
</g>
</g>
<!-- Node9 -->
<g id="Node000009" class="node">
<title>Node9</title>
<g id="a_Node000009"><a xlink:title=" ">
<polygon fill="#e0e0e0" stroke="#999999" points="707.62,-106 590.38,-106 590.38,-86 707.62,-86 707.62,-106"/>
<text text-anchor="middle" x="649" y="-92.5" font-family="Arial" font-size="10.00">QtCore/qtmochelpers.h</text>
</a>
</g>
</g>
<!-- Node1&#45;&gt;Node9 -->
<g id="edge8_Node000001_Node000009" class="edge">
<title>Node1&#45;&gt;Node9</title>
<g id="a_edge8_Node000001_Node000009"><a xlink:title=" ">
<path fill="none" stroke="#63b8ff" d="M558.35,-147.59C578.94,-136.1 603.8,-122.23 622.27,-111.92"/>
<polygon fill="#63b8ff" stroke="#63b8ff" points="623.72,-115.12 630.75,-107.19 620.31,-109 623.72,-115.12"/>
</a>
</g>
</g>
<!-- Node10 -->
<g id="Node000010" class="node">
<title>Node10</title>
<g id="a_Node000010"><a xlink:title=" ">
<polygon fill="#e0e0e0" stroke="#999999" points="776.62,-106 725.38,-106 725.38,-86 776.62,-86 776.62,-106"/>
<text text-anchor="middle" x="751" y="-92.5" font-family="Arial" font-size="10.00">memory</text>
</a>
</g>
</g>
<!-- Node1&#45;&gt;Node10 -->
<g id="edge9_Node000001_Node000010" class="edge">
<title>Node1&#45;&gt;Node10</title>
<g id="a_edge9_Node000001_Node000010"><a xlink:title=" ">
<path fill="none" stroke="#63b8ff" d="M603.22,-147.58C638.64,-137.78 680.19,-125.38 717,-112 718.12,-111.59 719.26,-111.17 720.4,-110.72"/>
<polygon fill="#63b8ff" stroke="#63b8ff" points="721.37,-114.11 729.28,-107.07 718.71,-107.64 721.37,-114.11"/>
</a>
</g>
</g>
<!-- Node11 -->
<g id="Node000011" class="node">
<title>Node11</title>
<g id="a_Node000011"><a xlink:title=" ">
<polygon fill="#e0e0e0" stroke="#999999" points="915.12,-106 794.88,-106 794.88,-86 915.12,-86 915.12,-106"/>
<text text-anchor="middle" x="855" y="-92.5" font-family="Arial" font-size="10.00">QtCore/qxptype_traits.h</text>
</a>
</g>
</g>
<!-- Node1&#45;&gt;Node11 -->
<g id="edge10_Node000001_Node000011" class="edge">
<title>Node1&#45;&gt;Node11</title>
<g id="a_edge10_Node000001_Node000011"><a xlink:title=" ">
<path fill="none" stroke="#63b8ff" d="M616.98,-148.29C667.4,-137.51 730.02,-124.08 786,-112 790.65,-111 795.48,-109.95 800.32,-108.9"/>
<polygon fill="#63b8ff" stroke="#63b8ff" points="801.06,-112.32 810.09,-106.78 799.58,-105.48 801.06,-112.32"/>
</a>
</g>
</g>
<!-- Node3 -->
<g id="Node000003" class="node">
<title>Node3</title>
<g id="a_Node000003"><a xlink:title=" ">
<polygon fill="#e0e0e0" stroke="#999999" points="52,-32 0,-32 0,-12 52,-12 52,-32"/>
<text text-anchor="middle" x="26" y="-18.5" font-family="Arial" font-size="10.00">QObject</text>
</a>
</g>
</g>
<!-- Node2&#45;&gt;Node3 -->
<g id="edge2_Node000002_Node000003" class="edge">
<title>Node2&#45;&gt;Node3</title>
<g id="a_edge2_Node000002_Node000003"><a xlink:title=" ">
<path fill="none" stroke="#63b8ff" d="M84.24,-85.59C73.55,-74.1 55.26,-54.44 42.02,-40.22"/>
<polygon fill="#63b8ff" stroke="#63b8ff" points="44.96,-38.23 35.58,-33.3 39.83,-43 44.96,-38.23"/>
</a>
</g>
</g>
<!-- Node4 -->
<g id="Node000004" class="node">
<title>Node4</title>
<g id="a_Node000004"><a xlink:title=" ">
<polygon fill="#e0e0e0" stroke="#999999" points="115.62,-32 70.38,-32 70.38,-12 115.62,-12 115.62,-32"/>
<text text-anchor="middle" x="93" y="-18.5" font-family="Arial" font-size="10.00">QtTest</text>
</a>
</g>
</g>
<!-- Node2&#45;&gt;Node4 -->
<g id="edge3_Node000002_Node000004" class="edge">
<title>Node2&#45;&gt;Node4</title>
<g id="a_edge3_Node000002_Node000004"><a xlink:title=" ">
<path fill="none" stroke="#63b8ff" d="M93,-85.59C93,-74.96 93,-57.36 93,-43.53"/>
<polygon fill="#63b8ff" stroke="#63b8ff" points="96.5,-43.7 93,-33.7 89.5,-43.7 96.5,-43.7"/>
</a>
</g>
</g>
<!-- Node5 -->
<g id="Node000005" class="node">
<title>Node5</title>
<g id="a_Node000005"><a xlink:title=" ">
<polygon fill="#e0e0e0" stroke="#999999" points="256.62,-44 133.38,-44 133.38,0 256.62,0 256.62,-44"/>
<text text-anchor="start" x="141.38" y="-30.5" font-family="Arial" font-size="10.00">C:/Users/redmi/Desktop</text>
<text text-anchor="start" x="141.38" y="-18.5" font-family="Arial" font-size="10.00">/Tech_Prog_2025/Server</text>
<text text-anchor="middle" x="195" y="-6.5" font-family="Arial" font-size="10.00">/mytcpserver.h</text>
</a>
</g>
</g>
<!-- Node2&#45;&gt;Node5 -->
<g id="edge4_Node000002_Node000005" class="edge">
<title>Node2&#45;&gt;Node5</title>
<g id="a_edge4_Node000002_Node000005"><a xlink:title=" ">
<path fill="none" stroke="#63b8ff" d="M106.33,-85.59C118.93,-76.69 138.46,-62.91 155.99,-50.54"/>
<polygon fill="#63b8ff" stroke="#63b8ff" points="157.54,-53.73 163.69,-45.1 153.5,-48.01 157.54,-53.73"/>
</a>
</g>
</g>
</g>
</svg>
