<?xml version="1.0" encoding="UTF-8" standalone="no"?>
<!DOCTYPE svg PUBLIC "-//W3C//DTD SVG 1.1//EN"
 "http://www.w3.org/Graphics/SVG/1.1/DTD/svg11.dtd">
<!-- Generated by graphviz version 12.2.1 (20241206.2353)
 -->
<!-- Title: Tests/Test/Tests/build/Desktop_Qt_5_15_16_static_MinGW_w64_MINGW64_MSYS2&#45;Debug/debug/moc_homewindow.cpp Pages: 1 -->
<svg width="753pt" height="244pt"
 viewBox="0.00 0.00 753.12 244.00" xmlns="http://www.w3.org/2000/svg" xmlns:xlink="http://www.w3.org/1999/xlink">
<g id="graph0" class="graph" transform="scale(1 1) rotate(0) translate(4 240)">
<title>Tests/Test/Tests/build/Desktop_Qt_5_15_16_static_MinGW_w64_MINGW64_MSYS2&#45;Debug/debug/moc_homewindow.cpp</title>
<!-- Node1 -->
<g id="Node000001" class="node">
<title>Node1</title>
<g id="a_Node000001"><a xlink:title="Автоматически сгенерированный файл метаобъекта для класса HomeWindow.">
<polygon fill="#999999" stroke="#666666" points="372.25,-236 193.5,-236 193.5,-180 372.25,-180 372.25,-236"/>
<text text-anchor="start" x="201.5" y="-222.5" font-family="Arial" font-size="10.00">Tests/Test/Tests/build</text>
<text text-anchor="start" x="201.5" y="-210.5" font-family="Arial" font-size="10.00">/Desktop_Qt_5_15_16_static</text>
<text text-anchor="start" x="201.5" y="-198.5" font-family="Arial" font-size="10.00">_MinGW_w64_MINGW64_MSYS2</text>
<text text-anchor="middle" x="282.88" y="-186.5" font-family="Arial" font-size="10.00">&#45;Debug/debug/moc_homewindow.cpp</text>
</a>
</g>
</g>
<!-- Node2 -->
<g id="Node000002" class="node">
<title>Node2</title>
<g id="a_Node000002"><a xlink:title=" ">
<polygon fill="#e0e0e0" stroke="#999999" points="138.5,-138 87.25,-138 87.25,-118 138.5,-118 138.5,-138"/>
<text text-anchor="middle" x="112.88" y="-124.5" font-family="Arial" font-size="10.00">memory</text>
</a>
</g>
</g>
<!-- Node1&#45;&gt;Node2 -->
<g id="edge1_Node000001_Node000002" class="edge">
<title>Node1&#45;&gt;Node2</title>
<g id="a_edge1_Node000001_Node000002"><a xlink:title=" ">
<path fill="none" stroke="#63b8ff" d="M222.94,-179.5C196.28,-167.27 166.01,-153.38 143.97,-143.27"/>
<polygon fill="#63b8ff" stroke="#63b8ff" points="145.48,-140.11 134.94,-139.12 142.56,-146.47 145.48,-140.11"/>
</a>
</g>
</g>
<!-- Node3 -->
<g id="Node000003" class="node">
<title>Node3</title>
<g id="a_Node000003"><a xlink:href="homewindow_8h.html" target="_top" xlink:title="Описание интерфейса главного окна (класс HomeWindow).">
<polygon fill="white" stroke="#666666" points="278.75,-144 157,-144 157,-112 278.75,-112 278.75,-144"/>
<text text-anchor="start" x="165" y="-130.5" font-family="Arial" font-size="10.00">../../../../../../Client</text>
<text text-anchor="middle" x="217.88" y="-118.5" font-family="Arial" font-size="10.00">Interface/homewindow.h</text>
</a>
</g>
</g>
<!-- Node1&#45;&gt;Node3 -->
<g id="edge2_Node000001_Node000003" class="edge">
<title>Node1&#45;&gt;Node3</title>
<g id="a_edge2_Node000001_Node000003"><a xlink:title=" ">
<path fill="none" stroke="#63b8ff" d="M260.14,-179.72C252.83,-170.94 244.79,-161.3 237.7,-152.79"/>
<polygon fill="#63b8ff" stroke="#63b8ff" points="240.53,-150.71 231.43,-145.27 235.15,-155.19 240.53,-150.71"/>
</a>
</g>
</g>
<!-- Node15 -->
<g id="Node000015" class="node">
<title>Node15</title>
<g id="a_Node000015"><a xlink:title=" ">
<polygon fill="#e0e0e0" stroke="#999999" points="400.75,-138 297,-138 297,-118 400.75,-118 400.75,-138"/>
<text text-anchor="middle" x="348.88" y="-124.5" font-family="Arial" font-size="10.00">QtCore/qbytearray.h</text>
</a>
</g>
</g>
<!-- Node1&#45;&gt;Node15 -->
<g id="edge14_Node000001_Node000015" class="edge">
<title>Node1&#45;&gt;Node15</title>
<g id="a_edge14_Node000001_Node000015"><a xlink:title=" ">
<path fill="none" stroke="#63b8ff" d="M305.96,-179.72C315.1,-168.91 325.37,-156.78 333.56,-147.09"/>
<polygon fill="#63b8ff" stroke="#63b8ff" points="336.19,-149.41 339.98,-139.52 330.85,-144.89 336.19,-149.41"/>
</a>
</g>
</g>
<!-- Node16 -->
<g id="Node000016" class="node">
<title>Node16</title>
<g id="a_Node000016"><a xlink:title=" ">
<polygon fill="#e0e0e0" stroke="#999999" points="523.12,-138 418.62,-138 418.62,-118 523.12,-118 523.12,-138"/>
<text text-anchor="middle" x="470.88" y="-124.5" font-family="Arial" font-size="10.00">QtCore/qmetatype.h</text>
</a>
</g>
</g>
<!-- Node1&#45;&gt;Node16 -->
<g id="edge15_Node000001_Node000016" class="edge">
<title>Node1&#45;&gt;Node16</title>
<g id="a_edge15_Node000001_Node000016"><a xlink:title=" ">
<path fill="none" stroke="#63b8ff" d="M349.16,-179.5C379.04,-167.1 413.03,-153 437.49,-142.85"/>
<polygon fill="#63b8ff" stroke="#63b8ff" points="438.71,-146.14 446.6,-139.07 436.02,-139.67 438.71,-146.14"/>
</a>
</g>
</g>
<!-- Node4 -->
<g id="Node000004" class="node">
<title>Node4</title>
<g id="a_Node000004"><a xlink:title=" ">
<polygon fill="#e0e0e0" stroke="#999999" points="79.75,-76 0,-76 0,-56 79.75,-56 79.75,-76"/>
<text text-anchor="middle" x="39.88" y="-62.5" font-family="Arial" font-size="10.00">QMainWindow</text>
</a>
</g>
</g>
<!-- Node3&#45;&gt;Node4 -->
<g id="edge3_Node000003_Node000004" class="edge">
<title>Node3&#45;&gt;Node4</title>
<g id="a_edge3_Node000003_Node000004"><a xlink:title=" ">
<path fill="none" stroke="#63b8ff" d="M172.04,-111.55C143.16,-101.81 106.27,-89.38 78.82,-80.13"/>
<polygon fill="#63b8ff" stroke="#63b8ff" points="80.08,-76.86 69.48,-76.98 77.84,-83.49 80.08,-76.86"/>
</a>
</g>
</g>
<!-- Node5 -->
<g id="Node000005" class="node">
<title>Node5</title>
<g id="a_Node000005"><a xlink:title=" ">
<polygon fill="#e0e0e0" stroke="#999999" points="178.12,-76 97.62,-76 97.62,-56 178.12,-56 178.12,-76"/>
<text text-anchor="middle" x="137.88" y="-62.5" font-family="Arial" font-size="10.00">QMessageBox</text>
</a>
</g>
</g>
<!-- Node3&#45;&gt;Node5 -->
<g id="edge4_Node000003_Node000005" class="edge">
<title>Node3&#45;&gt;Node5</title>
<g id="a_edge4_Node000003_Node000005"><a xlink:title=" ">
<path fill="none" stroke="#63b8ff" d="M197.27,-111.55C185.7,-102.87 171.27,-92.04 159.53,-83.24"/>
<polygon fill="#63b8ff" stroke="#63b8ff" points="161.73,-80.52 151.63,-77.32 157.53,-86.12 161.73,-80.52"/>
</a>
</g>
</g>
<!-- Node6 -->
<g id="Node000006" class="node">
<title>Node6</title>
<g id="a_Node000006"><a xlink:title=" ">
<polygon fill="#e0e0e0" stroke="#999999" points="239.38,-76 196.38,-76 196.38,-56 239.38,-56 239.38,-76"/>
<text text-anchor="middle" x="217.88" y="-62.5" font-family="Arial" font-size="10.00">cmath</text>
</a>
</g>
</g>
<!-- Node3&#45;&gt;Node6 -->
<g id="edge5_Node000003_Node000006" class="edge">
<title>Node3&#45;&gt;Node6</title>
<g id="a_edge5_Node000003_Node000006"><a xlink:title=" ">
<path fill="none" stroke="#63b8ff" d="M217.88,-111.55C217.88,-104.34 217.88,-95.66 217.88,-87.88"/>
<polygon fill="#63b8ff" stroke="#63b8ff" points="221.38,-87.92 217.88,-77.92 214.38,-87.92 221.38,-87.92"/>
</a>
</g>
</g>
<!-- Node7 -->
<g id="Node000007" class="node">
<title>Node7</title>
<g id="a_Node000007"><a xlink:href="equationsolver_8h.html" target="_top" xlink:title="Решение уравнений итерационными методами">
<polygon fill="white" stroke="#666666" points="344.5,-76 257.25,-76 257.25,-56 344.5,-56 344.5,-76"/>
<text text-anchor="middle" x="300.88" y="-62.5" font-family="Arial" font-size="10.00">equationsolver.h</text>
</a>
</g>
</g>
<!-- Node3&#45;&gt;Node7 -->
<g id="edge6_Node000003_Node000007" class="edge">
<title>Node3&#45;&gt;Node7</title>
<g id="a_edge6_Node000003_Node000007"><a xlink:title=" ">
<path fill="none" stroke="#63b8ff" d="M239.25,-111.55C251.38,-102.78 266.53,-91.83 278.78,-82.97"/>
<polygon fill="#63b8ff" stroke="#63b8ff" points="280.58,-85.99 286.63,-77.29 276.48,-80.32 280.58,-85.99"/>
</a>
</g>
</g>
<!-- Node9 -->
<g id="Node000009" class="node">
<title>Node9</title>
<g id="a_Node000009"><a xlink:href="clientmanager_8h.html" target="_top" xlink:title="Описание класса ClientManager, который управляет клиентским соединением с сервером.">
<polygon fill="white" stroke="#666666" points="518.38,-76 433.38,-76 433.38,-56 518.38,-56 518.38,-76"/>
<text text-anchor="middle" x="475.88" y="-62.5" font-family="Arial" font-size="10.00">clientmanager.h</text>
</a>
</g>
</g>
<!-- Node3&#45;&gt;Node9 -->
<g id="edge8_Node000003_Node000009" class="edge">
<title>Node3&#45;&gt;Node9</title>
<g id="a_edge8_Node000003_Node000009"><a xlink:title=" ">
<path fill="none" stroke="#63b8ff" d="M279.02,-112.78C323.24,-102.5 382.34,-88.75 424.21,-79.01"/>
<polygon fill="#63b8ff" stroke="#63b8ff" points="424.85,-82.46 433.8,-76.79 423.26,-75.64 424.85,-82.46"/>
</a>
</g>
</g>
<!-- Node8 -->
<g id="Node000008" class="node">
<title>Node8</title>
<g id="a_Node000008"><a xlink:title=" ">
<polygon fill="#e0e0e0" stroke="#999999" points="289.38,-20 240.38,-20 240.38,0 289.38,0 289.38,-20"/>
<text text-anchor="middle" x="264.88" y="-6.5" font-family="Arial" font-size="10.00">QString</text>
</a>
</g>
</g>
<!-- Node7&#45;&gt;Node8 -->
<g id="edge7_Node000007_Node000008" class="edge">
<title>Node7&#45;&gt;Node8</title>
<g id="a_edge7_Node000007_Node000008"><a xlink:title=" ">
<path fill="none" stroke="#63b8ff" d="M294.6,-55.59C289.86,-48.47 283.18,-38.45 277.35,-29.72"/>
<polygon fill="#63b8ff" stroke="#63b8ff" points="280.37,-27.94 271.91,-21.56 274.55,-31.82 280.37,-27.94"/>
</a>
</g>
</g>
<!-- Node10 -->
<g id="Node000010" class="node">
<title>Node10</title>
<g id="a_Node000010"><a xlink:title=" ">
<polygon fill="#e0e0e0" stroke="#999999" points="359.88,-20 307.88,-20 307.88,0 359.88,0 359.88,-20"/>
<text text-anchor="middle" x="333.88" y="-6.5" font-family="Arial" font-size="10.00">QObject</text>
</a>
</g>
</g>
<!-- Node9&#45;&gt;Node10 -->
<g id="edge9_Node000009_Node000010" class="edge">
<title>Node9&#45;&gt;Node10</title>
<g id="a_edge9_Node000009_Node000010"><a xlink:title=" ">
<path fill="none" stroke="#63b8ff" d="M451.14,-55.59C428.58,-47.01 394.97,-34.23 369.51,-24.55"/>
<polygon fill="#63b8ff" stroke="#63b8ff" points="370.81,-21.3 360.22,-21.02 368.32,-27.84 370.81,-21.3"/>
</a>
</g>
</g>
<!-- Node11 -->
<g id="Node000011" class="node">
<title>Node11</title>
<g id="a_Node000011"><a xlink:title=" ">
<polygon fill="#e0e0e0" stroke="#999999" points="447.88,-20 377.88,-20 377.88,0 447.88,0 447.88,-20"/>
<text text-anchor="middle" x="412.88" y="-6.5" font-family="Arial" font-size="10.00">QTcpSocket</text>
</a>
</g>
</g>
<!-- Node9&#45;&gt;Node11 -->
<g id="edge10_Node000009_Node000011" class="edge">
<title>Node9&#45;&gt;Node11</title>
<g id="a_edge10_Node000009_Node000011"><a xlink:title=" ">
<path fill="none" stroke="#63b8ff" d="M464.9,-55.59C455.96,-47.93 443.1,-36.91 432.41,-27.75"/>
<polygon fill="#63b8ff" stroke="#63b8ff" points="434.74,-25.13 424.87,-21.28 430.19,-30.45 434.74,-25.13"/>
</a>
</g>
</g>
<!-- Node12 -->
<g id="Node000012" class="node">
<title>Node12</title>
<g id="a_Node000012"><a xlink:title=" ">
<polygon fill="#e0e0e0" stroke="#999999" points="555.62,-20 466.12,-20 466.12,0 555.62,0 555.62,-20"/>
<text text-anchor="middle" x="510.88" y="-6.5" font-family="Arial" font-size="10.00">QJsonDocument</text>
</a>
</g>
</g>
<!-- Node9&#45;&gt;Node12 -->
<g id="edge11_Node000009_Node000012" class="edge">
<title>Node9&#45;&gt;Node12</title>
<g id="a_edge11_Node000009_Node000012"><a xlink:title=" ">
<path fill="none" stroke="#63b8ff" d="M481.97,-55.59C486.59,-48.47 493.08,-38.45 498.74,-29.72"/>
<polygon fill="#63b8ff" stroke="#63b8ff" points="501.52,-31.86 504.03,-21.57 495.65,-28.06 501.52,-31.86"/>
</a>
</g>
</g>
<!-- Node13 -->
<g id="Node000013" class="node">
<title>Node13</title>
<g id="a_Node000013"><a xlink:title=" ">
<polygon fill="#e0e0e0" stroke="#999999" points="646.38,-20 573.38,-20 573.38,0 646.38,0 646.38,-20"/>
<text text-anchor="middle" x="609.88" y="-6.5" font-family="Arial" font-size="10.00">QJsonObject</text>
</a>
</g>
</g>
<!-- Node9&#45;&gt;Node13 -->
<g id="edge12_Node000009_Node000013" class="edge">
<title>Node9&#45;&gt;Node13</title>
<g id="a_edge12_Node000009_Node000013"><a xlink:title=" ">
<path fill="none" stroke="#63b8ff" d="M499.22,-55.59C520.41,-47.05 551.94,-34.35 575.93,-24.68"/>
<polygon fill="#63b8ff" stroke="#63b8ff" points="576.98,-28.03 584.95,-21.05 574.36,-21.54 576.98,-28.03"/>
</a>
</g>
</g>
<!-- Node14 -->
<g id="Node000014" class="node">
<title>Node14</title>
<g id="a_Node000014"><a xlink:title=" ">
<polygon fill="#e0e0e0" stroke="#999999" points="745.12,-20 664.62,-20 664.62,0 745.12,0 745.12,-20"/>
<text text-anchor="middle" x="704.88" y="-6.5" font-family="Arial" font-size="10.00">QHostAddress</text>
</a>
</g>
</g>
<!-- Node9&#45;&gt;Node14 -->
<g id="edge13_Node000009_Node000014" class="edge">
<title>Node9&#45;&gt;Node14</title>
<g id="a_edge13_Node000009_Node000014"><a xlink:title=" ">
<path fill="none" stroke="#63b8ff" d="M516.03,-55.53C554.33,-46.5 612.2,-32.85 653.77,-23.05"/>
<polygon fill="#63b8ff" stroke="#63b8ff" points="654.37,-26.51 663.3,-20.8 652.76,-19.69 654.37,-26.51"/>
</a>
</g>
</g>
</g>
</svg>
