<?xml version="1.0" encoding="UTF-8" standalone="no"?>
<!DOCTYPE svg PUBLIC "-//W3C//DTD SVG 1.1//EN"
 "http://www.w3.org/Graphics/SVG/1.1/DTD/svg11.dtd">
<!-- Generated by graphviz version 12.2.1 (20241206.2353)
 -->
<!-- Title: Server/mytcpserver.h Pages: 1 -->
<svg width="626pt" height="108pt"
 viewBox="0.00 0.00 626.38 108.00" xmlns="http://www.w3.org/2000/svg" xmlns:xlink="http://www.w3.org/1999/xlink">
<g id="graph0" class="graph" transform="scale(1 1) rotate(0) translate(4 104)">
<title>Server/mytcpserver.h</title>
<!-- Node1 -->
<g id="Node000001" class="node">
<title>Node1</title>
<g id="a_Node000001"><a xlink:title="Заголовочный файл для класса MyTcpServer, реализующего TCP&#45;сервер для регистрации и авторизации польз...">
<polygon fill="#999999" stroke="#666666" points="358,-100 248.25,-100 248.25,-80 358,-80 358,-100"/>
<text text-anchor="middle" x="303.12" y="-86.5" font-family="Arial" font-size="10.00">Server/mytcpserver.h</text>
</a>
</g>
</g>
<!-- Node2 -->
<g id="Node000002" class="node">
<title>Node2</title>
<g id="a_Node000002"><a xlink:href="build_2_desktop___qt__6__8__2___min_g_w__64__bit-_debug_2debug_2moc___my_tcp_server_8cpp.html" target="_top" xlink:title="Автоматически сгенерированный файл метаобъекта для класса MyTcpServer.">
<polygon fill="white" stroke="#666666" points="180.25,-44 0,-44 0,0 180.25,0 180.25,-44"/>
<text text-anchor="start" x="8" y="-30.5" font-family="Arial" font-size="10.00">Server/build/Desktop</text>
<text text-anchor="start" x="8" y="-18.5" font-family="Arial" font-size="10.00">_Qt_6_8_2_MinGW_64_bit</text>
<text text-anchor="middle" x="90.12" y="-6.5" font-family="Arial" font-size="10.00">&#45;Debug/debug/moc_MyTcpServer.cpp</text>
</a>
</g>
</g>
<!-- Node1&#45;&gt;Node2 -->
<g id="edge1_Node000001_Node000002" class="edge">
<title>Node1&#45;&gt;Node2</title>
<g id="a_edge1_Node000001_Node000002"><a xlink:title=" ">
<path fill="none" stroke="#63b8ff" d="M261.63,-76.14C232.57,-67.14 193.06,-54.89 159.28,-44.43"/>
<polygon fill="#63b8ff" stroke="#63b8ff" points="260.57,-79.48 271.16,-79.1 262.65,-72.79 260.57,-79.48"/>
</a>
</g>
</g>
<!-- Node3 -->
<g id="Node000003" class="node">
<title>Node3</title>
<g id="a_Node000003"><a xlink:href="_server_2main_8cpp.html" target="_top" xlink:title="Основной файл запуска сервера.">
<polygon fill="white" stroke="#666666" points="285.75,-32 198.5,-32 198.5,-12 285.75,-12 285.75,-32"/>
<text text-anchor="middle" x="242.12" y="-18.5" font-family="Arial" font-size="10.00">Server/main.cpp</text>
</a>
</g>
</g>
<!-- Node1&#45;&gt;Node3 -->
<g id="edge2_Node000001_Node000003" class="edge">
<title>Node1&#45;&gt;Node3</title>
<g id="a_edge2_Node000001_Node000003"><a xlink:title=" ">
<path fill="none" stroke="#63b8ff" d="M286.72,-71.25C275.17,-58.76 260.17,-42.53 250.85,-32.44"/>
<polygon fill="#63b8ff" stroke="#63b8ff" points="284,-73.46 293.36,-78.43 289.14,-68.71 284,-73.46"/>
</a>
</g>
</g>
<!-- Node4 -->
<g id="Node000004" class="node">
<title>Node4</title>
<g id="a_Node000004"><a xlink:href="mytcpserver_8cpp.html" target="_top" xlink:title="Реализация TCP сервера для регистрации, аутентификации, восстановления пароля и решения уравнений.">
<polygon fill="white" stroke="#666666" points="424.25,-32 304,-32 304,-12 424.25,-12 424.25,-32"/>
<text text-anchor="middle" x="364.12" y="-18.5" font-family="Arial" font-size="10.00">Server/mytcpserver.cpp</text>
</a>
</g>
</g>
<!-- Node1&#45;&gt;Node4 -->
<g id="edge3_Node000001_Node000004" class="edge">
<title>Node1&#45;&gt;Node4</title>
<g id="a_edge3_Node000001_Node000004"><a xlink:title=" ">
<path fill="none" stroke="#63b8ff" d="M319.53,-71.25C331.08,-58.76 346.08,-42.53 355.4,-32.44"/>
<polygon fill="#63b8ff" stroke="#63b8ff" points="317.11,-68.71 312.89,-78.43 322.25,-73.46 317.11,-68.71"/>
</a>
</g>
</g>
<!-- Node5 -->
<g id="Node000005" class="node">
<title>Node5</title>
<g id="a_Node000005"><a xlink:href="ests_2build_2_desktop___qt__6__8__2___min_g_w__64__bit-_debug_2debug_2moc___my_tcp_server_8cpp.html" target="_top" xlink:title="Автоматически сгенерированный файл метаобъекта для класса MyTcpServer.">
<polygon fill="white" stroke="#666666" points="618.38,-44 441.88,-44 441.88,0 618.38,0 618.38,-44"/>
<text text-anchor="start" x="449.88" y="-30.5" font-family="Arial" font-size="10.00">ServerTests/build/Desktop</text>
<text text-anchor="start" x="449.88" y="-18.5" font-family="Arial" font-size="10.00">_Qt_6_8_2_MinGW_64_bit</text>
<text text-anchor="middle" x="530.12" y="-6.5" font-family="Arial" font-size="10.00">&#45;Debug/debug/moc_mytcpserver.cpp</text>
</a>
</g>
</g>
<!-- Node1&#45;&gt;Node5 -->
<g id="edge4_Node000001_Node000005" class="edge">
<title>Node1&#45;&gt;Node5</title>
<g id="a_edge4_Node000001_Node000005"><a xlink:title=" ">
<path fill="none" stroke="#63b8ff" d="M346.53,-76.38C377.57,-67.35 420.11,-54.99 456.42,-44.43"/>
<polygon fill="#63b8ff" stroke="#63b8ff" points="345.73,-72.97 337.1,-79.12 347.68,-79.69 345.73,-72.97"/>
</a>
</g>
</g>
</g>
</svg>
