<?xml version="1.0" encoding="UTF-8" standalone="no"?>
<!DOCTYPE svg PUBLIC "-//W3C//DTD SVG 1.1//EN"
 "http://www.w3.org/Graphics/SVG/1.1/DTD/svg11.dtd">
<!-- Generated by graphviz version 12.2.1 (20241206.2353)
 -->
<!-- Title: Server/mytcpserver.cpp Pages: 1 -->
<svg width="1681pt" height="196pt"
 viewBox="0.00 0.00 1680.75 196.00" xmlns="http://www.w3.org/2000/svg" xmlns:xlink="http://www.w3.org/1999/xlink">
<g id="graph0" class="graph" transform="scale(1 1) rotate(0) translate(4 192)">
<title>Server/mytcpserver.cpp</title>
<!-- Node1 -->
<g id="Node000001" class="node">
<title>Node1</title>
<g id="a_Node000001"><a xlink:title="Реализация TCP сервера для регистрации, аутентификации, восстановления пароля и решения уравнений.">
<polygon fill="#999999" stroke="#666666" points="1187.62,-188 1067.38,-188 1067.38,-168 1187.62,-168 1187.62,-188"/>
<text text-anchor="middle" x="1127.5" y="-174.5" font-family="Arial" font-size="10.00">Server/mytcpserver.cpp</text>
</a>
</g>
</g>
<!-- Node2 -->
<g id="Node000002" class="node">
<title>Node2</title>
<g id="a_Node000002"><a xlink:href="mytcpserver_8h.html" target="_top" xlink:title="Заголовочный файл для класса MyTcpServer, реализующего TCP&#45;сервер для регистрации и авторизации польз...">
<polygon fill="white" stroke="#666666" points="654.62,-132 576.38,-132 576.38,-112 654.62,-112 654.62,-132"/>
<text text-anchor="middle" x="615.5" y="-118.5" font-family="Arial" font-size="10.00">mytcpserver.h</text>
</a>
</g>
</g>
<!-- Node1&#45;&gt;Node2 -->
<g id="edge1_Node000001_Node000002" class="edge">
<title>Node1&#45;&gt;Node2</title>
<g id="a_edge1_Node000001_Node000002"><a xlink:title=" ">
<path fill="none" stroke="#63b8ff" d="M1067.01,-170.62C965.15,-159.88 761.23,-138.37 666.3,-128.36"/>
<polygon fill="#63b8ff" stroke="#63b8ff" points="666.82,-124.89 656.51,-127.32 666.08,-131.85 666.82,-124.89"/>
</a>
</g>
</g>
<!-- Node7 -->
<g id="Node000007" class="node">
<title>Node7</title>
<g id="a_Node000007"><a xlink:title=" ">
<polygon fill="#e0e0e0" stroke="#999999" points="67,-76 0,-76 0,-56 67,-56 67,-76"/>
<text text-anchor="middle" x="33.5" y="-62.5" font-family="Arial" font-size="10.00">QByteArray</text>
</a>
</g>
</g>
<!-- Node1&#45;&gt;Node7 -->
<g id="edge22_Node000001_Node000007" class="edge">
<title>Node1&#45;&gt;Node7</title>
<g id="a_edge22_Node000001_Node000007"><a xlink:title=" ">
<path fill="none" stroke="#63b8ff" d="M1066.95,-174.01C906.73,-165.5 458.5,-137.78 78.59,-76.38"/>
<polygon fill="#63b8ff" stroke="#63b8ff" points="79.3,-72.95 68.87,-74.8 78.17,-79.86 79.3,-72.95"/>
</a>
</g>
</g>
<!-- Node8 -->
<g id="Node000008" class="node">
<title>Node8</title>
<g id="a_Node000008"><a xlink:title=" ">
<polygon fill="#e0e0e0" stroke="#999999" points="928.5,-76 876.5,-76 876.5,-56 928.5,-56 928.5,-76"/>
<text text-anchor="middle" x="902.5" y="-62.5" font-family="Arial" font-size="10.00">QDebug</text>
</a>
</g>
</g>
<!-- Node1&#45;&gt;Node8 -->
<g id="edge14_Node000001_Node000008" class="edge">
<title>Node1&#45;&gt;Node8</title>
<g id="a_edge14_Node000001_Node000008"><a xlink:title=" ">
<path fill="none" stroke="#63b8ff" d="M1101.51,-167.58C1078.74,-159.07 1044.94,-145.8 1016.5,-132 984.86,-116.65 949.93,-96.18 927.18,-82.34"/>
<polygon fill="#63b8ff" stroke="#63b8ff" points="929.28,-79.53 918.93,-77.29 925.63,-85.5 929.28,-79.53"/>
</a>
</g>
</g>
<!-- Node13 -->
<g id="Node000013" class="node">
<title>Node13</title>
<g id="a_Node000013"><a xlink:href="equationsolver_8h.html" target="_top" xlink:title="Решение уравнений итерационными методами">
<polygon fill="white" stroke="#666666" points="1034.12,-76 946.88,-76 946.88,-56 1034.12,-56 1034.12,-76"/>
<text text-anchor="middle" x="990.5" y="-62.5" font-family="Arial" font-size="10.00">equationsolver.h</text>
</a>
</g>
</g>
<!-- Node1&#45;&gt;Node13 -->
<g id="edge19_Node000001_Node000013" class="edge">
<title>Node1&#45;&gt;Node13</title>
<g id="a_edge19_Node000001_Node000013"><a xlink:title=" ">
<path fill="none" stroke="#63b8ff" d="M1101.79,-167.5C1083.19,-159.81 1058.16,-147.67 1039.5,-132 1023.98,-118.96 1010.47,-100.13 1001.59,-86.09"/>
<polygon fill="#63b8ff" stroke="#63b8ff" points="1004.71,-84.48 996.53,-77.75 998.73,-88.12 1004.71,-84.48"/>
</a>
</g>
</g>
<!-- Node14 -->
<g id="Node000014" class="node">
<title>Node14</title>
<g id="a_Node000014"><a xlink:title=" ">
<polygon fill="#e0e0e0" stroke="#999999" points="1051,-20 1002,-20 1002,0 1051,0 1051,-20"/>
<text text-anchor="middle" x="1026.5" y="-6.5" font-family="Arial" font-size="10.00">QString</text>
</a>
</g>
</g>
<!-- Node1&#45;&gt;Node14 -->
<g id="edge16_Node000001_Node000014" class="edge">
<title>Node1&#45;&gt;Node14</title>
<g id="a_edge16_Node000001_Node000014"><a xlink:title=" ">
<path fill="none" stroke="#63b8ff" d="M1112.09,-167.64C1099.89,-159.54 1083.17,-146.82 1072.5,-132 1072.11,-131.46 1047.06,-65.32 1034.09,-31.07"/>
<polygon fill="#63b8ff" stroke="#63b8ff" points="1037.42,-29.97 1030.61,-21.86 1030.87,-32.45 1037.42,-29.97"/>
</a>
</g>
</g>
<!-- Node15 -->
<g id="Node000015" class="node">
<title>Node15</title>
<g id="a_Node000015"><a xlink:title=" ">
<polygon fill="#e0e0e0" stroke="#999999" points="1173.75,-132 1081.25,-132 1081.25,-112 1173.75,-112 1173.75,-132"/>
<text text-anchor="middle" x="1127.5" y="-118.5" font-family="Arial" font-size="10.00">QCoreApplication</text>
</a>
</g>
</g>
<!-- Node1&#45;&gt;Node15 -->
<g id="edge15_Node000001_Node000015" class="edge">
<title>Node1&#45;&gt;Node15</title>
<g id="a_edge15_Node000001_Node000015"><a xlink:title=" ">
<path fill="none" stroke="#63b8ff" d="M1127.5,-167.59C1127.5,-161.01 1127.5,-151.96 1127.5,-143.73"/>
<polygon fill="#63b8ff" stroke="#63b8ff" points="1131,-143.81 1127.5,-133.81 1124,-143.81 1131,-143.81"/>
</a>
</g>
</g>
<!-- Node16 -->
<g id="Node000016" class="node">
<title>Node16</title>
<g id="a_Node000016"><a xlink:title=" ">
<polygon fill="#e0e0e0" stroke="#999999" points="1281.25,-132 1191.75,-132 1191.75,-112 1281.25,-112 1281.25,-132"/>
<text text-anchor="middle" x="1236.5" y="-118.5" font-family="Arial" font-size="10.00">QJsonDocument</text>
</a>
</g>
</g>
<!-- Node1&#45;&gt;Node16 -->
<g id="edge17_Node000001_Node000016" class="edge">
<title>Node1&#45;&gt;Node16</title>
<g id="a_edge17_Node000001_Node000016"><a xlink:title=" ">
<path fill="none" stroke="#63b8ff" d="M1146.49,-167.59C1163.26,-159.28 1187.99,-147.03 1207.29,-137.47"/>
<polygon fill="#63b8ff" stroke="#63b8ff" points="1208.6,-140.73 1216.01,-133.15 1205.49,-134.45 1208.6,-140.73"/>
</a>
</g>
</g>
<!-- Node17 -->
<g id="Node000017" class="node">
<title>Node17</title>
<g id="a_Node000017"><a xlink:title=" ">
<polygon fill="#e0e0e0" stroke="#999999" points="1372,-132 1299,-132 1299,-112 1372,-112 1372,-132"/>
<text text-anchor="middle" x="1335.5" y="-118.5" font-family="Arial" font-size="10.00">QJsonObject</text>
</a>
</g>
</g>
<!-- Node1&#45;&gt;Node17 -->
<g id="edge18_Node000001_Node000017" class="edge">
<title>Node1&#45;&gt;Node17</title>
<g id="a_edge18_Node000001_Node000017"><a xlink:title=" ">
<path fill="none" stroke="#63b8ff" d="M1163.73,-167.59C1198.27,-158.63 1250.46,-145.08 1288.25,-135.27"/>
<polygon fill="#63b8ff" stroke="#63b8ff" points="1288.72,-138.76 1297.52,-132.86 1286.96,-131.99 1288.72,-138.76"/>
</a>
</g>
</g>
<!-- Node18 -->
<g id="Node000018" class="node">
<title>Node18</title>
<g id="a_Node000018"><a xlink:title=" ">
<polygon fill="#e0e0e0" stroke="#999999" points="1493,-132 1390,-132 1390,-112 1493,-112 1493,-132"/>
<text text-anchor="middle" x="1441.5" y="-118.5" font-family="Arial" font-size="10.00">QRandomGenerator</text>
</a>
</g>
</g>
<!-- Node1&#45;&gt;Node18 -->
<g id="edge20_Node000001_Node000018" class="edge">
<title>Node1&#45;&gt;Node18</title>
<g id="a_edge20_Node000001_Node000018"><a xlink:title=" ">
<path fill="none" stroke="#63b8ff" d="M1182.55,-167.53C1237.3,-158.12 1321.18,-143.69 1378.54,-133.83"/>
<polygon fill="#63b8ff" stroke="#63b8ff" points="1378.89,-137.32 1388.15,-132.17 1377.7,-130.42 1378.89,-137.32"/>
</a>
</g>
</g>
<!-- Node19 -->
<g id="Node000019" class="node">
<title>Node19</title>
<g id="a_Node000019"><a xlink:title=" ">
<polygon fill="#e0e0e0" stroke="#999999" points="1579.75,-132 1511.25,-132 1511.25,-112 1579.75,-112 1579.75,-132"/>
<text text-anchor="middle" x="1545.5" y="-118.5" font-family="Arial" font-size="10.00">QSslSocket</text>
</a>
</g>
</g>
<!-- Node1&#45;&gt;Node19 -->
<g id="edge21_Node000001_Node000019" class="edge">
<title>Node1&#45;&gt;Node19</title>
<g id="a_edge21_Node000001_Node000019"><a xlink:title=" ">
<path fill="none" stroke="#63b8ff" d="M1187.8,-171.39C1259.77,-164.34 1383.95,-151.02 1499.65,-132.35"/>
<polygon fill="#63b8ff" stroke="#63b8ff" points="1500.02,-135.84 1509.32,-130.77 1498.89,-128.93 1500.02,-135.84"/>
</a>
</g>
</g>
<!-- Node20 -->
<g id="Node000020" class="node">
<title>Node20</title>
<g id="a_Node000020"><a xlink:title=" ">
<polygon fill="#e0e0e0" stroke="#999999" points="1672.75,-132 1598.25,-132 1598.25,-112 1672.75,-112 1672.75,-132"/>
<text text-anchor="middle" x="1635.5" y="-118.5" font-family="Arial" font-size="10.00">QtConcurrent</text>
</a>
</g>
</g>
<!-- Node1&#45;&gt;Node20 -->
<g id="edge23_Node000001_Node000020" class="edge">
<title>Node1&#45;&gt;Node20</title>
<g id="a_edge23_Node000001_Node000020"><a xlink:title=" ">
<path fill="none" stroke="#63b8ff" d="M1188.12,-172.87C1274.31,-166.6 1437.42,-153.28 1586.66,-132.13"/>
<polygon fill="#63b8ff" stroke="#63b8ff" points="1586.94,-135.63 1596.34,-130.74 1585.95,-128.7 1586.94,-135.63"/>
</a>
</g>
</g>
<!-- Node3 -->
<g id="Node000003" class="node">
<title>Node3</title>
<g id="a_Node000003"><a xlink:title=" ">
<polygon fill="#e0e0e0" stroke="#999999" points="602.5,-76 550.5,-76 550.5,-56 602.5,-56 602.5,-76"/>
<text text-anchor="middle" x="576.5" y="-62.5" font-family="Arial" font-size="10.00">QObject</text>
</a>
</g>
</g>
<!-- Node2&#45;&gt;Node3 -->
<g id="edge2_Node000002_Node000003" class="edge">
<title>Node2&#45;&gt;Node3</title>
<g id="a_edge2_Node000002_Node000003"><a xlink:title=" ">
<path fill="none" stroke="#63b8ff" d="M608.71,-111.59C603.51,-104.39 596.17,-94.23 589.81,-85.43"/>
<polygon fill="#63b8ff" stroke="#63b8ff" points="592.79,-83.58 584.1,-77.53 587.12,-87.68 592.79,-83.58"/>
</a>
</g>
</g>
<!-- Node4 -->
<g id="Node000004" class="node">
<title>Node4</title>
<g id="a_Node000004"><a xlink:title=" ">
<polygon fill="#e0e0e0" stroke="#999999" points="688.38,-76 620.62,-76 620.62,-56 688.38,-56 688.38,-76"/>
<text text-anchor="middle" x="654.5" y="-62.5" font-family="Arial" font-size="10.00">QTcpServer</text>
</a>
</g>
</g>
<!-- Node2&#45;&gt;Node4 -->
<g id="edge3_Node000002_Node000004" class="edge">
<title>Node2&#45;&gt;Node4</title>
<g id="a_edge3_Node000002_Node000004"><a xlink:title=" ">
<path fill="none" stroke="#63b8ff" d="M622.29,-111.59C627.49,-104.39 634.83,-94.23 641.19,-85.43"/>
<polygon fill="#63b8ff" stroke="#63b8ff" points="643.88,-87.68 646.9,-77.53 638.21,-83.58 643.88,-87.68"/>
</a>
</g>
</g>
<!-- Node5 -->
<g id="Node000005" class="node">
<title>Node5</title>
<g id="a_Node000005"><a xlink:title=" ">
<polygon fill="#e0e0e0" stroke="#999999" points="776.5,-76 706.5,-76 706.5,-56 776.5,-56 776.5,-76"/>
<text text-anchor="middle" x="741.5" y="-62.5" font-family="Arial" font-size="10.00">QTcpSocket</text>
</a>
</g>
</g>
<!-- Node2&#45;&gt;Node5 -->
<g id="edge4_Node000002_Node000005" class="edge">
<title>Node2&#45;&gt;Node5</title>
<g id="a_edge4_Node000002_Node000005"><a xlink:title=" ">
<path fill="none" stroke="#63b8ff" d="M637.45,-111.59C657.2,-103.13 686.49,-90.58 708.97,-80.94"/>
<polygon fill="#63b8ff" stroke="#63b8ff" points="710.18,-84.23 717.99,-77.08 707.42,-77.8 710.18,-84.23"/>
</a>
</g>
</g>
<!-- Node6 -->
<g id="Node000006" class="node">
<title>Node6</title>
<g id="a_Node000006"><a xlink:title=" ">
<polygon fill="#e0e0e0" stroke="#999999" points="858.12,-76 794.88,-76 794.88,-56 858.12,-56 858.12,-76"/>
<text text-anchor="middle" x="826.5" y="-62.5" font-family="Arial" font-size="10.00">QtNetwork</text>
</a>
</g>
</g>
<!-- Node2&#45;&gt;Node6 -->
<g id="edge5_Node000002_Node000006" class="edge">
<title>Node2&#45;&gt;Node6</title>
<g id="a_edge5_Node000002_Node000006"><a xlink:title=" ">
<path fill="none" stroke="#63b8ff" d="M652.25,-111.59C688.9,-102.22 745.14,-87.82 783.76,-77.94"/>
<polygon fill="#63b8ff" stroke="#63b8ff" points="784.36,-81.4 793.18,-75.53 782.63,-74.62 784.36,-81.4"/>
</a>
</g>
</g>
<!-- Node2&#45;&gt;Node7 -->
<g id="edge6_Node000002_Node000007" class="edge">
<title>Node2&#45;&gt;Node7</title>
<g id="a_edge6_Node000002_Node000007"><a xlink:title=" ">
<path fill="none" stroke="#63b8ff" d="M576,-119.44C488.22,-115.61 270.13,-104.03 78.49,-76.28"/>
<polygon fill="#63b8ff" stroke="#63b8ff" points="79.26,-72.85 68.86,-74.86 78.24,-79.78 79.26,-72.85"/>
</a>
</g>
</g>
<!-- Node2&#45;&gt;Node8 -->
<g id="edge7_Node000002_Node000008" class="edge">
<title>Node2&#45;&gt;Node8</title>
<g id="a_edge7_Node000002_Node000008"><a xlink:title=" ">
<path fill="none" stroke="#63b8ff" d="M654.96,-114.89C702.59,-107.32 785.31,-93.5 865.41,-76.33"/>
<polygon fill="#63b8ff" stroke="#63b8ff" points="865.67,-79.85 874.7,-74.31 864.18,-73.01 865.67,-79.85"/>
</a>
</g>
</g>
<!-- Node9 -->
<g id="Node000009" class="node">
<title>Node9</title>
<g id="a_Node000009"><a xlink:title=" ">
<polygon fill="#e0e0e0" stroke="#999999" points="192.25,-76 84.75,-76 84.75,-56 192.25,-56 192.25,-76"/>
<text text-anchor="middle" x="138.5" y="-62.5" font-family="Arial" font-size="10.00">QtSql/QSqlDatabase</text>
</a>
</g>
</g>
<!-- Node2&#45;&gt;Node9 -->
<g id="edge8_Node000002_Node000009" class="edge">
<title>Node2&#45;&gt;Node9</title>
<g id="a_edge8_Node000002_Node000009"><a xlink:title=" ">
<path fill="none" stroke="#63b8ff" d="M576.06,-117.16C504.26,-110.07 347.12,-94.11 203.63,-76.23"/>
<polygon fill="#63b8ff" stroke="#63b8ff" points="204.3,-72.79 193.94,-75.02 203.43,-79.73 204.3,-72.79"/>
</a>
</g>
</g>
<!-- Node10 -->
<g id="Node000010" class="node">
<title>Node10</title>
<g id="a_Node000010"><a xlink:title=" ">
<polygon fill="#e0e0e0" stroke="#999999" points="302.38,-76 210.62,-76 210.62,-56 302.38,-56 302.38,-76"/>
<text text-anchor="middle" x="256.5" y="-62.5" font-family="Arial" font-size="10.00">QtSql/QSqlQuery</text>
</a>
</g>
</g>
<!-- Node2&#45;&gt;Node10 -->
<g id="edge9_Node000002_Node000010" class="edge">
<title>Node2&#45;&gt;Node10</title>
<g id="a_edge9_Node000002_Node000010"><a xlink:title=" ">
<path fill="none" stroke="#63b8ff" d="M576.12,-115.37C520.23,-107.33 414.4,-91.95 313.97,-76.37"/>
<polygon fill="#63b8ff" stroke="#63b8ff" points="314.62,-72.92 304.2,-74.85 313.54,-79.84 314.62,-72.92"/>
</a>
</g>
</g>
<!-- Node11 -->
<g id="Node000011" class="node">
<title>Node11</title>
<g id="a_Node000011"><a xlink:title=" ">
<polygon fill="#e0e0e0" stroke="#999999" points="406.75,-76 320.25,-76 320.25,-56 406.75,-56 406.75,-76"/>
<text text-anchor="middle" x="363.5" y="-62.5" font-family="Arial" font-size="10.00">QtSql/QSqlError</text>
</a>
</g>
</g>
<!-- Node2&#45;&gt;Node11 -->
<g id="edge10_Node000002_Node000011" class="edge">
<title>Node2&#45;&gt;Node11</title>
<g id="a_edge10_Node000002_Node000011"><a xlink:title=" ">
<path fill="none" stroke="#63b8ff" d="M576.12,-112.56C533.58,-103.45 465.49,-88.85 417.86,-78.65"/>
<polygon fill="#63b8ff" stroke="#63b8ff" points="418.81,-75.27 408.3,-76.6 417.34,-82.12 418.81,-75.27"/>
</a>
</g>
</g>
<!-- Node12 -->
<g id="Node000012" class="node">
<title>Node12</title>
<g id="a_Node000012"><a xlink:title=" ">
<polygon fill="#e0e0e0" stroke="#999999" points="532.25,-76 424.75,-76 424.75,-56 532.25,-56 532.25,-76"/>
<text text-anchor="middle" x="478.5" y="-62.5" font-family="Arial" font-size="10.00">QCryptographicHash</text>
</a>
</g>
</g>
<!-- Node2&#45;&gt;Node12 -->
<g id="edge11_Node000002_Node000012" class="edge">
<title>Node2&#45;&gt;Node12</title>
<g id="a_edge11_Node000002_Node000012"><a xlink:title=" ">
<path fill="none" stroke="#63b8ff" d="M591.64,-111.59C569.96,-103.05 537.73,-90.35 513.21,-80.68"/>
<polygon fill="#63b8ff" stroke="#63b8ff" points="514.54,-77.45 503.96,-77.03 511.98,-83.96 514.54,-77.45"/>
</a>
</g>
</g>
<!-- Node2&#45;&gt;Node13 -->
<g id="edge12_Node000002_Node000013" class="edge">
<title>Node2&#45;&gt;Node13</title>
<g id="a_edge12_Node000002_Node000013"><a xlink:title=" ">
<path fill="none" stroke="#63b8ff" d="M654.71,-115.9C713.38,-108.18 827.77,-92.82 935.49,-76.27"/>
<polygon fill="#63b8ff" stroke="#63b8ff" points="935.71,-79.78 945.06,-74.8 934.64,-72.86 935.71,-79.78"/>
</a>
</g>
</g>
<!-- Node13&#45;&gt;Node14 -->
<g id="edge13_Node000013_Node000014" class="edge">
<title>Node13&#45;&gt;Node14</title>
<g id="a_edge13_Node000013_Node000014"><a xlink:title=" ">
<path fill="none" stroke="#63b8ff" d="M996.77,-55.59C1001.52,-48.47 1008.2,-38.45 1014.02,-29.72"/>
<polygon fill="#63b8ff" stroke="#63b8ff" points="1016.83,-31.82 1019.46,-21.56 1011,-27.94 1016.83,-31.82"/>
</a>
</g>
</g>
</g>
</svg>
