<?xml version="1.0" encoding="UTF-8" standalone="no"?>
<!DOCTYPE svg PUBLIC "-//W3C//DTD SVG 1.1//EN"
 "http://www.w3.org/Graphics/SVG/1.1/DTD/svg11.dtd">
<!-- Generated by graphviz version 12.2.1 (20241206.2353)
 -->
<!-- Title: Server/mytcpserver.h Pages: 1 -->
<svg width="1042pt" height="140pt"
 viewBox="0.00 0.00 1041.62 140.00" xmlns="http://www.w3.org/2000/svg" xmlns:xlink="http://www.w3.org/1999/xlink">
<g id="graph0" class="graph" transform="scale(1 1) rotate(0) translate(4 136)">
<title>Server/mytcpserver.h</title>
<!-- Node1 -->
<g id="Node000001" class="node">
<title>Node1</title>
<g id="a_Node000001"><a xlink:title="Заголовочный файл для класса MyTcpServer, реализующего TCP&#45;сервер для регистрации и авторизации польз...">
<polygon fill="#999999" stroke="#666666" points="491.88,-132 382.12,-132 382.12,-112 491.88,-112 491.88,-132"/>
<text text-anchor="middle" x="437" y="-118.5" font-family="Arial" font-size="10.00">Server/mytcpserver.h</text>
</a>
</g>
</g>
<!-- Node2 -->
<g id="Node000002" class="node">
<title>Node2</title>
<g id="a_Node000002"><a xlink:title=" ">
<polygon fill="#e0e0e0" stroke="#999999" points="52,-76 0,-76 0,-56 52,-56 52,-76"/>
<text text-anchor="middle" x="26" y="-62.5" font-family="Arial" font-size="10.00">QObject</text>
</a>
</g>
</g>
<!-- Node1&#45;&gt;Node2 -->
<g id="edge1_Node000001_Node000002" class="edge">
<title>Node1&#45;&gt;Node2</title>
<g id="a_edge1_Node000001_Node000002"><a xlink:title=" ">
<path fill="none" stroke="#63b8ff" d="M381.86,-116.71C310.49,-110.64 182.15,-98 63.38,-76.23"/>
<polygon fill="#63b8ff" stroke="#63b8ff" points="64.25,-72.83 53.78,-74.44 62.97,-79.71 64.25,-72.83"/>
</a>
</g>
</g>
<!-- Node3 -->
<g id="Node000003" class="node">
<title>Node3</title>
<g id="a_Node000003"><a xlink:title=" ">
<polygon fill="#e0e0e0" stroke="#999999" points="137.88,-76 70.12,-76 70.12,-56 137.88,-56 137.88,-76"/>
<text text-anchor="middle" x="104" y="-62.5" font-family="Arial" font-size="10.00">QTcpServer</text>
</a>
</g>
</g>
<!-- Node1&#45;&gt;Node3 -->
<g id="edge2_Node000001_Node000003" class="edge">
<title>Node1&#45;&gt;Node3</title>
<g id="a_edge2_Node000001_Node000003"><a xlink:title=" ">
<path fill="none" stroke="#63b8ff" d="M381.8,-113.31C325.75,-105.31 236.18,-91.98 149.36,-76.35"/>
<polygon fill="#63b8ff" stroke="#63b8ff" points="150.19,-72.95 139.73,-74.6 148.94,-79.83 150.19,-72.95"/>
</a>
</g>
</g>
<!-- Node4 -->
<g id="Node000004" class="node">
<title>Node4</title>
<g id="a_Node000004"><a xlink:title=" ">
<polygon fill="#e0e0e0" stroke="#999999" points="226,-76 156,-76 156,-56 226,-56 226,-76"/>
<text text-anchor="middle" x="191" y="-62.5" font-family="Arial" font-size="10.00">QTcpSocket</text>
</a>
</g>
</g>
<!-- Node1&#45;&gt;Node4 -->
<g id="edge3_Node000001_Node000004" class="edge">
<title>Node1&#45;&gt;Node4</title>
<g id="a_edge3_Node000001_Node000004"><a xlink:title=" ">
<path fill="none" stroke="#63b8ff" d="M393.87,-111.53C350.14,-101.93 282.67,-87.12 237.7,-77.25"/>
<polygon fill="#63b8ff" stroke="#63b8ff" points="238.49,-73.84 227.97,-75.12 236.99,-80.68 238.49,-73.84"/>
</a>
</g>
</g>
<!-- Node5 -->
<g id="Node000005" class="node">
<title>Node5</title>
<g id="a_Node000005"><a xlink:title=" ">
<polygon fill="#e0e0e0" stroke="#999999" points="307.62,-76 244.38,-76 244.38,-56 307.62,-56 307.62,-76"/>
<text text-anchor="middle" x="276" y="-62.5" font-family="Arial" font-size="10.00">QtNetwork</text>
</a>
</g>
</g>
<!-- Node1&#45;&gt;Node5 -->
<g id="edge4_Node000001_Node000005" class="edge">
<title>Node1&#45;&gt;Node5</title>
<g id="a_edge4_Node000001_Node000005"><a xlink:title=" ">
<path fill="none" stroke="#63b8ff" d="M408.96,-111.59C382.91,-102.86 343.9,-89.77 314.86,-80.03"/>
<polygon fill="#63b8ff" stroke="#63b8ff" points="316.29,-76.82 305.7,-76.96 314.07,-83.46 316.29,-76.82"/>
</a>
</g>
</g>
<!-- Node6 -->
<g id="Node000006" class="node">
<title>Node6</title>
<g id="a_Node000006"><a xlink:title=" ">
<polygon fill="#e0e0e0" stroke="#999999" points="392.5,-76 325.5,-76 325.5,-56 392.5,-56 392.5,-76"/>
<text text-anchor="middle" x="359" y="-62.5" font-family="Arial" font-size="10.00">QByteArray</text>
</a>
</g>
</g>
<!-- Node1&#45;&gt;Node6 -->
<g id="edge5_Node000001_Node000006" class="edge">
<title>Node1&#45;&gt;Node6</title>
<g id="a_edge5_Node000001_Node000006"><a xlink:title=" ">
<path fill="none" stroke="#63b8ff" d="M423.41,-111.59C411.96,-103.67 395.34,-92.16 381.84,-82.82"/>
<polygon fill="#63b8ff" stroke="#63b8ff" points="384.15,-80.16 373.94,-77.34 380.17,-85.91 384.15,-80.16"/>
</a>
</g>
</g>
<!-- Node7 -->
<g id="Node000007" class="node">
<title>Node7</title>
<g id="a_Node000007"><a xlink:title=" ">
<polygon fill="#e0e0e0" stroke="#999999" points="463,-76 411,-76 411,-56 463,-56 463,-76"/>
<text text-anchor="middle" x="437" y="-62.5" font-family="Arial" font-size="10.00">QDebug</text>
</a>
</g>
</g>
<!-- Node1&#45;&gt;Node7 -->
<g id="edge6_Node000001_Node000007" class="edge">
<title>Node1&#45;&gt;Node7</title>
<g id="a_edge6_Node000001_Node000007"><a xlink:title=" ">
<path fill="none" stroke="#63b8ff" d="M437,-111.59C437,-105.01 437,-95.96 437,-87.73"/>
<polygon fill="#63b8ff" stroke="#63b8ff" points="440.5,-87.81 437,-77.81 433.5,-87.81 440.5,-87.81"/>
</a>
</g>
</g>
<!-- Node8 -->
<g id="Node000008" class="node">
<title>Node8</title>
<g id="a_Node000008"><a xlink:title=" ">
<polygon fill="#e0e0e0" stroke="#999999" points="588.75,-76 481.25,-76 481.25,-56 588.75,-56 588.75,-76"/>
<text text-anchor="middle" x="535" y="-62.5" font-family="Arial" font-size="10.00">QtSql/QSqlDatabase</text>
</a>
</g>
</g>
<!-- Node1&#45;&gt;Node8 -->
<g id="edge7_Node000001_Node000008" class="edge">
<title>Node1&#45;&gt;Node8</title>
<g id="a_edge7_Node000001_Node000008"><a xlink:title=" ">
<path fill="none" stroke="#63b8ff" d="M454.07,-111.59C468.88,-103.44 490.57,-91.48 507.77,-82"/>
<polygon fill="#63b8ff" stroke="#63b8ff" points="509.4,-85.1 516.47,-77.21 506.02,-78.97 509.4,-85.1"/>
</a>
</g>
</g>
<!-- Node9 -->
<g id="Node000009" class="node">
<title>Node9</title>
<g id="a_Node000009"><a xlink:title=" ">
<polygon fill="#e0e0e0" stroke="#999999" points="698.88,-76 607.12,-76 607.12,-56 698.88,-56 698.88,-76"/>
<text text-anchor="middle" x="653" y="-62.5" font-family="Arial" font-size="10.00">QtSql/QSqlQuery</text>
</a>
</g>
</g>
<!-- Node1&#45;&gt;Node9 -->
<g id="edge8_Node000001_Node000009" class="edge">
<title>Node1&#45;&gt;Node9</title>
<g id="a_edge8_Node000001_Node000009"><a xlink:title=" ">
<path fill="none" stroke="#63b8ff" d="M474.62,-111.59C510.49,-102.63 564.69,-89.08 603.93,-79.27"/>
<polygon fill="#63b8ff" stroke="#63b8ff" points="604.76,-82.67 613.61,-76.85 603.06,-75.88 604.76,-82.67"/>
</a>
</g>
</g>
<!-- Node10 -->
<g id="Node000010" class="node">
<title>Node10</title>
<g id="a_Node000010"><a xlink:title=" ">
<polygon fill="#e0e0e0" stroke="#999999" points="803.25,-76 716.75,-76 716.75,-56 803.25,-56 803.25,-76"/>
<text text-anchor="middle" x="760" y="-62.5" font-family="Arial" font-size="10.00">QtSql/QSqlError</text>
</a>
</g>
</g>
<!-- Node1&#45;&gt;Node10 -->
<g id="edge9_Node000001_Node000010" class="edge">
<title>Node1&#45;&gt;Node10</title>
<g id="a_edge9_Node000001_Node000010"><a xlink:title=" ">
<path fill="none" stroke="#63b8ff" d="M492.29,-111.93C544.61,-103.33 625.67,-89.93 705.11,-76.48"/>
<polygon fill="#63b8ff" stroke="#63b8ff" points="705.54,-79.96 714.82,-74.84 704.37,-73.06 705.54,-79.96"/>
</a>
</g>
</g>
<!-- Node11 -->
<g id="Node000011" class="node">
<title>Node11</title>
<g id="a_Node000011"><a xlink:title=" ">
<polygon fill="#e0e0e0" stroke="#999999" points="928.75,-76 821.25,-76 821.25,-56 928.75,-56 928.75,-76"/>
<text text-anchor="middle" x="875" y="-62.5" font-family="Arial" font-size="10.00">QCryptographicHash</text>
</a>
</g>
</g>
<!-- Node1&#45;&gt;Node11 -->
<g id="edge10_Node000001_Node000011" class="edge">
<title>Node1&#45;&gt;Node11</title>
<g id="a_edge10_Node000001_Node000011"><a xlink:title=" ">
<path fill="none" stroke="#63b8ff" d="M492.33,-114.75C563.31,-106.65 690.55,-91.84 809.9,-76.25"/>
<polygon fill="#63b8ff" stroke="#63b8ff" points="810.09,-79.75 819.55,-74.98 809.18,-72.81 810.09,-79.75"/>
</a>
</g>
</g>
<!-- Node12 -->
<g id="Node000012" class="node">
<title>Node12</title>
<g id="a_Node000012"><a xlink:href="equationsolver_8h.html" target="_top" xlink:title="Решение уравнений итерационными методами">
<polygon fill="white" stroke="#666666" points="1033.62,-76 946.38,-76 946.38,-56 1033.62,-56 1033.62,-76"/>
<text text-anchor="middle" x="990" y="-62.5" font-family="Arial" font-size="10.00">equationsolver.h</text>
</a>
</g>
</g>
<!-- Node1&#45;&gt;Node12 -->
<g id="edge11_Node000001_Node000012" class="edge">
<title>Node1&#45;&gt;Node12</title>
<g id="a_edge11_Node000001_Node000012"><a xlink:title=" ">
<path fill="none" stroke="#63b8ff" d="M492.02,-117.54C582.44,-111.52 768.31,-97.8 935.11,-76.29"/>
<polygon fill="#63b8ff" stroke="#63b8ff" points="935.1,-79.82 944.56,-75.06 934.2,-72.88 935.1,-79.82"/>
</a>
</g>
</g>
<!-- Node13 -->
<g id="Node000013" class="node">
<title>Node13</title>
<g id="a_Node000013"><a xlink:title=" ">
<polygon fill="#e0e0e0" stroke="#999999" points="1014.5,-20 965.5,-20 965.5,0 1014.5,0 1014.5,-20"/>
<text text-anchor="middle" x="990" y="-6.5" font-family="Arial" font-size="10.00">QString</text>
</a>
</g>
</g>
<!-- Node12&#45;&gt;Node13 -->
<g id="edge12_Node000012_Node000013" class="edge">
<title>Node12&#45;&gt;Node13</title>
<g id="a_edge12_Node000012_Node000013"><a xlink:title=" ">
<path fill="none" stroke="#63b8ff" d="M990,-55.59C990,-49.01 990,-39.96 990,-31.73"/>
<polygon fill="#63b8ff" stroke="#63b8ff" points="993.5,-31.81 990,-21.81 986.5,-31.81 993.5,-31.81"/>
</a>
</g>
</g>
</g>
</svg>
