<?xml version="1.0" encoding="UTF-8" standalone="no"?>
<!DOCTYPE svg PUBLIC "-//W3C//DTD SVG 1.1//EN"
 "http://www.w3.org/Graphics/SVG/1.1/DTD/svg11.dtd">
<!-- Generated by graphviz version 12.2.1 (20241206.2353)
 -->
<!-- Title: ServerTests/testmytcpserver.h Pages: 1 -->
<svg width="265pt" height="108pt"
 viewBox="0.00 0.00 264.62 108.00" xmlns="http://www.w3.org/2000/svg" xmlns:xlink="http://www.w3.org/1999/xlink">
<g id="graph0" class="graph" transform="scale(1 1) rotate(0) translate(4 104)">
<title>ServerTests/testmytcpserver.h</title>
<!-- Node1 -->
<g id="Node000001" class="node">
<title>Node1</title>
<g id="a_Node000001"><a xlink:title="Описание класса для модульного тестирования функционала сервера TestMyTcpServer.">
<polygon fill="#999999" stroke="#666666" points="168.12,-100 17.88,-100 17.88,-80 168.12,-80 168.12,-100"/>
<text text-anchor="middle" x="93" y="-86.5" font-family="Arial" font-size="10.00">ServerTests/testmytcpserver.h</text>
</a>
</g>
</g>
<!-- Node2 -->
<g id="Node000002" class="node">
<title>Node2</title>
<g id="a_Node000002"><a xlink:title=" ">
<polygon fill="#e0e0e0" stroke="#999999" points="52,-32 0,-32 0,-12 52,-12 52,-32"/>
<text text-anchor="middle" x="26" y="-18.5" font-family="Arial" font-size="10.00">QObject</text>
</a>
</g>
</g>
<!-- Node1&#45;&gt;Node2 -->
<g id="edge1_Node000001_Node000002" class="edge">
<title>Node1&#45;&gt;Node2</title>
<g id="a_edge1_Node000001_Node000002"><a xlink:title=" ">
<path fill="none" stroke="#63b8ff" d="M83.4,-79.54C73.05,-69.35 56.35,-52.9 43.63,-40.37"/>
<polygon fill="#63b8ff" stroke="#63b8ff" points="46.24,-38.03 36.66,-33.5 41.33,-43.01 46.24,-38.03"/>
</a>
</g>
</g>
<!-- Node3 -->
<g id="Node000003" class="node">
<title>Node3</title>
<g id="a_Node000003"><a xlink:title=" ">
<polygon fill="#e0e0e0" stroke="#999999" points="115.62,-32 70.38,-32 70.38,-12 115.62,-12 115.62,-32"/>
<text text-anchor="middle" x="93" y="-18.5" font-family="Arial" font-size="10.00">QtTest</text>
</a>
</g>
</g>
<!-- Node1&#45;&gt;Node3 -->
<g id="edge2_Node000001_Node000003" class="edge">
<title>Node1&#45;&gt;Node3</title>
<g id="a_edge2_Node000001_Node000003"><a xlink:title=" ">
<path fill="none" stroke="#63b8ff" d="M93,-79.54C93,-70.23 93,-55.7 93,-43.7"/>
<polygon fill="#63b8ff" stroke="#63b8ff" points="96.5,-43.95 93,-33.95 89.5,-43.95 96.5,-43.95"/>
</a>
</g>
</g>
<!-- Node4 -->
<g id="Node000004" class="node">
<title>Node4</title>
<g id="a_Node000004"><a xlink:title=" ">
<polygon fill="#e0e0e0" stroke="#999999" points="256.62,-44 133.38,-44 133.38,0 256.62,0 256.62,-44"/>
<text text-anchor="start" x="141.38" y="-30.5" font-family="Arial" font-size="10.00">C:/Users/redmi/Desktop</text>
<text text-anchor="start" x="141.38" y="-18.5" font-family="Arial" font-size="10.00">/Tech_Prog_2025/Server</text>
<text text-anchor="middle" x="195" y="-6.5" font-family="Arial" font-size="10.00">/mytcpserver.h</text>
</a>
</g>
</g>
<!-- Node1&#45;&gt;Node4 -->
<g id="edge3_Node000001_Node000004" class="edge">
<title>Node1&#45;&gt;Node4</title>
<g id="a_edge3_Node000001_Node000004"><a xlink:title=" ">
<path fill="none" stroke="#63b8ff" d="M107.61,-79.54C119.4,-71.92 136.6,-60.79 152.63,-50.42"/>
<polygon fill="#63b8ff" stroke="#63b8ff" points="154.12,-53.62 160.61,-45.25 150.32,-47.74 154.12,-53.62"/>
</a>
</g>
</g>
</g>
</svg>
