<?xml version="1.0" encoding="UTF-8" standalone="no"?>
<!DOCTYPE svg PUBLIC "-//W3C//DTD SVG 1.1//EN"
 "http://www.w3.org/Graphics/SVG/1.1/DTD/svg11.dtd">
<!-- Generated by graphviz version 12.2.1 (20241206.2353)
 -->
<!-- Title: ServerTests/testmytcpserver.h Pages: 1 -->
<svg width="509pt" height="108pt"
 viewBox="0.00 0.00 508.88 108.00" xmlns="http://www.w3.org/2000/svg" xmlns:xlink="http://www.w3.org/1999/xlink">
<g id="graph0" class="graph" transform="scale(1 1) rotate(0) translate(4 104)">
<title>ServerTests/testmytcpserver.h</title>
<!-- Node1 -->
<g id="Node000001" class="node">
<title>Node1</title>
<g id="a_Node000001"><a xlink:title="Описание класса для модульного тестирования функционала сервера TestMyTcpServer.">
<polygon fill="#999999" stroke="#666666" points="341.62,-100 191.38,-100 191.38,-80 341.62,-80 341.62,-100"/>
<text text-anchor="middle" x="266.5" y="-86.5" font-family="Arial" font-size="10.00">ServerTests/testmytcpserver.h</text>
</a>
</g>
</g>
<!-- Node2 -->
<g id="Node000002" class="node">
<title>Node2</title>
<g id="a_Node000002"><a xlink:href="moc__testmytcpserver_8cpp.html" target="_top" xlink:title="Автоматически сгенерированный файл метаобъекта для класса TestMyTcpServer.">
<polygon fill="white" stroke="#666666" points="193,-44 0,-44 0,0 193,0 193,-44"/>
<text text-anchor="start" x="8" y="-30.5" font-family="Arial" font-size="10.00">ServerTests/build/Desktop</text>
<text text-anchor="start" x="8" y="-18.5" font-family="Arial" font-size="10.00">_Qt_6_8_2_MinGW_64_bit</text>
<text text-anchor="middle" x="96.5" y="-6.5" font-family="Arial" font-size="10.00">&#45;Debug/debug/moc_testmytcpserver.cpp</text>
</a>
</g>
</g>
<!-- Node1&#45;&gt;Node2 -->
<g id="edge1_Node000001_Node000002" class="edge">
<title>Node1&#45;&gt;Node2</title>
<g id="a_edge1_Node000001_Node000002"><a xlink:title=" ">
<path fill="none" stroke="#63b8ff" d="M231.51,-75.42C208.52,-66.49 177.94,-54.62 151.69,-44.43"/>
<polygon fill="#63b8ff" stroke="#63b8ff" points="230.14,-78.64 240.73,-79 232.68,-72.11 230.14,-78.64"/>
</a>
</g>
</g>
<!-- Node3 -->
<g id="Node000003" class="node">
<title>Node3</title>
<g id="a_Node000003"><a xlink:href="_server_tests_2main_8cpp.html" target="_top" xlink:title="Запуск модульного тестирования функционала сервера.">
<polygon fill="white" stroke="#666666" points="322.12,-32 210.88,-32 210.88,-12 322.12,-12 322.12,-32"/>
<text text-anchor="middle" x="266.5" y="-18.5" font-family="Arial" font-size="10.00">ServerTests/main.cpp</text>
</a>
</g>
</g>
<!-- Node1&#45;&gt;Node3 -->
<g id="edge2_Node000001_Node000003" class="edge">
<title>Node1&#45;&gt;Node3</title>
<g id="a_edge2_Node000001_Node000003"><a xlink:title=" ">
<path fill="none" stroke="#63b8ff" d="M266.5,-68.28C266.5,-56.27 266.5,-41.74 266.5,-32.44"/>
<polygon fill="#63b8ff" stroke="#63b8ff" points="263,-68.03 266.5,-78.03 270,-68.03 263,-68.03"/>
</a>
</g>
</g>
<!-- Node4 -->
<g id="Node000004" class="node">
<title>Node4</title>
<g id="a_Node000004"><a xlink:href="testmytcpserver_8cpp.html" target="_top" xlink:title="Реализация класса для модульного тестирования функционала сервера TestMyTcpServer.">
<polygon fill="white" stroke="#666666" points="500.88,-32 340.12,-32 340.12,-12 500.88,-12 500.88,-32"/>
<text text-anchor="middle" x="420.5" y="-18.5" font-family="Arial" font-size="10.00">ServerTests/testmytcpserver.cpp</text>
</a>
</g>
</g>
<!-- Node1&#45;&gt;Node4 -->
<g id="edge3_Node000001_Node000004" class="edge">
<title>Node1&#45;&gt;Node4</title>
<g id="a_edge3_Node000001_Node000004"><a xlink:title=" ">
<path fill="none" stroke="#63b8ff" d="M298.91,-75.11C328.81,-62.29 372.42,-43.61 398.48,-32.44"/>
<polygon fill="#63b8ff" stroke="#63b8ff" points="297.77,-71.79 289.96,-78.95 300.53,-78.23 297.77,-71.79"/>
</a>
</g>
</g>
</g>
</svg>
