<?xml version="1.0" encoding="UTF-8" standalone="no"?>
<!DOCTYPE svg PUBLIC "-//W3C//DTD SVG 1.1//EN"
 "http://www.w3.org/Graphics/SVG/1.1/DTD/svg11.dtd">
<!-- Generated by graphviz version 12.2.1 (20241206.2353)
 -->
<!-- Title: Tests/Test/Tests/tst_first.cpp Pages: 1 -->
<svg width="874pt" height="208pt"
 viewBox="0.00 0.00 873.88 208.00" xmlns="http://www.w3.org/2000/svg" xmlns:xlink="http://www.w3.org/1999/xlink">
<g id="graph0" class="graph" transform="scale(1 1) rotate(0) translate(4 204)">
<title>Tests/Test/Tests/tst_first.cpp</title>
<!-- Node1 -->
<g id="Node000001" class="node">
<title>Node1</title>
<g id="a_Node000001"><a xlink:title="Тестирование функционала окна HomeWindow.">
<polygon fill="#999999" stroke="#666666" points="268.12,-200 165.12,-200 165.12,-168 268.12,-168 268.12,-200"/>
<text text-anchor="start" x="173.12" y="-186.5" font-family="Arial" font-size="10.00">Tests/Test/Tests/tst</text>
<text text-anchor="middle" x="216.62" y="-174.5" font-family="Arial" font-size="10.00">_first.cpp</text>
</a>
</g>
</g>
<!-- Node2 -->
<g id="Node000002" class="node">
<title>Node2</title>
<g id="a_Node000002"><a xlink:title=" ">
<polygon fill="#e0e0e0" stroke="#999999" points="45.25,-132 0,-132 0,-112 45.25,-112 45.25,-132"/>
<text text-anchor="middle" x="22.62" y="-118.5" font-family="Arial" font-size="10.00">QtTest</text>
</a>
</g>
</g>
<!-- Node1&#45;&gt;Node2 -->
<g id="edge1_Node000001_Node000002" class="edge">
<title>Node1&#45;&gt;Node2</title>
<g id="a_edge1_Node000001_Node000002"><a xlink:title=" ">
<path fill="none" stroke="#63b8ff" d="M166.67,-167.55C132.12,-156.86 87.08,-142.93 56.63,-133.52"/>
<polygon fill="#63b8ff" stroke="#63b8ff" points="57.76,-130.2 47.17,-130.59 55.69,-136.89 57.76,-130.2"/>
</a>
</g>
</g>
<!-- Node3 -->
<g id="Node000003" class="node">
<title>Node3</title>
<g id="a_Node000003"><a xlink:title=" ">
<polygon fill="#e0e0e0" stroke="#999999" points="122,-132 63.25,-132 63.25,-112 122,-112 122,-132"/>
<text text-anchor="middle" x="92.62" y="-118.5" font-family="Arial" font-size="10.00">QLineEdit</text>
</a>
</g>
</g>
<!-- Node1&#45;&gt;Node3 -->
<g id="edge2_Node000001_Node000003" class="edge">
<title>Node1&#45;&gt;Node3</title>
<g id="a_edge2_Node000001_Node000003"><a xlink:title=" ">
<path fill="none" stroke="#63b8ff" d="M184.69,-167.55C165.5,-158.26 141.23,-146.52 122.43,-137.42"/>
<polygon fill="#63b8ff" stroke="#63b8ff" points="123.96,-134.27 113.43,-133.07 120.91,-140.57 123.96,-134.27"/>
</a>
</g>
</g>
<!-- Node4 -->
<g id="Node000004" class="node">
<title>Node4</title>
<g id="a_Node000004"><a xlink:title=" ">
<polygon fill="#e0e0e0" stroke="#999999" points="214.88,-132 140.38,-132 140.38,-112 214.88,-112 214.88,-132"/>
<text text-anchor="middle" x="177.62" y="-118.5" font-family="Arial" font-size="10.00">QPushButton</text>
</a>
</g>
</g>
<!-- Node1&#45;&gt;Node4 -->
<g id="edge3_Node000001_Node000004" class="edge">
<title>Node1&#45;&gt;Node4</title>
<g id="a_edge3_Node000001_Node000004"><a xlink:title=" ">
<path fill="none" stroke="#63b8ff" d="M206.58,-167.55C201.5,-159.74 195.3,-150.19 189.93,-141.94"/>
<polygon fill="#63b8ff" stroke="#63b8ff" points="192.95,-140.15 184.57,-133.68 187.08,-143.97 192.95,-140.15"/>
</a>
</g>
</g>
<!-- Node5 -->
<g id="Node000005" class="node">
<title>Node5</title>
<g id="a_Node000005"><a xlink:title=" ">
<polygon fill="#e0e0e0" stroke="#999999" points="280,-132 233.25,-132 233.25,-112 280,-112 280,-132"/>
<text text-anchor="middle" x="256.62" y="-118.5" font-family="Arial" font-size="10.00">QLabel</text>
</a>
</g>
</g>
<!-- Node1&#45;&gt;Node5 -->
<g id="edge4_Node000001_Node000005" class="edge">
<title>Node1&#45;&gt;Node5</title>
<g id="a_edge4_Node000001_Node000005"><a xlink:title=" ">
<path fill="none" stroke="#63b8ff" d="M226.93,-167.55C232.13,-159.74 238.5,-150.19 244,-141.94"/>
<polygon fill="#63b8ff" stroke="#63b8ff" points="246.88,-143.93 249.51,-133.67 241.05,-140.05 246.88,-143.93"/>
</a>
</g>
</g>
<!-- Node6 -->
<g id="Node000006" class="node">
<title>Node6</title>
<g id="a_Node000006"><a xlink:href="homewindow_8h.html" target="_top" xlink:title="Описание интерфейса главного окна (класс HomeWindow).">
<polygon fill="white" stroke="#666666" points="378.88,-132 298.38,-132 298.38,-112 378.88,-112 378.88,-132"/>
<text text-anchor="middle" x="338.62" y="-118.5" font-family="Arial" font-size="10.00">homewindow.h</text>
</a>
</g>
</g>
<!-- Node1&#45;&gt;Node6 -->
<g id="edge5_Node000001_Node000006" class="edge">
<title>Node1&#45;&gt;Node6</title>
<g id="a_edge5_Node000001_Node000006"><a xlink:title=" ">
<path fill="none" stroke="#63b8ff" d="M248.04,-167.55C266.93,-158.26 290.81,-146.52 309.3,-137.42"/>
<polygon fill="#63b8ff" stroke="#63b8ff" points="310.71,-140.63 318.14,-133.08 307.62,-134.35 310.71,-140.63"/>
</a>
</g>
</g>
<!-- Node18 -->
<g id="Node000018" class="node">
<title>Node18</title>
<g id="a_Node000018"><a xlink:title=" ">
<polygon fill="#e0e0e0" stroke="#999999" points="468,-132 397.25,-132 397.25,-112 468,-112 468,-132"/>
<text text-anchor="middle" x="432.62" y="-118.5" font-family="Arial" font-size="10.00">tst_first.moc</text>
</a>
</g>
</g>
<!-- Node1&#45;&gt;Node18 -->
<g id="edge17_Node000001_Node000018" class="edge">
<title>Node1&#45;&gt;Node18</title>
<g id="a_edge17_Node000001_Node000018"><a xlink:title=" ">
<path fill="none" stroke="#63b8ff" d="M268.36,-168.63C304.74,-158.52 352.93,-145.14 387.7,-135.48"/>
<polygon fill="#63b8ff" stroke="#63b8ff" points="388.32,-138.94 397.02,-132.89 386.45,-132.19 388.32,-138.94"/>
</a>
</g>
</g>
<!-- Node7 -->
<g id="Node000007" class="node">
<title>Node7</title>
<g id="a_Node000007"><a xlink:title=" ">
<polygon fill="#e0e0e0" stroke="#999999" points="200.5,-76 120.75,-76 120.75,-56 200.5,-56 200.5,-76"/>
<text text-anchor="middle" x="160.62" y="-62.5" font-family="Arial" font-size="10.00">QMainWindow</text>
</a>
</g>
</g>
<!-- Node6&#45;&gt;Node7 -->
<g id="edge6_Node000006_Node000007" class="edge">
<title>Node6&#45;&gt;Node7</title>
<g id="a_edge6_Node000006_Node000007"><a xlink:title=" ">
<path fill="none" stroke="#63b8ff" d="M307.62,-111.59C278.57,-102.78 234.93,-89.54 202.74,-79.78"/>
<polygon fill="#63b8ff" stroke="#63b8ff" points="203.91,-76.47 193.32,-76.92 201.87,-83.17 203.91,-76.47"/>
</a>
</g>
</g>
<!-- Node8 -->
<g id="Node000008" class="node">
<title>Node8</title>
<g id="a_Node000008"><a xlink:title=" ">
<polygon fill="#e0e0e0" stroke="#999999" points="298.88,-76 218.38,-76 218.38,-56 298.88,-56 298.88,-76"/>
<text text-anchor="middle" x="258.62" y="-62.5" font-family="Arial" font-size="10.00">QMessageBox</text>
</a>
</g>
</g>
<!-- Node6&#45;&gt;Node8 -->
<g id="edge7_Node000006_Node000008" class="edge">
<title>Node6&#45;&gt;Node8</title>
<g id="a_edge7_Node000006_Node000008"><a xlink:title=" ">
<path fill="none" stroke="#63b8ff" d="M324.69,-111.59C312.95,-103.67 295.89,-92.16 282.06,-82.82"/>
<polygon fill="#63b8ff" stroke="#63b8ff" points="284.17,-80.02 273.92,-77.33 280.25,-85.82 284.17,-80.02"/>
</a>
</g>
</g>
<!-- Node9 -->
<g id="Node000009" class="node">
<title>Node9</title>
<g id="a_Node000009"><a xlink:title=" ">
<polygon fill="#e0e0e0" stroke="#999999" points="360.12,-76 317.12,-76 317.12,-56 360.12,-56 360.12,-76"/>
<text text-anchor="middle" x="338.62" y="-62.5" font-family="Arial" font-size="10.00">cmath</text>
</a>
</g>
</g>
<!-- Node6&#45;&gt;Node9 -->
<g id="edge8_Node000006_Node000009" class="edge">
<title>Node6&#45;&gt;Node9</title>
<g id="a_edge8_Node000006_Node000009"><a xlink:title=" ">
<path fill="none" stroke="#63b8ff" d="M338.62,-111.59C338.62,-105.01 338.62,-95.96 338.62,-87.73"/>
<polygon fill="#63b8ff" stroke="#63b8ff" points="342.13,-87.81 338.63,-77.81 335.13,-87.81 342.13,-87.81"/>
</a>
</g>
</g>
<!-- Node10 -->
<g id="Node000010" class="node">
<title>Node10</title>
<g id="a_Node000010"><a xlink:href="equationsolver_8h.html" target="_top" xlink:title="Решение уравнений итерационными методами">
<polygon fill="white" stroke="#666666" points="465.25,-76 378,-76 378,-56 465.25,-56 465.25,-76"/>
<text text-anchor="middle" x="421.62" y="-62.5" font-family="Arial" font-size="10.00">equationsolver.h</text>
</a>
</g>
</g>
<!-- Node6&#45;&gt;Node10 -->
<g id="edge9_Node000006_Node000010" class="edge">
<title>Node6&#45;&gt;Node10</title>
<g id="a_edge9_Node000006_Node000010"><a xlink:title=" ">
<path fill="none" stroke="#63b8ff" d="M353.08,-111.59C365.38,-103.59 383.3,-91.93 397.73,-82.54"/>
<polygon fill="#63b8ff" stroke="#63b8ff" points="399.31,-85.69 405.79,-77.3 395.5,-79.82 399.31,-85.69"/>
</a>
</g>
</g>
<!-- Node12 -->
<g id="Node000012" class="node">
<title>Node12</title>
<g id="a_Node000012"><a xlink:href="clientmanager_8h.html" target="_top" xlink:title="Описание класса ClientManager, который управляет клиентским соединением с сервером.">
<polygon fill="white" stroke="#666666" points="639.12,-76 554.12,-76 554.12,-56 639.12,-56 639.12,-76"/>
<text text-anchor="middle" x="596.62" y="-62.5" font-family="Arial" font-size="10.00">clientmanager.h</text>
</a>
</g>
</g>
<!-- Node6&#45;&gt;Node12 -->
<g id="edge11_Node000006_Node000012" class="edge">
<title>Node6&#45;&gt;Node12</title>
<g id="a_edge11_Node000006_Node000012"><a xlink:title=" ">
<path fill="none" stroke="#63b8ff" d="M379.22,-112.5C423.32,-103.27 493.99,-88.48 542.72,-78.28"/>
<polygon fill="#63b8ff" stroke="#63b8ff" points="543.13,-81.77 552.21,-76.3 541.7,-74.92 543.13,-81.77"/>
</a>
</g>
</g>
<!-- Node11 -->
<g id="Node000011" class="node">
<title>Node11</title>
<g id="a_Node000011"><a xlink:title=" ">
<polygon fill="#e0e0e0" stroke="#999999" points="410.12,-20 361.12,-20 361.12,0 410.12,0 410.12,-20"/>
<text text-anchor="middle" x="385.62" y="-6.5" font-family="Arial" font-size="10.00">QString</text>
</a>
</g>
</g>
<!-- Node10&#45;&gt;Node11 -->
<g id="edge10_Node000010_Node000011" class="edge">
<title>Node10&#45;&gt;Node11</title>
<g id="a_edge10_Node000010_Node000011"><a xlink:title=" ">
<path fill="none" stroke="#63b8ff" d="M415.35,-55.59C410.61,-48.47 403.93,-38.45 398.1,-29.72"/>
<polygon fill="#63b8ff" stroke="#63b8ff" points="401.12,-27.94 392.66,-21.56 395.3,-31.82 401.12,-27.94"/>
</a>
</g>
</g>
<!-- Node13 -->
<g id="Node000013" class="node">
<title>Node13</title>
<g id="a_Node000013"><a xlink:title=" ">
<polygon fill="#e0e0e0" stroke="#999999" points="480.62,-20 428.62,-20 428.62,0 480.62,0 480.62,-20"/>
<text text-anchor="middle" x="454.62" y="-6.5" font-family="Arial" font-size="10.00">QObject</text>
</a>
</g>
</g>
<!-- Node12&#45;&gt;Node13 -->
<g id="edge12_Node000012_Node000013" class="edge">
<title>Node12&#45;&gt;Node13</title>
<g id="a_edge12_Node000012_Node000013"><a xlink:title=" ">
<path fill="none" stroke="#63b8ff" d="M571.89,-55.59C549.33,-47.01 515.72,-34.23 490.26,-24.55"/>
<polygon fill="#63b8ff" stroke="#63b8ff" points="491.56,-21.3 480.97,-21.02 489.07,-27.84 491.56,-21.3"/>
</a>
</g>
</g>
<!-- Node14 -->
<g id="Node000014" class="node">
<title>Node14</title>
<g id="a_Node000014"><a xlink:title=" ">
<polygon fill="#e0e0e0" stroke="#999999" points="568.62,-20 498.62,-20 498.62,0 568.62,0 568.62,-20"/>
<text text-anchor="middle" x="533.62" y="-6.5" font-family="Arial" font-size="10.00">QTcpSocket</text>
</a>
</g>
</g>
<!-- Node12&#45;&gt;Node14 -->
<g id="edge13_Node000012_Node000014" class="edge">
<title>Node12&#45;&gt;Node14</title>
<g id="a_edge13_Node000012_Node000014"><a xlink:title=" ">
<path fill="none" stroke="#63b8ff" d="M585.65,-55.59C576.71,-47.93 563.85,-36.91 553.16,-27.75"/>
<polygon fill="#63b8ff" stroke="#63b8ff" points="555.49,-25.13 545.62,-21.28 550.94,-30.45 555.49,-25.13"/>
</a>
</g>
</g>
<!-- Node15 -->
<g id="Node000015" class="node">
<title>Node15</title>
<g id="a_Node000015"><a xlink:title=" ">
<polygon fill="#e0e0e0" stroke="#999999" points="676.38,-20 586.88,-20 586.88,0 676.38,0 676.38,-20"/>
<text text-anchor="middle" x="631.62" y="-6.5" font-family="Arial" font-size="10.00">QJsonDocument</text>
</a>
</g>
</g>
<!-- Node12&#45;&gt;Node15 -->
<g id="edge14_Node000012_Node000015" class="edge">
<title>Node12&#45;&gt;Node15</title>
<g id="a_edge14_Node000012_Node000015"><a xlink:title=" ">
<path fill="none" stroke="#63b8ff" d="M602.72,-55.59C607.34,-48.47 613.83,-38.45 619.49,-29.72"/>
<polygon fill="#63b8ff" stroke="#63b8ff" points="622.27,-31.86 624.78,-21.57 616.4,-28.06 622.27,-31.86"/>
</a>
</g>
</g>
<!-- Node16 -->
<g id="Node000016" class="node">
<title>Node16</title>
<g id="a_Node000016"><a xlink:title=" ">
<polygon fill="#e0e0e0" stroke="#999999" points="767.12,-20 694.12,-20 694.12,0 767.12,0 767.12,-20"/>
<text text-anchor="middle" x="730.62" y="-6.5" font-family="Arial" font-size="10.00">QJsonObject</text>
</a>
</g>
</g>
<!-- Node12&#45;&gt;Node16 -->
<g id="edge15_Node000012_Node000016" class="edge">
<title>Node12&#45;&gt;Node16</title>
<g id="a_edge15_Node000012_Node000016"><a xlink:title=" ">
<path fill="none" stroke="#63b8ff" d="M619.97,-55.59C641.16,-47.05 672.69,-34.35 696.68,-24.68"/>
<polygon fill="#63b8ff" stroke="#63b8ff" points="697.73,-28.03 705.7,-21.05 695.11,-21.54 697.73,-28.03"/>
</a>
</g>
</g>
<!-- Node17 -->
<g id="Node000017" class="node">
<title>Node17</title>
<g id="a_Node000017"><a xlink:title=" ">
<polygon fill="#e0e0e0" stroke="#999999" points="865.88,-20 785.38,-20 785.38,0 865.88,0 865.88,-20"/>
<text text-anchor="middle" x="825.62" y="-6.5" font-family="Arial" font-size="10.00">QHostAddress</text>
</a>
</g>
</g>
<!-- Node12&#45;&gt;Node17 -->
<g id="edge16_Node000012_Node000017" class="edge">
<title>Node12&#45;&gt;Node17</title>
<g id="a_edge16_Node000012_Node000017"><a xlink:title=" ">
<path fill="none" stroke="#63b8ff" d="M636.78,-55.53C675.08,-46.5 732.95,-32.85 774.52,-23.05"/>
<polygon fill="#63b8ff" stroke="#63b8ff" points="775.12,-26.51 784.05,-20.8 773.51,-19.69 775.12,-26.51"/>
</a>
</g>
</g>
</g>
</svg>
