<?xml version="1.0" encoding="UTF-8" standalone="no"?>
<!DOCTYPE svg PUBLIC "-//W3C//DTD SVG 1.1//EN"
 "http://www.w3.org/Graphics/SVG/1.1/DTD/svg11.dtd">
<!-- Generated by graphviz version 12.2.1 (20241206.2353)
 -->
<!-- Title: Tests/Test/Tests/build/Desktop_Qt_5_15_16_static_MinGW_w64_MINGW64_MSYS2&#45;Debug/ui_homewindow.h Pages: 1 -->
<svg width="1712pt" height="120pt"
 viewBox="0.00 0.00 1711.88 120.00" xmlns="http://www.w3.org/2000/svg" xmlns:xlink="http://www.w3.org/1999/xlink">
<g id="graph0" class="graph" transform="scale(1 1) rotate(0) translate(4 116)">
<title>Tests/Test/Tests/build/Desktop_Qt_5_15_16_static_MinGW_w64_MINGW64_MSYS2&#45;Debug/ui_homewindow.h</title>
<!-- Node1 -->
<g id="Node000001" class="node">
<title>Node1</title>
<g id="a_Node000001"><a xlink:title="Заголовочный файл, содержащий описание пользовательского интерфейса главного окна приложения">
<polygon fill="#999999" stroke="#666666" points="914.12,-112 745.88,-112 745.88,-56 914.12,-56 914.12,-112"/>
<text text-anchor="start" x="753.88" y="-98.5" font-family="Arial" font-size="10.00">Tests/Test/Tests/build</text>
<text text-anchor="start" x="753.88" y="-86.5" font-family="Arial" font-size="10.00">/Desktop_Qt_5_15_16_static</text>
<text text-anchor="start" x="753.88" y="-74.5" font-family="Arial" font-size="10.00">_MinGW_w64_MINGW64_MSYS2</text>
<text text-anchor="middle" x="830" y="-62.5" font-family="Arial" font-size="10.00">&#45;Debug/ui_homewindow.h</text>
</a>
</g>
</g>
<!-- Node2 -->
<g id="Node000002" class="node">
<title>Node2</title>
<g id="a_Node000002"><a xlink:title=" ">
<polygon fill="#e0e0e0" stroke="#999999" points="88,-20 0,-20 0,0 88,0 88,-20"/>
<text text-anchor="middle" x="44" y="-6.5" font-family="Arial" font-size="10.00">QtCore/QVariant</text>
</a>
</g>
</g>
<!-- Node1&#45;&gt;Node2 -->
<g id="edge1_Node000001_Node000002" class="edge">
<title>Node1&#45;&gt;Node2</title>
<g id="a_edge1_Node000001_Node000002"><a xlink:title=" ">
<path fill="none" stroke="#63b8ff" d="M745.38,-78C610.82,-69.55 339.56,-50.47 99.88,-20.28"/>
<polygon fill="#63b8ff" stroke="#63b8ff" points="100.36,-16.81 89.99,-19.02 99.47,-23.75 100.36,-16.81"/>
</a>
</g>
</g>
<!-- Node3 -->
<g id="Node000003" class="node">
<title>Node3</title>
<g id="a_Node000003"><a xlink:title=" ">
<polygon fill="#e0e0e0" stroke="#999999" points="227.5,-20 106.5,-20 106.5,0 227.5,0 227.5,-20"/>
<text text-anchor="middle" x="167" y="-6.5" font-family="Arial" font-size="10.00">QtWidgets/QApplication</text>
</a>
</g>
</g>
<!-- Node1&#45;&gt;Node3 -->
<g id="edge2_Node000001_Node000003" class="edge">
<title>Node1&#45;&gt;Node3</title>
<g id="a_edge2_Node000001_Node000003"><a xlink:title=" ">
<path fill="none" stroke="#63b8ff" d="M745.82,-74.72C632.95,-63.46 426.01,-42.33 239.36,-20.38"/>
<polygon fill="#63b8ff" stroke="#63b8ff" points="239.79,-16.9 229.45,-19.21 238.97,-23.85 239.79,-16.9"/>
</a>
</g>
</g>
<!-- Node4 -->
<g id="Node000004" class="node">
<title>Node4</title>
<g id="a_Node000004"><a xlink:title=" ">
<polygon fill="#e0e0e0" stroke="#999999" points="366.88,-20 245.12,-20 245.12,0 366.88,0 366.88,-20"/>
<text text-anchor="middle" x="306" y="-6.5" font-family="Arial" font-size="10.00">QtWidgets/QComboBox</text>
</a>
</g>
</g>
<!-- Node1&#45;&gt;Node4 -->
<g id="edge3_Node000001_Node000004" class="edge">
<title>Node1&#45;&gt;Node4</title>
<g id="a_edge3_Node000001_Node000004"><a xlink:title=" ">
<path fill="none" stroke="#63b8ff" d="M745.52,-71.39C643.85,-57.42 474.84,-34.2 378.72,-20.99"/>
<polygon fill="#63b8ff" stroke="#63b8ff" points="379.26,-17.53 368.87,-19.64 378.3,-24.47 379.26,-17.53"/>
</a>
</g>
</g>
<!-- Node5 -->
<g id="Node000005" class="node">
<title>Node5</title>
<g id="a_Node000005"><a xlink:title=" ">
<polygon fill="#e0e0e0" stroke="#999999" points="509.38,-20 384.62,-20 384.62,0 509.38,0 509.38,-20"/>
<text text-anchor="middle" x="447" y="-6.5" font-family="Arial" font-size="10.00">QtWidgets/QFormLayout</text>
</a>
</g>
</g>
<!-- Node1&#45;&gt;Node5 -->
<g id="edge4_Node000001_Node000005" class="edge">
<title>Node1&#45;&gt;Node5</title>
<g id="a_edge4_Node000001_Node000005"><a xlink:title=" ">
<path fill="none" stroke="#63b8ff" d="M745.47,-67.11C673.78,-53.63 572.63,-34.62 508.44,-22.55"/>
<polygon fill="#63b8ff" stroke="#63b8ff" points="509.25,-19.14 498.78,-20.73 507.96,-26.02 509.25,-19.14"/>
</a>
</g>
</g>
<!-- Node6 -->
<g id="Node000006" class="node">
<title>Node6</title>
<g id="a_Node000006"><a xlink:title=" ">
<polygon fill="#e0e0e0" stroke="#999999" points="644.25,-20 527.75,-20 527.75,0 644.25,0 644.25,-20"/>
<text text-anchor="middle" x="586" y="-6.5" font-family="Arial" font-size="10.00">QtWidgets/QGroupBox</text>
</a>
</g>
</g>
<!-- Node1&#45;&gt;Node6 -->
<g id="edge5_Node000001_Node000006" class="edge">
<title>Node1&#45;&gt;Node6</title>
<g id="a_edge5_Node000001_Node000006"><a xlink:title=" ">
<path fill="none" stroke="#63b8ff" d="M745.69,-58.12C706.26,-46.49 661,-33.13 628.76,-23.62"/>
<polygon fill="#63b8ff" stroke="#63b8ff" points="629.96,-20.32 619.38,-20.85 627.98,-27.04 629.96,-20.32"/>
</a>
</g>
</g>
<!-- Node7 -->
<g id="Node000007" class="node">
<title>Node7</title>
<g id="a_Node000007"><a xlink:title=" ">
<polygon fill="#e0e0e0" stroke="#999999" points="758.12,-20 661.88,-20 661.88,0 758.12,0 758.12,-20"/>
<text text-anchor="middle" x="710" y="-6.5" font-family="Arial" font-size="10.00">QtWidgets/QLabel</text>
</a>
</g>
</g>
<!-- Node1&#45;&gt;Node7 -->
<g id="edge6_Node000001_Node000007" class="edge">
<title>Node1&#45;&gt;Node7</title>
<g id="a_edge6_Node000001_Node000007"><a xlink:title=" ">
<path fill="none" stroke="#63b8ff" d="M784.29,-55.57C767.66,-45.6 749.48,-34.69 735.26,-26.16"/>
<polygon fill="#63b8ff" stroke="#63b8ff" points="737.37,-23.34 726.99,-21.19 733.76,-29.34 737.37,-23.34"/>
</a>
</g>
</g>
<!-- Node8 -->
<g id="Node000008" class="node">
<title>Node8</title>
<g id="a_Node000008"><a xlink:title=" ">
<polygon fill="#e0e0e0" stroke="#999999" points="884.12,-20 775.88,-20 775.88,0 884.12,0 884.12,-20"/>
<text text-anchor="middle" x="830" y="-6.5" font-family="Arial" font-size="10.00">QtWidgets/QLineEdit</text>
</a>
</g>
</g>
<!-- Node1&#45;&gt;Node8 -->
<g id="edge7_Node000001_Node000008" class="edge">
<title>Node1&#45;&gt;Node8</title>
<g id="a_edge7_Node000001_Node000008"><a xlink:title=" ">
<path fill="none" stroke="#63b8ff" d="M830,-55.78C830,-47.82 830,-39.25 830,-31.76"/>
<polygon fill="#63b8ff" stroke="#63b8ff" points="833.5,-31.99 830,-21.99 826.5,-31.99 833.5,-31.99"/>
</a>
</g>
</g>
<!-- Node9 -->
<g id="Node000009" class="node">
<title>Node9</title>
<g id="a_Node000009"><a xlink:title=" ">
<polygon fill="#e0e0e0" stroke="#999999" points="1031.62,-20 902.38,-20 902.38,0 1031.62,0 1031.62,-20"/>
<text text-anchor="middle" x="967" y="-6.5" font-family="Arial" font-size="10.00">QtWidgets/QMainWindow</text>
</a>
</g>
</g>
<!-- Node1&#45;&gt;Node9 -->
<g id="edge8_Node000001_Node000009" class="edge">
<title>Node1&#45;&gt;Node9</title>
<g id="a_edge8_Node000001_Node000009"><a xlink:title=" ">
<path fill="none" stroke="#63b8ff" d="M882.18,-55.57C901.54,-45.4 922.74,-34.26 939.1,-25.66"/>
<polygon fill="#63b8ff" stroke="#63b8ff" points="940.52,-28.87 947.75,-21.12 937.27,-22.67 940.52,-28.87"/>
</a>
</g>
</g>
<!-- Node10 -->
<g id="Node000010" class="node">
<title>Node10</title>
<g id="a_Node000010"><a xlink:title=" ">
<polygon fill="#e0e0e0" stroke="#999999" points="1162,-20 1050,-20 1050,0 1162,0 1162,-20"/>
<text text-anchor="middle" x="1106" y="-6.5" font-family="Arial" font-size="10.00">QtWidgets/QMenuBar</text>
</a>
</g>
</g>
<!-- Node1&#45;&gt;Node10 -->
<g id="edge9_Node000001_Node000010" class="edge">
<title>Node1&#45;&gt;Node10</title>
<g id="a_edge9_Node000001_Node000010"><a xlink:title=" ">
<path fill="none" stroke="#63b8ff" d="M914.31,-61.01C961.74,-48.63 1019.19,-33.65 1058.75,-23.32"/>
<polygon fill="#63b8ff" stroke="#63b8ff" points="1059.41,-26.77 1068.21,-20.86 1057.65,-20 1059.41,-26.77"/>
</a>
</g>
</g>
<!-- Node11 -->
<g id="Node000011" class="node">
<title>Node11</title>
<g id="a_Node000011"><a xlink:title=" ">
<polygon fill="#e0e0e0" stroke="#999999" points="1304,-20 1180,-20 1180,0 1304,0 1304,-20"/>
<text text-anchor="middle" x="1242" y="-6.5" font-family="Arial" font-size="10.00">QtWidgets/QPushButton</text>
</a>
</g>
</g>
<!-- Node1&#45;&gt;Node11 -->
<g id="edge10_Node000001_Node000011" class="edge">
<title>Node1&#45;&gt;Node11</title>
<g id="a_edge10_Node000001_Node000011"><a xlink:title=" ">
<path fill="none" stroke="#63b8ff" d="M914.37,-68.26C992.14,-54.67 1105.93,-34.78 1176.9,-22.38"/>
<polygon fill="#63b8ff" stroke="#63b8ff" points="1177.17,-25.88 1186.42,-20.71 1175.96,-18.99 1177.17,-25.88"/>
</a>
</g>
</g>
<!-- Node12 -->
<g id="Node000012" class="node">
<title>Node12</title>
<g id="a_Node000012"><a xlink:title=" ">
<polygon fill="#e0e0e0" stroke="#999999" points="1438.25,-20 1321.75,-20 1321.75,0 1438.25,0 1438.25,-20"/>
<text text-anchor="middle" x="1380" y="-6.5" font-family="Arial" font-size="10.00">QtWidgets/QStatusBar</text>
</a>
</g>
</g>
<!-- Node1&#45;&gt;Node12 -->
<g id="edge11_Node000001_Node000012" class="edge">
<title>Node1&#45;&gt;Node12</title>
<g id="a_edge11_Node000001_Node000012"><a xlink:title=" ">
<path fill="none" stroke="#63b8ff" d="M914.21,-72.12C1008.15,-59.95 1164.99,-39.57 1310.21,-20.37"/>
<polygon fill="#63b8ff" stroke="#63b8ff" points="1310.58,-23.85 1320.04,-19.07 1309.66,-16.91 1310.58,-23.85"/>
</a>
</g>
</g>
<!-- Node13 -->
<g id="Node000013" class="node">
<title>Node13</title>
<g id="a_Node000013"><a xlink:title=" ">
<polygon fill="#e0e0e0" stroke="#999999" points="1582.12,-20 1455.88,-20 1455.88,0 1582.12,0 1582.12,-20"/>
<text text-anchor="middle" x="1519" y="-6.5" font-family="Arial" font-size="10.00">QtWidgets/QVBoxLayout</text>
</a>
</g>
</g>
<!-- Node1&#45;&gt;Node13 -->
<g id="edge12_Node000001_Node000013" class="edge">
<title>Node1&#45;&gt;Node13</title>
<g id="a_edge12_Node000001_Node000013"><a xlink:title=" ">
<path fill="none" stroke="#63b8ff" d="M914.4,-74.99C1031.02,-63.79 1248.35,-42.43 1444.04,-20.32"/>
<polygon fill="#63b8ff" stroke="#63b8ff" points="1444.36,-23.8 1453.9,-19.2 1443.57,-16.85 1444.36,-23.8"/>
</a>
</g>
</g>
<!-- Node14 -->
<g id="Node000014" class="node">
<title>Node14</title>
<g id="a_Node000014"><a xlink:title=" ">
<polygon fill="#e0e0e0" stroke="#999999" points="1703.88,-20 1600.12,-20 1600.12,0 1703.88,0 1703.88,-20"/>
<text text-anchor="middle" x="1652" y="-6.5" font-family="Arial" font-size="10.00">QtWidgets/QWidget</text>
</a>
</g>
</g>
<!-- Node1&#45;&gt;Node14 -->
<g id="edge13_Node000001_Node000014" class="edge">
<title>Node1&#45;&gt;Node14</title>
<g id="a_edge13_Node000001_Node000014"><a xlink:title=" ">
<path fill="none" stroke="#63b8ff" d="M914.35,-77.78C1052.86,-68.83 1337.38,-48.8 1588.6,-20.21"/>
<polygon fill="#63b8ff" stroke="#63b8ff" points="1588.75,-23.72 1598.28,-19.1 1587.95,-16.76 1588.75,-23.72"/>
</a>
</g>
</g>
</g>
</svg>
